<svg baseProfile="full" height="740" version="1.1" width="870" xmlns="http://www.w3.org/2000/svg" xmlns:ev="http://www.w3.org/2001/xml-events" xmlns:xlink="http://www.w3.org/1999/xlink"><style type="text/css">svg { font-family: Arial; font-size: 8pt; }</style><g transform="translate(10,10)"><g><line stroke-dasharray="8" stroke="red" stroke-width="1" opacity="0.25" x1="-4" y1="0" x2="-4" y2="740">
<title>2021-01-01</title>
</line><g transform="translate(4,635)"><g transform="rotate(-45)"><text x="0" y="0">2021-01-01</text>
</g></g><line stroke-dasharray="8" stroke="black" stroke-width="1" opacity="0.25" x1="58" y1="0" x2="58" y2="740">
<title>2021-02-01</title>
</line><g transform="translate(66,635)"><g transform="rotate(-45)"><text x="0" y="0">2021-02-01</text>
</g></g><line stroke-dasharray="8" stroke="black" stroke-width="1" opacity="0.25" x1="114" y1="0" x2="114" y2="740">
<title>2021-03-01</title>
</line><g transform="translate(122,635)"><g transform="rotate(-45)"><text x="0" y="0">2021-03-01</text>
</g></g><line stroke-dasharray="8" stroke="black" stroke-width="1" opacity="0.25" x1="176" y1="0" x2="176" y2="740">
<title>2021-04-01</title>
</line><g transform="translate(184,635)"><g transform="rotate(-45)"><text x="0" y="0">2021-04-01</text>
</g></g><line stroke-dasharray="8" stroke="black" stroke-width="1" opacity="0.25" x1="236" y1="0" x2="236" y2="740">
<title>2021-05-01</title>
</line><g transform="translate(244,635)"><g transform="rotate(-45)"><text x="0" y="0">2021-05-01</text>
</g></g><line stroke-dasharray="8" stroke="black" stroke-width="1" opacity="0.25" x1="298" y1="0" x2="298" y2="740">
<title>2021-06-01</title>
</line><g transform="translate(306,635)"><g transform="rotate(-45)"><text x="0" y="0">2021-06-01</text>
</g></g><line stroke-dasharray="8" stroke="black" stroke-width="1" opacity="0.25" x1="358" y1="0" x2="358" y2="740">
<title>2021-07-01</title>
</line><g transform="translate(366,635)"><g transform="rotate(-45)"><text x="0" y="0">2021-07-01</text>
</g></g><line stroke-dasharray="8" stroke="black" stroke-width="1" opacity="0.25" x1="420" y1="0" x2="420" y2="740">
<title>2021-08-01</title>
</line><g transform="translate(428,635)"><g transform="rotate(-45)"><text x="0" y="0">2021-08-01</text>
</g></g><line stroke-dasharray="8" stroke="black" stroke-width="1" opacity="0.25" x1="482" y1="0" x2="482" y2="740">
<title>2021-09-01</title>
</line><g transform="translate(490,635)"><g transform="rotate(-45)"><text x="0" y="0">2021-09-01</text>
</g></g><line stroke-dasharray="8" stroke="black" stroke-width="1" opacity="0.25" x1="542" y1="0" x2="542" y2="740">
<title>2021-10-01</title>
</line><g transform="translate(550,635)"><g transform="rotate(-45)"><text x="0" y="0">2021-10-01</text>
</g></g><line stroke-dasharray="8" stroke="black" stroke-width="1" opacity="0.25" x1="604" y1="0" x2="604" y2="740">
<title>2021-11-01</title>
</line><g transform="translate(612,635)"><g transform="rotate(-45)"><text x="0" y="0">2021-11-01</text>
</g></g><line stroke-dasharray="8" stroke="black" stroke-width="1" opacity="0.25" x1="664" y1="0" x2="664" y2="740">
<title>2021-12-01</title>
</line><g transform="translate(672,635)"><g transform="rotate(-45)"><text x="0" y="0">2021-12-01</text>
</g></g><line stroke-dasharray="8" stroke="red" stroke-width="1" opacity="0.25" x1="726" y1="0" x2="726" y2="740">
<title>2022-01-01</title>
</line><g transform="translate(734,635)"><g transform="rotate(-45)"><text x="0" y="0">2022-01-01</text>
</g></g><line stroke-dasharray="8" stroke="black" stroke-width="1" opacity="0.25" x1="788" y1="0" x2="788" y2="740">
<title>2022-02-01</title>
</line><g transform="translate(796,635)"><g transform="rotate(-45)"><text x="0" y="0">2022-02-01</text>
</g></g><line stroke="red" stroke-width=".5" x1="826" y1="0" x2="826" y2="740"/>
</g><line stroke-dasharray="2" stroke="black" stroke-width=".5" x1="0" y1="730" x2="870" y2="730"/>
<line stroke-dasharray="2" stroke="black" stroke-width=".5" x1="0" y1="700" x2="870" y2="700"/>
<line stroke-dasharray="2" stroke="black" stroke-width=".5" x1="0" y1="685" x2="870" y2="685"/>
<line stroke-dasharray="2" stroke="black" stroke-width=".5" x1="0" y1="670" x2="870" y2="670"/>
<line stroke-dasharray="2" stroke="black" stroke-width=".5" x1="0" y1="640" x2="870" y2="640"/>
<g><rect fill="#aaaaff" opacity=".75" x="0" y="0" height="16" width="772" rx="2">
<title>Season 2021 (2021-01-04 .. 2022-01-24)  Targets Same volume like last season defined Highlights Bicycle Run Rules Regeneration Differenciation Type Intensity Distance Units Bicycle BB - Basics BI - Intensity BS - Speed BC - Compensation Run RB - Basics RI - Intensity RS - Speed RC - Compensation Strength, Force FB - Basics FI - Intensity FS - Speed Competition Bicycle Run</title>
</rect><text x="2" y="10">Season 2021</text>
<g><rect fill="#aaaaff" opacity=".75" x="0" y="24" height="16" width="112" rx="2">
<title>General Basics (2021-01-04 .. 2021-02-28)  Regeneration</title>
</rect><text x="2" y="34">General Basics</text>
<g><rect opacity=".75" stroke="red" stroke-width=".5" fill="#ffaaaa" x="0" y="48" height="16" width="14" rx="2">
<title>General Endurance (2021-01-04 .. 2021-01-10) </title>
</rect><rect opacity=".75" stroke="green" stroke-width=".5" fill="#aaffaa" x="1" y="699" height="31" width="12">
<title>General Endurance (2021-01-04 .. 2021-01-10)  31 min/d</title>
</rect></g><g><rect opacity=".75" stroke="red" stroke-width=".5" fill="#ffaaaa" x="14" y="72" height="16" width="14" rx="2">
<title>General Endurance (2021-01-11 .. 2021-01-17) </title>
</rect><rect opacity=".75" stroke="green" stroke-width=".5" fill="#aaffaa" x="15" y="699" height="31" width="12">
<title>General Endurance (2021-01-11 .. 2021-01-17)  31 min/d</title>
</rect></g><g><rect opacity=".75" stroke="red" stroke-width=".5" fill="#ffaaaa" x="28" y="96" height="16" width="14" rx="2">
<title>General Endurance (2021-01-18 .. 2021-01-24) </title>
</rect><rect opacity=".75" stroke="green" stroke-width=".5" fill="#aaffaa" x="29" y="697" height="33" width="12">
<title>General Endurance (2021-01-18 .. 2021-01-24)  33 min/d</title>
</rect></g><g><rect opacity=".75" stroke="red" stroke-width=".5" fill="#ffaaaa" x="42" y="120" height="16" width="14" rx="2">
<title>General Regeneration (2021-01-25 .. 2021-01-31) </title>
</rect><rect opacity=".75" stroke="green" stroke-width=".5" fill="#aaffaa" x="43" y="705" height="25" width="12">
<title>General Regeneration (2021-01-25 .. 2021-01-31)  25 min/d</title>
</rect></g><g><rect opacity=".75" stroke="red" stroke-width=".5" fill="#ffaaaa" x="56" y="144" height="16" width="14" rx="2">
<title>General Endurance (2021-02-01 .. 2021-02-07)  Nutrition ABC</title>
</rect><rect opacity=".75" stroke="green" stroke-width=".5" fill="#aaffaa" x="57" y="697" height="33" width="12">
<title>General Endurance (2021-02-01 .. 2021-02-07)  Nutrition ABC 33 min/d</title>
</rect></g><g><rect opacity=".75" stroke="red" stroke-width=".5" fill="#ffaaaa" x="70" y="168" height="16" width="14" rx="2">
<title>General Endurance (2021-02-08 .. 2021-02-14)  Nutrition ABC</title>
</rect><rect opacity=".75" stroke="green" stroke-width=".5" fill="#aaffaa" x="71" y="697" height="33" width="12">
<title>General Endurance (2021-02-08 .. 2021-02-14)  Nutrition ABC 33 min/d</title>
</rect></g><g><rect opacity=".75" stroke="red" stroke-width=".5" fill="#ffaaaa" x="84" y="192" height="16" width="14" rx="2">
<title>General Endurance (2021-02-15 .. 2021-02-21)  Nutrition ABC</title>
</rect><rect opacity=".75" stroke="green" stroke-width=".5" fill="#aaffaa" x="85" y="697" height="33" width="12">
<title>General Endurance (2021-02-15 .. 2021-02-21)  Nutrition ABC 33 min/d</title>
</rect></g><g><rect opacity=".75" stroke="red" stroke-width=".5" fill="#ffaaaa" x="98" y="216" height="16" width="14" rx="2">
<title>General Regeneration (2021-02-22 .. 2021-02-28) </title>
</rect><rect opacity=".75" stroke="green" stroke-width=".5" fill="#aaffaa" x="99" y="705" height="25" width="12">
<title>General Regeneration (2021-02-22 .. 2021-02-28)  25 min/d</title>
</rect></g><line stroke-dasharray="4" stroke="black" stroke-width=".5" x1="112" y1="24" x2="112" y2="240"/>
</g><g><rect fill="#aaaaff" opacity=".75" x="112" y="48" height="16" width="448" rx="2">
<title>Bicycle (2021-03-01 .. 2021-10-10) </title>
</rect><text x="114" y="58">Bicycle</text>
<g><rect fill="#aaaaff" opacity=".75" x="112" y="72" height="16" width="154" rx="2">
<title>Basics Endurance Bicycle (2021-03-01 .. 2021-05-16)  Weight, Metabolism, Nutrition 1000 km, switch to Racing bike</title>
</rect><text x="114" y="82">Basics Endurance Bicycle</text>
<g><rect opacity=".75" stroke="red" stroke-width=".5" fill="#ffaaaa" x="112" y="96" height="16" width="14" rx="2">
<title>Focus Bicycle (2021-03-01 .. 2021-03-07) </title>
</rect><rect opacity=".75" stroke="green" stroke-width=".5" fill="#aaffaa" x="113" y="695" height="35" width="12">
<title>Focus Bicycle (2021-03-01 .. 2021-03-07)  35 min/d</title>
</rect></g><g><rect opacity=".75" stroke="red" stroke-width=".5" fill="#ffaaaa" x="126" y="120" height="16" width="14" rx="2">
<title>Focus Bicycle (2021-03-08 .. 2021-03-14) </title>
</rect><rect opacity=".75" stroke="green" stroke-width=".5" fill="#aaffaa" x="127" y="695" height="35" width="12">
<title>Focus Bicycle (2021-03-08 .. 2021-03-14)  35 min/d</title>
</rect></g><g><rect opacity=".75" stroke="red" stroke-width=".5" fill="#ffaaaa" x="140" y="144" height="16" width="14" rx="2">
<title>Focus Bicycle (2021-03-15 .. 2021-03-21)  Test 5km Time trial</title>
</rect><rect opacity=".75" stroke="green" stroke-width=".5" fill="#aaffaa" x="141" y="689" height="41" width="12">
<title>Focus Bicycle (2021-03-15 .. 2021-03-21)  Test 5km Time trial 41 min/d</title>
</rect></g><g><rect opacity=".75" stroke="red" stroke-width=".5" fill="#ffaaaa" x="154" y="168" height="16" width="14" rx="2">
<title>General Regeneration (2021-03-22 .. 2021-03-28) </title>
</rect><rect opacity=".75" stroke="green" stroke-width=".5" fill="#aaffaa" x="155" y="705" height="25" width="12">
<title>General Regeneration (2021-03-22 .. 2021-03-28)  25 min/d</title>
</rect></g><g><rect opacity=".75" stroke="red" stroke-width=".5" fill="#ffaaaa" x="168" y="192" height="16" width="14" rx="2">
<title>Focus Bicycle (2021-03-29 .. 2021-04-04) </title>
</rect><rect opacity=".75" stroke="green" stroke-width=".5" fill="#aaffaa" x="169" y="689" height="41" width="12">
<title>Focus Bicycle (2021-03-29 .. 2021-04-04)  41 min/d</title>
</rect></g><g><rect opacity=".75" stroke="red" stroke-width=".5" fill="#ffaaaa" x="182" y="216" height="16" width="14" rx="2">
<title>Focus Bicycle (2021-04-05 .. 2021-04-11) </title>
</rect><rect opacity=".75" stroke="green" stroke-width=".5" fill="#aaffaa" x="183" y="689" height="41" width="12">
<title>Focus Bicycle (2021-04-05 .. 2021-04-11)  41 min/d</title>
</rect></g><g><rect opacity=".75" stroke="red" stroke-width=".5" fill="#ffaaaa" x="196" y="240" height="16" width="14" rx="2">
<title>Focus Bicycle (2021-04-12 .. 2021-04-18) </title>
</rect><rect opacity=".75" stroke="green" stroke-width=".5" fill="#aaffaa" x="197" y="689" height="41" width="12">
<title>Focus Bicycle (2021-04-12 .. 2021-04-18)  41 min/d</title>
</rect></g><g><rect opacity=".75" stroke="red" stroke-width=".5" fill="#ffaaaa" x="210" y="264" height="16" width="14" rx="2">
<title>General Regeneration (2021-04-19 .. 2021-04-25) </title>
</rect><rect opacity=".75" stroke="green" stroke-width=".5" fill="#aaffaa" x="211" y="705" height="25" width="12">
<title>General Regeneration (2021-04-19 .. 2021-04-25)  25 min/d</title>
</rect></g><g><rect opacity=".75" stroke="red" stroke-width=".5" fill="#ffaaaa" x="224" y="288" height="16" width="14" rx="2">
<title>Focus Bicycle (2021-04-26 .. 2021-05-02) </title>
</rect><rect opacity=".75" stroke="green" stroke-width=".5" fill="#aaffaa" x="225" y="681" height="49" width="12">
<title>Focus Bicycle (2021-04-26 .. 2021-05-02)  49 min/d</title>
</rect></g><g><rect opacity=".75" stroke="red" stroke-width=".5" fill="#ffaaaa" x="238" y="312" height="16" width="14" rx="2">
<title>Focus Bicycle (2021-05-03 .. 2021-05-09) </title>
</rect><rect opacity=".75" stroke="green" stroke-width=".5" fill="#aaffaa" x="239" y="681" height="49" width="12">
<title>Focus Bicycle (2021-05-03 .. 2021-05-09)  49 min/d</title>
</rect></g><g><rect opacity=".75" stroke="red" stroke-width=".5" fill="#ffaaaa" x="252" y="336" height="16" width="14" rx="2">
<title>General Regeneration (2021-05-10 .. 2021-05-16) </title>
</rect><rect opacity=".75" stroke="green" stroke-width=".5" fill="#aaffaa" x="253" y="705" height="25" width="12">
<title>General Regeneration (2021-05-10 .. 2021-05-16)  25 min/d</title>
</rect></g><line stroke-dasharray="4" stroke="black" stroke-width=".5" x1="266" y1="72" x2="266" y2="360"/>
</g><g><rect fill="#aaaaff" opacity=".75" x="266" y="96" height="16" width="84" rx="2">
<title>Buildup Bicycle Speed (2021-05-17 .. 2021-06-27)  Speed Trime Trial</title>
</rect><text x="268" y="106">Buildup Bicycle Speed</text>
<g><rect opacity=".75" stroke="red" stroke-width=".5" fill="#ffaaaa" x="266" y="120" height="16" width="14" rx="2">
<title>Focus Bicycle Speed (2021-05-17 .. 2021-05-23) </title>
</rect><rect opacity=".75" stroke="green" stroke-width=".5" fill="#aaffaa" x="267" y="695" height="35" width="12">
<title>Focus Bicycle Speed (2021-05-17 .. 2021-05-23)  35 min/d</title>
</rect></g><g><rect opacity=".75" stroke="red" stroke-width=".5" fill="#ffaaaa" x="280" y="144" height="16" width="14" rx="2">
<title>Focus Bicycle Speed (2021-05-24 .. 2021-05-30)  Test 5km Trime Trial</title>
</rect><rect opacity=".75" stroke="green" stroke-width=".5" fill="#aaffaa" x="281" y="695" height="35" width="12">
<title>Focus Bicycle Speed (2021-05-24 .. 2021-05-30)  Test 5km Trime Trial 35 min/d</title>
</rect></g><g><rect opacity=".75" stroke="red" stroke-width=".5" fill="#ffaaaa" x="294" y="168" height="16" width="14" rx="2">
<title>General Regeneration (2021-05-31 .. 2021-06-06) </title>
</rect><rect opacity=".75" stroke="green" stroke-width=".5" fill="#aaffaa" x="295" y="705" height="25" width="12">
<title>General Regeneration (2021-05-31 .. 2021-06-06)  25 min/d</title>
</rect></g><g><rect opacity=".75" stroke="red" stroke-width=".5" fill="#ffaaaa" x="308" y="192" height="16" width="14" rx="2">
<title>Focus Bicycle Speed (2021-06-07 .. 2021-06-13) </title>
</rect><rect opacity=".75" stroke="green" stroke-width=".5" fill="#aaffaa" x="309" y="695" height="35" width="12">
<title>Focus Bicycle Speed (2021-06-07 .. 2021-06-13)  35 min/d</title>
</rect></g><g><rect opacity=".75" stroke="red" stroke-width=".5" fill="#ffaaaa" x="322" y="216" height="16" width="14" rx="2">
<title>Focus Bicycle Speed (2021-06-14 .. 2021-06-20)  Test 5km Trime Trial</title>
</rect><rect opacity=".75" stroke="green" stroke-width=".5" fill="#aaffaa" x="323" y="695" height="35" width="12">
<title>Focus Bicycle Speed (2021-06-14 .. 2021-06-20)  Test 5km Trime Trial 35 min/d</title>
</rect></g><g><rect opacity=".75" stroke="red" stroke-width=".5" fill="#ffaaaa" x="336" y="240" height="16" width="14" rx="2">
<title>General Regeneration (2021-06-21 .. 2021-06-27) </title>
</rect><rect opacity=".75" stroke="green" stroke-width=".5" fill="#aaffaa" x="337" y="705" height="25" width="12">
<title>General Regeneration (2021-06-21 .. 2021-06-27)  25 min/d</title>
</rect></g><line stroke-dasharray="4" stroke="black" stroke-width=".5" x1="350" y1="96" x2="350" y2="264"/>
</g><g><rect fill="#aaaaff" opacity=".75" x="350" y="120" height="16" width="56" rx="2">
<title>Buildup Bicycle Force (2021-06-28 .. 2021-07-25)  Force uphill</title>
</rect><text x="352" y="130">Buildup Bicycle Force</text>
<g><rect opacity=".75" stroke="red" stroke-width=".5" fill="#ffaaaa" x="350" y="144" height="16" width="14" rx="2">
<title>Focus Bicycle Force (2021-06-28 .. 2021-07-04) </title>
</rect><rect opacity=".75" stroke="green" stroke-width=".5" fill="#aaffaa" x="351" y="691" height="39" width="12">
<title>Focus Bicycle Force (2021-06-28 .. 2021-07-04)  39 min/d</title>
</rect></g><g><rect opacity=".75" stroke="red" stroke-width=".5" fill="#ffaaaa" x="364" y="168" height="16" width="14" rx="2">
<title>Focus Bicycle Force (2021-07-05 .. 2021-07-11) </title>
</rect><rect opacity=".75" stroke="green" stroke-width=".5" fill="#aaffaa" x="365" y="691" height="39" width="12">
<title>Focus Bicycle Force (2021-07-05 .. 2021-07-11)  39 min/d</title>
</rect></g><g><rect opacity=".75" stroke="red" stroke-width=".5" fill="#ffaaaa" x="378" y="192" height="16" width="14" rx="2">
<title>General Regeneration (2021-07-12 .. 2021-07-18) </title>
</rect><rect opacity=".75" stroke="green" stroke-width=".5" fill="#aaffaa" x="379" y="705" height="25" width="12">
<title>General Regeneration (2021-07-12 .. 2021-07-18)  25 min/d</title>
</rect></g><g><rect opacity=".75" stroke="red" stroke-width=".5" fill="#ffaaaa" x="392" y="216" height="16" width="14" rx="2">
<title>Focus Bicycle Force (2021-07-19 .. 2021-07-25) </title>
</rect><rect opacity=".75" stroke="green" stroke-width=".5" fill="#aaffaa" x="393" y="691" height="39" width="12">
<title>Focus Bicycle Force (2021-07-19 .. 2021-07-25)  39 min/d</title>
</rect></g><line stroke-dasharray="4" stroke="black" stroke-width=".5" x1="406" y1="120" x2="406" y2="240"/>
</g><g><rect fill="#aaaaff" opacity=".75" x="406" y="144" height="16" width="42" rx="2">
<title>Buildup Bicycle Speed (2021-07-26 .. 2021-08-15) </title>
</rect><text x="408" y="154">Buildup Bicycle Speed</text>
<line stroke-dasharray="4" stroke="black" stroke-width=".5" x1="448" y1="144" x2="448" y2="168"/>
</g><g><rect opacity=".75" stroke="red" stroke-width=".5" fill="#ffaaaa" x="448" y="168" height="16" width="14" rx="2">
<title>Highlight Bicycle Mountain (2021-08-16 .. 2021-08-22) </title>
</rect><rect opacity=".75" stroke="green" stroke-width=".5" fill="#aaffaa" x="449" y="690" height="40" width="12">
<title>Highlight Bicycle Mountain (2021-08-16 .. 2021-08-22)  40 min/d</title>
</rect></g><g><rect fill="#aaaaff" opacity=".75" x="462" y="192" height="16" width="84" rx="2">
<title>Buildup Bicycle Speed (2021-08-23 .. 2021-10-03)  Speed Trime Trial</title>
</rect><text x="464" y="202">Buildup Bicycle Speed</text>
<g><rect opacity=".75" stroke="red" stroke-width=".5" fill="#ffaaaa" x="462" y="216" height="16" width="14" rx="2">
<title>Focus Bicycle Speed (2021-08-23 .. 2021-08-29) </title>
</rect><rect opacity=".75" stroke="green" stroke-width=".5" fill="#aaffaa" x="463" y="695" height="35" width="12">
<title>Focus Bicycle Speed (2021-08-23 .. 2021-08-29)  35 min/d</title>
</rect></g><g><rect opacity=".75" stroke="red" stroke-width=".5" fill="#ffaaaa" x="476" y="240" height="16" width="14" rx="2">
<title>Focus Bicycle Speed (2021-08-30 .. 2021-09-05)  Test 5km Trime Trial</title>
</rect><rect opacity=".75" stroke="green" stroke-width=".5" fill="#aaffaa" x="477" y="695" height="35" width="12">
<title>Focus Bicycle Speed (2021-08-30 .. 2021-09-05)  Test 5km Trime Trial 35 min/d</title>
</rect></g><g><rect opacity=".75" stroke="red" stroke-width=".5" fill="#ffaaaa" x="490" y="264" height="16" width="14" rx="2">
<title>General Regeneration (2021-09-06 .. 2021-09-12) </title>
</rect><rect opacity=".75" stroke="green" stroke-width=".5" fill="#aaffaa" x="491" y="705" height="25" width="12">
<title>General Regeneration (2021-09-06 .. 2021-09-12)  25 min/d</title>
</rect></g><g><rect opacity=".75" stroke="red" stroke-width=".5" fill="#ffaaaa" x="504" y="288" height="16" width="14" rx="2">
<title>Focus Bicycle Speed (2021-09-13 .. 2021-09-19) </title>
</rect><rect opacity=".75" stroke="green" stroke-width=".5" fill="#aaffaa" x="505" y="695" height="35" width="12">
<title>Focus Bicycle Speed (2021-09-13 .. 2021-09-19)  35 min/d</title>
</rect></g><g><rect opacity=".75" stroke="red" stroke-width=".5" fill="#ffaaaa" x="518" y="312" height="16" width="14" rx="2">
<title>Focus Bicycle Speed (2021-09-20 .. 2021-09-26)  Test 5km Trime Trial</title>
</rect><rect opacity=".75" stroke="green" stroke-width=".5" fill="#aaffaa" x="519" y="695" height="35" width="12">
<title>Focus Bicycle Speed (2021-09-20 .. 2021-09-26)  Test 5km Trime Trial 35 min/d</title>
</rect></g><g><rect opacity=".75" stroke="red" stroke-width=".5" fill="#ffaaaa" x="532" y="336" height="16" width="14" rx="2">
<title>General Regeneration (2021-09-27 .. 2021-10-03) </title>
</rect><rect opacity=".75" stroke="green" stroke-width=".5" fill="#aaffaa" x="533" y="705" height="25" width="12">
<title>General Regeneration (2021-09-27 .. 2021-10-03)  25 min/d</title>
</rect></g><line stroke-dasharray="4" stroke="black" stroke-width=".5" x1="546" y1="192" x2="546" y2="360"/>
</g><g><rect opacity=".75" stroke="red" stroke-width=".5" fill="#ffaaaa" x="546" y="216" height="16" width="14" rx="2">
<title>Highlight Bicycle Trime Trial (2021-10-04 .. 2021-10-10) </title>
</rect><rect opacity=".75" stroke="red" stroke-width=".5" fill="#ffaaaa" x="547" y="710" height="20" width="12">
<title>Highlight Bicycle Trime Trial (2021-10-04 .. 2021-10-10)  20 min/d</title>
</rect></g><line stroke-dasharray="4" stroke="black" stroke-width=".5" x1="560" y1="48" x2="560" y2="240"/>
</g><g><rect fill="#aaaaff" opacity=".75" x="560" y="72" height="16" width="212" rx="2">
<title>Running (2021-10-11 .. 2022-01-24)  Compensation swimming</title>
</rect><text x="562" y="82">Running</text>
<g><rect fill="#aaaaff" opacity=".75" x="560" y="96" height="16" width="84" rx="2">
<title>Specific Basics Running (2021-10-11 .. 2021-11-21)  Change of Focus</title>
</rect><text x="562" y="106">Specific Basics Running</text>
<g><rect opacity=".75" stroke="red" stroke-width=".5" fill="#ffaaaa" x="560" y="120" height="16" width="14" rx="2">
<title>Focus Running (2021-10-11 .. 2021-10-17) </title>
</rect><rect opacity=".75" stroke="green" stroke-width=".5" fill="#aaffaa" x="561" y="689" height="41" width="12">
<title>Focus Running (2021-10-11 .. 2021-10-17)  41 min/d</title>
</rect></g><g><rect opacity=".75" stroke="red" stroke-width=".5" fill="#ffaaaa" x="574" y="144" height="16" width="14" rx="2">
<title>Focus Running (2021-10-18 .. 2021-10-24)  Test 1000m speed run</title>
</rect><rect opacity=".75" stroke="green" stroke-width=".5" fill="#aaffaa" x="575" y="689" height="41" width="12">
<title>Focus Running (2021-10-18 .. 2021-10-24)  Test 1000m speed run 41 min/d</title>
</rect></g><g><rect opacity=".75" stroke="red" stroke-width=".5" fill="#ffaaaa" x="588" y="168" height="16" width="14" rx="2">
<title>General Regeneration (2021-10-25 .. 2021-10-31) </title>
</rect><rect opacity=".75" stroke="green" stroke-width=".5" fill="#aaffaa" x="589" y="705" height="25" width="12">
<title>General Regeneration (2021-10-25 .. 2021-10-31)  25 min/d</title>
</rect></g><g><rect opacity=".75" stroke="red" stroke-width=".5" fill="#ffaaaa" x="602" y="192" height="16" width="14" rx="2">
<title>Focus Running (2021-11-01 .. 2021-11-07) </title>
</rect><rect opacity=".75" stroke="green" stroke-width=".5" fill="#aaffaa" x="603" y="681" height="49" width="12">
<title>Focus Running (2021-11-01 .. 2021-11-07)  49 min/d</title>
</rect></g><g><rect opacity=".75" stroke="red" stroke-width=".5" fill="#ffaaaa" x="616" y="216" height="16" width="14" rx="2">
<title>Focus Running (2021-11-08 .. 2021-11-14)  Test 1000m speed run</title>
</rect><rect opacity=".75" stroke="green" stroke-width=".5" fill="#aaffaa" x="617" y="681" height="49" width="12">
<title>Focus Running (2021-11-08 .. 2021-11-14)  Test 1000m speed run 49 min/d</title>
</rect></g><g><rect opacity=".75" stroke="red" stroke-width=".5" fill="#ffaaaa" x="630" y="240" height="16" width="14" rx="2">
<title>General Regeneration (2021-11-15 .. 2021-11-21) </title>
</rect><rect opacity=".75" stroke="green" stroke-width=".5" fill="#aaffaa" x="631" y="705" height="25" width="12">
<title>General Regeneration (2021-11-15 .. 2021-11-21)  25 min/d</title>
</rect></g><line stroke-dasharray="4" stroke="black" stroke-width=".5" x1="644" y1="96" x2="644" y2="264"/>
</g><g><rect opacity=".75" stroke="red" stroke-width=".5" fill="#ffaaaa" x="644" y="120" height="16" width="14" rx="2">
<title>Highlight Running Distance (2021-11-22 .. 2021-11-28) </title>
</rect><rect opacity=".75" stroke="red" stroke-width=".5" fill="#ffaaaa" x="645" y="721" height="9" width="12">
<title>Highlight Running Distance (2021-11-22 .. 2021-11-28)  9 min/d</title>
</rect></g><g><rect opacity=".75" stroke="red" stroke-width=".5" fill="#ffaaaa" x="658" y="144" height="16" width="28" rx="2">
<title>Highlight Running Distance (2021-11-29 .. 2021-12-12) </title>
</rect><rect opacity=".75" stroke="red" stroke-width=".5" fill="red" x="659" y="728" height="2" width="26">
<title>Highlight Running Distance (2021-11-29 .. 2021-12-12)  2 min/d</title>
</rect></g><g><rect fill="#aaaaff" opacity=".75" x="686" y="168" height="16" width="42" rx="2">
<title>Buildup Running Speed (2021-12-13 .. 2022-01-02) </title>
</rect><text x="688" y="178">Buildup Running Speed</text>
<g><rect opacity=".75" stroke="red" stroke-width=".5" fill="#ffaaaa" x="686" y="192" height="16" width="14" rx="2">
<title>Focus Running (2021-12-13 .. 2021-12-19)  Test 1000m speed run</title>
</rect><rect opacity=".75" stroke="green" stroke-width=".5" fill="#aaffaa" x="687" y="689" height="41" width="12">
<title>Focus Running (2021-12-13 .. 2021-12-19)  Test 1000m speed run 41 min/d</title>
</rect></g><g><rect opacity=".75" stroke="red" stroke-width=".5" fill="#ffaaaa" x="700" y="216" height="16" width="14" rx="2">
<title>Focus Running (2021-12-20 .. 2021-12-26)  Test 1000m speed run</title>
</rect><rect opacity=".75" stroke="green" stroke-width=".5" fill="#aaffaa" x="701" y="689" height="41" width="12">
<title>Focus Running (2021-12-20 .. 2021-12-26)  Test 1000m speed run 41 min/d</title>
</rect></g><g><rect opacity=".75" stroke="red" stroke-width=".5" fill="#ffaaaa" x="714" y="240" height="16" width="14" rx="2">
<title>General Regeneration (2021-12-27 .. 2022-01-02) </title>
</rect><rect opacity=".75" stroke="green" stroke-width=".5" fill="#aaffaa" x="715" y="705" height="25" width="12">
<title>General Regeneration (2021-12-27 .. 2022-01-02)  25 min/d</title>
</rect></g><line stroke-dasharray="4" stroke="black" stroke-width=".5" x1="728" y1="168" x2="728" y2="264"/>
</g><g><rect fill="#aaaaff" opacity=".75" x="728" y="192" height="16" width="42" rx="2">
<title>Buildup Running Speed (2022-01-03 .. 2022-01-23) </title>
</rect><text x="730" y="202">Buildup Running Speed</text>
<g><rect opacity=".75" stroke="red" stroke-width=".5" fill="#ffaaaa" x="728" y="216" height="16" width="14" rx="2">
<title>Focus Running (2022-01-03 .. 2022-01-09)  Test 1000m speed run</title>
</rect><rect opacity=".75" stroke="green" stroke-width=".5" fill="#aaffaa" x="729" y="689" height="41" width="12">
<title>Focus Running (2022-01-03 .. 2022-01-09)  Test 1000m speed run 41 min/d</title>
</rect></g><g><rect opacity=".75" stroke="red" stroke-width=".5" fill="#ffaaaa" x="742" y="240" height="16" width="14" rx="2">
<title>Focus Running (2022-01-10 .. 2022-01-16)  Test 1000m speed run</title>
</rect><rect opacity=".75" stroke="green" stroke-width=".5" fill="#aaffaa" x="743" y="689" height="41" width="12">
<title>Focus Running (2022-01-10 .. 2022-01-16)  Test 1000m speed run 41 min/d</title>
</rect></g><g><rect opacity=".75" stroke="red" stroke-width=".5" fill="#ffaaaa" x="756" y="264" height="16" width="14" rx="2">
<title>General Regeneration (2022-01-17 .. 2022-01-23) </title>
</rect><rect opacity=".75" stroke="green" stroke-width=".5" fill="#aaffaa" x="757" y="705" height="25" width="12">
<title>General Regeneration (2022-01-17 .. 2022-01-23)  25 min/d</title>
</rect></g><line stroke-dasharray="4" stroke="black" stroke-width=".5" x1="770" y1="192" x2="770" y2="288"/>
</g><g><rect opacity=".75" stroke="red" stroke-width=".5" fill="#ffaaaa" x="770" y="216" height="16" width="2" rx="2">
<title>Highlight Running Competition (2022-01-24 .. 2022-01-24) </title>
</rect><rect opacity=".75" stroke="green" stroke-width=".5" fill="#aaffaa" x="771" y="695" height="35" width="0">
<title>Highlight Running Competition (2022-01-24 .. 2022-01-24)  35 min/d</title>
</rect></g><line stroke-dasharray="4" stroke="black" stroke-width=".5" x1="772" y1="72" x2="772" y2="240"/>
</g><line stroke-dasharray="4" stroke="black" stroke-width=".5" x1="772" y1="0" x2="772" y2="96"/>
</g></g></svg>
