<svg baseProfile="full" height="740" version="1.1" width="952" xmlns="http://www.w3.org/2000/svg" xmlns:ev="http://www.w3.org/2001/xml-events" xmlns:xlink="http://www.w3.org/1999/xlink"><style type="text/css">svg { font-family: Arial; font-size: 8pt; }</style><g transform="translate(10,10)"><g><line stroke-dasharray="8" stroke="red" stroke-width="1" opacity="0.25" x1="-4" y1="0" x2="-4" y2="740">
<title>2021-01-01</title>
</line><g transform="translate(4,635)"><g transform="rotate(-45)"><text x="0" y="0">2021-01-01</text>
</g></g><line stroke-dasharray="8" stroke="black" stroke-width="1" opacity="0.25" x1="58" y1="0" x2="58" y2="740">
<title>2021-02-01</title>
</line><g transform="translate(66,635)"><g transform="rotate(-45)"><text x="0" y="0">2021-02-01</text>
</g></g><line stroke-dasharray="8" stroke="black" stroke-width="1" opacity="0.25" x1="114" y1="0" x2="114" y2="740">
<title>2021-03-01</title>
</line><g transform="translate(122,635)"><g transform="rotate(-45)"><text x="0" y="0">2021-03-01</text>
</g></g><line stroke-dasharray="8" stroke="black" stroke-width="1" opacity="0.25" x1="176" y1="0" x2="176" y2="740">
<title>2021-04-01</title>
</line><g transform="translate(184,635)"><g transform="rotate(-45)"><text x="0" y="0">2021-04-01</text>
</g></g><line stroke-dasharray="8" stroke="black" stroke-width="1" opacity="0.25" x1="236" y1="0" x2="236" y2="740">
<title>2021-05-01</title>
</line><g transform="translate(244,635)"><g transform="rotate(-45)"><text x="0" y="0">2021-05-01</text>
</g></g><line stroke-dasharray="8" stroke="black" stroke-width="1" opacity="0.25" x1="298" y1="0" x2="298" y2="740">
<title>2021-06-01</title>
</line><g transform="translate(306,635)"><g transform="rotate(-45)"><text x="0" y="0">2021-06-01</text>
</g></g><line stroke-dasharray="8" stroke="black" stroke-width="1" opacity="0.25" x1="358" y1="0" x2="358" y2="740">
<title>2021-07-01</title>
</line><g transform="translate(366,635)"><g transform="rotate(-45)"><text x="0" y="0">2021-07-01</text>
</g></g><line stroke-dasharray="8" stroke="black" stroke-width="1" opacity="0.25" x1="420" y1="0" x2="420" y2="740">
<title>2021-08-01</title>
</line><g transform="translate(428,635)"><g transform="rotate(-45)"><text x="0" y="0">2021-08-01</text>
</g></g><line stroke-dasharray="8" stroke="black" stroke-width="1" opacity="0.25" x1="482" y1="0" x2="482" y2="740">
<title>2021-09-01</title>
</line><g transform="translate(490,635)"><g transform="rotate(-45)"><text x="0" y="0">2021-09-01</text>
</g></g><line stroke-dasharray="8" stroke="black" stroke-width="1" opacity="0.25" x1="542" y1="0" x2="542" y2="740">
<title>2021-10-01</title>
</line><g transform="translate(550,635)"><g transform="rotate(-45)"><text x="0" y="0">2021-10-01</text>
</g></g><line stroke-dasharray="8" stroke="black" stroke-width="1" opacity="0.25" x1="604" y1="0" x2="604" y2="740">
<title>2021-11-01</title>
</line><g transform="translate(612,635)"><g transform="rotate(-45)"><text x="0" y="0">2021-11-01</text>
</g></g><line stroke-dasharray="8" stroke="black" stroke-width="1" opacity="0.25" x1="664" y1="0" x2="664" y2="740">
<title>2021-12-01</title>
</line><g transform="translate(672,635)"><g transform="rotate(-45)"><text x="0" y="0">2021-12-01</text>
</g></g><line stroke-dasharray="8" stroke="red" stroke-width="1" opacity="0.25" x1="726" y1="0" x2="726" y2="740">
<title>2022-01-01</title>
</line><g transform="translate(734,635)"><g transform="rotate(-45)"><text x="0" y="0">2022-01-01</text>
</g></g><line stroke-dasharray="8" stroke="black" stroke-width="1" opacity="0.25" x1="788" y1="0" x2="788" y2="740">
<title>2022-02-01</title>
</line><g transform="translate(796,635)"><g transform="rotate(-45)"><text x="0" y="0">2022-02-01</text>
</g></g><line stroke-dasharray="8" stroke="black" stroke-width="1" opacity="0.25" x1="844" y1="0" x2="844" y2="740">
<title>2022-03-01</title>
</line><g transform="translate(852,635)"><g transform="rotate(-45)"><text x="0" y="0">2022-03-01</text>
</g></g><line stroke="red" stroke-width=".5" x1="826" y1="0" x2="826" y2="740"/>
</g><line stroke-dasharray="2" stroke="black" stroke-width=".5" x1="0" y1="730" x2="952" y2="730"/>
<line stroke-dasharray="2" stroke="black" stroke-width=".5" x1="0" y1="700" x2="952" y2="700"/>
<line stroke-dasharray="2" stroke="black" stroke-width=".5" x1="0" y1="685" x2="952" y2="685"/>
<line stroke-dasharray="2" stroke="black" stroke-width=".5" x1="0" y1="670" x2="952" y2="670"/>
<line stroke-dasharray="2" stroke="black" stroke-width=".5" x1="0" y1="640" x2="952" y2="640"/>
<g><rect fill="#aaaaff" opacity=".75" x="0" y="0" height="16" width="854" rx="2">
<title>Season Simple (2021-01-04 .. 2022-03-06)  Targets Same volume like last season defined Highlights Bicycle Run Rules Regeneration Differenciation Type Intensity Distance</title>
</rect><text x="2" y="10">Season Simple</text>
<g><rect fill="#aaaaff" opacity=".75" x="0" y="24" height="16" width="168" rx="2">
<title>General Basics (2021-01-04 .. 2021-03-28)  Regeneration</title>
</rect><text x="2" y="34">General Basics</text>
<g><rect opacity=".75" stroke="red" stroke-width=".5" fill="#ffaaaa" x="0" y="48" height="16" width="14" rx="2">
<title>General Endurance (2021-01-04 .. 2021-01-10) </title>
</rect><rect opacity=".75" stroke="green" stroke-width=".5" fill="#aaffaa" x="1" y="702" height="28" width="12">
<title>General Endurance (2021-01-04 .. 2021-01-10)  28 min/d</title>
</rect></g><g><rect opacity=".75" stroke="red" stroke-width=".5" fill="#ffaaaa" x="14" y="72" height="16" width="14" rx="2">
<title>General Endurance (2021-01-11 .. 2021-01-17) </title>
</rect><rect opacity=".75" stroke="green" stroke-width=".5" fill="#aaffaa" x="15" y="702" height="28" width="12">
<title>General Endurance (2021-01-11 .. 2021-01-17)  28 min/d</title>
</rect></g><g><rect opacity=".75" stroke="red" stroke-width=".5" fill="#ffaaaa" x="28" y="96" height="16" width="14" rx="2">
<title>General Endurance (2021-01-18 .. 2021-01-24) </title>
</rect><rect opacity=".75" stroke="green" stroke-width=".5" fill="#aaffaa" x="29" y="702" height="28" width="12">
<title>General Endurance (2021-01-18 .. 2021-01-24)  28 min/d</title>
</rect></g><g><rect opacity=".75" stroke="red" stroke-width=".5" fill="#ffaaaa" x="42" y="120" height="16" width="14" rx="2">
<title>General Regeneration (2021-01-25 .. 2021-01-31) </title>
</rect><rect opacity=".75" stroke="green" stroke-width=".5" fill="#aaffaa" x="43" y="705" height="25" width="12">
<title>General Regeneration (2021-01-25 .. 2021-01-31)  25 min/d</title>
</rect></g><g><rect opacity=".75" stroke="red" stroke-width=".5" fill="#ffaaaa" x="56" y="144" height="16" width="14" rx="2">
<title>General Endurance (2021-02-01 .. 2021-02-07) </title>
</rect><rect opacity=".75" stroke="green" stroke-width=".5" fill="#aaffaa" x="57" y="702" height="28" width="12">
<title>General Endurance (2021-02-01 .. 2021-02-07)  28 min/d</title>
</rect></g><g><rect opacity=".75" stroke="red" stroke-width=".5" fill="#ffaaaa" x="70" y="168" height="16" width="14" rx="2">
<title>General Endurance (2021-02-08 .. 2021-02-14) </title>
</rect><rect opacity=".75" stroke="green" stroke-width=".5" fill="#aaffaa" x="71" y="702" height="28" width="12">
<title>General Endurance (2021-02-08 .. 2021-02-14)  28 min/d</title>
</rect></g><g><rect opacity=".75" stroke="red" stroke-width=".5" fill="#ffaaaa" x="84" y="192" height="16" width="14" rx="2">
<title>General Endurance (2021-02-15 .. 2021-02-21) </title>
</rect><rect opacity=".75" stroke="green" stroke-width=".5" fill="#aaffaa" x="85" y="702" height="28" width="12">
<title>General Endurance (2021-02-15 .. 2021-02-21)  28 min/d</title>
</rect></g><g><rect opacity=".75" stroke="red" stroke-width=".5" fill="#ffaaaa" x="98" y="216" height="16" width="14" rx="2">
<title>General Regeneration (2021-02-22 .. 2021-02-28) </title>
</rect><rect opacity=".75" stroke="green" stroke-width=".5" fill="#aaffaa" x="99" y="705" height="25" width="12">
<title>General Regeneration (2021-02-22 .. 2021-02-28)  25 min/d</title>
</rect></g><g><rect opacity=".75" stroke="red" stroke-width=".5" fill="#ffaaaa" x="112" y="240" height="16" width="14" rx="2">
<title>General Endurance (2021-03-01 .. 2021-03-07) </title>
</rect><rect opacity=".75" stroke="green" stroke-width=".5" fill="#aaffaa" x="113" y="702" height="28" width="12">
<title>General Endurance (2021-03-01 .. 2021-03-07)  28 min/d</title>
</rect></g><g><rect opacity=".75" stroke="red" stroke-width=".5" fill="#ffaaaa" x="126" y="264" height="16" width="14" rx="2">
<title>General Endurance (2021-03-08 .. 2021-03-14) </title>
</rect><rect opacity=".75" stroke="green" stroke-width=".5" fill="#aaffaa" x="127" y="702" height="28" width="12">
<title>General Endurance (2021-03-08 .. 2021-03-14)  28 min/d</title>
</rect></g><g><rect opacity=".75" stroke="red" stroke-width=".5" fill="#ffaaaa" x="140" y="288" height="16" width="14" rx="2">
<title>General Endurance (2021-03-15 .. 2021-03-21) </title>
</rect><rect opacity=".75" stroke="green" stroke-width=".5" fill="#aaffaa" x="141" y="702" height="28" width="12">
<title>General Endurance (2021-03-15 .. 2021-03-21)  28 min/d</title>
</rect></g><g><rect opacity=".75" stroke="red" stroke-width=".5" fill="#ffaaaa" x="154" y="312" height="16" width="14" rx="2">
<title>General Regeneration (2021-03-22 .. 2021-03-28) </title>
</rect><rect opacity=".75" stroke="green" stroke-width=".5" fill="#aaffaa" x="155" y="705" height="25" width="12">
<title>General Regeneration (2021-03-22 .. 2021-03-28)  25 min/d</title>
</rect></g><line stroke-dasharray="4" stroke="black" stroke-width=".5" x1="168" y1="24" x2="168" y2="336"/>
</g><g><rect fill="#aaaaff" opacity=".75" x="168" y="48" height="16" width="462" rx="2">
<title>Bicycle (2021-03-29 .. 2021-11-14) </title>
</rect><text x="170" y="58">Bicycle</text>
<g><rect fill="#aaaaff" opacity=".75" x="168" y="72" height="16" width="154" rx="2">
<title>Basics Endurance Bicycle (2021-03-29 .. 2021-06-13)  Weight, Metabolism, Nutrition 1000 km, switch to Racing bike</title>
</rect><text x="170" y="82">Basics Endurance Bicycle</text>
<g><rect opacity=".75" stroke="red" stroke-width=".5" fill="#ffaaaa" x="168" y="96" height="16" width="14" rx="2">
<title>Focus Bicycle (2021-03-29 .. 2021-04-04) </title>
</rect><rect opacity=".75" stroke="green" stroke-width=".5" fill="#aaffaa" x="169" y="695" height="35" width="12">
<title>Focus Bicycle (2021-03-29 .. 2021-04-04)  35 min/d</title>
</rect></g><g><rect opacity=".75" stroke="red" stroke-width=".5" fill="#ffaaaa" x="182" y="120" height="16" width="14" rx="2">
<title>Focus Bicycle (2021-04-05 .. 2021-04-11) </title>
</rect><rect opacity=".75" stroke="green" stroke-width=".5" fill="#aaffaa" x="183" y="695" height="35" width="12">
<title>Focus Bicycle (2021-04-05 .. 2021-04-11)  35 min/d</title>
</rect></g><g><rect opacity=".75" stroke="red" stroke-width=".5" fill="#ffaaaa" x="196" y="144" height="16" width="14" rx="2">
<title>Focus Bicycle (2021-04-12 .. 2021-04-18)  Test 5km Time trial</title>
</rect><rect opacity=".75" stroke="green" stroke-width=".5" fill="#aaffaa" x="197" y="695" height="35" width="12">
<title>Focus Bicycle (2021-04-12 .. 2021-04-18)  Test 5km Time trial 35 min/d</title>
</rect></g><g><rect opacity=".75" stroke="red" stroke-width=".5" fill="#ffaaaa" x="210" y="168" height="16" width="14" rx="2">
<title>General Regeneration (2021-04-19 .. 2021-04-25) </title>
</rect><rect opacity=".75" stroke="green" stroke-width=".5" fill="#aaffaa" x="211" y="705" height="25" width="12">
<title>General Regeneration (2021-04-19 .. 2021-04-25)  25 min/d</title>
</rect></g><g><rect opacity=".75" stroke="red" stroke-width=".5" fill="#ffaaaa" x="224" y="192" height="16" width="14" rx="2">
<title>Focus Bicycle (2021-04-26 .. 2021-05-02) </title>
</rect><rect opacity=".75" stroke="green" stroke-width=".5" fill="#aaffaa" x="225" y="695" height="35" width="12">
<title>Focus Bicycle (2021-04-26 .. 2021-05-02)  35 min/d</title>
</rect></g><g><rect opacity=".75" stroke="red" stroke-width=".5" fill="#ffaaaa" x="238" y="216" height="16" width="14" rx="2">
<title>Focus Bicycle (2021-05-03 .. 2021-05-09) </title>
</rect><rect opacity=".75" stroke="green" stroke-width=".5" fill="#aaffaa" x="239" y="688" height="42" width="12">
<title>Focus Bicycle (2021-05-03 .. 2021-05-09)  42 min/d</title>
</rect></g><g><rect opacity=".75" stroke="red" stroke-width=".5" fill="#ffaaaa" x="252" y="240" height="16" width="14" rx="2">
<title>Focus Bicycle (2021-05-10 .. 2021-05-16) </title>
</rect><rect opacity=".75" stroke="green" stroke-width=".5" fill="#aaffaa" x="253" y="688" height="42" width="12">
<title>Focus Bicycle (2021-05-10 .. 2021-05-16)  42 min/d</title>
</rect></g><g><rect opacity=".75" stroke="red" stroke-width=".5" fill="#ffaaaa" x="266" y="264" height="16" width="14" rx="2">
<title>General Regeneration (2021-05-17 .. 2021-05-23) </title>
</rect><rect opacity=".75" stroke="green" stroke-width=".5" fill="#aaffaa" x="267" y="705" height="25" width="12">
<title>General Regeneration (2021-05-17 .. 2021-05-23)  25 min/d</title>
</rect></g><g><rect opacity=".75" stroke="red" stroke-width=".5" fill="#ffaaaa" x="280" y="288" height="16" width="14" rx="2">
<title>Focus Bicycle (2021-05-24 .. 2021-05-30) </title>
</rect><rect opacity=".75" stroke="green" stroke-width=".5" fill="#aaffaa" x="281" y="679" height="51" width="12">
<title>Focus Bicycle (2021-05-24 .. 2021-05-30)  51 min/d</title>
</rect></g><g><rect opacity=".75" stroke="red" stroke-width=".5" fill="#ffaaaa" x="294" y="312" height="16" width="14" rx="2">
<title>Focus Bicycle (2021-05-31 .. 2021-06-06) </title>
</rect><rect opacity=".75" stroke="green" stroke-width=".5" fill="#aaffaa" x="295" y="679" height="51" width="12">
<title>Focus Bicycle (2021-05-31 .. 2021-06-06)  51 min/d</title>
</rect></g><g><rect opacity=".75" stroke="red" stroke-width=".5" fill="#ffaaaa" x="308" y="336" height="16" width="14" rx="2">
<title>General Regeneration (2021-06-07 .. 2021-06-13) </title>
</rect><rect opacity=".75" stroke="green" stroke-width=".5" fill="#aaffaa" x="309" y="705" height="25" width="12">
<title>General Regeneration (2021-06-07 .. 2021-06-13)  25 min/d</title>
</rect></g><line stroke-dasharray="4" stroke="black" stroke-width=".5" x1="322" y1="72" x2="322" y2="360"/>
</g><g><rect fill="#aaaaff" opacity=".75" x="322" y="96" height="16" width="56" rx="2">
<title>Buildup Bicycle Speed (2021-06-14 .. 2021-07-11)  Sprint Final speed</title>
</rect><text x="324" y="106">Buildup Bicycle Speed</text>
<g><rect opacity=".75" stroke="red" stroke-width=".5" fill="#ffaaaa" x="322" y="120" height="16" width="14" rx="2">
<title>Focus Bicycle Speed (2021-06-14 .. 2021-06-20) </title>
</rect><rect opacity=".75" stroke="green" stroke-width=".5" fill="#aaffaa" x="323" y="691" height="39" width="12">
<title>Focus Bicycle Speed (2021-06-14 .. 2021-06-20)  39 min/d</title>
</rect></g><g><rect opacity=".75" stroke="red" stroke-width=".5" fill="#ffaaaa" x="336" y="144" height="16" width="14" rx="2">
<title>Focus Bicycle Speed (2021-06-21 .. 2021-06-27) </title>
</rect><rect opacity=".75" stroke="green" stroke-width=".5" fill="#aaffaa" x="337" y="691" height="39" width="12">
<title>Focus Bicycle Speed (2021-06-21 .. 2021-06-27)  39 min/d</title>
</rect></g><g><rect opacity=".75" stroke="red" stroke-width=".5" fill="#ffaaaa" x="350" y="168" height="16" width="14" rx="2">
<title>General Regeneration (2021-06-28 .. 2021-07-04) </title>
</rect><rect opacity=".75" stroke="green" stroke-width=".5" fill="#aaffaa" x="351" y="705" height="25" width="12">
<title>General Regeneration (2021-06-28 .. 2021-07-04)  25 min/d</title>
</rect></g><g><rect opacity=".75" stroke="red" stroke-width=".5" fill="#ffaaaa" x="364" y="192" height="16" width="14" rx="2">
<title>Focus Bicycle Speed (2021-07-05 .. 2021-07-11) </title>
</rect><rect opacity=".75" stroke="green" stroke-width=".5" fill="#aaffaa" x="365" y="691" height="39" width="12">
<title>Focus Bicycle Speed (2021-07-05 .. 2021-07-11)  39 min/d</title>
</rect></g><line stroke-dasharray="4" stroke="black" stroke-width=".5" x1="378" y1="96" x2="378" y2="216"/>
</g><g><rect fill="#aaaaff" opacity=".75" x="378" y="120" height="16" width="42" rx="2">
<title>Buildup Bicycle Speed (2021-07-12 .. 2021-08-01) </title>
</rect><text x="380" y="130">Buildup Bicycle Speed</text>
<line stroke-dasharray="4" stroke="black" stroke-width=".5" x1="420" y1="120" x2="420" y2="144"/>
</g><g><rect fill="#aaaaff" opacity=".75" x="420" y="144" height="16" width="154" rx="2">
<title>Basics Endurance Bicycle (2021-08-02 .. 2021-10-17)  Weight, Metabolism, Nutrition 1000 km, switch to Racing bike</title>
</rect><text x="422" y="154">Basics Endurance Bicycle</text>
<g><rect opacity=".75" stroke="red" stroke-width=".5" fill="#ffaaaa" x="420" y="168" height="16" width="14" rx="2">
<title>Focus Bicycle (2021-08-02 .. 2021-08-08) </title>
</rect><rect opacity=".75" stroke="green" stroke-width=".5" fill="#aaffaa" x="421" y="695" height="35" width="12">
<title>Focus Bicycle (2021-08-02 .. 2021-08-08)  35 min/d</title>
</rect></g><g><rect opacity=".75" stroke="red" stroke-width=".5" fill="#ffaaaa" x="434" y="192" height="16" width="14" rx="2">
<title>Focus Bicycle (2021-08-09 .. 2021-08-15) </title>
</rect><rect opacity=".75" stroke="green" stroke-width=".5" fill="#aaffaa" x="435" y="695" height="35" width="12">
<title>Focus Bicycle (2021-08-09 .. 2021-08-15)  35 min/d</title>
</rect></g><g><rect opacity=".75" stroke="red" stroke-width=".5" fill="#ffaaaa" x="448" y="216" height="16" width="14" rx="2">
<title>Focus Bicycle (2021-08-16 .. 2021-08-22)  Test 5km Time trial</title>
</rect><rect opacity=".75" stroke="green" stroke-width=".5" fill="#aaffaa" x="449" y="695" height="35" width="12">
<title>Focus Bicycle (2021-08-16 .. 2021-08-22)  Test 5km Time trial 35 min/d</title>
</rect></g><g><rect opacity=".75" stroke="red" stroke-width=".5" fill="#ffaaaa" x="462" y="240" height="16" width="14" rx="2">
<title>General Regeneration (2021-08-23 .. 2021-08-29) </title>
</rect><rect opacity=".75" stroke="green" stroke-width=".5" fill="#aaffaa" x="463" y="705" height="25" width="12">
<title>General Regeneration (2021-08-23 .. 2021-08-29)  25 min/d</title>
</rect></g><g><rect opacity=".75" stroke="red" stroke-width=".5" fill="#ffaaaa" x="476" y="264" height="16" width="14" rx="2">
<title>Focus Bicycle (2021-08-30 .. 2021-09-05) </title>
</rect><rect opacity=".75" stroke="green" stroke-width=".5" fill="#aaffaa" x="477" y="695" height="35" width="12">
<title>Focus Bicycle (2021-08-30 .. 2021-09-05)  35 min/d</title>
</rect></g><g><rect opacity=".75" stroke="red" stroke-width=".5" fill="#ffaaaa" x="490" y="288" height="16" width="14" rx="2">
<title>Focus Bicycle (2021-09-06 .. 2021-09-12) </title>
</rect><rect opacity=".75" stroke="green" stroke-width=".5" fill="#aaffaa" x="491" y="688" height="42" width="12">
<title>Focus Bicycle (2021-09-06 .. 2021-09-12)  42 min/d</title>
</rect></g><g><rect opacity=".75" stroke="red" stroke-width=".5" fill="#ffaaaa" x="504" y="312" height="16" width="14" rx="2">
<title>Focus Bicycle (2021-09-13 .. 2021-09-19) </title>
</rect><rect opacity=".75" stroke="green" stroke-width=".5" fill="#aaffaa" x="505" y="688" height="42" width="12">
<title>Focus Bicycle (2021-09-13 .. 2021-09-19)  42 min/d</title>
</rect></g><g><rect opacity=".75" stroke="red" stroke-width=".5" fill="#ffaaaa" x="518" y="336" height="16" width="14" rx="2">
<title>General Regeneration (2021-09-20 .. 2021-09-26) </title>
</rect><rect opacity=".75" stroke="green" stroke-width=".5" fill="#aaffaa" x="519" y="705" height="25" width="12">
<title>General Regeneration (2021-09-20 .. 2021-09-26)  25 min/d</title>
</rect></g><g><rect opacity=".75" stroke="red" stroke-width=".5" fill="#ffaaaa" x="532" y="360" height="16" width="14" rx="2">
<title>Focus Bicycle (2021-09-27 .. 2021-10-03) </title>
</rect><rect opacity=".75" stroke="green" stroke-width=".5" fill="#aaffaa" x="533" y="679" height="51" width="12">
<title>Focus Bicycle (2021-09-27 .. 2021-10-03)  51 min/d</title>
</rect></g><g><rect opacity=".75" stroke="red" stroke-width=".5" fill="#ffaaaa" x="546" y="384" height="16" width="14" rx="2">
<title>Focus Bicycle (2021-10-04 .. 2021-10-10) </title>
</rect><rect opacity=".75" stroke="green" stroke-width=".5" fill="#aaffaa" x="547" y="679" height="51" width="12">
<title>Focus Bicycle (2021-10-04 .. 2021-10-10)  51 min/d</title>
</rect></g><g><rect opacity=".75" stroke="red" stroke-width=".5" fill="#ffaaaa" x="560" y="408" height="16" width="14" rx="2">
<title>General Regeneration (2021-10-11 .. 2021-10-17) </title>
</rect><rect opacity=".75" stroke="green" stroke-width=".5" fill="#aaffaa" x="561" y="705" height="25" width="12">
<title>General Regeneration (2021-10-11 .. 2021-10-17)  25 min/d</title>
</rect></g><line stroke-dasharray="4" stroke="black" stroke-width=".5" x1="574" y1="144" x2="574" y2="432"/>
</g><g><rect fill="#aaaaff" opacity=".75" x="574" y="168" height="16" width="56" rx="2">
<title>Buildup Bicycle Speed (2021-10-18 .. 2021-11-14)  Sprint Final speed</title>
</rect><text x="576" y="178">Buildup Bicycle Speed</text>
<g><rect opacity=".75" stroke="red" stroke-width=".5" fill="#ffaaaa" x="574" y="192" height="16" width="14" rx="2">
<title>Focus Bicycle Speed (2021-10-18 .. 2021-10-24) </title>
</rect><rect opacity=".75" stroke="green" stroke-width=".5" fill="#aaffaa" x="575" y="691" height="39" width="12">
<title>Focus Bicycle Speed (2021-10-18 .. 2021-10-24)  39 min/d</title>
</rect></g><g><rect opacity=".75" stroke="red" stroke-width=".5" fill="#ffaaaa" x="588" y="216" height="16" width="14" rx="2">
<title>Focus Bicycle Speed (2021-10-25 .. 2021-10-31) </title>
</rect><rect opacity=".75" stroke="green" stroke-width=".5" fill="#aaffaa" x="589" y="691" height="39" width="12">
<title>Focus Bicycle Speed (2021-10-25 .. 2021-10-31)  39 min/d</title>
</rect></g><g><rect opacity=".75" stroke="red" stroke-width=".5" fill="#ffaaaa" x="602" y="240" height="16" width="14" rx="2">
<title>General Regeneration (2021-11-01 .. 2021-11-07) </title>
</rect><rect opacity=".75" stroke="green" stroke-width=".5" fill="#aaffaa" x="603" y="705" height="25" width="12">
<title>General Regeneration (2021-11-01 .. 2021-11-07)  25 min/d</title>
</rect></g><g><rect opacity=".75" stroke="red" stroke-width=".5" fill="#ffaaaa" x="616" y="264" height="16" width="14" rx="2">
<title>Focus Bicycle Speed (2021-11-08 .. 2021-11-14) </title>
</rect><rect opacity=".75" stroke="green" stroke-width=".5" fill="#aaffaa" x="617" y="691" height="39" width="12">
<title>Focus Bicycle Speed (2021-11-08 .. 2021-11-14)  39 min/d</title>
</rect></g><line stroke-dasharray="4" stroke="black" stroke-width=".5" x1="630" y1="168" x2="630" y2="288"/>
</g><line stroke-dasharray="4" stroke="black" stroke-width=".5" x1="630" y1="48" x2="630" y2="192"/>
</g><g><rect fill="#aaaaff" opacity=".75" x="630" y="72" height="16" width="224" rx="2">
<title>Running (2021-11-15 .. 2022-03-06)  Compensation swimming</title>
</rect><text x="632" y="82">Running</text>
<g><rect fill="#aaaaff" opacity=".75" x="630" y="96" height="16" width="84" rx="2">
<title>Specific Basics Running (2021-11-15 .. 2021-12-26)  Change of Focus</title>
</rect><text x="632" y="106">Specific Basics Running</text>
<g><rect opacity=".75" stroke="red" stroke-width=".5" fill="#ffaaaa" x="630" y="120" height="16" width="14" rx="2">
<title>Focus Running (2021-11-15 .. 2021-11-21) </title>
</rect><rect opacity=".75" stroke="green" stroke-width=".5" fill="#aaffaa" x="631" y="689" height="41" width="12">
<title>Focus Running (2021-11-15 .. 2021-11-21)  41 min/d</title>
</rect></g><g><rect opacity=".75" stroke="red" stroke-width=".5" fill="#ffaaaa" x="644" y="144" height="16" width="14" rx="2">
<title>Focus Running (2021-11-22 .. 2021-11-28)  Test 1000m speed run</title>
</rect><rect opacity=".75" stroke="green" stroke-width=".5" fill="#aaffaa" x="645" y="689" height="41" width="12">
<title>Focus Running (2021-11-22 .. 2021-11-28)  Test 1000m speed run 41 min/d</title>
</rect></g><g><rect opacity=".75" stroke="red" stroke-width=".5" fill="#ffaaaa" x="658" y="168" height="16" width="14" rx="2">
<title>General Regeneration (2021-11-29 .. 2021-12-05) </title>
</rect><rect opacity=".75" stroke="green" stroke-width=".5" fill="#aaffaa" x="659" y="705" height="25" width="12">
<title>General Regeneration (2021-11-29 .. 2021-12-05)  25 min/d</title>
</rect></g><g><rect opacity=".75" stroke="red" stroke-width=".5" fill="#ffaaaa" x="672" y="192" height="16" width="14" rx="2">
<title>Focus Running (2021-12-06 .. 2021-12-12) </title>
</rect><rect opacity=".75" stroke="green" stroke-width=".5" fill="#aaffaa" x="673" y="681" height="49" width="12">
<title>Focus Running (2021-12-06 .. 2021-12-12)  49 min/d</title>
</rect></g><g><rect opacity=".75" stroke="red" stroke-width=".5" fill="#ffaaaa" x="686" y="216" height="16" width="14" rx="2">
<title>Focus Running (2021-12-13 .. 2021-12-19)  Test 1000m speed run</title>
</rect><rect opacity=".75" stroke="green" stroke-width=".5" fill="#aaffaa" x="687" y="681" height="49" width="12">
<title>Focus Running (2021-12-13 .. 2021-12-19)  Test 1000m speed run 49 min/d</title>
</rect></g><g><rect opacity=".75" stroke="red" stroke-width=".5" fill="#ffaaaa" x="700" y="240" height="16" width="14" rx="2">
<title>General Regeneration (2021-12-20 .. 2021-12-26) </title>
</rect><rect opacity=".75" stroke="green" stroke-width=".5" fill="#aaffaa" x="701" y="705" height="25" width="12">
<title>General Regeneration (2021-12-20 .. 2021-12-26)  25 min/d</title>
</rect></g><line stroke-dasharray="4" stroke="black" stroke-width=".5" x1="714" y1="96" x2="714" y2="264"/>
</g><g><rect opacity=".75" stroke="red" stroke-width=".5" fill="#ffaaaa" x="714" y="120" height="16" width="14" rx="2">
<title>Highlight Running Distance (2021-12-27 .. 2022-01-02) </title>
</rect><rect opacity=".75" stroke="red" stroke-width=".5" fill="#ffaaaa" x="715" y="721" height="9" width="12">
<title>Highlight Running Distance (2021-12-27 .. 2022-01-02)  9 min/d</title>
</rect></g><g><rect opacity=".75" stroke="red" stroke-width=".5" fill="#ffaaaa" x="728" y="144" height="16" width="28" rx="2">
<title>Highlight Running Distance (2022-01-03 .. 2022-01-16) </title>
</rect><rect opacity=".75" stroke="red" stroke-width=".5" fill="red" x="729" y="728" height="2" width="26">
<title>Highlight Running Distance (2022-01-03 .. 2022-01-16)  2 min/d</title>
</rect></g><g><rect fill="#aaaaff" opacity=".75" x="756" y="168" height="16" width="42" rx="2">
<title>Buildup Running Speed (2022-01-17 .. 2022-02-06) </title>
</rect><text x="758" y="178">Buildup Running Speed</text>
<g><rect opacity=".75" stroke="red" stroke-width=".5" fill="#ffaaaa" x="756" y="192" height="16" width="14" rx="2">
<title>Focus Running (2022-01-17 .. 2022-01-23)  Test 1000m speed run</title>
</rect><rect opacity=".75" stroke="green" stroke-width=".5" fill="#aaffaa" x="757" y="689" height="41" width="12">
<title>Focus Running (2022-01-17 .. 2022-01-23)  Test 1000m speed run 41 min/d</title>
</rect></g><g><rect opacity=".75" stroke="red" stroke-width=".5" fill="#ffaaaa" x="770" y="216" height="16" width="14" rx="2">
<title>Focus Running (2022-01-24 .. 2022-01-30)  Test 1000m speed run</title>
</rect><rect opacity=".75" stroke="green" stroke-width=".5" fill="#aaffaa" x="771" y="689" height="41" width="12">
<title>Focus Running (2022-01-24 .. 2022-01-30)  Test 1000m speed run 41 min/d</title>
</rect></g><g><rect opacity=".75" stroke="red" stroke-width=".5" fill="#ffaaaa" x="784" y="240" height="16" width="14" rx="2">
<title>General Regeneration (2022-01-31 .. 2022-02-06) </title>
</rect><rect opacity=".75" stroke="green" stroke-width=".5" fill="#aaffaa" x="785" y="705" height="25" width="12">
<title>General Regeneration (2022-01-31 .. 2022-02-06)  25 min/d</title>
</rect></g><line stroke-dasharray="4" stroke="black" stroke-width=".5" x1="798" y1="168" x2="798" y2="264"/>
</g><g><rect fill="#aaaaff" opacity=".75" x="798" y="192" height="16" width="42" rx="2">
<title>Buildup Running Speed (2022-02-07 .. 2022-02-27) </title>
</rect><text x="800" y="202">Buildup Running Speed</text>
<g><rect opacity=".75" stroke="red" stroke-width=".5" fill="#ffaaaa" x="798" y="216" height="16" width="14" rx="2">
<title>Focus Running (2022-02-07 .. 2022-02-13)  Test 1000m speed run</title>
</rect><rect opacity=".75" stroke="green" stroke-width=".5" fill="#aaffaa" x="799" y="689" height="41" width="12">
<title>Focus Running (2022-02-07 .. 2022-02-13)  Test 1000m speed run 41 min/d</title>
</rect></g><g><rect opacity=".75" stroke="red" stroke-width=".5" fill="#ffaaaa" x="812" y="240" height="16" width="14" rx="2">
<title>Focus Running (2022-02-14 .. 2022-02-20)  Test 1000m speed run</title>
</rect><rect opacity=".75" stroke="green" stroke-width=".5" fill="#aaffaa" x="813" y="689" height="41" width="12">
<title>Focus Running (2022-02-14 .. 2022-02-20)  Test 1000m speed run 41 min/d</title>
</rect></g><g><rect opacity=".75" stroke="red" stroke-width=".5" fill="#ffaaaa" x="826" y="264" height="16" width="14" rx="2">
<title>General Regeneration (2022-02-21 .. 2022-02-27) </title>
</rect><rect opacity=".75" stroke="green" stroke-width=".5" fill="#aaffaa" x="827" y="705" height="25" width="12">
<title>General Regeneration (2022-02-21 .. 2022-02-27)  25 min/d</title>
</rect></g><line stroke-dasharray="4" stroke="black" stroke-width=".5" x1="840" y1="192" x2="840" y2="288"/>
</g><g><rect opacity=".75" stroke="red" stroke-width=".5" fill="#ffaaaa" x="840" y="216" height="16" width="14" rx="2">
<title>Highlight Running Distance (2022-02-28 .. 2022-03-06) </title>
</rect><rect opacity=".75" stroke="red" stroke-width=".5" fill="#ffaaaa" x="841" y="721" height="9" width="12">
<title>Highlight Running Distance (2022-02-28 .. 2022-03-06)  9 min/d</title>
</rect></g><line stroke-dasharray="4" stroke="black" stroke-width=".5" x1="854" y1="72" x2="854" y2="240"/>
</g><line stroke-dasharray="4" stroke="black" stroke-width=".5" x1="854" y1="0" x2="854" y2="96"/>
</g></g></svg>
