<svg baseProfile="full" height="2788px" version="1.1" width="1380px" xmlns="http://www.w3.org/2000/svg" xmlns:ev="http://www.w3.org/2001/xml-events" xmlns:xlink="http://www.w3.org/1999/xlink"><line stroke="black" stroke-width=".5" x1="180" y1="20" x2="180" y2="2788"/>
<line stroke="black" stroke-width=".5" x1="210" y1="20" x2="210" y2="2788"/>
<line stroke="black" stroke-width=".5" x1="450" y1="20" x2="450" y2="2788"/>
<line stroke="black" stroke-width=".5" x1="750" y1="20" x2="750" y2="2788"/>
<line stroke="black" stroke-width=".5" x1="1050" y1="20" x2="1050" y2="2788"/>
<line stroke="black" stroke-width=".5" x1="1350" y1="20" x2="1350" y2="2788"/>
<g><g><g><line stroke="black" stroke-width=".5" stroke-dasharray="2,10" x1="0" y1="20" x2="1530" y2="20"/>
<text x="0" y="20" font-size="9" style="vertical-align:top" text-anchor="right"><tspan x="10" dy="1.5em">General Endurance</tspan><tspan x="10" dy="1.5em">(2021-03-01 .. 2021-03-07)</tspan></text>
<line stroke="black" stroke-width=".5" x1="150" y1="23.0" x2="150" y2="29.0"/>
<line stroke="black" stroke-width=".5" x1="150" y1="35.0" x2="150" y2="41.0"/>
<rect  fill="#ffdddd" height="6px" stroke="black" stroke-width=".5" width="21px" x="150" y="35.0"><title>2021-03-02   3.5 Running 00:25:00</title></rect>
<line stroke="black" stroke-width=".5" x1="150" y1="47.0" x2="150" y2="53.0"/>
<line stroke="black" stroke-width=".5" x1="150" y1="59.0" x2="150" y2="65.0"/>
<rect  fill="#ffdddd" height="6px" stroke="black" stroke-width=".5" width="21px" x="150" y="59.0"><title>2021-03-04   3.5 Running 00:25:00</title></rect>
<line stroke="black" stroke-width=".5" x1="150" y1="71.0" x2="150" y2="77.0"/>
<line stroke="black" stroke-width=".5" x1="150" y1="83.0" x2="150" y2="89.0"/>
<rect  fill="#ddddff"><title>2021-03-06 Strength 00:25:00</title></rect>
<line stroke="black" stroke-width=".5" x1="150" y1="95.0" x2="150" y2="101.0"/>
<rect  height="6px" stroke="black" stroke-width=".5" width="180px" x="150" y="95.0"><title>2021-03-07  30.0 Cycling 02:00:00</title></rect>
</g><g><line stroke="black" stroke-width=".5" stroke-dasharray="2,10" x1="0" y1="104" x2="1530" y2="104"/>
<text x="0" y="104" font-size="9" style="vertical-align:top" text-anchor="right"><tspan x="10" dy="1.5em">General Endurance</tspan><tspan x="10" dy="1.5em">(2021-03-08 .. 2021-03-14)</tspan></text>
<line stroke="black" stroke-width=".5" x1="150" y1="107.0" x2="150" y2="113.0"/>
<line stroke="black" stroke-width=".5" x1="150" y1="119.0" x2="150" y2="125.0"/>
<rect  fill="#ffdddd" height="6px" stroke="black" stroke-width=".5" width="21px" x="150" y="119.0"><title>2021-03-09   3.5 Running 00:25:00</title></rect>
<line stroke="black" stroke-width=".5" x1="150" y1="131.0" x2="150" y2="137.0"/>
<line stroke="black" stroke-width=".5" x1="150" y1="143.0" x2="150" y2="149.0"/>
<rect  fill="#ffdddd" height="6px" stroke="black" stroke-width=".5" width="21px" x="150" y="143.0"><title>2021-03-11   3.5 Running 00:25:00</title></rect>
<line stroke="black" stroke-width=".5" x1="150" y1="155.0" x2="150" y2="161.0"/>
<line stroke="black" stroke-width=".5" x1="150" y1="167.0" x2="150" y2="173.0"/>
<rect  fill="#ddddff"><title>2021-03-13 Strength 00:25:00</title></rect>
<line stroke="black" stroke-width=".5" x1="150" y1="179.0" x2="150" y2="185.0"/>
<rect  height="6px" stroke="black" stroke-width=".5" width="180px" x="150" y="179.0"><title>2021-03-14  30.0 Cycling 02:00:00</title></rect>
</g><g><line stroke="black" stroke-width=".5" stroke-dasharray="2,10" x1="0" y1="188" x2="1530" y2="188"/>
<text x="0" y="188" font-size="9" style="vertical-align:top" text-anchor="right"><tspan x="10" dy="1.5em">General Regeneration</tspan><tspan x="10" dy="1.5em">(2021-03-15 .. 2021-03-21)</tspan></text>
<line stroke="black" stroke-width=".5" x1="150" y1="191.0" x2="150" y2="197.0"/>
<line stroke="black" stroke-width=".5" x1="150" y1="203.0" x2="150" y2="209.0"/>
<rect  height="6px" stroke="black" stroke-width=".5" width="180px" x="150" y="203.0"><title>2021-03-16  30.0 Cycling 01:15:00</title></rect>
<line stroke="black" stroke-width=".5" x1="150" y1="215.0" x2="150" y2="221.0"/>
<line stroke="black" stroke-width=".5" x1="150" y1="227.0" x2="150" y2="233.0"/>
<rect  fill="#ffdddd" height="6px" stroke="black" stroke-width=".5" width="21px" x="150" y="227.0"><title>2021-03-18   3.5 Running 00:25:00</title></rect>
<line stroke="black" stroke-width=".5" x1="150" y1="239.0" x2="150" y2="245.0"/>
<line stroke="black" stroke-width=".5" x1="150" y1="251.0" x2="150" y2="257.0"/>
<line stroke="black" stroke-width=".5" x1="150" y1="263.0" x2="150" y2="269.0"/>
<rect  height="6px" stroke="black" stroke-width=".5" width="180px" x="150" y="263.0"><title>2021-03-21  30.0 Cycling 01:15:00</title></rect>
</g><g><line stroke="black" stroke-width=".5" stroke-dasharray="2,10" x1="0" y1="272" x2="1530" y2="272"/>
<text x="0" y="272" font-size="9" style="vertical-align:top" text-anchor="right"><tspan x="10" dy="1.5em">General Endurance</tspan><tspan x="10" dy="1.5em">(2021-03-22 .. 2021-03-28)</tspan></text>
<line stroke="black" stroke-width=".5" x1="150" y1="275.0" x2="150" y2="281.0"/>
<line stroke="black" stroke-width=".5" x1="150" y1="287.0" x2="150" y2="293.0"/>
<rect  fill="#ffdddd" height="6px" stroke="black" stroke-width=".5" width="21px" x="150" y="287.0"><title>2021-03-23   3.5 Running 00:25:00</title></rect>
<line stroke="black" stroke-width=".5" x1="150" y1="299.0" x2="150" y2="305.0"/>
<line stroke="black" stroke-width=".5" x1="150" y1="311.0" x2="150" y2="317.0"/>
<rect  fill="#ffdddd" height="6px" stroke="black" stroke-width=".5" width="21px" x="150" y="311.0"><title>2021-03-25   3.5 Running 00:25:00</title></rect>
<line stroke="black" stroke-width=".5" x1="150" y1="323.0" x2="150" y2="329.0"/>
<line stroke="black" stroke-width=".5" x1="150" y1="335.0" x2="150" y2="341.0"/>
<rect  fill="#ddddff"><title>2021-03-27 Strength 00:25:00</title></rect>
<line stroke="black" stroke-width=".5" x1="150" y1="347.0" x2="150" y2="353.0"/>
<rect  height="6px" stroke="black" stroke-width=".5" width="180px" x="150" y="347.0"><title>2021-03-28  30.0 Cycling 02:00:00</title></rect>
</g><g><line stroke="black" stroke-width=".5" stroke-dasharray="2,10" x1="0" y1="356" x2="1530" y2="356"/>
<text x="0" y="356" font-size="9" style="vertical-align:top" text-anchor="right"><tspan x="10" dy="1.5em">General Endurance</tspan><tspan x="10" dy="1.5em">(2021-03-29 .. 2021-04-04)</tspan></text>
<line stroke="black" stroke-width=".5" x1="150" y1="359.0" x2="150" y2="365.0"/>
<line stroke="black" stroke-width=".5" x1="150" y1="371.0" x2="150" y2="377.0"/>
<rect  fill="#ffdddd" height="6px" stroke="black" stroke-width=".5" width="21px" x="150" y="371.0"><title>2021-03-30   3.5 Running 00:25:00</title></rect>
<line stroke="black" stroke-width=".5" x1="150" y1="383.0" x2="150" y2="389.0"/>
<line stroke="black" stroke-width=".5" x1="150" y1="395.0" x2="150" y2="401.0"/>
<rect  fill="#ffdddd" height="6px" stroke="black" stroke-width=".5" width="21px" x="150" y="395.0"><title>2021-04-01   3.5 Running 00:25:00</title></rect>
<line stroke="black" stroke-width=".5" x1="150" y1="407.0" x2="150" y2="413.0"/>
<line stroke="black" stroke-width=".5" x1="150" y1="419.0" x2="150" y2="425.0"/>
<rect  fill="#ddddff"><title>2021-04-03 Strength 00:25:00</title></rect>
<line stroke="black" stroke-width=".5" x1="150" y1="431.0" x2="150" y2="437.0"/>
<rect  height="6px" stroke="black" stroke-width=".5" width="180px" x="150" y="431.0"><title>2021-04-04  30.0 Cycling 02:00:00</title></rect>
</g><g><line stroke="black" stroke-width=".5" stroke-dasharray="2,10" x1="0" y1="440" x2="1530" y2="440"/>
<text x="0" y="440" font-size="9" style="vertical-align:top" text-anchor="right"><tspan x="10" dy="1.5em">General Regeneration</tspan><tspan x="10" dy="1.5em">(2021-04-05 .. 2021-04-11)</tspan></text>
<line stroke="black" stroke-width=".5" x1="150" y1="443.0" x2="150" y2="449.0"/>
<line stroke="black" stroke-width=".5" x1="150" y1="455.0" x2="150" y2="461.0"/>
<rect  height="6px" stroke="black" stroke-width=".5" width="180px" x="150" y="455.0"><title>2021-04-06  30.0 Cycling 01:15:00</title></rect>
<line stroke="black" stroke-width=".5" x1="150" y1="467.0" x2="150" y2="473.0"/>
<line stroke="black" stroke-width=".5" x1="150" y1="479.0" x2="150" y2="485.0"/>
<rect  fill="#ffdddd" height="6px" stroke="black" stroke-width=".5" width="21px" x="150" y="479.0"><title>2021-04-08   3.5 Running 00:25:00</title></rect>
<line stroke="black" stroke-width=".5" x1="150" y1="491.0" x2="150" y2="497.0"/>
<line stroke="black" stroke-width=".5" x1="150" y1="503.0" x2="150" y2="509.0"/>
<line stroke="black" stroke-width=".5" x1="150" y1="515.0" x2="150" y2="521.0"/>
<rect  height="6px" stroke="black" stroke-width=".5" width="180px" x="150" y="515.0"><title>2021-04-11  30.0 Cycling 01:15:00</title></rect>
</g></g><g><g><line stroke="black" stroke-width=".5" stroke-dasharray="2,10" x1="0" y1="524" x2="1530" y2="524"/>
<text x="0" y="524" font-size="9" style="vertical-align:top" text-anchor="right"><tspan x="10" dy="1.5em">Focus Swimming</tspan><tspan x="10" dy="1.5em">(2021-04-12 .. 2021-04-18)</tspan></text>
<line stroke="black" stroke-width=".5" x1="150" y1="527.0" x2="150" y2="533.0"/>
<line stroke="black" stroke-width=".5" x1="150" y1="539.0" x2="150" y2="545.0"/>
<rect  fill="#ddddff" height="6px" stroke="black" stroke-width=".5" width="12px" x="150" y="539.0"><title>2021-04-13   2.0 Swimming 01:15:00</title></rect>
<line stroke="black" stroke-width=".5" x1="150" y1="551.0" x2="150" y2="557.0"/>
<line stroke="black" stroke-width=".5" x1="150" y1="563.0" x2="150" y2="569.0"/>
<rect  fill="#ffdddd" height="6px" stroke="black" stroke-width=".5" width="21px" x="150" y="563.0"><title>2021-04-15   3.5 Running 00:25:00</title></rect>
<rect  fill="#ddddff"><title>2021-04-15 Strength 00:25:00</title></rect>
<line stroke="black" stroke-width=".5" x1="150" y1="575.0" x2="150" y2="581.0"/>
<line stroke="black" stroke-width=".5" x1="150" y1="587.0" x2="150" y2="593.0"/>
<line stroke="black" stroke-width=".5" x1="150" y1="599.0" x2="150" y2="605.0"/>
<rect  fill="#ddddff" height="6px" stroke="black" stroke-width=".5" width="18px" x="150" y="599.0"><title>2021-04-18   3.0 Swimming 02:00:00</title></rect>
</g><g><line stroke="black" stroke-width=".5" stroke-dasharray="2,10" x1="0" y1="608" x2="1530" y2="608"/>
<text x="0" y="608" font-size="9" style="vertical-align:top" text-anchor="right"><tspan x="10" dy="1.5em">Focus Swimming</tspan><tspan x="10" dy="1.5em">(2021-04-19 .. 2021-04-25)</tspan></text>
<line stroke="black" stroke-width=".5" x1="150" y1="611.0" x2="150" y2="617.0"/>
<line stroke="black" stroke-width=".5" x1="150" y1="623.0" x2="150" y2="629.0"/>
<rect  fill="#ddddff" height="6px" stroke="black" stroke-width=".5" width="12px" x="150" y="623.0"><title>2021-04-20   2.0 Swimming 01:15:00</title></rect>
<line stroke="black" stroke-width=".5" x1="150" y1="635.0" x2="150" y2="641.0"/>
<line stroke="black" stroke-width=".5" x1="150" y1="647.0" x2="150" y2="653.0"/>
<rect  fill="#ffdddd" height="6px" stroke="black" stroke-width=".5" width="21px" x="150" y="647.0"><title>2021-04-22   3.5 Running 00:25:00</title></rect>
<rect  fill="#ddddff"><title>2021-04-22 Strength 00:25:00</title></rect>
<line stroke="black" stroke-width=".5" x1="150" y1="659.0" x2="150" y2="665.0"/>
<line stroke="black" stroke-width=".5" x1="150" y1="671.0" x2="150" y2="677.0"/>
<line stroke="black" stroke-width=".5" x1="150" y1="683.0" x2="150" y2="689.0"/>
<rect  fill="#ddddff" height="6px" stroke="black" stroke-width=".5" width="18px" x="150" y="683.0"><title>2021-04-25   3.0 Swimming 02:00:00</title></rect>
</g><g><line stroke="black" stroke-width=".5" stroke-dasharray="2,10" x1="0" y1="692" x2="1530" y2="692"/>
<text x="0" y="692" font-size="9" style="vertical-align:top" text-anchor="right"><tspan x="10" dy="1.5em">General Regeneration</tspan><tspan x="10" dy="1.5em">(2021-04-26 .. 2021-05-02)</tspan></text>
<line stroke="black" stroke-width=".5" x1="150" y1="695.0" x2="150" y2="701.0"/>
<line stroke="black" stroke-width=".5" x1="150" y1="707.0" x2="150" y2="713.0"/>
<rect  height="6px" stroke="black" stroke-width=".5" width="180px" x="150" y="707.0"><title>2021-04-27  30.0 Cycling 01:15:00</title></rect>
<line stroke="black" stroke-width=".5" x1="150" y1="719.0" x2="150" y2="725.0"/>
<line stroke="black" stroke-width=".5" x1="150" y1="731.0" x2="150" y2="737.0"/>
<rect  fill="#ffdddd" height="6px" stroke="black" stroke-width=".5" width="21px" x="150" y="731.0"><title>2021-04-29   3.5 Running 00:25:00</title></rect>
<line stroke="black" stroke-width=".5" x1="150" y1="743.0" x2="150" y2="749.0"/>
<line stroke="black" stroke-width=".5" x1="150" y1="755.0" x2="150" y2="761.0"/>
<line stroke="black" stroke-width=".5" x1="150" y1="767.0" x2="150" y2="773.0"/>
<rect  height="6px" stroke="black" stroke-width=".5" width="180px" x="150" y="767.0"><title>2021-05-02  30.0 Cycling 01:15:00</title></rect>
</g><g><line stroke="black" stroke-width=".5" stroke-dasharray="2,10" x1="0" y1="776" x2="1530" y2="776"/>
<text x="0" y="776" font-size="9" style="vertical-align:top" text-anchor="right"><tspan x="10" dy="1.5em">Focus Swimming</tspan><tspan x="10" dy="1.5em">(2021-05-03 .. 2021-05-09)</tspan></text>
<line stroke="black" stroke-width=".5" x1="150" y1="779.0" x2="150" y2="785.0"/>
<line stroke="black" stroke-width=".5" x1="150" y1="791.0" x2="150" y2="797.0"/>
<rect  fill="#ddddff" height="6px" stroke="black" stroke-width=".5" width="12px" x="150" y="791.0"><title>2021-05-04   2.0 Swimming 01:15:00</title></rect>
<line stroke="black" stroke-width=".5" x1="150" y1="803.0" x2="150" y2="809.0"/>
<line stroke="black" stroke-width=".5" x1="150" y1="815.0" x2="150" y2="821.0"/>
<rect  fill="#ffdddd" height="6px" stroke="black" stroke-width=".5" width="21px" x="150" y="815.0"><title>2021-05-06   3.5 Running 00:25:00</title></rect>
<rect  fill="#ddddff"><title>2021-05-06 Strength 00:25:00</title></rect>
<line stroke="black" stroke-width=".5" x1="150" y1="827.0" x2="150" y2="833.0"/>
<line stroke="black" stroke-width=".5" x1="150" y1="839.0" x2="150" y2="845.0"/>
<line stroke="black" stroke-width=".5" x1="150" y1="851.0" x2="150" y2="857.0"/>
<rect  fill="#ddddff" height="6px" stroke="black" stroke-width=".5" width="18px" x="150" y="851.0"><title>2021-05-09   3.0 Swimming 02:00:00</title></rect>
</g><g><line stroke="black" stroke-width=".5" stroke-dasharray="2,10" x1="0" y1="860" x2="1530" y2="860"/>
<text x="0" y="860" font-size="9" style="vertical-align:top" text-anchor="right"><tspan x="10" dy="1.5em">Focus Swimming</tspan><tspan x="10" dy="1.5em">(2021-05-10 .. 2021-05-16)</tspan></text>
<line stroke="black" stroke-width=".5" x1="150" y1="863.0" x2="150" y2="869.0"/>
<line stroke="black" stroke-width=".5" x1="150" y1="875.0" x2="150" y2="881.0"/>
<rect  fill="#ddddff" height="6px" stroke="black" stroke-width=".5" width="14px" x="150" y="875.0"><title>2021-05-11   2.4 Swimming 01:30:00</title></rect>
<line stroke="black" stroke-width=".5" x1="150" y1="887.0" x2="150" y2="893.0"/>
<line stroke="black" stroke-width=".5" x1="150" y1="899.0" x2="150" y2="905.0"/>
<rect  fill="#ffdddd" height="6px" stroke="black" stroke-width=".5" width="25px" x="150" y="899.0"><title>2021-05-13   4.2 Running 00:30:00</title></rect>
<rect  fill="#ddddff"><title>2021-05-13 Strength 00:30:00</title></rect>
<line stroke="black" stroke-width=".5" x1="150" y1="911.0" x2="150" y2="917.0"/>
<line stroke="black" stroke-width=".5" x1="150" y1="923.0" x2="150" y2="929.0"/>
<line stroke="black" stroke-width=".5" x1="150" y1="935.0" x2="150" y2="941.0"/>
<rect  fill="#ddddff" height="6px" stroke="black" stroke-width=".5" width="22px" x="150" y="935.0"><title>2021-05-16   3.6 Swimming 02:24:00</title></rect>
</g><g><line stroke="black" stroke-width=".5" stroke-dasharray="2,10" x1="0" y1="944" x2="1530" y2="944"/>
<text x="0" y="944" font-size="9" style="vertical-align:top" text-anchor="right"><tspan x="10" dy="1.5em">General Regeneration</tspan><tspan x="10" dy="1.5em">(2021-05-17 .. 2021-05-23)</tspan></text>
<line stroke="black" stroke-width=".5" x1="150" y1="947.0" x2="150" y2="953.0"/>
<line stroke="black" stroke-width=".5" x1="150" y1="959.0" x2="150" y2="965.0"/>
<rect  height="6px" stroke="black" stroke-width=".5" width="180px" x="150" y="959.0"><title>2021-05-18  30.0 Cycling 01:15:00</title></rect>
<line stroke="black" stroke-width=".5" x1="150" y1="971.0" x2="150" y2="977.0"/>
<line stroke="black" stroke-width=".5" x1="150" y1="983.0" x2="150" y2="989.0"/>
<rect  fill="#ffdddd" height="6px" stroke="black" stroke-width=".5" width="21px" x="150" y="983.0"><title>2021-05-20   3.5 Running 00:25:00</title></rect>
<line stroke="black" stroke-width=".5" x1="150" y1="995.0" x2="150" y2="1001.0"/>
<line stroke="black" stroke-width=".5" x1="150" y1="1007.0" x2="150" y2="1013.0"/>
<line stroke="black" stroke-width=".5" x1="150" y1="1019.0" x2="150" y2="1025.0"/>
<rect  height="6px" stroke="black" stroke-width=".5" width="180px" x="150" y="1019.0"><title>2021-05-23  30.0 Cycling 01:15:00</title></rect>
</g></g><g><g><line stroke="black" stroke-width=".5" stroke-dasharray="2,10" x1="0" y1="1028" x2="1530" y2="1028"/>
<text x="0" y="1028" font-size="9" style="vertical-align:top" text-anchor="right"><tspan x="10" dy="1.5em">Focus Cycling</tspan><tspan x="10" dy="1.5em">(2021-05-24 .. 2021-05-30)</tspan></text>
<line stroke="black" stroke-width=".5" x1="150" y1="1031.0" x2="150" y2="1037.0"/>
<line stroke="black" stroke-width=".5" x1="150" y1="1043.0" x2="150" y2="1049.0"/>
<rect  height="6px" stroke="black" stroke-width=".5" width="180px" x="150" y="1043.0"><title>2021-05-25  30.0 Cycling 01:15:00</title></rect>
<line stroke="black" stroke-width=".5" x1="150" y1="1055.0" x2="150" y2="1061.0"/>
<line stroke="black" stroke-width=".5" x1="150" y1="1067.0" x2="150" y2="1073.0"/>
<rect  fill="#ffdddd" height="6px" stroke="black" stroke-width=".5" width="21px" x="150" y="1067.0"><title>2021-05-27   3.5 Running 00:25:00</title></rect>
<rect  fill="#ddddff"><title>2021-05-27 Strength 00:25:00</title></rect>
<line stroke="black" stroke-width=".5" x1="150" y1="1079.0" x2="150" y2="1085.0"/>
<line stroke="black" stroke-width=".5" x1="150" y1="1091.0" x2="150" y2="1097.0"/>
<line stroke="black" stroke-width=".5" x1="150" y1="1103.0" x2="150" y2="1109.0"/>
<rect  height="6px" stroke="black" stroke-width=".5" width="240px" x="150" y="1103.0"><title>2021-05-30  40.0 Cycling 02:00:00</title></rect>
</g><g><line stroke="black" stroke-width=".5" stroke-dasharray="2,10" x1="0" y1="1112" x2="1530" y2="1112"/>
<text x="0" y="1112" font-size="9" style="vertical-align:top" text-anchor="right"><tspan x="10" dy="1.5em">Focus Cycling</tspan><tspan x="10" dy="1.5em">(2021-05-31 .. 2021-06-06)</tspan></text>
<line stroke="black" stroke-width=".5" x1="150" y1="1115.0" x2="150" y2="1121.0"/>
<line stroke="black" stroke-width=".5" x1="150" y1="1127.0" x2="150" y2="1133.0"/>
<rect  height="6px" stroke="black" stroke-width=".5" width="180px" x="150" y="1127.0"><title>2021-06-01  30.0 Cycling 01:15:00</title></rect>
<line stroke="black" stroke-width=".5" x1="150" y1="1139.0" x2="150" y2="1145.0"/>
<line stroke="black" stroke-width=".5" x1="150" y1="1151.0" x2="150" y2="1157.0"/>
<rect  fill="#ffdddd" height="6px" stroke="black" stroke-width=".5" width="21px" x="150" y="1151.0"><title>2021-06-03   3.5 Running 00:25:00</title></rect>
<rect  fill="#ddddff"><title>2021-06-03 Strength 00:25:00</title></rect>
<line stroke="black" stroke-width=".5" x1="150" y1="1163.0" x2="150" y2="1169.0"/>
<line stroke="black" stroke-width=".5" x1="150" y1="1175.0" x2="150" y2="1181.0"/>
<line stroke="black" stroke-width=".5" x1="150" y1="1187.0" x2="150" y2="1193.0"/>
<rect  height="6px" stroke="black" stroke-width=".5" width="240px" x="150" y="1187.0"><title>2021-06-06  40.0 Cycling 02:00:00</title></rect>
</g><g><line stroke="black" stroke-width=".5" stroke-dasharray="2,10" x1="0" y1="1196" x2="1530" y2="1196"/>
<text x="0" y="1196" font-size="9" style="vertical-align:top" text-anchor="right"><tspan x="10" dy="1.5em">General Regeneration</tspan><tspan x="10" dy="1.5em">(2021-06-07 .. 2021-06-13)</tspan></text>
<line stroke="black" stroke-width=".5" x1="150" y1="1199.0" x2="150" y2="1205.0"/>
<line stroke="black" stroke-width=".5" x1="150" y1="1211.0" x2="150" y2="1217.0"/>
<rect  height="6px" stroke="black" stroke-width=".5" width="180px" x="150" y="1211.0"><title>2021-06-08  30.0 Cycling 01:15:00</title></rect>
<line stroke="black" stroke-width=".5" x1="150" y1="1223.0" x2="150" y2="1229.0"/>
<line stroke="black" stroke-width=".5" x1="150" y1="1235.0" x2="150" y2="1241.0"/>
<rect  fill="#ffdddd" height="6px" stroke="black" stroke-width=".5" width="21px" x="150" y="1235.0"><title>2021-06-10   3.5 Running 00:25:00</title></rect>
<line stroke="black" stroke-width=".5" x1="150" y1="1247.0" x2="150" y2="1253.0"/>
<line stroke="black" stroke-width=".5" x1="150" y1="1259.0" x2="150" y2="1265.0"/>
<line stroke="black" stroke-width=".5" x1="150" y1="1271.0" x2="150" y2="1277.0"/>
<rect  height="6px" stroke="black" stroke-width=".5" width="180px" x="150" y="1271.0"><title>2021-06-13  30.0 Cycling 01:15:00</title></rect>
</g><g><line stroke="black" stroke-width=".5" stroke-dasharray="2,10" x1="0" y1="1280" x2="1530" y2="1280"/>
<text x="0" y="1280" font-size="9" style="vertical-align:top" text-anchor="right"><tspan x="10" dy="1.5em">Focus Cycling</tspan><tspan x="10" dy="1.5em">(2021-06-14 .. 2021-06-20)</tspan></text>
<line stroke="black" stroke-width=".5" x1="150" y1="1283.0" x2="150" y2="1289.0"/>
<line stroke="black" stroke-width=".5" x1="150" y1="1295.0" x2="150" y2="1301.0"/>
<rect  height="6px" stroke="black" stroke-width=".5" width="180px" x="150" y="1295.0"><title>2021-06-15  30.0 Cycling 01:15:00</title></rect>
<line stroke="black" stroke-width=".5" x1="150" y1="1307.0" x2="150" y2="1313.0"/>
<line stroke="black" stroke-width=".5" x1="150" y1="1319.0" x2="150" y2="1325.0"/>
<rect  fill="#ffdddd" height="6px" stroke="black" stroke-width=".5" width="21px" x="150" y="1319.0"><title>2021-06-17   3.5 Running 00:25:00</title></rect>
<rect  fill="#ddddff"><title>2021-06-17 Strength 00:25:00</title></rect>
<line stroke="black" stroke-width=".5" x1="150" y1="1331.0" x2="150" y2="1337.0"/>
<line stroke="black" stroke-width=".5" x1="150" y1="1343.0" x2="150" y2="1349.0"/>
<line stroke="black" stroke-width=".5" x1="150" y1="1355.0" x2="150" y2="1361.0"/>
<rect  height="6px" stroke="black" stroke-width=".5" width="240px" x="150" y="1355.0"><title>2021-06-20  40.0 Cycling 02:00:00</title></rect>
</g><g><line stroke="black" stroke-width=".5" stroke-dasharray="2,10" x1="0" y1="1364" x2="1530" y2="1364"/>
<text x="0" y="1364" font-size="9" style="vertical-align:top" text-anchor="right"><tspan x="10" dy="1.5em">Focus Cycling</tspan><tspan x="10" dy="1.5em">(2021-06-21 .. 2021-06-27)</tspan></text>
<line stroke="black" stroke-width=".5" x1="150" y1="1367.0" x2="150" y2="1373.0"/>
<line stroke="black" stroke-width=".5" x1="150" y1="1379.0" x2="150" y2="1385.0"/>
<rect  height="6px" stroke="black" stroke-width=".5" width="216px" x="150" y="1379.0"><title>2021-06-22  36.0 Cycling 01:30:00</title></rect>
<line stroke="black" stroke-width=".5" x1="150" y1="1391.0" x2="150" y2="1397.0"/>
<line stroke="black" stroke-width=".5" x1="150" y1="1403.0" x2="150" y2="1409.0"/>
<rect  fill="#ffdddd" height="6px" stroke="black" stroke-width=".5" width="25px" x="150" y="1403.0"><title>2021-06-24   4.2 Running 00:30:00</title></rect>
<rect  fill="#ddddff"><title>2021-06-24 Strength 00:30:00</title></rect>
<line stroke="black" stroke-width=".5" x1="150" y1="1415.0" x2="150" y2="1421.0"/>
<line stroke="black" stroke-width=".5" x1="150" y1="1427.0" x2="150" y2="1433.0"/>
<line stroke="black" stroke-width=".5" x1="150" y1="1439.0" x2="150" y2="1445.0"/>
<rect  height="6px" stroke="black" stroke-width=".5" width="288px" x="150" y="1439.0"><title>2021-06-27  48.0 Cycling 02:24:00</title></rect>
</g><g><line stroke="black" stroke-width=".5" stroke-dasharray="2,10" x1="0" y1="1448" x2="1530" y2="1448"/>
<text x="0" y="1448" font-size="9" style="vertical-align:top" text-anchor="right"><tspan x="10" dy="1.5em">Focus Cycling</tspan><tspan x="10" dy="1.5em">(2021-06-28 .. 2021-07-04)</tspan></text>
<line stroke="black" stroke-width=".5" x1="150" y1="1451.0" x2="150" y2="1457.0"/>
<line stroke="black" stroke-width=".5" x1="150" y1="1463.0" x2="150" y2="1469.0"/>
<rect  height="6px" stroke="black" stroke-width=".5" width="216px" x="150" y="1463.0"><title>2021-06-29  36.0 Cycling 01:30:00</title></rect>
<line stroke="black" stroke-width=".5" x1="150" y1="1475.0" x2="150" y2="1481.0"/>
<line stroke="black" stroke-width=".5" x1="150" y1="1487.0" x2="150" y2="1493.0"/>
<rect  fill="#ffdddd" height="6px" stroke="black" stroke-width=".5" width="25px" x="150" y="1487.0"><title>2021-07-01   4.2 Running 00:30:00</title></rect>
<rect  fill="#ddddff"><title>2021-07-01 Strength 00:30:00</title></rect>
<line stroke="black" stroke-width=".5" x1="150" y1="1499.0" x2="150" y2="1505.0"/>
<line stroke="black" stroke-width=".5" x1="150" y1="1511.0" x2="150" y2="1517.0"/>
<line stroke="black" stroke-width=".5" x1="150" y1="1523.0" x2="150" y2="1529.0"/>
<rect  height="6px" stroke="black" stroke-width=".5" width="288px" x="150" y="1523.0"><title>2021-07-04  48.0 Cycling 02:24:00</title></rect>
</g><g><line stroke="black" stroke-width=".5" stroke-dasharray="2,10" x1="0" y1="1532" x2="1530" y2="1532"/>
<text x="0" y="1532" font-size="9" style="vertical-align:top" text-anchor="right"><tspan x="10" dy="1.5em">General Regeneration</tspan><tspan x="10" dy="1.5em">(2021-07-05 .. 2021-07-11)</tspan></text>
<line stroke="black" stroke-width=".5" x1="150" y1="1535.0" x2="150" y2="1541.0"/>
<line stroke="black" stroke-width=".5" x1="150" y1="1547.0" x2="150" y2="1553.0"/>
<rect  height="6px" stroke="black" stroke-width=".5" width="180px" x="150" y="1547.0"><title>2021-07-06  30.0 Cycling 01:15:00</title></rect>
<line stroke="black" stroke-width=".5" x1="150" y1="1559.0" x2="150" y2="1565.0"/>
<line stroke="black" stroke-width=".5" x1="150" y1="1571.0" x2="150" y2="1577.0"/>
<rect  fill="#ffdddd" height="6px" stroke="black" stroke-width=".5" width="21px" x="150" y="1571.0"><title>2021-07-08   3.5 Running 00:25:00</title></rect>
<line stroke="black" stroke-width=".5" x1="150" y1="1583.0" x2="150" y2="1589.0"/>
<line stroke="black" stroke-width=".5" x1="150" y1="1595.0" x2="150" y2="1601.0"/>
<line stroke="black" stroke-width=".5" x1="150" y1="1607.0" x2="150" y2="1613.0"/>
<rect  height="6px" stroke="black" stroke-width=".5" width="180px" x="150" y="1607.0"><title>2021-07-11  30.0 Cycling 01:15:00</title></rect>
</g></g><g><g><line stroke="black" stroke-width=".5" stroke-dasharray="2,10" x1="0" y1="1616" x2="1530" y2="1616"/>
<text x="0" y="1616" font-size="9" style="vertical-align:top" text-anchor="right"><tspan x="10" dy="1.5em">Focus Running</tspan><tspan x="10" dy="1.5em">(2021-07-12 .. 2021-07-18)</tspan></text>
<line stroke="black" stroke-width=".5" x1="150" y1="1619.0" x2="150" y2="1625.0"/>
<line stroke="black" stroke-width=".5" x1="150" y1="1631.0" x2="150" y2="1637.0"/>
<line stroke="black" stroke-width=".5" x1="150" y1="1643.0" x2="150" y2="1649.0"/>
<rect  fill="#ffdddd" height="6px" stroke="black" stroke-width=".5" width="21px" x="150" y="1643.0"><title>2021-07-14   3.5 Running 00:25:00</title></rect>
<line stroke="black" stroke-width=".5" x1="150" y1="1655.0" x2="150" y2="1661.0"/>
<rect  fill="#ddddff"><title>2021-07-15 Strength 00:25:00</title></rect>
<line stroke="black" stroke-width=".5" x1="150" y1="1667.0" x2="150" y2="1673.0"/>
<rect  fill="#ffdddd" height="6px" stroke="black" stroke-width=".5" width="21px" x="150" y="1667.0"><title>2021-07-16   3.5 Running 02:30:00</title></rect>
<line stroke="black" stroke-width=".5" x1="150" y1="1679.0" x2="150" y2="1685.0"/>
<line stroke="black" stroke-width=".5" x1="150" y1="1691.0" x2="150" y2="1697.0"/>
<rect  height="6px" stroke="black" stroke-width=".5" width="180px" x="150" y="1691.0"><title>2021-07-18  30.0 Cycling 01:25:00</title></rect>
</g><g><line stroke="black" stroke-width=".5" stroke-dasharray="2,10" x1="0" y1="1700" x2="1530" y2="1700"/>
<text x="0" y="1700" font-size="9" style="vertical-align:top" text-anchor="right"><tspan x="10" dy="1.5em">Focus Running</tspan><tspan x="10" dy="1.5em">(2021-07-19 .. 2021-07-25)</tspan></text>
<line stroke="black" stroke-width=".5" x1="150" y1="1703.0" x2="150" y2="1709.0"/>
<line stroke="black" stroke-width=".5" x1="150" y1="1715.0" x2="150" y2="1721.0"/>
<line stroke="black" stroke-width=".5" x1="150" y1="1727.0" x2="150" y2="1733.0"/>
<rect  fill="#ffdddd" height="6px" stroke="black" stroke-width=".5" width="21px" x="150" y="1727.0"><title>2021-07-21   3.5 Running 00:25:00</title></rect>
<line stroke="black" stroke-width=".5" x1="150" y1="1739.0" x2="150" y2="1745.0"/>
<rect  fill="#ddddff"><title>2021-07-22 Strength 00:25:00</title></rect>
<line stroke="black" stroke-width=".5" x1="150" y1="1751.0" x2="150" y2="1757.0"/>
<rect  fill="#ffdddd" height="6px" stroke="black" stroke-width=".5" width="21px" x="150" y="1751.0"><title>2021-07-23   3.5 Running 02:30:00</title></rect>
<line stroke="black" stroke-width=".5" x1="150" y1="1763.0" x2="150" y2="1769.0"/>
<line stroke="black" stroke-width=".5" x1="150" y1="1775.0" x2="150" y2="1781.0"/>
<rect  height="6px" stroke="black" stroke-width=".5" width="180px" x="150" y="1775.0"><title>2021-07-25  30.0 Cycling 01:25:00</title></rect>
</g><g><line stroke="black" stroke-width=".5" stroke-dasharray="2,10" x1="0" y1="1784" x2="1530" y2="1784"/>
<text x="0" y="1784" font-size="9" style="vertical-align:top" text-anchor="right"><tspan x="10" dy="1.5em">General Regeneration</tspan><tspan x="10" dy="1.5em">(2021-07-26 .. 2021-08-01)</tspan></text>
<line stroke="black" stroke-width=".5" x1="150" y1="1787.0" x2="150" y2="1793.0"/>
<line stroke="black" stroke-width=".5" x1="150" y1="1799.0" x2="150" y2="1805.0"/>
<rect  height="6px" stroke="black" stroke-width=".5" width="180px" x="150" y="1799.0"><title>2021-07-27  30.0 Cycling 01:15:00</title></rect>
<line stroke="black" stroke-width=".5" x1="150" y1="1811.0" x2="150" y2="1817.0"/>
<line stroke="black" stroke-width=".5" x1="150" y1="1823.0" x2="150" y2="1829.0"/>
<rect  fill="#ffdddd" height="6px" stroke="black" stroke-width=".5" width="21px" x="150" y="1823.0"><title>2021-07-29   3.5 Running 00:25:00</title></rect>
<line stroke="black" stroke-width=".5" x1="150" y1="1835.0" x2="150" y2="1841.0"/>
<line stroke="black" stroke-width=".5" x1="150" y1="1847.0" x2="150" y2="1853.0"/>
<line stroke="black" stroke-width=".5" x1="150" y1="1859.0" x2="150" y2="1865.0"/>
<rect  height="6px" stroke="black" stroke-width=".5" width="180px" x="150" y="1859.0"><title>2021-08-01  30.0 Cycling 01:15:00</title></rect>
</g><g><line stroke="black" stroke-width=".5" stroke-dasharray="2,10" x1="0" y1="1868" x2="1530" y2="1868"/>
<text x="0" y="1868" font-size="9" style="vertical-align:top" text-anchor="right"><tspan x="10" dy="1.5em">Focus Running</tspan><tspan x="10" dy="1.5em">(2021-08-02 .. 2021-08-08)</tspan></text>
<line stroke="black" stroke-width=".5" x1="150" y1="1871.0" x2="150" y2="1877.0"/>
<line stroke="black" stroke-width=".5" x1="150" y1="1883.0" x2="150" y2="1889.0"/>
<line stroke="black" stroke-width=".5" x1="150" y1="1895.0" x2="150" y2="1901.0"/>
<rect  fill="#ffdddd" height="6px" stroke="black" stroke-width=".5" width="25px" x="150" y="1895.0"><title>2021-08-04   4.2 Running 00:30:00</title></rect>
<line stroke="black" stroke-width=".5" x1="150" y1="1907.0" x2="150" y2="1913.0"/>
<rect  fill="#ddddff"><title>2021-08-05 Strength 00:30:00</title></rect>
<line stroke="black" stroke-width=".5" x1="150" y1="1919.0" x2="150" y2="1925.0"/>
<rect  fill="#ffdddd" height="6px" stroke="black" stroke-width=".5" width="25px" x="150" y="1919.0"><title>2021-08-06   4.2 Running 03:00:00</title></rect>
<line stroke="black" stroke-width=".5" x1="150" y1="1931.0" x2="150" y2="1937.0"/>
<line stroke="black" stroke-width=".5" x1="150" y1="1943.0" x2="150" y2="1949.0"/>
<rect  height="6px" stroke="black" stroke-width=".5" width="216px" x="150" y="1943.0"><title>2021-08-08  36.0 Cycling 01:42:00</title></rect>
</g><g><line stroke="black" stroke-width=".5" stroke-dasharray="2,10" x1="0" y1="1952" x2="1530" y2="1952"/>
<text x="0" y="1952" font-size="9" style="vertical-align:top" text-anchor="right"><tspan x="10" dy="1.5em">Focus Running</tspan><tspan x="10" dy="1.5em">(2021-08-09 .. 2021-08-15)</tspan></text>
<line stroke="black" stroke-width=".5" x1="150" y1="1955.0" x2="150" y2="1961.0"/>
<line stroke="black" stroke-width=".5" x1="150" y1="1967.0" x2="150" y2="1973.0"/>
<line stroke="black" stroke-width=".5" x1="150" y1="1979.0" x2="150" y2="1985.0"/>
<rect  fill="#ffdddd" height="6px" stroke="black" stroke-width=".5" width="25px" x="150" y="1979.0"><title>2021-08-11   4.2 Running 00:30:00</title></rect>
<line stroke="black" stroke-width=".5" x1="150" y1="1991.0" x2="150" y2="1997.0"/>
<rect  fill="#ddddff"><title>2021-08-12 Strength 00:30:00</title></rect>
<line stroke="black" stroke-width=".5" x1="150" y1="2003.0" x2="150" y2="2009.0"/>
<rect  fill="#ffdddd" height="6px" stroke="black" stroke-width=".5" width="25px" x="150" y="2003.0"><title>2021-08-13   4.2 Running 03:00:00</title></rect>
<line stroke="black" stroke-width=".5" x1="150" y1="2015.0" x2="150" y2="2021.0"/>
<line stroke="black" stroke-width=".5" x1="150" y1="2027.0" x2="150" y2="2033.0"/>
<rect  height="6px" stroke="black" stroke-width=".5" width="216px" x="150" y="2027.0"><title>2021-08-15  36.0 Cycling 01:42:00</title></rect>
</g><g><line stroke="black" stroke-width=".5" stroke-dasharray="2,10" x1="0" y1="2036" x2="1530" y2="2036"/>
<text x="0" y="2036" font-size="9" style="vertical-align:top" text-anchor="right"><tspan x="10" dy="1.5em">General Regeneration</tspan><tspan x="10" dy="1.5em">(2021-08-16 .. 2021-08-22)</tspan></text>
<line stroke="black" stroke-width=".5" x1="150" y1="2039.0" x2="150" y2="2045.0"/>
<line stroke="black" stroke-width=".5" x1="150" y1="2051.0" x2="150" y2="2057.0"/>
<rect  height="6px" stroke="black" stroke-width=".5" width="180px" x="150" y="2051.0"><title>2021-08-17  30.0 Cycling 01:15:00</title></rect>
<line stroke="black" stroke-width=".5" x1="150" y1="2063.0" x2="150" y2="2069.0"/>
<line stroke="black" stroke-width=".5" x1="150" y1="2075.0" x2="150" y2="2081.0"/>
<rect  fill="#ffdddd" height="6px" stroke="black" stroke-width=".5" width="21px" x="150" y="2075.0"><title>2021-08-19   3.5 Running 00:25:00</title></rect>
<line stroke="black" stroke-width=".5" x1="150" y1="2087.0" x2="150" y2="2093.0"/>
<line stroke="black" stroke-width=".5" x1="150" y1="2099.0" x2="150" y2="2105.0"/>
<line stroke="black" stroke-width=".5" x1="150" y1="2111.0" x2="150" y2="2117.0"/>
<rect  height="6px" stroke="black" stroke-width=".5" width="180px" x="150" y="2111.0"><title>2021-08-22  30.0 Cycling 01:15:00</title></rect>
</g></g><g><g><line stroke="black" stroke-width=".5" stroke-dasharray="2,10" x1="0" y1="2120" x2="1530" y2="2120"/>
<text x="0" y="2120" font-size="9" style="vertical-align:top" text-anchor="right"><tspan x="10" dy="1.5em">Focus Swimming</tspan><tspan x="10" dy="1.5em">(2021-08-23 .. 2021-08-29)</tspan></text>
<line stroke="black" stroke-width=".5" x1="150" y1="2123.0" x2="150" y2="2129.0"/>
<line stroke="black" stroke-width=".5" x1="150" y1="2135.0" x2="150" y2="2141.0"/>
<rect  fill="#ddddff" height="6px" stroke="black" stroke-width=".5" width="12px" x="150" y="2135.0"><title>2021-08-24   2.0 Swimming 01:15:00</title></rect>
<line stroke="black" stroke-width=".5" x1="150" y1="2147.0" x2="150" y2="2153.0"/>
<line stroke="black" stroke-width=".5" x1="150" y1="2159.0" x2="150" y2="2165.0"/>
<rect  fill="#ffdddd" height="6px" stroke="black" stroke-width=".5" width="21px" x="150" y="2159.0"><title>2021-08-26   3.5 Running 00:25:00</title></rect>
<rect  fill="#ddddff"><title>2021-08-26 Strength 00:25:00</title></rect>
<line stroke="black" stroke-width=".5" x1="150" y1="2171.0" x2="150" y2="2177.0"/>
<line stroke="black" stroke-width=".5" x1="150" y1="2183.0" x2="150" y2="2189.0"/>
<line stroke="black" stroke-width=".5" x1="150" y1="2195.0" x2="150" y2="2201.0"/>
<rect  fill="#ddddff" height="6px" stroke="black" stroke-width=".5" width="18px" x="150" y="2195.0"><title>2021-08-29   3.0 Swimming 02:00:00</title></rect>
</g><g><line stroke="black" stroke-width=".5" stroke-dasharray="2,10" x1="0" y1="2204" x2="1530" y2="2204"/>
<text x="0" y="2204" font-size="9" style="vertical-align:top" text-anchor="right"><tspan x="10" dy="1.5em">Focus Swimming</tspan><tspan x="10" dy="1.5em">(2021-08-30 .. 2021-09-05)</tspan></text>
<line stroke="black" stroke-width=".5" x1="150" y1="2207.0" x2="150" y2="2213.0"/>
<line stroke="black" stroke-width=".5" x1="150" y1="2219.0" x2="150" y2="2225.0"/>
<rect  fill="#ddddff" height="6px" stroke="black" stroke-width=".5" width="12px" x="150" y="2219.0"><title>2021-08-31   2.0 Swimming 01:15:00</title></rect>
<line stroke="black" stroke-width=".5" x1="150" y1="2231.0" x2="150" y2="2237.0"/>
<line stroke="black" stroke-width=".5" x1="150" y1="2243.0" x2="150" y2="2249.0"/>
<rect  fill="#ffdddd" height="6px" stroke="black" stroke-width=".5" width="21px" x="150" y="2243.0"><title>2021-09-02   3.5 Running 00:25:00</title></rect>
<rect  fill="#ddddff"><title>2021-09-02 Strength 00:25:00</title></rect>
<line stroke="black" stroke-width=".5" x1="150" y1="2255.0" x2="150" y2="2261.0"/>
<line stroke="black" stroke-width=".5" x1="150" y1="2267.0" x2="150" y2="2273.0"/>
<line stroke="black" stroke-width=".5" x1="150" y1="2279.0" x2="150" y2="2285.0"/>
<rect  fill="#ddddff" height="6px" stroke="black" stroke-width=".5" width="18px" x="150" y="2279.0"><title>2021-09-05   3.0 Swimming 02:00:00</title></rect>
</g><g><line stroke="black" stroke-width=".5" stroke-dasharray="2,10" x1="0" y1="2288" x2="1530" y2="2288"/>
<text x="0" y="2288" font-size="9" style="vertical-align:top" text-anchor="right"><tspan x="10" dy="1.5em">General Regeneration</tspan><tspan x="10" dy="1.5em">(2021-09-06 .. 2021-09-12)</tspan></text>
<line stroke="black" stroke-width=".5" x1="150" y1="2291.0" x2="150" y2="2297.0"/>
<line stroke="black" stroke-width=".5" x1="150" y1="2303.0" x2="150" y2="2309.0"/>
<rect  height="6px" stroke="black" stroke-width=".5" width="180px" x="150" y="2303.0"><title>2021-09-07  30.0 Cycling 01:15:00</title></rect>
<line stroke="black" stroke-width=".5" x1="150" y1="2315.0" x2="150" y2="2321.0"/>
<line stroke="black" stroke-width=".5" x1="150" y1="2327.0" x2="150" y2="2333.0"/>
<rect  fill="#ffdddd" height="6px" stroke="black" stroke-width=".5" width="21px" x="150" y="2327.0"><title>2021-09-09   3.5 Running 00:25:00</title></rect>
<line stroke="black" stroke-width=".5" x1="150" y1="2339.0" x2="150" y2="2345.0"/>
<line stroke="black" stroke-width=".5" x1="150" y1="2351.0" x2="150" y2="2357.0"/>
<line stroke="black" stroke-width=".5" x1="150" y1="2363.0" x2="150" y2="2369.0"/>
<rect  height="6px" stroke="black" stroke-width=".5" width="180px" x="150" y="2363.0"><title>2021-09-12  30.0 Cycling 01:15:00</title></rect>
</g><g><line stroke="black" stroke-width=".5" stroke-dasharray="2,10" x1="0" y1="2372" x2="1530" y2="2372"/>
<text x="0" y="2372" font-size="9" style="vertical-align:top" text-anchor="right"><tspan x="10" dy="1.5em">Focus Swimming</tspan><tspan x="10" dy="1.5em">(2021-09-13 .. 2021-09-19)</tspan></text>
<line stroke="black" stroke-width=".5" x1="150" y1="2375.0" x2="150" y2="2381.0"/>
<line stroke="black" stroke-width=".5" x1="150" y1="2387.0" x2="150" y2="2393.0"/>
<rect  fill="#ddddff" height="6px" stroke="black" stroke-width=".5" width="12px" x="150" y="2387.0"><title>2021-09-14   2.0 Swimming 01:15:00</title></rect>
<line stroke="black" stroke-width=".5" x1="150" y1="2399.0" x2="150" y2="2405.0"/>
<line stroke="black" stroke-width=".5" x1="150" y1="2411.0" x2="150" y2="2417.0"/>
<rect  fill="#ffdddd" height="6px" stroke="black" stroke-width=".5" width="21px" x="150" y="2411.0"><title>2021-09-16   3.5 Running 00:25:00</title></rect>
<rect  fill="#ddddff"><title>2021-09-16 Strength 00:25:00</title></rect>
<line stroke="black" stroke-width=".5" x1="150" y1="2423.0" x2="150" y2="2429.0"/>
<line stroke="black" stroke-width=".5" x1="150" y1="2435.0" x2="150" y2="2441.0"/>
<line stroke="black" stroke-width=".5" x1="150" y1="2447.0" x2="150" y2="2453.0"/>
<rect  fill="#ddddff" height="6px" stroke="black" stroke-width=".5" width="18px" x="150" y="2447.0"><title>2021-09-19   3.0 Swimming 02:00:00</title></rect>
</g><g><line stroke="black" stroke-width=".5" stroke-dasharray="2,10" x1="0" y1="2456" x2="1530" y2="2456"/>
<text x="0" y="2456" font-size="9" style="vertical-align:top" text-anchor="right"><tspan x="10" dy="1.5em">Focus Swimming</tspan><tspan x="10" dy="1.5em">(2021-09-20 .. 2021-09-26)</tspan></text>
<line stroke="black" stroke-width=".5" x1="150" y1="2459.0" x2="150" y2="2465.0"/>
<line stroke="black" stroke-width=".5" x1="150" y1="2471.0" x2="150" y2="2477.0"/>
<rect  fill="#ddddff" height="6px" stroke="black" stroke-width=".5" width="14px" x="150" y="2471.0"><title>2021-09-21   2.4 Swimming 01:30:00</title></rect>
<line stroke="black" stroke-width=".5" x1="150" y1="2483.0" x2="150" y2="2489.0"/>
<line stroke="black" stroke-width=".5" x1="150" y1="2495.0" x2="150" y2="2501.0"/>
<rect  fill="#ffdddd" height="6px" stroke="black" stroke-width=".5" width="25px" x="150" y="2495.0"><title>2021-09-23   4.2 Running 00:30:00</title></rect>
<rect  fill="#ddddff"><title>2021-09-23 Strength 00:30:00</title></rect>
<line stroke="black" stroke-width=".5" x1="150" y1="2507.0" x2="150" y2="2513.0"/>
<line stroke="black" stroke-width=".5" x1="150" y1="2519.0" x2="150" y2="2525.0"/>
<line stroke="black" stroke-width=".5" x1="150" y1="2531.0" x2="150" y2="2537.0"/>
<rect  fill="#ddddff" height="6px" stroke="black" stroke-width=".5" width="22px" x="150" y="2531.0"><title>2021-09-26   3.6 Swimming 02:24:00</title></rect>
</g><g><line stroke="black" stroke-width=".5" stroke-dasharray="2,10" x1="0" y1="2540" x2="1530" y2="2540"/>
<text x="0" y="2540" font-size="9" style="vertical-align:top" text-anchor="right"><tspan x="10" dy="1.5em">General Regeneration</tspan><tspan x="10" dy="1.5em">(2021-09-27 .. 2021-10-03)</tspan></text>
<line stroke="black" stroke-width=".5" x1="150" y1="2543.0" x2="150" y2="2549.0"/>
<line stroke="black" stroke-width=".5" x1="150" y1="2555.0" x2="150" y2="2561.0"/>
<rect  height="6px" stroke="black" stroke-width=".5" width="180px" x="150" y="2555.0"><title>2021-09-28  30.0 Cycling 01:15:00</title></rect>
<line stroke="black" stroke-width=".5" x1="150" y1="2567.0" x2="150" y2="2573.0"/>
<line stroke="black" stroke-width=".5" x1="150" y1="2579.0" x2="150" y2="2585.0"/>
<rect  fill="#ffdddd" height="6px" stroke="black" stroke-width=".5" width="21px" x="150" y="2579.0"><title>2021-09-30   3.5 Running 00:25:00</title></rect>
<line stroke="black" stroke-width=".5" x1="150" y1="2591.0" x2="150" y2="2597.0"/>
<line stroke="black" stroke-width=".5" x1="150" y1="2603.0" x2="150" y2="2609.0"/>
<line stroke="black" stroke-width=".5" x1="150" y1="2615.0" x2="150" y2="2621.0"/>
<rect  height="6px" stroke="black" stroke-width=".5" width="180px" x="150" y="2615.0"><title>2021-10-03  30.0 Cycling 01:15:00</title></rect>
</g></g><g><line stroke="black" stroke-width=".5" stroke-dasharray="2,10" x1="0" y1="2624" x2="1530" y2="2624"/>
<text x="0" y="2624" font-size="9" style="vertical-align:top" text-anchor="right"><tspan x="10" dy="1.5em">Highlight Triathlon Olympic Distance</tspan><tspan x="10" dy="1.5em">(2021-10-04 .. 2021-10-10)</tspan></text>
<line stroke="black" stroke-width=".5" x1="150" y1="2627.0" x2="150" y2="2633.0"/>
<line stroke="black" stroke-width=".5" x1="150" y1="2639.0" x2="150" y2="2645.0"/>
<line stroke="black" stroke-width=".5" x1="150" y1="2651.0" x2="150" y2="2657.0"/>
<line stroke="black" stroke-width=".5" x1="150" y1="2663.0" x2="150" y2="2669.0"/>
<line stroke="black" stroke-width=".5" x1="150" y1="2675.0" x2="150" y2="2681.0"/>
<line stroke="black" stroke-width=".5" x1="150" y1="2687.0" x2="150" y2="2693.0"/>
<line stroke="black" stroke-width=".5" x1="150" y1="2699.0" x2="150" y2="2705.0"/>
<rect  fill="#ddddff" height="6px" stroke="black" stroke-width=".5" width="9px" x="150" y="2699.0"><title>2021-10-10   1.5 Swimming 01:00:00</title></rect>
<rect  height="6px" stroke="black" stroke-width=".5" width="240px" x="159" y="2699.0"><title>2021-10-10  40.0 Cycling 01:40:00</title></rect>
<rect  fill="#ffdddd" height="6px" stroke="black" stroke-width=".5" width="60px" x="399" y="2699.0"><title>2021-10-10  10.0 Running 01:30:00</title></rect>
</g></g></svg>
