<?xml version="1.0" encoding="UTF-8" standalone="no"?>
<!DOCTYPE svg PUBLIC "-//W3C//DTD SVG 1.1//EN"
 "http://www.w3.org/Graphics/SVG/1.1/DTD/svg11.dtd">
<!-- Generated by graphviz version 2.43.0 (0)
 -->
<!-- Title: classes_training Pages: 1 -->
<svg width="1306pt" height="1930pt"
 viewBox="0.00 0.00 1305.50 1930.00" xmlns="http://www.w3.org/2000/svg" xmlns:xlink="http://www.w3.org/1999/xlink">
<g id="graph0" class="graph" transform="scale(1 1) rotate(0) translate(4 1926)">
<title>classes_training</title>
<polygon fill="white" stroke="transparent" points="-4,4 -4,-1926 1301.5,-1926 1301.5,4 -4,4"/>
<!-- _datetime.datetime.timedelta -->
<g id="node1" class="node">
<title>_datetime.datetime.timedelta</title>
<polygon fill="none" stroke="black" points="0,-190 0,-289 228,-289 228,-190 0,-190"/>
<text text-anchor="middle" x="114" y="-273.8" font-family="Times,serif" font-size="14.00">_datetime.datetime.timedelta</text>
<polyline fill="none" stroke="black" points="0,-266 228,-266 "/>
<text text-anchor="start" x="8" y="-250.8" font-family="Times,serif" font-size="14.00">days</text>
<text text-anchor="start" x="8" y="-235.8" font-family="Times,serif" font-size="14.00">microseconds</text>
<text text-anchor="start" x="8" y="-220.8" font-family="Times,serif" font-size="14.00">seconds</text>
<polyline fill="none" stroke="black" points="0,-213 228,-213 "/>
<text text-anchor="start" x="8" y="-197.8" font-family="Times,serif" font-size="14.00">total_seconds()</text>
</g>
<!-- datetime.timedelta -->
<g id="node2" class="node">
<title>datetime.timedelta</title>
<polygon fill="none" stroke="black" points="467.5,-190 467.5,-289 620.5,-289 620.5,-190 467.5,-190"/>
<text text-anchor="middle" x="544" y="-273.8" font-family="Times,serif" font-size="14.00">datetime.timedelta</text>
<polyline fill="none" stroke="black" points="467.5,-266 620.5,-266 "/>
<text text-anchor="start" x="475.5" y="-250.8" font-family="Times,serif" font-size="14.00">days</text>
<text text-anchor="start" x="475.5" y="-235.8" font-family="Times,serif" font-size="14.00">microseconds</text>
<text text-anchor="start" x="475.5" y="-220.8" font-family="Times,serif" font-size="14.00">seconds</text>
<polyline fill="none" stroke="black" points="467.5,-213 620.5,-213 "/>
<text text-anchor="start" x="475.5" y="-197.8" font-family="Times,serif" font-size="14.00">total_seconds()</text>
</g>
<!-- training.unit.Unit -->
<g id="node12" class="node">
<title>training.unit.Unit</title>
<polygon fill="none" stroke="black" points="591,-393.5 591,-762.5 821,-762.5 821,-393.5 591,-393.5"/>
<text text-anchor="middle" x="706" y="-747.3" font-family="Times,serif" font-size="14.00">training.unit.Unit</text>
<polyline fill="none" stroke="black" points="591,-739.5 821,-739.5 "/>
<text text-anchor="start" x="599" y="-724.3" font-family="Times,serif" font-size="14.00">dist : NoneType, float</text>
<text text-anchor="start" x="599" y="-709.3" font-family="Times,serif" font-size="14.00">dt : NoneType, datetime</text>
<text text-anchor="start" x="599" y="-694.3" font-family="Times,serif" font-size="14.00">duration : NoneType</text>
<text text-anchor="start" x="599" y="-679.3" font-family="Times,serif" font-size="14.00">type : NoneType</text>
<polyline fill="none" stroke="black" points="591,-671.5 821,-671.5 "/>
<text text-anchor="start" x="599" y="-656.3" font-family="Times,serif" font-size="14.00">getColor()</text>
<text text-anchor="start" x="599" y="-641.3" font-family="Times,serif" font-size="14.00">getDuration()</text>
<text text-anchor="start" x="599" y="-626.3" font-family="Times,serif" font-size="14.00">getDurationString()</text>
<text text-anchor="start" x="599" y="-611.3" font-family="Times,serif" font-size="14.00">getSpeedStr()</text>
<text text-anchor="start" x="599" y="-596.3" font-family="Times,serif" font-size="14.00">parse(objArg)</text>
<text text-anchor="start" x="599" y="-581.3" font-family="Times,serif" font-size="14.00">scale(floatScale, patternType)</text>
<text text-anchor="start" x="599" y="-566.3" font-family="Times,serif" font-size="14.00">setDate(dtArg, dt_0, dt_1)</text>
<text text-anchor="start" x="599" y="-551.3" font-family="Times,serif" font-size="14.00">setDistStr(strArg)</text>
<text text-anchor="start" x="599" y="-536.3" font-family="Times,serif" font-size="14.00">setDuration(intArg)</text>
<text text-anchor="start" x="599" y="-521.3" font-family="Times,serif" font-size="14.00">setTypeStr(strArg)</text>
<text text-anchor="start" x="599" y="-506.3" font-family="Times,serif" font-size="14.00">stat()</text>
<text text-anchor="start" x="599" y="-491.3" font-family="Times,serif" font-size="14.00">toCSV()</text>
<text text-anchor="start" x="599" y="-476.3" font-family="Times,serif" font-size="14.00">toFreemindNode()</text>
<text text-anchor="start" x="599" y="-461.3" font-family="Times,serif" font-size="14.00">toHtml()</text>
<text text-anchor="start" x="599" y="-446.3" font-family="Times,serif" font-size="14.00">toHtmlTable()</text>
<text text-anchor="start" x="599" y="-431.3" font-family="Times,serif" font-size="14.00">toSVG(x, y)</text>
<text text-anchor="start" x="599" y="-416.3" font-family="Times,serif" font-size="14.00">toSqlite()</text>
<text text-anchor="start" x="599" y="-401.3" font-family="Times,serif" font-size="14.00">to_ical(cal)</text>
</g>
<!-- datetime.timedelta&#45;&gt;training.unit.Unit -->
<g id="edge14" class="edge">
<title>datetime.timedelta&#45;&gt;training.unit.Unit</title>
<path fill="none" stroke="black" d="M554.34,-289.24C560.71,-315.28 569.97,-347.55 582,-375 583.23,-377.8 584.49,-380.61 585.78,-383.43"/>
<polygon fill="black" stroke="black" points="585.79,-383.45 591.97,-387.18 590.91,-394.31 584.73,-390.59 585.79,-383.45"/>
<text text-anchor="middle" x="612.5" y="-363.8" font-family="Times,serif" font-size="14.00" fill="green">duration</text>
</g>
<!-- training.combination.Combination -->
<g id="node3" class="node">
<title>training.combination.Combination</title>
<polygon fill="none" stroke="black" points="131.5,-1085.5 131.5,-1349.5 392.5,-1349.5 392.5,-1085.5 131.5,-1085.5"/>
<text text-anchor="middle" x="262" y="-1334.3" font-family="Times,serif" font-size="14.00">training.combination.Combination</text>
<polyline fill="none" stroke="black" points="131.5,-1326.5 392.5,-1326.5 "/>
<text text-anchor="start" x="139.5" y="-1311.3" font-family="Times,serif" font-size="14.00">child : list</text>
<polyline fill="none" stroke="black" points="131.5,-1303.5 392.5,-1303.5 "/>
<text text-anchor="start" x="139.5" y="-1288.3" font-family="Times,serif" font-size="14.00">dup()</text>
<text text-anchor="start" x="139.5" y="-1273.3" font-family="Times,serif" font-size="14.00">getDuration()</text>
<text text-anchor="start" x="139.5" y="-1258.3" font-family="Times,serif" font-size="14.00">getNumberOfUnits()</text>
<text text-anchor="start" x="139.5" y="-1243.3" font-family="Times,serif" font-size="14.00">remove(patternType)</text>
<text text-anchor="start" x="139.5" y="-1228.3" font-family="Times,serif" font-size="14.00">resetDistances()</text>
<text text-anchor="start" x="139.5" y="-1213.3" font-family="Times,serif" font-size="14.00">scale(floatScale, patternType)</text>
<text text-anchor="start" x="139.5" y="-1198.3" font-family="Times,serif" font-size="14.00">setDate(dtArg, dt_0, dt_1)</text>
<text text-anchor="start" x="139.5" y="-1183.3" font-family="Times,serif" font-size="14.00">stat()</text>
<text text-anchor="start" x="139.5" y="-1168.3" font-family="Times,serif" font-size="14.00">toCSV()</text>
<text text-anchor="start" x="139.5" y="-1153.3" font-family="Times,serif" font-size="14.00">toFreemindNode()</text>
<text text-anchor="start" x="139.5" y="-1138.3" font-family="Times,serif" font-size="14.00">toHtml()</text>
<text text-anchor="start" x="139.5" y="-1123.3" font-family="Times,serif" font-size="14.00">toHtmlTable()</text>
<text text-anchor="start" x="139.5" y="-1108.3" font-family="Times,serif" font-size="14.00">toSVG(x, y)</text>
<text text-anchor="start" x="139.5" y="-1093.3" font-family="Times,serif" font-size="14.00">to_ical(cal)</text>
</g>
<!-- training.description.Description -->
<g id="node5" class="node">
<title>training.description.Description</title>
<polygon fill="none" stroke="black" points="390,-1687.5 390,-1906.5 640,-1906.5 640,-1687.5 390,-1687.5"/>
<text text-anchor="middle" x="515" y="-1891.3" font-family="Times,serif" font-size="14.00">training.description.Description</text>
<polyline fill="none" stroke="black" points="390,-1883.5 640,-1883.5 "/>
<text text-anchor="start" x="398" y="-1868.3" font-family="Times,serif" font-size="14.00">color : NoneType</text>
<text text-anchor="start" x="398" y="-1853.3" font-family="Times,serif" font-size="14.00">listDescription : list</text>
<polyline fill="none" stroke="black" points="390,-1845.5 640,-1845.5 "/>
<text text-anchor="start" x="398" y="-1830.3" font-family="Times,serif" font-size="14.00">appendDescription(objArg)</text>
<text text-anchor="start" x="398" y="-1815.3" font-family="Times,serif" font-size="14.00">getDescriptionFreemind(listArg)</text>
<text text-anchor="start" x="398" y="-1800.3" font-family="Times,serif" font-size="14.00">getDescriptionHTML(listArg)</text>
<text text-anchor="start" x="398" y="-1785.3" font-family="Times,serif" font-size="14.00">getDescriptionSVG(listArg)</text>
<text text-anchor="start" x="398" y="-1770.3" font-family="Times,serif" font-size="14.00">getDescriptionString(listArg)</text>
<text text-anchor="start" x="398" y="-1755.3" font-family="Times,serif" font-size="14.00">getDescriptionXML()</text>
<text text-anchor="start" x="398" y="-1740.3" font-family="Times,serif" font-size="14.00">hasDescription()</text>
<text text-anchor="start" x="398" y="-1725.3" font-family="Times,serif" font-size="14.00">parseDescription(strArg)</text>
<text text-anchor="start" x="398" y="-1710.3" font-family="Times,serif" font-size="14.00">setColor(strColor)</text>
<text text-anchor="start" x="398" y="-1695.3" font-family="Times,serif" font-size="14.00">setDescription(objArg)</text>
</g>
<!-- training.combination.Combination&#45;&gt;training.description.Description -->
<g id="edge1" class="edge">
<title>training.combination.Combination&#45;&gt;training.description.Description</title>
<path fill="none" stroke="black" d="M295.02,-1349.57C318.77,-1433.63 354.73,-1543.72 401,-1635 408.44,-1649.68 417.11,-1664.53 426.28,-1678.96"/>
<polygon fill="none" stroke="black" points="423.36,-1680.9 431.73,-1687.4 429.25,-1677.1 423.36,-1680.9"/>
</g>
<!-- training.title.Title -->
<g id="node11" class="node">
<title>training.title.Title</title>
<polygon fill="none" stroke="black" points="658,-1732.5 658,-1861.5 950,-1861.5 950,-1732.5 658,-1732.5"/>
<text text-anchor="middle" x="804" y="-1846.3" font-family="Times,serif" font-size="14.00">training.title.Title</text>
<polyline fill="none" stroke="black" points="658,-1838.5 950,-1838.5 "/>
<text text-anchor="start" x="666" y="-1823.3" font-family="Times,serif" font-size="14.00">strTitle : str</text>
<polyline fill="none" stroke="black" points="658,-1815.5 950,-1815.5 "/>
<text text-anchor="start" x="666" y="-1800.3" font-family="Times,serif" font-size="14.00">getTitleLineTableOfContent(strIndent)</text>
<text text-anchor="start" x="666" y="-1785.3" font-family="Times,serif" font-size="14.00">getTitleString()</text>
<text text-anchor="start" x="666" y="-1770.3" font-family="Times,serif" font-size="14.00">getTitleXML()</text>
<text text-anchor="start" x="666" y="-1755.3" font-family="Times,serif" font-size="14.00">hasTitle()</text>
<text text-anchor="start" x="666" y="-1740.3" font-family="Times,serif" font-size="14.00">setTitleStr(strArg)</text>
</g>
<!-- training.combination.Combination&#45;&gt;training.title.Title -->
<g id="edge2" class="edge">
<title>training.combination.Combination&#45;&gt;training.title.Title</title>
<path fill="none" stroke="black" d="M270.61,-1349.83C284.04,-1443.59 317.66,-1565.03 401,-1635 486.35,-1706.66 546.86,-1627.43 649,-1672 678.78,-1685 707.66,-1705.24 732.25,-1725.63"/>
<polygon fill="none" stroke="black" points="730.18,-1728.47 740.08,-1732.25 734.7,-1723.12 730.18,-1728.47"/>
</g>
<!-- training.cycle.Cycle -->
<g id="node4" class="node">
<title>training.cycle.Cycle</title>
<polygon fill="none" stroke="black" points="637.5,-890.5 637.5,-1544.5 936.5,-1544.5 936.5,-890.5 637.5,-890.5"/>
<text text-anchor="middle" x="787" y="-1529.3" font-family="Times,serif" font-size="14.00">training.cycle.Cycle</text>
<polyline fill="none" stroke="black" points="637.5,-1521.5 936.5,-1521.5 "/>
<text text-anchor="start" x="645.5" y="-1506.3" font-family="Times,serif" font-size="14.00">color : NoneType</text>
<text text-anchor="start" x="645.5" y="-1491.3" font-family="Times,serif" font-size="14.00">data : list, NoneType</text>
<text text-anchor="start" x="645.5" y="-1476.3" font-family="Times,serif" font-size="14.00">dateBegin : date, NoneType</text>
<text text-anchor="start" x="645.5" y="-1461.3" font-family="Times,serif" font-size="14.00">dateEnd : NoneType</text>
<text text-anchor="start" x="645.5" y="-1446.3" font-family="Times,serif" font-size="14.00">day : list</text>
<text text-anchor="start" x="645.5" y="-1431.3" font-family="Times,serif" font-size="14.00">fPlan : bool</text>
<polyline fill="none" stroke="black" points="637.5,-1423.5 936.5,-1423.5 "/>
<text text-anchor="start" x="645.5" y="-1408.3" font-family="Times,serif" font-size="14.00">copy(intIndexA, intIndexB, flagReplace)</text>
<text text-anchor="start" x="645.5" y="-1393.3" font-family="Times,serif" font-size="14.00">dup()</text>
<text text-anchor="start" x="645.5" y="-1378.3" font-family="Times,serif" font-size="14.00">getCycleByDate(objDate)</text>
<text text-anchor="start" x="645.5" y="-1363.3" font-family="Times,serif" font-size="14.00">getDateString()</text>
<text text-anchor="start" x="645.5" y="-1348.3" font-family="Times,serif" font-size="14.00">getDuration()</text>
<text text-anchor="start" x="645.5" y="-1333.3" font-family="Times,serif" font-size="14.00">getNumberOfUnits()</text>
<text text-anchor="start" x="645.5" y="-1318.3" font-family="Times,serif" font-size="14.00">getPeriodDone()</text>
<text text-anchor="start" x="645.5" y="-1303.3" font-family="Times,serif" font-size="14.00">insert(objIndex, objArg, flagReplace)</text>
<text text-anchor="start" x="645.5" y="-1288.3" font-family="Times,serif" font-size="14.00">insertByDate(objArg, flagReplace)</text>
<text text-anchor="start" x="645.5" y="-1273.3" font-family="Times,serif" font-size="14.00">insertDescription(objArgA, objArgB)</text>
<text text-anchor="start" x="645.5" y="-1258.3" font-family="Times,serif" font-size="14.00">insertDescriptionStr(intIndex, strArg)</text>
<text text-anchor="start" x="645.5" y="-1243.3" font-family="Times,serif" font-size="14.00">remove(intIndexA, patternType)</text>
<text text-anchor="start" x="645.5" y="-1228.3" font-family="Times,serif" font-size="14.00">report(dictArg)</text>
<text text-anchor="start" x="645.5" y="-1213.3" font-family="Times,serif" font-size="14.00">resetDistances()</text>
<text text-anchor="start" x="645.5" y="-1198.3" font-family="Times,serif" font-size="14.00">reverse()</text>
<text text-anchor="start" x="645.5" y="-1183.3" font-family="Times,serif" font-size="14.00">scale(floatScale, patternType)</text>
<text text-anchor="start" x="645.5" y="-1168.3" font-family="Times,serif" font-size="14.00">schedule(intYear, intMonth, intDay)</text>
<text text-anchor="start" x="645.5" y="-1153.3" font-family="Times,serif" font-size="14.00">setPlan(fPlan)</text>
<text text-anchor="start" x="645.5" y="-1138.3" font-family="Times,serif" font-size="14.00">shift(intIndexA, intIndexB, flagReplace)</text>
<text text-anchor="start" x="645.5" y="-1123.3" font-family="Times,serif" font-size="14.00">stat()</text>
<text text-anchor="start" x="645.5" y="-1108.3" font-family="Times,serif" font-size="14.00">stretch(n)</text>
<text text-anchor="start" x="645.5" y="-1093.3" font-family="Times,serif" font-size="14.00">swap(intIndexA, intIndexB)</text>
<text text-anchor="start" x="645.5" y="-1078.3" font-family="Times,serif" font-size="14.00">toCSV()</text>
<text text-anchor="start" x="645.5" y="-1063.3" font-family="Times,serif" font-size="14.00">toFreeMind()</text>
<text text-anchor="start" x="645.5" y="-1048.3" font-family="Times,serif" font-size="14.00">toFreemindNode()</text>
<text text-anchor="start" x="645.5" y="-1033.3" font-family="Times,serif" font-size="14.00">toHtml()</text>
<text text-anchor="start" x="645.5" y="-1018.3" font-family="Times,serif" font-size="14.00">toHtmlFile()</text>
<text text-anchor="start" x="645.5" y="-1003.3" font-family="Times,serif" font-size="14.00">toHtmlTable()</text>
<text text-anchor="start" x="645.5" y="-988.3" font-family="Times,serif" font-size="14.00">toSVG(x, y)</text>
<text text-anchor="start" x="645.5" y="-973.3" font-family="Times,serif" font-size="14.00">toSVGDiagram()</text>
<text text-anchor="start" x="645.5" y="-958.3" font-family="Times,serif" font-size="14.00">toSVGGanttChart()</text>
<text text-anchor="start" x="645.5" y="-943.3" font-family="Times,serif" font-size="14.00">toSqlite()</text>
<text text-anchor="start" x="645.5" y="-928.3" font-family="Times,serif" font-size="14.00">toString()</text>
<text text-anchor="start" x="645.5" y="-913.3" font-family="Times,serif" font-size="14.00">toVCalendar()</text>
<text text-anchor="start" x="645.5" y="-898.3" font-family="Times,serif" font-size="14.00">to_ical(cal)</text>
</g>
<!-- training.cycle.Cycle&#45;&gt;training.description.Description -->
<g id="edge3" class="edge">
<title>training.cycle.Cycle&#45;&gt;training.description.Description</title>
<path fill="none" stroke="black" d="M671.53,-1544.59C657.86,-1575.61 643.3,-1606.21 628,-1635 620.23,-1649.62 611.35,-1664.48 602.06,-1678.96"/>
<polygon fill="none" stroke="black" points="599.07,-1677.15 596.55,-1687.44 604.94,-1680.96 599.07,-1677.15"/>
</g>
<!-- training.plot.Plot -->
<g id="node10" class="node">
<title>training.plot.Plot</title>
<polygon fill="none" stroke="black" points="969.5,-1672.5 969.5,-1921.5 1280.5,-1921.5 1280.5,-1672.5 969.5,-1672.5"/>
<text text-anchor="middle" x="1125" y="-1906.3" font-family="Times,serif" font-size="14.00">training.plot.Plot</text>
<polyline fill="none" stroke="black" points="969.5,-1898.5 1280.5,-1898.5 "/>
<text text-anchor="start" x="977.5" y="-1883.3" font-family="Times,serif" font-size="14.00">fPlot : bool</text>
<text text-anchor="start" x="977.5" y="-1868.3" font-family="Times,serif" font-size="14.00">strPlotAccumulation : NoneType</text>
<text text-anchor="start" x="977.5" y="-1853.3" font-family="Times,serif" font-size="14.00">strPlotAccumulationDuration : NoneType</text>
<text text-anchor="start" x="977.5" y="-1838.3" font-family="Times,serif" font-size="14.00">strPlotHist : NoneType</text>
<text text-anchor="start" x="977.5" y="-1823.3" font-family="Times,serif" font-size="14.00">strPlotTimeDist : NoneType</text>
<polyline fill="none" stroke="black" points="969.5,-1815.5 1280.5,-1815.5 "/>
<text text-anchor="start" x="977.5" y="-1800.3" font-family="Times,serif" font-size="14.00">getDayDist(strArg)</text>
<text text-anchor="start" x="977.5" y="-1785.3" font-family="Times,serif" font-size="14.00">getDayDuration(strArg)</text>
<text text-anchor="start" x="977.5" y="-1770.3" font-family="Times,serif" font-size="14.00">getTimeDist(strArg)</text>
<text text-anchor="start" x="977.5" y="-1755.3" font-family="Times,serif" font-size="14.00">plotAccumulation(fileNameOut)</text>
<text text-anchor="start" x="977.5" y="-1740.3" font-family="Times,serif" font-size="14.00">plotAccumulationDuration(fileNameOut)</text>
<text text-anchor="start" x="977.5" y="-1725.3" font-family="Times,serif" font-size="14.00">plotHist(fileNameOut)</text>
<text text-anchor="start" x="977.5" y="-1710.3" font-family="Times,serif" font-size="14.00">plotTimeDist(fileNameOut)</text>
<text text-anchor="start" x="977.5" y="-1695.3" font-family="Times,serif" font-size="14.00">setPlot(fPlot)</text>
<text text-anchor="start" x="977.5" y="-1680.3" font-family="Times,serif" font-size="14.00">toSVGGanttBar(dateBase, y)</text>
</g>
<!-- training.cycle.Cycle&#45;&gt;training.plot.Plot -->
<g id="edge4" class="edge">
<title>training.cycle.Cycle&#45;&gt;training.plot.Plot</title>
<path fill="none" stroke="black" d="M893.88,-1544.55C909.39,-1576.19 926.73,-1606.92 946,-1635 952.91,-1645.06 960.56,-1654.92 968.71,-1664.5"/>
<polygon fill="none" stroke="black" points="966.14,-1666.87 975.35,-1672.11 971.42,-1662.27 966.14,-1666.87"/>
</g>
<!-- training.cycle.Cycle&#45;&gt;training.title.Title -->
<g id="edge5" class="edge">
<title>training.cycle.Cycle&#45;&gt;training.title.Title</title>
<path fill="none" stroke="black" d="M796.61,-1544.8C798.57,-1611.58 800.46,-1675.63 801.83,-1722.34"/>
<polygon fill="none" stroke="black" points="798.33,-1722.44 802.13,-1732.34 805.33,-1722.24 798.33,-1722.44"/>
</g>
<!-- training.duration.Duration -->
<g id="node6" class="node">
<title>training.duration.Duration</title>
<polygon fill="none" stroke="black" points="525,-0.5 525,-85.5 731,-85.5 731,-0.5 525,-0.5"/>
<text text-anchor="middle" x="628" y="-70.3" font-family="Times,serif" font-size="14.00">training.duration.Duration</text>
<polyline fill="none" stroke="black" points="525,-62.5 731,-62.5 "/>
<polyline fill="none" stroke="black" points="525,-38.5 731,-38.5 "/>
<text text-anchor="start" x="533" y="-23.3" font-family="Times,serif" font-size="14.00">scale(floatScale)</text>
<text text-anchor="start" x="533" y="-8.3" font-family="Times,serif" font-size="14.00">toString()</text>
</g>
<!-- training.duration.Duration&#45;&gt;_datetime.datetime.timedelta -->
<g id="edge6" class="edge">
<title>training.duration.Duration&#45;&gt;_datetime.datetime.timedelta</title>
<path fill="none" stroke="black" d="M524.82,-55.49C443.34,-67.59 328.52,-91.46 237,-137 213.15,-148.87 189.85,-166.16 170.06,-183.11"/>
<polygon fill="none" stroke="black" points="167.59,-180.62 162.37,-189.83 172.2,-185.89 167.59,-180.62"/>
</g>
<!-- training.duration.Duration&#45;&gt;datetime.timedelta -->
<g id="edge7" class="edge">
<title>training.duration.Duration&#45;&gt;datetime.timedelta</title>
<path fill="none" stroke="black" d="M609.98,-85.73C598.01,-113.44 582.13,-150.21 568.95,-180.73"/>
<polygon fill="none" stroke="black" points="565.71,-179.41 564.95,-189.98 572.13,-182.19 565.71,-179.41"/>
</g>
<!-- training.pause.Pause -->
<g id="node8" class="node">
<title>training.pause.Pause</title>
<polygon fill="none" stroke="black" points="246.5,-137.5 246.5,-341.5 449.5,-341.5 449.5,-137.5 246.5,-137.5"/>
<text text-anchor="middle" x="348" y="-326.3" font-family="Times,serif" font-size="14.00">training.pause.Pause</text>
<polyline fill="none" stroke="black" points="246.5,-318.5 449.5,-318.5 "/>
<text text-anchor="start" x="254.5" y="-303.3" font-family="Times,serif" font-size="14.00">dt : NoneType</text>
<text text-anchor="start" x="254.5" y="-288.3" font-family="Times,serif" font-size="14.00">duration</text>
<polyline fill="none" stroke="black" points="246.5,-280.5 449.5,-280.5 "/>
<text text-anchor="start" x="254.5" y="-265.3" font-family="Times,serif" font-size="14.00">getDuration()</text>
<text text-anchor="start" x="254.5" y="-250.3" font-family="Times,serif" font-size="14.00">setDate(dtArg, dt_0, dt_1)</text>
<text text-anchor="start" x="254.5" y="-235.3" font-family="Times,serif" font-size="14.00">setDuration(intArg)</text>
<text text-anchor="start" x="254.5" y="-220.3" font-family="Times,serif" font-size="14.00">toCSV()</text>
<text text-anchor="start" x="254.5" y="-205.3" font-family="Times,serif" font-size="14.00">toFreemindNode()</text>
<text text-anchor="start" x="254.5" y="-190.3" font-family="Times,serif" font-size="14.00">toHtml()</text>
<text text-anchor="start" x="254.5" y="-175.3" font-family="Times,serif" font-size="14.00">toHtmlTable()</text>
<text text-anchor="start" x="254.5" y="-160.3" font-family="Times,serif" font-size="14.00">toSVG(x, y)</text>
<text text-anchor="start" x="254.5" y="-145.3" font-family="Times,serif" font-size="14.00">to_ical(cal)</text>
</g>
<!-- training.duration.Duration&#45;&gt;training.pause.Pause -->
<g id="edge15" class="edge">
<title>training.duration.Duration&#45;&gt;training.pause.Pause</title>
<path fill="none" stroke="black" d="M524.76,-51.88C483.16,-59.72 437.25,-74.9 404,-104 396.41,-110.65 389.82,-118.49 384.11,-126.99"/>
<polygon fill="black" stroke="black" points="384.09,-127.02 384.36,-134.22 377.81,-137.24 377.54,-130.03 384.09,-127.02"/>
<text text-anchor="middle" x="434.5" y="-107.8" font-family="Times,serif" font-size="14.00" fill="green">duration</text>
</g>
<!-- training.duration.Duration&#45;&gt;training.pause.Pause -->
<g id="edge16" class="edge">
<title>training.duration.Duration&#45;&gt;training.pause.Pause</title>
<path fill="none" stroke="black" d="M542.09,-85.73C517.08,-99.11 489.98,-114.83 459.71,-136.01"/>
<polygon fill="black" stroke="black" points="459.54,-136.13 456.97,-142.87 449.76,-143.09 452.33,-136.35 459.54,-136.13"/>
<text text-anchor="middle" x="538.5" y="-107.8" font-family="Times,serif" font-size="14.00" fill="green">duration</text>
</g>
<!-- training.duration.Duration&#45;&gt;training.unit.Unit -->
<g id="edge17" class="edge">
<title>training.duration.Duration&#45;&gt;training.unit.Unit</title>
<path fill="none" stroke="black" d="M633.99,-85.96C642.25,-143.65 657.62,-250.72 671,-342 672.87,-354.73 674.8,-367.85 676.75,-381.08"/>
<polygon fill="black" stroke="black" points="676.79,-381.37 681.63,-386.72 678.55,-393.24 673.72,-387.89 676.79,-381.37"/>
<text text-anchor="middle" x="701.5" y="-235.8" font-family="Times,serif" font-size="14.00" fill="green">duration</text>
</g>
<!-- training.duration.Duration&#45;&gt;training.unit.Unit -->
<g id="edge18" class="edge">
<title>training.duration.Duration&#45;&gt;training.unit.Unit</title>
<path fill="none" stroke="black" d="M691.52,-85.73C707.77,-99.89 723.15,-117.21 732,-137 765.73,-212.41 766.39,-302.47 755.87,-381.41"/>
<polygon fill="black" stroke="black" points="755.84,-381.59 758.96,-388.09 754.16,-393.47 751.04,-386.97 755.84,-381.59"/>
<text text-anchor="middle" x="792.5" y="-235.8" font-family="Times,serif" font-size="14.00" fill="green">duration</text>
</g>
<!-- training.duration.Duration&#45;&gt;training.unit.Unit -->
<g id="edge19" class="edge">
<title>training.duration.Duration&#45;&gt;training.unit.Unit</title>
<path fill="none" stroke="black" d="M731.07,-67.44C767.8,-81.3 805.4,-103.06 827,-137 873.67,-210.33 858.11,-301.62 825.09,-382.01"/>
<polygon fill="black" stroke="black" points="825,-382.23 826.35,-389.31 820.32,-393.28 818.98,-386.19 825,-382.23"/>
<text text-anchor="middle" x="887.5" y="-235.8" font-family="Times,serif" font-size="14.00" fill="green">duration</text>
</g>
<!-- training.duration.Duration&#45;&gt;training.unit.Unit -->
<g id="edge20" class="edge">
<title>training.duration.Duration&#45;&gt;training.unit.Unit</title>
<path fill="none" stroke="black" d="M731.08,-63.17C806.3,-79.5 898.97,-105.34 922,-137 975.6,-210.68 955.09,-257.11 922,-342 902.48,-392.07 866.76,-437.93 829.91,-475.58"/>
<polygon fill="black" stroke="black" points="829.5,-475.98 828.1,-483.05 821.03,-484.47 822.43,-477.4 829.5,-475.98"/>
<text text-anchor="middle" x="985.5" y="-235.8" font-family="Times,serif" font-size="14.00" fill="green">duration</text>
</g>
<!-- training.note.Note -->
<g id="node7" class="node">
<title>training.note.Note</title>
<polygon fill="none" stroke="black" points="410.5,-1085.5 410.5,-1349.5 619.5,-1349.5 619.5,-1085.5 410.5,-1085.5"/>
<text text-anchor="middle" x="515" y="-1334.3" font-family="Times,serif" font-size="14.00">training.note.Note</text>
<polyline fill="none" stroke="black" points="410.5,-1326.5 619.5,-1326.5 "/>
<text text-anchor="start" x="418.5" y="-1311.3" font-family="Times,serif" font-size="14.00">dt : NoneType, datetime</text>
<text text-anchor="start" x="418.5" y="-1296.3" font-family="Times,serif" font-size="14.00">tPlan : NoneType, str, time</text>
<polyline fill="none" stroke="black" points="410.5,-1288.5 619.5,-1288.5 "/>
<text text-anchor="start" x="418.5" y="-1273.3" font-family="Times,serif" font-size="14.00">dup()</text>
<text text-anchor="start" x="418.5" y="-1258.3" font-family="Times,serif" font-size="14.00">getColor()</text>
<text text-anchor="start" x="418.5" y="-1243.3" font-family="Times,serif" font-size="14.00">parse(objArg)</text>
<text text-anchor="start" x="418.5" y="-1228.3" font-family="Times,serif" font-size="14.00">setClock(timeArg)</text>
<text text-anchor="start" x="418.5" y="-1213.3" font-family="Times,serif" font-size="14.00">setDate(dtArg, dt_0, dt_1)</text>
<text text-anchor="start" x="418.5" y="-1198.3" font-family="Times,serif" font-size="14.00">setDateStr(strArg)</text>
<text text-anchor="start" x="418.5" y="-1183.3" font-family="Times,serif" font-size="14.00">toCSV()</text>
<text text-anchor="start" x="418.5" y="-1168.3" font-family="Times,serif" font-size="14.00">toFreemindNode()</text>
<text text-anchor="start" x="418.5" y="-1153.3" font-family="Times,serif" font-size="14.00">toHtml()</text>
<text text-anchor="start" x="418.5" y="-1138.3" font-family="Times,serif" font-size="14.00">toHtmlTable()</text>
<text text-anchor="start" x="418.5" y="-1123.3" font-family="Times,serif" font-size="14.00">toSVG(x, y)</text>
<text text-anchor="start" x="418.5" y="-1108.3" font-family="Times,serif" font-size="14.00">toString()</text>
<text text-anchor="start" x="418.5" y="-1093.3" font-family="Times,serif" font-size="14.00">to_ical(cal)</text>
</g>
<!-- training.note.Note&#45;&gt;training.description.Description -->
<g id="edge8" class="edge">
<title>training.note.Note&#45;&gt;training.description.Description</title>
<path fill="none" stroke="black" d="M515,-1349.54C515,-1447.96 515,-1581.63 515,-1676.99"/>
<polygon fill="none" stroke="black" points="511.5,-1677.26 515,-1687.26 518.5,-1677.26 511.5,-1677.26"/>
</g>
<!-- training.pause.Pause&#45;&gt;training.note.Note -->
<g id="edge9" class="edge">
<title>training.pause.Pause&#45;&gt;training.note.Note</title>
<path fill="none" stroke="black" d="M365.32,-341.73C395.25,-516.64 456.71,-875.82 490.83,-1075.23"/>
<polygon fill="none" stroke="black" points="487.4,-1075.92 492.53,-1085.19 494.3,-1074.74 487.4,-1075.92"/>
</g>
<!-- training.period.Period -->
<g id="node9" class="node">
<title>training.period.Period</title>
<polygon fill="none" stroke="black" points="954.5,-800.5 954.5,-1634.5 1297.5,-1634.5 1297.5,-800.5 954.5,-800.5"/>
<text text-anchor="middle" x="1126" y="-1619.3" font-family="Times,serif" font-size="14.00">training.period.Period</text>
<polyline fill="none" stroke="black" points="954.5,-1611.5 1297.5,-1611.5 "/>
<text text-anchor="start" x="962.5" y="-1596.3" font-family="Times,serif" font-size="14.00">child : list</text>
<text text-anchor="start" x="962.5" y="-1581.3" font-family="Times,serif" font-size="14.00">color : NoneType</text>
<text text-anchor="start" x="962.5" y="-1566.3" font-family="Times,serif" font-size="14.00">data : list, NoneType</text>
<text text-anchor="start" x="962.5" y="-1551.3" font-family="Times,serif" font-size="14.00">dateBegin : date, NoneType</text>
<text text-anchor="start" x="962.5" y="-1536.3" font-family="Times,serif" font-size="14.00">dateEnd : NoneType</text>
<text text-anchor="start" x="962.5" y="-1521.3" font-family="Times,serif" font-size="14.00">dateScheduled : date, NoneType</text>
<text text-anchor="start" x="962.5" y="-1506.3" font-family="Times,serif" font-size="14.00">fPlan : bool</text>
<text text-anchor="start" x="962.5" y="-1491.3" font-family="Times,serif" font-size="14.00">periodInt</text>
<polyline fill="none" stroke="black" points="954.5,-1483.5 1297.5,-1483.5 "/>
<text text-anchor="start" x="962.5" y="-1468.3" font-family="Times,serif" font-size="14.00">CalendarLastMonthsPeriod(intMonth, strArg)</text>
<text text-anchor="start" x="962.5" y="-1453.3" font-family="Times,serif" font-size="14.00">CalendarLastWeeksPeriod(intWeek, strArg)</text>
<text text-anchor="start" x="962.5" y="-1438.3" font-family="Times,serif" font-size="14.00">CalendarMonthPeriod(intYear, strArg)</text>
<text text-anchor="start" x="962.5" y="-1423.3" font-family="Times,serif" font-size="14.00">CalendarSeasonPeriod(intYear, strArg)</text>
<text text-anchor="start" x="962.5" y="-1408.3" font-family="Times,serif" font-size="14.00">CalendarWeekPeriod(intYear, strArg)</text>
<text text-anchor="start" x="962.5" y="-1393.3" font-family="Times,serif" font-size="14.00">CalendarYearPeriod(intYear, strArg)</text>
<text text-anchor="start" x="962.5" y="-1378.3" font-family="Times,serif" font-size="14.00">append(objArg)</text>
<text text-anchor="start" x="962.5" y="-1363.3" font-family="Times,serif" font-size="14.00">appendChildDescription(objArg)</text>
<text text-anchor="start" x="962.5" y="-1348.3" font-family="Times,serif" font-size="14.00">define(objArg)</text>
<text text-anchor="start" x="962.5" y="-1333.3" font-family="Times,serif" font-size="14.00">dup()</text>
<text text-anchor="start" x="962.5" y="-1318.3" font-family="Times,serif" font-size="14.00">getCycleByDate(objDate)</text>
<text text-anchor="start" x="962.5" y="-1303.3" font-family="Times,serif" font-size="14.00">getDateString()</text>
<text text-anchor="start" x="962.5" y="-1288.3" font-family="Times,serif" font-size="14.00">getDuration()</text>
<text text-anchor="start" x="962.5" y="-1273.3" font-family="Times,serif" font-size="14.00">getNumberOfCycles()</text>
<text text-anchor="start" x="962.5" y="-1258.3" font-family="Times,serif" font-size="14.00">getNumberOfUnits()</text>
<text text-anchor="start" x="962.5" y="-1243.3" font-family="Times,serif" font-size="14.00">getPeriodByDate(objDate)</text>
<text text-anchor="start" x="962.5" y="-1228.3" font-family="Times,serif" font-size="14.00">insert(objArg)</text>
<text text-anchor="start" x="962.5" y="-1213.3" font-family="Times,serif" font-size="14.00">insertByDate(objArg, flagReplace)</text>
<text text-anchor="start" x="962.5" y="-1198.3" font-family="Times,serif" font-size="14.00">parseFile(listFilename, fUpdater)</text>
<text text-anchor="start" x="962.5" y="-1183.3" font-family="Times,serif" font-size="14.00">remove(patternType)</text>
<text text-anchor="start" x="962.5" y="-1168.3" font-family="Times,serif" font-size="14.00">report(dictArg)</text>
<text text-anchor="start" x="962.5" y="-1153.3" font-family="Times,serif" font-size="14.00">resetDistances()</text>
<text text-anchor="start" x="962.5" y="-1138.3" font-family="Times,serif" font-size="14.00">scale(floatScale, patternType)</text>
<text text-anchor="start" x="962.5" y="-1123.3" font-family="Times,serif" font-size="14.00">schedule(intYear, intMonth, intDay)</text>
<text text-anchor="start" x="962.5" y="-1108.3" font-family="Times,serif" font-size="14.00">setPeriod(intArg)</text>
<text text-anchor="start" x="962.5" y="-1093.3" font-family="Times,serif" font-size="14.00">setPlan(fPlan)</text>
<text text-anchor="start" x="962.5" y="-1078.3" font-family="Times,serif" font-size="14.00">stat()</text>
<text text-anchor="start" x="962.5" y="-1063.3" font-family="Times,serif" font-size="14.00">swap(intA, intB)</text>
<text text-anchor="start" x="962.5" y="-1048.3" font-family="Times,serif" font-size="14.00">toCSV()</text>
<text text-anchor="start" x="962.5" y="-1033.3" font-family="Times,serif" font-size="14.00">toComparisonHtmlFile(listArg)</text>
<text text-anchor="start" x="962.5" y="-1018.3" font-family="Times,serif" font-size="14.00">toFreeMind()</text>
<text text-anchor="start" x="962.5" y="-1003.3" font-family="Times,serif" font-size="14.00">toFreemindNode()</text>
<text text-anchor="start" x="962.5" y="-988.3" font-family="Times,serif" font-size="14.00">toHtml()</text>
<text text-anchor="start" x="962.5" y="-973.3" font-family="Times,serif" font-size="14.00">toHtmlFile()</text>
<text text-anchor="start" x="962.5" y="-958.3" font-family="Times,serif" font-size="14.00">toHtmlTable()</text>
<text text-anchor="start" x="962.5" y="-943.3" font-family="Times,serif" font-size="14.00">toHtmlTableOfContent(strIndent)</text>
<text text-anchor="start" x="962.5" y="-928.3" font-family="Times,serif" font-size="14.00">toSVG(x, y)</text>
<text text-anchor="start" x="962.5" y="-913.3" font-family="Times,serif" font-size="14.00">toSVGDiagram()</text>
<text text-anchor="start" x="962.5" y="-898.3" font-family="Times,serif" font-size="14.00">toSVGGantt(dateBase, y)</text>
<text text-anchor="start" x="962.5" y="-883.3" font-family="Times,serif" font-size="14.00">toSVGGanttChart()</text>
<text text-anchor="start" x="962.5" y="-868.3" font-family="Times,serif" font-size="14.00">toSqlite()</text>
<text text-anchor="start" x="962.5" y="-853.3" font-family="Times,serif" font-size="14.00">toSqliteDump()</text>
<text text-anchor="start" x="962.5" y="-838.3" font-family="Times,serif" font-size="14.00">toString()</text>
<text text-anchor="start" x="962.5" y="-823.3" font-family="Times,serif" font-size="14.00">toVCalendar()</text>
<text text-anchor="start" x="962.5" y="-808.3" font-family="Times,serif" font-size="14.00">to_ical(cal)</text>
</g>
<!-- training.period.Period&#45;&gt;training.description.Description -->
<g id="edge10" class="edge">
<title>training.period.Period&#45;&gt;training.description.Description</title>
<path fill="none" stroke="black" d="M954.31,-1627.72C951.26,-1630.21 948.16,-1632.64 945,-1635 838.86,-1714.45 769.2,-1616.07 649,-1672 642.72,-1674.92 636.55,-1678.24 630.49,-1681.88"/>
<polygon fill="none" stroke="black" points="628.3,-1679.13 621.71,-1687.43 632.04,-1685.04 628.3,-1679.13"/>
</g>
<!-- training.period.Period&#45;&gt;training.plot.Plot -->
<g id="edge11" class="edge">
<title>training.period.Period&#45;&gt;training.plot.Plot</title>
<path fill="none" stroke="black" d="M1125.28,-1634.75C1125.26,-1644.1 1125.25,-1653.23 1125.23,-1662.08"/>
<polygon fill="none" stroke="black" points="1121.73,-1662.34 1125.21,-1672.35 1128.73,-1662.35 1121.73,-1662.34"/>
</g>
<!-- training.period.Period&#45;&gt;training.title.Title -->
<g id="edge12" class="edge">
<title>training.period.Period&#45;&gt;training.title.Title</title>
<path fill="none" stroke="black" d="M1023.18,-1634.56C1018.05,-1641.27 1012.66,-1647.75 1007,-1654 991.99,-1670.58 979.43,-1660.91 960,-1672 933.27,-1687.25 906.29,-1706.88 882.45,-1725.99"/>
<polygon fill="none" stroke="black" points="880.05,-1723.43 874.49,-1732.45 884.46,-1728.87 880.05,-1723.43"/>
</g>
<!-- training.unit.Unit&#45;&gt;training.note.Note -->
<g id="edge13" class="edge">
<title>training.unit.Unit&#45;&gt;training.note.Note</title>
<path fill="none" stroke="black" d="M640.05,-762.55C635.87,-775.19 631.81,-787.76 628,-800 599.62,-891.07 571.51,-994.58 550.43,-1075.63"/>
<polygon fill="none" stroke="black" points="547.02,-1074.84 547.9,-1085.4 553.8,-1076.6 547.02,-1074.84"/>
</g>
</g>
</svg>
