<?xml version="1.0" encoding="UTF-8" standalone="no"?>
<!DOCTYPE svg PUBLIC "-//W3C//DTD SVG 1.1//EN"
 "http://www.w3.org/Graphics/SVG/1.1/DTD/svg11.dtd">
<!-- Generated by graphviz version 2.43.0 (0)
 -->
<!-- Title: classes_training Pages: 1 -->
<svg width="1755pt" height="1435pt"
 viewBox="0.00 0.00 1754.50 1435.00" xmlns="http://www.w3.org/2000/svg" xmlns:xlink="http://www.w3.org/1999/xlink">
<g id="graph0" class="graph" transform="scale(1 1) rotate(0) translate(4 1431)">
<title>classes_training</title>
<polygon fill="white" stroke="transparent" points="-4,4 -4,-1431 1750.5,-1431 1750.5,4 -4,4"/>
<!-- _datetime.datetime.timedelta -->
<g id="node1" class="node">
<title>_datetime.datetime.timedelta</title>
<polygon fill="none" stroke="black" points="1014.5,-152.5 1014.5,-251.5 1242.5,-251.5 1242.5,-152.5 1014.5,-152.5"/>
<text text-anchor="middle" x="1128.5" y="-236.3" font-family="Times,serif" font-size="14.00">_datetime.datetime.timedelta</text>
<polyline fill="none" stroke="black" points="1014.5,-228.5 1242.5,-228.5 "/>
<text text-anchor="start" x="1022.5" y="-213.3" font-family="Times,serif" font-size="14.00">days</text>
<text text-anchor="start" x="1022.5" y="-198.3" font-family="Times,serif" font-size="14.00">microseconds</text>
<text text-anchor="start" x="1022.5" y="-183.3" font-family="Times,serif" font-size="14.00">seconds</text>
<polyline fill="none" stroke="black" points="1014.5,-175.5 1242.5,-175.5 "/>
<text text-anchor="start" x="1022.5" y="-160.3" font-family="Times,serif" font-size="14.00">total_seconds()</text>
</g>
<!-- training.unit.Unit -->
<g id="node11" class="node">
<title>training.unit.Unit</title>
<polygon fill="none" stroke="black" points="1166.5,-333.5 1166.5,-627.5 1396.5,-627.5 1396.5,-333.5 1166.5,-333.5"/>
<text text-anchor="middle" x="1281.5" y="-612.3" font-family="Times,serif" font-size="14.00">training.unit.Unit</text>
<polyline fill="none" stroke="black" points="1166.5,-604.5 1396.5,-604.5 "/>
<text text-anchor="start" x="1174.5" y="-589.3" font-family="Times,serif" font-size="14.00">dist : NoneType, float</text>
<text text-anchor="start" x="1174.5" y="-574.3" font-family="Times,serif" font-size="14.00">dt : NoneType</text>
<text text-anchor="start" x="1174.5" y="-559.3" font-family="Times,serif" font-size="14.00">duration : NoneType</text>
<text text-anchor="start" x="1174.5" y="-544.3" font-family="Times,serif" font-size="14.00">type : NoneType</text>
<polyline fill="none" stroke="black" points="1166.5,-536.5 1396.5,-536.5 "/>
<text text-anchor="start" x="1174.5" y="-521.3" font-family="Times,serif" font-size="14.00">getDuration()</text>
<text text-anchor="start" x="1174.5" y="-506.3" font-family="Times,serif" font-size="14.00">getSpeedStr()</text>
<text text-anchor="start" x="1174.5" y="-491.3" font-family="Times,serif" font-size="14.00">parse(objArg)</text>
<text text-anchor="start" x="1174.5" y="-476.3" font-family="Times,serif" font-size="14.00">scale(floatScale, patternType)</text>
<text text-anchor="start" x="1174.5" y="-461.3" font-family="Times,serif" font-size="14.00">setDistStr(strArg)</text>
<text text-anchor="start" x="1174.5" y="-446.3" font-family="Times,serif" font-size="14.00">setDurationStr(strArg)</text>
<text text-anchor="start" x="1174.5" y="-431.3" font-family="Times,serif" font-size="14.00">setTypeStr(strArg)</text>
<text text-anchor="start" x="1174.5" y="-416.3" font-family="Times,serif" font-size="14.00">stat(dictArg)</text>
<text text-anchor="start" x="1174.5" y="-401.3" font-family="Times,serif" font-size="14.00">toCSV()</text>
<text text-anchor="start" x="1174.5" y="-386.3" font-family="Times,serif" font-size="14.00">toHtml()</text>
<text text-anchor="start" x="1174.5" y="-371.3" font-family="Times,serif" font-size="14.00">toSVG(x, y)</text>
<text text-anchor="start" x="1174.5" y="-356.3" font-family="Times,serif" font-size="14.00">toXML()</text>
<text text-anchor="start" x="1174.5" y="-341.3" font-family="Times,serif" font-size="14.00">to_ical(cal)</text>
</g>
<!-- _datetime.datetime.timedelta&#45;&gt;training.unit.Unit -->
<g id="edge12" class="edge">
<title>_datetime.datetime.timedelta&#45;&gt;training.unit.Unit</title>
<path fill="none" stroke="black" d="M1155.5,-251.8C1166.74,-272.1 1180.47,-296.91 1194.68,-322.6"/>
<polygon fill="black" stroke="black" points="1194.77,-322.76 1201.17,-326.07 1200.58,-333.26 1194.17,-329.95 1194.77,-322.76"/>
<text text-anchor="middle" x="1217" y="-303.8" font-family="Times,serif" font-size="14.00" fill="green">duration</text>
</g>
<!-- _datetime.datetime.timedelta&#45;&gt;training.unit.Unit -->
<g id="edge13" class="edge">
<title>_datetime.datetime.timedelta&#45;&gt;training.unit.Unit</title>
<path fill="none" stroke="black" d="M1208.22,-251.73C1224.86,-265.4 1240.63,-281.63 1251.5,-300 1255.61,-306.94 1259.19,-314.29 1262.32,-321.88"/>
<polygon fill="black" stroke="black" points="1262.35,-321.94 1268.21,-326.14 1266.59,-333.17 1260.73,-328.97 1262.35,-321.94"/>
<text text-anchor="middle" x="1288" y="-303.8" font-family="Times,serif" font-size="14.00" fill="green">duration</text>
</g>
<!-- _datetime.datetime.timedelta&#45;&gt;training.unit.Unit -->
<g id="edge14" class="edge">
<title>_datetime.datetime.timedelta&#45;&gt;training.unit.Unit</title>
<path fill="none" stroke="black" d="M1059.2,-251.7C1041.85,-262.61 1022.91,-273.47 1004.5,-282 977.59,-294.47 930.82,-289.83 946.5,-315 991.87,-387.82 1079.93,-429.32 1154.38,-452.42"/>
<polygon fill="black" stroke="black" points="1154.71,-452.52 1161.61,-450.41 1166.21,-455.97 1159.31,-458.07 1154.71,-452.52"/>
<text text-anchor="middle" x="977" y="-303.8" font-family="Times,serif" font-size="14.00" fill="green">duration</text>
</g>
<!-- _datetime.datetime.timedelta&#45;&gt;training.unit.Unit -->
<g id="edge15" class="edge">
<title>_datetime.datetime.timedelta&#45;&gt;training.unit.Unit</title>
<path fill="none" stroke="black" d="M1050,-251.76C1030.49,-270.21 1018.22,-292.27 1030.5,-315 1057.61,-365.18 1107.43,-402.52 1155.58,-428.84"/>
<polygon fill="black" stroke="black" points="1155.87,-428.99 1163.05,-428.27 1166.47,-434.62 1159.3,-435.33 1155.87,-428.99"/>
<text text-anchor="middle" x="1061" y="-303.8" font-family="Times,serif" font-size="14.00" fill="green">duration</text>
</g>
<!-- _datetime.datetime.timedelta&#45;&gt;training.unit.Unit -->
<g id="edge16" class="edge">
<title>_datetime.datetime.timedelta&#45;&gt;training.unit.Unit</title>
<path fill="none" stroke="black" d="M1113.14,-251.63C1109.3,-271.87 1108.29,-295.22 1116.5,-315 1126.27,-338.54 1141.23,-360.46 1158.23,-380.13"/>
<polygon fill="black" stroke="black" points="1158.45,-380.37 1165.43,-382.17 1166.45,-389.31 1159.47,-387.51 1158.45,-380.37"/>
<text text-anchor="middle" x="1147" y="-303.8" font-family="Times,serif" font-size="14.00" fill="green">duration</text>
</g>
<!-- datetime.timedelta -->
<g id="node2" class="node">
<title>datetime.timedelta</title>
<polygon fill="none" stroke="black" points="1415,-152.5 1415,-251.5 1568,-251.5 1568,-152.5 1415,-152.5"/>
<text text-anchor="middle" x="1491.5" y="-236.3" font-family="Times,serif" font-size="14.00">datetime.timedelta</text>
<polyline fill="none" stroke="black" points="1415,-228.5 1568,-228.5 "/>
<text text-anchor="start" x="1423" y="-213.3" font-family="Times,serif" font-size="14.00">days</text>
<text text-anchor="start" x="1423" y="-198.3" font-family="Times,serif" font-size="14.00">microseconds</text>
<text text-anchor="start" x="1423" y="-183.3" font-family="Times,serif" font-size="14.00">seconds</text>
<polyline fill="none" stroke="black" points="1415,-175.5 1568,-175.5 "/>
<text text-anchor="start" x="1423" y="-160.3" font-family="Times,serif" font-size="14.00">total_seconds()</text>
</g>
<!-- datetime.timedelta&#45;&gt;training.unit.Unit -->
<g id="edge17" class="edge">
<title>datetime.timedelta&#45;&gt;training.unit.Unit</title>
<path fill="none" stroke="black" d="M1568.04,-217.81C1633.69,-234.23 1712.82,-265.18 1679.5,-315 1619.58,-404.61 1500.91,-445.46 1408.67,-464.05"/>
<polygon fill="black" stroke="black" points="1408.48,-464.09 1403.35,-469.16 1396.7,-466.37 1401.83,-461.3 1408.48,-464.09"/>
<text text-anchor="middle" x="1716" y="-303.8" font-family="Times,serif" font-size="14.00" fill="green">duration</text>
</g>
<!-- datetime.timedelta&#45;&gt;training.unit.Unit -->
<g id="edge18" class="edge">
<title>datetime.timedelta&#45;&gt;training.unit.Unit</title>
<path fill="none" stroke="black" d="M1416.96,-251.67C1398.93,-265.78 1380.77,-282.22 1366.5,-300 1360.66,-307.28 1355.1,-315.02 1349.83,-323.06"/>
<polygon fill="black" stroke="black" points="1349.72,-323.23 1349.9,-330.44 1343.31,-333.37 1343.13,-326.16 1349.72,-323.23"/>
<text text-anchor="middle" x="1397" y="-303.8" font-family="Times,serif" font-size="14.00" fill="green">duration</text>
</g>
<!-- datetime.timedelta&#45;&gt;training.unit.Unit -->
<g id="edge19" class="edge">
<title>datetime.timedelta&#45;&gt;training.unit.Unit</title>
<path fill="none" stroke="black" d="M1466.51,-251.76C1455.45,-271.92 1441.73,-295.17 1427.5,-315 1420.17,-325.21 1412.31,-335.52 1404.18,-345.73"/>
<polygon fill="black" stroke="black" points="1404.18,-345.73 1403.52,-352.91 1396.64,-355.07 1397.3,-347.89 1404.18,-345.73"/>
<text text-anchor="middle" x="1467" y="-303.8" font-family="Times,serif" font-size="14.00" fill="green">duration</text>
</g>
<!-- datetime.timedelta&#45;&gt;training.unit.Unit -->
<g id="edge20" class="edge">
<title>datetime.timedelta&#45;&gt;training.unit.Unit</title>
<path fill="none" stroke="black" d="M1506.88,-251.72C1510.62,-272.21 1511.16,-295.71 1501.5,-315 1480.77,-356.39 1444.12,-390.05 1406.62,-415.88"/>
<polygon fill="black" stroke="black" points="1406.52,-415.94 1403.76,-422.6 1396.55,-422.62 1399.31,-415.96 1406.52,-415.94"/>
<text text-anchor="middle" x="1537" y="-303.8" font-family="Times,serif" font-size="14.00" fill="green">duration</text>
</g>
<!-- datetime.timedelta&#45;&gt;training.unit.Unit -->
<g id="edge21" class="edge">
<title>datetime.timedelta&#45;&gt;training.unit.Unit</title>
<path fill="none" stroke="black" d="M1555.6,-251.58C1573.04,-270.8 1584.07,-293.42 1571.5,-315 1536.05,-375.86 1468.79,-416.03 1407.96,-441.43"/>
<polygon fill="black" stroke="black" points="1407.81,-441.49 1403.75,-447.45 1396.68,-446 1400.74,-440.04 1407.81,-441.49"/>
<text text-anchor="middle" x="1606" y="-303.8" font-family="Times,serif" font-size="14.00" fill="green">duration</text>
</g>
<!-- training.combination.Combination -->
<g id="node3" class="node">
<title>training.combination.Combination</title>
<polygon fill="none" stroke="black" points="628,-830.5 628,-1094.5 889,-1094.5 889,-830.5 628,-830.5"/>
<text text-anchor="middle" x="758.5" y="-1079.3" font-family="Times,serif" font-size="14.00">training.combination.Combination</text>
<polyline fill="none" stroke="black" points="628,-1071.5 889,-1071.5 "/>
<text text-anchor="start" x="636" y="-1056.3" font-family="Times,serif" font-size="14.00">child : list</text>
<polyline fill="none" stroke="black" points="628,-1048.5 889,-1048.5 "/>
<text text-anchor="start" x="636" y="-1033.3" font-family="Times,serif" font-size="14.00">appendDescription(objArg)</text>
<text text-anchor="start" x="636" y="-1018.3" font-family="Times,serif" font-size="14.00">dup()</text>
<text text-anchor="start" x="636" y="-1003.3" font-family="Times,serif" font-size="14.00">getDuration()</text>
<text text-anchor="start" x="636" y="-988.3" font-family="Times,serif" font-size="14.00">getNumberOfUnits()</text>
<text text-anchor="start" x="636" y="-973.3" font-family="Times,serif" font-size="14.00">resetDistances()</text>
<text text-anchor="start" x="636" y="-958.3" font-family="Times,serif" font-size="14.00">scale(floatScale, patternType)</text>
<text text-anchor="start" x="636" y="-943.3" font-family="Times,serif" font-size="14.00">setDate(dateArg)</text>
<text text-anchor="start" x="636" y="-928.3" font-family="Times,serif" font-size="14.00">setDistStr(strArg)</text>
<text text-anchor="start" x="636" y="-913.3" font-family="Times,serif" font-size="14.00">stat(dictArg)</text>
<text text-anchor="start" x="636" y="-898.3" font-family="Times,serif" font-size="14.00">toCSV()</text>
<text text-anchor="start" x="636" y="-883.3" font-family="Times,serif" font-size="14.00">toHtml()</text>
<text text-anchor="start" x="636" y="-868.3" font-family="Times,serif" font-size="14.00">toSVG(x, y)</text>
<text text-anchor="start" x="636" y="-853.3" font-family="Times,serif" font-size="14.00">toXML()</text>
<text text-anchor="start" x="636" y="-838.3" font-family="Times,serif" font-size="14.00">to_ical(cal)</text>
</g>
<!-- training.description.Description -->
<g id="node5" class="node">
<title>training.description.Description</title>
<polygon fill="none" stroke="black" points="594,-1297.5 594,-1426.5 839,-1426.5 839,-1297.5 594,-1297.5"/>
<text text-anchor="middle" x="716.5" y="-1411.3" font-family="Times,serif" font-size="14.00">training.description.Description</text>
<polyline fill="none" stroke="black" points="594,-1403.5 839,-1403.5 "/>
<text text-anchor="start" x="602" y="-1388.3" font-family="Times,serif" font-size="14.00">color : NoneType</text>
<text text-anchor="start" x="602" y="-1373.3" font-family="Times,serif" font-size="14.00">listDescription : list</text>
<polyline fill="none" stroke="black" points="594,-1365.5 839,-1365.5 "/>
<text text-anchor="start" x="602" y="-1350.3" font-family="Times,serif" font-size="14.00">appendDescription(objArg)</text>
<text text-anchor="start" x="602" y="-1335.3" font-family="Times,serif" font-size="14.00">hasDescription()</text>
<text text-anchor="start" x="602" y="-1320.3" font-family="Times,serif" font-size="14.00">setColor(strColor)</text>
<text text-anchor="start" x="602" y="-1305.3" font-family="Times,serif" font-size="14.00">setDescription(objArg)</text>
</g>
<!-- training.combination.Combination&#45;&gt;training.description.Description -->
<g id="edge1" class="edge">
<title>training.combination.Combination&#45;&gt;training.description.Description</title>
<path fill="none" stroke="black" d="M744.63,-1094.76C737.87,-1158.7 730,-1233.23 724.3,-1287.14"/>
<polygon fill="none" stroke="black" points="720.8,-1286.99 723.23,-1297.3 727.76,-1287.72 720.8,-1286.99"/>
</g>
<!-- training.title.Title -->
<g id="node10" class="node">
<title>training.title.Title</title>
<polygon fill="none" stroke="black" points="386,-1312.5 386,-1411.5 535,-1411.5 535,-1312.5 386,-1312.5"/>
<text text-anchor="middle" x="460.5" y="-1396.3" font-family="Times,serif" font-size="14.00">training.title.Title</text>
<polyline fill="none" stroke="black" points="386,-1388.5 535,-1388.5 "/>
<text text-anchor="start" x="394" y="-1373.3" font-family="Times,serif" font-size="14.00">strTitle : str</text>
<polyline fill="none" stroke="black" points="386,-1365.5 535,-1365.5 "/>
<text text-anchor="start" x="394" y="-1350.3" font-family="Times,serif" font-size="14.00">getTitleStr()</text>
<text text-anchor="start" x="394" y="-1335.3" font-family="Times,serif" font-size="14.00">hasTitle()</text>
<text text-anchor="start" x="394" y="-1320.3" font-family="Times,serif" font-size="14.00">setTitleStr(strArg)</text>
</g>
<!-- training.combination.Combination&#45;&gt;training.title.Title -->
<g id="edge2" class="edge">
<title>training.combination.Combination&#45;&gt;training.title.Title</title>
<path fill="none" stroke="black" d="M715.12,-1094.71C692.39,-1149.96 660.43,-1212.35 618.5,-1260 597.83,-1283.5 570.4,-1303.59 544.21,-1319.52"/>
<polygon fill="none" stroke="black" points="542.19,-1316.65 535.38,-1324.76 545.77,-1322.66 542.19,-1316.65"/>
</g>
<!-- training.cycle.Cycle -->
<g id="node4" class="node">
<title>training.cycle.Cycle</title>
<polygon fill="none" stroke="black" points="311,-733 311,-1192 610,-1192 610,-733 311,-733"/>
<text text-anchor="middle" x="460.5" y="-1176.8" font-family="Times,serif" font-size="14.00">training.cycle.Cycle</text>
<polyline fill="none" stroke="black" points="311,-1169 610,-1169 "/>
<text text-anchor="start" x="319" y="-1153.8" font-family="Times,serif" font-size="14.00">color : NoneType</text>
<text text-anchor="start" x="319" y="-1138.8" font-family="Times,serif" font-size="14.00">dateBegin : date, NoneType</text>
<text text-anchor="start" x="319" y="-1123.8" font-family="Times,serif" font-size="14.00">dateEnd : NoneType</text>
<text text-anchor="start" x="319" y="-1108.8" font-family="Times,serif" font-size="14.00">day : list</text>
<polyline fill="none" stroke="black" points="311,-1101 610,-1101 "/>
<text text-anchor="start" x="319" y="-1085.8" font-family="Times,serif" font-size="14.00">appendDescription(objArg)</text>
<text text-anchor="start" x="319" y="-1070.8" font-family="Times,serif" font-size="14.00">copy(intIndexA, intIndexB, flagReplace)</text>
<text text-anchor="start" x="319" y="-1055.8" font-family="Times,serif" font-size="14.00">dup()</text>
<text text-anchor="start" x="319" y="-1040.8" font-family="Times,serif" font-size="14.00">getDuration()</text>
<text text-anchor="start" x="319" y="-1025.8" font-family="Times,serif" font-size="14.00">getNumberOfUnits()</text>
<text text-anchor="start" x="319" y="-1010.8" font-family="Times,serif" font-size="14.00">getPeriodDone()</text>
<text text-anchor="start" x="319" y="-995.8" font-family="Times,serif" font-size="14.00">insert(intIndex, objArg, flagReplace)</text>
<text text-anchor="start" x="319" y="-980.8" font-family="Times,serif" font-size="14.00">insertByDate(objArg, flagReplace)</text>
<text text-anchor="start" x="319" y="-965.8" font-family="Times,serif" font-size="14.00">insertDescriptionStr(intIndex, strArg)</text>
<text text-anchor="start" x="319" y="-950.8" font-family="Times,serif" font-size="14.00">remove(intIndexA, patternType)</text>
<text text-anchor="start" x="319" y="-935.8" font-family="Times,serif" font-size="14.00">report(dictArg)</text>
<text text-anchor="start" x="319" y="-920.8" font-family="Times,serif" font-size="14.00">resetDistances()</text>
<text text-anchor="start" x="319" y="-905.8" font-family="Times,serif" font-size="14.00">scale(floatScale, patternType)</text>
<text text-anchor="start" x="319" y="-890.8" font-family="Times,serif" font-size="14.00">schedule(intYear, intMonth, intDay)</text>
<text text-anchor="start" x="319" y="-875.8" font-family="Times,serif" font-size="14.00">shift(intIndexA, intIndexB, flagReplace)</text>
<text text-anchor="start" x="319" y="-860.8" font-family="Times,serif" font-size="14.00">stat(dictArg)</text>
<text text-anchor="start" x="319" y="-845.8" font-family="Times,serif" font-size="14.00">swap(intIndexA, intIndexB)</text>
<text text-anchor="start" x="319" y="-830.8" font-family="Times,serif" font-size="14.00">toCSV()</text>
<text text-anchor="start" x="319" y="-815.8" font-family="Times,serif" font-size="14.00">toHtml()</text>
<text text-anchor="start" x="319" y="-800.8" font-family="Times,serif" font-size="14.00">toSVG(x, y)</text>
<text text-anchor="start" x="319" y="-785.8" font-family="Times,serif" font-size="14.00">toSVGGantt(dateBase, y)</text>
<text text-anchor="start" x="319" y="-770.8" font-family="Times,serif" font-size="14.00">toString()</text>
<text text-anchor="start" x="319" y="-755.8" font-family="Times,serif" font-size="14.00">toXML()</text>
<text text-anchor="start" x="319" y="-740.8" font-family="Times,serif" font-size="14.00">to_ical(cal)</text>
</g>
<!-- training.cycle.Cycle&#45;&gt;training.description.Description -->
<g id="edge3" class="edge">
<title>training.cycle.Cycle&#45;&gt;training.description.Description</title>
<path fill="none" stroke="black" d="M573.82,-1192.12C587.96,-1215.62 602.95,-1238.67 618.5,-1260 625.83,-1270.05 634.11,-1280.09 642.69,-1289.74"/>
<polygon fill="none" stroke="black" points="640.3,-1292.32 649.61,-1297.38 645.49,-1287.62 640.3,-1292.32"/>
</g>
<!-- training.cycle.Cycle&#45;&gt;training.title.Title -->
<g id="edge4" class="edge">
<title>training.cycle.Cycle&#45;&gt;training.title.Title</title>
<path fill="none" stroke="black" d="M460.5,-1192.14C460.5,-1232.79 460.5,-1271.74 460.5,-1301.96"/>
<polygon fill="none" stroke="black" points="457,-1302.28 460.5,-1312.28 464,-1302.28 457,-1302.28"/>
</g>
<!-- training.duration.Duration -->
<g id="node6" class="node">
<title>training.duration.Duration</title>
<polygon fill="none" stroke="black" points="973.5,-0.5 973.5,-70.5 1179.5,-70.5 1179.5,-0.5 973.5,-0.5"/>
<text text-anchor="middle" x="1076.5" y="-55.3" font-family="Times,serif" font-size="14.00">training.duration.Duration</text>
<polyline fill="none" stroke="black" points="973.5,-47.5 1179.5,-47.5 "/>
<polyline fill="none" stroke="black" points="973.5,-23.5 1179.5,-23.5 "/>
<text text-anchor="middle" x="1076.5" y="-8.3" font-family="Times,serif" font-size="14.00"> </text>
</g>
<!-- training.duration.Duration&#45;&gt;_datetime.datetime.timedelta -->
<g id="edge5" class="edge">
<title>training.duration.Duration&#45;&gt;_datetime.datetime.timedelta</title>
<path fill="none" stroke="black" d="M1095.65,-70.67C1098.55,-76.67 1101.3,-82.93 1103.5,-89 1109.62,-105.91 1114.54,-124.83 1118.33,-142.23"/>
<polygon fill="none" stroke="black" points="1114.96,-143.2 1120.44,-152.27 1121.81,-141.76 1114.96,-143.2"/>
</g>
<!-- training.duration.Duration&#45;&gt;datetime.timedelta -->
<g id="edge6" class="edge">
<title>training.duration.Duration&#45;&gt;datetime.timedelta</title>
<path fill="none" stroke="black" d="M1162.49,-70.58C1233.61,-98.77 1334.13,-138.62 1405.3,-166.83"/>
<polygon fill="none" stroke="black" points="1404.12,-170.13 1414.71,-170.56 1406.7,-163.62 1404.12,-170.13"/>
</g>
<!-- training.pause.Pause -->
<g id="node8" class="node">
<title>training.pause.Pause</title>
<polygon fill="none" stroke="black" points="829,-122.5 829,-281.5 996,-281.5 996,-122.5 829,-122.5"/>
<text text-anchor="middle" x="912.5" y="-266.3" font-family="Times,serif" font-size="14.00">training.pause.Pause</text>
<polyline fill="none" stroke="black" points="829,-258.5 996,-258.5 "/>
<text text-anchor="start" x="837" y="-243.3" font-family="Times,serif" font-size="14.00">duration</text>
<polyline fill="none" stroke="black" points="829,-235.5 996,-235.5 "/>
<text text-anchor="start" x="837" y="-220.3" font-family="Times,serif" font-size="14.00">getDuration()</text>
<text text-anchor="start" x="837" y="-205.3" font-family="Times,serif" font-size="14.00">setDuration(intArg)</text>
<text text-anchor="start" x="837" y="-190.3" font-family="Times,serif" font-size="14.00">toCSV()</text>
<text text-anchor="start" x="837" y="-175.3" font-family="Times,serif" font-size="14.00">toHtml()</text>
<text text-anchor="start" x="837" y="-160.3" font-family="Times,serif" font-size="14.00">toSVG(x, y)</text>
<text text-anchor="start" x="837" y="-145.3" font-family="Times,serif" font-size="14.00">toXML()</text>
<text text-anchor="start" x="837" y="-130.3" font-family="Times,serif" font-size="14.00">to_ical(cal)</text>
</g>
<!-- training.duration.Duration&#45;&gt;training.pause.Pause -->
<g id="edge22" class="edge">
<title>training.duration.Duration&#45;&gt;training.pause.Pause</title>
<path fill="none" stroke="black" d="M978.15,-70.67C969.88,-75.98 962.15,-82.06 955.5,-89 949.07,-95.71 943.57,-103.49 938.88,-111.76"/>
<polygon fill="black" stroke="black" points="938.86,-111.79 939.66,-118.96 933.35,-122.45 932.55,-115.29 938.86,-111.79"/>
<text text-anchor="middle" x="986" y="-92.8" font-family="Times,serif" font-size="14.00" fill="green">duration</text>
</g>
<!-- training.duration.Duration&#45;&gt;training.pause.Pause -->
<g id="edge23" class="edge">
<title>training.duration.Duration&#45;&gt;training.pause.Pause</title>
<path fill="none" stroke="black" d="M1047.2,-70.71C1037.62,-81.55 1026.8,-93.45 1016.5,-104 1012.71,-107.88 1008.81,-111.81 1004.83,-115.75"/>
<polygon fill="black" stroke="black" points="1004.61,-115.97 1003.13,-123.03 996.05,-124.38 997.52,-117.32 1004.61,-115.97"/>
<text text-anchor="middle" x="1061" y="-92.8" font-family="Times,serif" font-size="14.00" fill="green">duration</text>
</g>
<!-- training.note.Note -->
<g id="node7" class="node">
<title>training.note.Note</title>
<polygon fill="none" stroke="black" points="907,-838 907,-1087 1116,-1087 1116,-838 907,-838"/>
<text text-anchor="middle" x="1011.5" y="-1071.8" font-family="Times,serif" font-size="14.00">training.note.Note</text>
<polyline fill="none" stroke="black" points="907,-1064 1116,-1064 "/>
<text text-anchor="start" x="915" y="-1048.8" font-family="Times,serif" font-size="14.00">clock : time, NoneType</text>
<text text-anchor="start" x="915" y="-1033.8" font-family="Times,serif" font-size="14.00">dt : datetime, NoneType</text>
<polyline fill="none" stroke="black" points="907,-1026 1116,-1026 "/>
<text text-anchor="start" x="915" y="-1010.8" font-family="Times,serif" font-size="14.00">appendDescription(objArg)</text>
<text text-anchor="start" x="915" y="-995.8" font-family="Times,serif" font-size="14.00">dup()</text>
<text text-anchor="start" x="915" y="-980.8" font-family="Times,serif" font-size="14.00">parse(objArg)</text>
<text text-anchor="start" x="915" y="-965.8" font-family="Times,serif" font-size="14.00">setClock(timeArg)</text>
<text text-anchor="start" x="915" y="-950.8" font-family="Times,serif" font-size="14.00">setDate(dateArg)</text>
<text text-anchor="start" x="915" y="-935.8" font-family="Times,serif" font-size="14.00">setDateStr(strArg)</text>
<text text-anchor="start" x="915" y="-920.8" font-family="Times,serif" font-size="14.00">toCSV()</text>
<text text-anchor="start" x="915" y="-905.8" font-family="Times,serif" font-size="14.00">toHtml()</text>
<text text-anchor="start" x="915" y="-890.8" font-family="Times,serif" font-size="14.00">toSVG(x, y)</text>
<text text-anchor="start" x="915" y="-875.8" font-family="Times,serif" font-size="14.00">toString()</text>
<text text-anchor="start" x="915" y="-860.8" font-family="Times,serif" font-size="14.00">toXML()</text>
<text text-anchor="start" x="915" y="-845.8" font-family="Times,serif" font-size="14.00">to_ical(cal)</text>
</g>
<!-- training.note.Note&#45;&gt;training.description.Description -->
<g id="edge7" class="edge">
<title>training.note.Note&#45;&gt;training.description.Description</title>
<path fill="none" stroke="black" d="M984.67,-1087.33C967.34,-1144.85 939.87,-1211.15 897.5,-1260 883.39,-1276.27 865.99,-1290.45 847.61,-1302.63"/>
<polygon fill="none" stroke="black" points="845.63,-1299.74 839.1,-1308.08 849.41,-1305.63 845.63,-1299.74"/>
</g>
<!-- training.pause.Pause&#45;&gt;training.note.Note -->
<g id="edge8" class="edge">
<title>training.pause.Pause&#45;&gt;training.note.Note</title>
<path fill="none" stroke="black" d="M922.77,-281.67C939.62,-410.81 973.35,-669.2 994.02,-827.58"/>
<polygon fill="none" stroke="black" points="990.6,-828.4 995.36,-837.86 997.54,-827.5 990.6,-828.4"/>
</g>
<!-- training.period.Period -->
<g id="node9" class="node">
<title>training.period.Period</title>
<polygon fill="none" stroke="black" points="0,-665.5 0,-1259.5 293,-1259.5 293,-665.5 0,-665.5"/>
<text text-anchor="middle" x="146.5" y="-1244.3" font-family="Times,serif" font-size="14.00">training.period.Period</text>
<polyline fill="none" stroke="black" points="0,-1236.5 293,-1236.5 "/>
<text text-anchor="start" x="8" y="-1221.3" font-family="Times,serif" font-size="14.00">child : list</text>
<text text-anchor="start" x="8" y="-1206.3" font-family="Times,serif" font-size="14.00">color : NoneType</text>
<text text-anchor="start" x="8" y="-1191.3" font-family="Times,serif" font-size="14.00">dateBegin : date, NoneType</text>
<text text-anchor="start" x="8" y="-1176.3" font-family="Times,serif" font-size="14.00">dateEnd : NoneType</text>
<text text-anchor="start" x="8" y="-1161.3" font-family="Times,serif" font-size="14.00">periodInt</text>
<polyline fill="none" stroke="black" points="0,-1153.5 293,-1153.5 "/>
<text text-anchor="start" x="8" y="-1138.3" font-family="Times,serif" font-size="14.00">CalendarMonthPeriod(intYear, strArg)</text>
<text text-anchor="start" x="8" y="-1123.3" font-family="Times,serif" font-size="14.00">CalendarSeasonPeriod(intYear, strArg)</text>
<text text-anchor="start" x="8" y="-1108.3" font-family="Times,serif" font-size="14.00">CalendarWeekPeriod(intYear, strArg)</text>
<text text-anchor="start" x="8" y="-1093.3" font-family="Times,serif" font-size="14.00">CalendarYearPeriod(intYear, strArg)</text>
<text text-anchor="start" x="8" y="-1078.3" font-family="Times,serif" font-size="14.00">append(objChild)</text>
<text text-anchor="start" x="8" y="-1063.3" font-family="Times,serif" font-size="14.00">appendChildDescription(objArg)</text>
<text text-anchor="start" x="8" y="-1048.3" font-family="Times,serif" font-size="14.00">appendDescription(objArg)</text>
<text text-anchor="start" x="8" y="-1033.3" font-family="Times,serif" font-size="14.00">dup()</text>
<text text-anchor="start" x="8" y="-1018.3" font-family="Times,serif" font-size="14.00">getDuration()</text>
<text text-anchor="start" x="8" y="-1003.3" font-family="Times,serif" font-size="14.00">getNumberOfUnits()</text>
<text text-anchor="start" x="8" y="-988.3" font-family="Times,serif" font-size="14.00">insertByDate(objUnit, flagReplace)</text>
<text text-anchor="start" x="8" y="-973.3" font-family="Times,serif" font-size="14.00">parseFile(listFilename, fUpdater)</text>
<text text-anchor="start" x="8" y="-958.3" font-family="Times,serif" font-size="14.00">remove(patternType)</text>
<text text-anchor="start" x="8" y="-943.3" font-family="Times,serif" font-size="14.00">report(dictArg)</text>
<text text-anchor="start" x="8" y="-928.3" font-family="Times,serif" font-size="14.00">resetDistances()</text>
<text text-anchor="start" x="8" y="-913.3" font-family="Times,serif" font-size="14.00">scale(floatScale, patternType)</text>
<text text-anchor="start" x="8" y="-898.3" font-family="Times,serif" font-size="14.00">schedule(intYear, intMonth, intDay)</text>
<text text-anchor="start" x="8" y="-883.3" font-family="Times,serif" font-size="14.00">setPeriod(intArg)</text>
<text text-anchor="start" x="8" y="-868.3" font-family="Times,serif" font-size="14.00">stat(dictArg)</text>
<text text-anchor="start" x="8" y="-853.3" font-family="Times,serif" font-size="14.00">toCSV()</text>
<text text-anchor="start" x="8" y="-838.3" font-family="Times,serif" font-size="14.00">toFreeMind()</text>
<text text-anchor="start" x="8" y="-823.3" font-family="Times,serif" font-size="14.00">toHtml()</text>
<text text-anchor="start" x="8" y="-808.3" font-family="Times,serif" font-size="14.00">toHtmlFile()</text>
<text text-anchor="start" x="8" y="-793.3" font-family="Times,serif" font-size="14.00">toPlain()</text>
<text text-anchor="start" x="8" y="-778.3" font-family="Times,serif" font-size="14.00">toSVG(x, y)</text>
<text text-anchor="start" x="8" y="-763.3" font-family="Times,serif" font-size="14.00">toSVGDiagram()</text>
<text text-anchor="start" x="8" y="-748.3" font-family="Times,serif" font-size="14.00">toSVGGantt(dateBase, y)</text>
<text text-anchor="start" x="8" y="-733.3" font-family="Times,serif" font-size="14.00">toSVGGanttChart()</text>
<text text-anchor="start" x="8" y="-718.3" font-family="Times,serif" font-size="14.00">toString()</text>
<text text-anchor="start" x="8" y="-703.3" font-family="Times,serif" font-size="14.00">toVCalendar()</text>
<text text-anchor="start" x="8" y="-688.3" font-family="Times,serif" font-size="14.00">toXML()</text>
<text text-anchor="start" x="8" y="-673.3" font-family="Times,serif" font-size="14.00">to_ical(cal)</text>
</g>
<!-- training.period.Period&#45;&gt;training.description.Description -->
<g id="edge9" class="edge">
<title>training.period.Period&#45;&gt;training.description.Description</title>
<path fill="none" stroke="black" d="M293.14,-1253.72C295.88,-1255.88 298.66,-1257.97 301.5,-1260 345.76,-1291.63 490.83,-1283.38 543.5,-1297 556.72,-1300.42 570.34,-1304.48 583.86,-1308.86"/>
<polygon fill="none" stroke="black" points="583.08,-1312.29 593.67,-1312.11 585.28,-1305.64 583.08,-1312.29"/>
</g>
<!-- training.period.Period&#45;&gt;training.title.Title -->
<g id="edge10" class="edge">
<title>training.period.Period&#45;&gt;training.title.Title</title>
<path fill="none" stroke="black" d="M293.06,-1250.52C295.84,-1253.74 298.65,-1256.9 301.5,-1260 322.77,-1283.15 350.49,-1303.15 376.81,-1319.11"/>
<polygon fill="none" stroke="black" points="375.29,-1322.27 385.68,-1324.37 378.86,-1316.25 375.29,-1322.27"/>
</g>
<!-- training.unit.Unit&#45;&gt;training.note.Note -->
<g id="edge11" class="edge">
<title>training.unit.Unit&#45;&gt;training.note.Note</title>
<path fill="none" stroke="black" d="M1199.21,-627.8C1163.13,-691.93 1121.1,-766.65 1085.97,-829.11"/>
<polygon fill="none" stroke="black" points="1082.91,-827.4 1081.06,-837.84 1089.01,-830.84 1082.91,-827.4"/>
</g>
</g>
</svg>
