<?xml version="1.0" encoding="UTF-8" standalone="no"?>
<!DOCTYPE svg PUBLIC "-//W3C//DTD SVG 1.1//EN"
 "http://www.w3.org/Graphics/SVG/1.1/DTD/svg11.dtd">
<!-- Generated by graphviz version 2.43.0 (0)
 -->
<!-- Title: classes_training Pages: 1 -->
<svg width="1276pt" height="1374pt"
 viewBox="0.00 0.00 1275.50 1374.00" xmlns="http://www.w3.org/2000/svg" xmlns:xlink="http://www.w3.org/1999/xlink">
<g id="graph0" class="graph" transform="scale(1 1) rotate(0) translate(4 1370)">
<title>classes_training</title>
<polygon fill="white" stroke="transparent" points="-4,4 -4,-1370 1271.5,-1370 1271.5,4 -4,4"/>
<!-- _datetime.datetime.timedelta -->
<g id="node1" class="node">
<title>_datetime.datetime.timedelta</title>
<polygon fill="none" stroke="black" points="399.5,-235 399.5,-334 627.5,-334 627.5,-235 399.5,-235"/>
<text text-anchor="middle" x="513.5" y="-318.8" font-family="Times,serif" font-size="14.00">_datetime.datetime.timedelta</text>
<polyline fill="none" stroke="black" points="399.5,-311 627.5,-311 "/>
<text text-anchor="start" x="407.5" y="-295.8" font-family="Times,serif" font-size="14.00">days</text>
<text text-anchor="start" x="407.5" y="-280.8" font-family="Times,serif" font-size="14.00">microseconds</text>
<text text-anchor="start" x="407.5" y="-265.8" font-family="Times,serif" font-size="14.00">seconds</text>
<polyline fill="none" stroke="black" points="399.5,-258 627.5,-258 "/>
<text text-anchor="start" x="407.5" y="-242.8" font-family="Times,serif" font-size="14.00">total_seconds()</text>
</g>
<!-- datetime.timedelta -->
<g id="node2" class="node">
<title>datetime.timedelta</title>
<polygon fill="none" stroke="black" points="646,-235 646,-334 799,-334 799,-235 646,-235"/>
<text text-anchor="middle" x="722.5" y="-318.8" font-family="Times,serif" font-size="14.00">datetime.timedelta</text>
<polyline fill="none" stroke="black" points="646,-311 799,-311 "/>
<text text-anchor="start" x="654" y="-295.8" font-family="Times,serif" font-size="14.00">days</text>
<text text-anchor="start" x="654" y="-280.8" font-family="Times,serif" font-size="14.00">microseconds</text>
<text text-anchor="start" x="654" y="-265.8" font-family="Times,serif" font-size="14.00">seconds</text>
<polyline fill="none" stroke="black" points="646,-258 799,-258 "/>
<text text-anchor="start" x="654" y="-242.8" font-family="Times,serif" font-size="14.00">total_seconds()</text>
</g>
<!-- training.combination.Combination -->
<g id="node3" class="node">
<title>training.combination.Combination</title>
<polygon fill="none" stroke="black" points="678,-702 678,-966 939,-966 939,-702 678,-702"/>
<text text-anchor="middle" x="808.5" y="-950.8" font-family="Times,serif" font-size="14.00">training.combination.Combination</text>
<polyline fill="none" stroke="black" points="678,-943 939,-943 "/>
<text text-anchor="start" x="686" y="-927.8" font-family="Times,serif" font-size="14.00">child : list</text>
<polyline fill="none" stroke="black" points="678,-920 939,-920 "/>
<text text-anchor="start" x="686" y="-904.8" font-family="Times,serif" font-size="14.00">appendDescription(objArg)</text>
<text text-anchor="start" x="686" y="-889.8" font-family="Times,serif" font-size="14.00">dup()</text>
<text text-anchor="start" x="686" y="-874.8" font-family="Times,serif" font-size="14.00">getDuration()</text>
<text text-anchor="start" x="686" y="-859.8" font-family="Times,serif" font-size="14.00">getNumberOfUnits()</text>
<text text-anchor="start" x="686" y="-844.8" font-family="Times,serif" font-size="14.00">remove(patternType)</text>
<text text-anchor="start" x="686" y="-829.8" font-family="Times,serif" font-size="14.00">resetDistances()</text>
<text text-anchor="start" x="686" y="-814.8" font-family="Times,serif" font-size="14.00">scale(floatScale, patternType)</text>
<text text-anchor="start" x="686" y="-799.8" font-family="Times,serif" font-size="14.00">setDate(dtArg, dt_0, dt_1)</text>
<text text-anchor="start" x="686" y="-784.8" font-family="Times,serif" font-size="14.00">stat(dictArg)</text>
<text text-anchor="start" x="686" y="-769.8" font-family="Times,serif" font-size="14.00">toCSV()</text>
<text text-anchor="start" x="686" y="-754.8" font-family="Times,serif" font-size="14.00">toFreemindNode()</text>
<text text-anchor="start" x="686" y="-739.8" font-family="Times,serif" font-size="14.00">toHtml()</text>
<text text-anchor="start" x="686" y="-724.8" font-family="Times,serif" font-size="14.00">toSVG(x, y)</text>
<text text-anchor="start" x="686" y="-709.8" font-family="Times,serif" font-size="14.00">to_ical(cal)</text>
</g>
<!-- training.description.Description -->
<g id="node5" class="node">
<title>training.description.Description</title>
<polygon fill="none" stroke="black" points="644,-1221.5 644,-1365.5 889,-1365.5 889,-1221.5 644,-1221.5"/>
<text text-anchor="middle" x="766.5" y="-1350.3" font-family="Times,serif" font-size="14.00">training.description.Description</text>
<polyline fill="none" stroke="black" points="644,-1342.5 889,-1342.5 "/>
<text text-anchor="start" x="652" y="-1327.3" font-family="Times,serif" font-size="14.00">color : NoneType</text>
<text text-anchor="start" x="652" y="-1312.3" font-family="Times,serif" font-size="14.00">listDescription : list</text>
<polyline fill="none" stroke="black" points="644,-1304.5 889,-1304.5 "/>
<text text-anchor="start" x="652" y="-1289.3" font-family="Times,serif" font-size="14.00">appendDescription(objArg)</text>
<text text-anchor="start" x="652" y="-1274.3" font-family="Times,serif" font-size="14.00">hasDescription()</text>
<text text-anchor="start" x="652" y="-1259.3" font-family="Times,serif" font-size="14.00">parseDescription(strArg)</text>
<text text-anchor="start" x="652" y="-1244.3" font-family="Times,serif" font-size="14.00">setColor(strColor)</text>
<text text-anchor="start" x="652" y="-1229.3" font-family="Times,serif" font-size="14.00">setDescription(objArg)</text>
</g>
<!-- training.combination.Combination&#45;&gt;training.description.Description -->
<g id="edge1" class="edge">
<title>training.combination.Combination&#45;&gt;training.description.Description</title>
<path fill="none" stroke="black" d="M796.46,-966.1C789.21,-1045.09 780.21,-1143.2 773.97,-1211.12"/>
<polygon fill="none" stroke="black" points="770.46,-1211.06 773.03,-1221.34 777.43,-1211.7 770.46,-1211.06"/>
</g>
<!-- training.title.Title -->
<g id="node10" class="node">
<title>training.title.Title</title>
<polygon fill="none" stroke="black" points="436,-1236.5 436,-1350.5 585,-1350.5 585,-1236.5 436,-1236.5"/>
<text text-anchor="middle" x="510.5" y="-1335.3" font-family="Times,serif" font-size="14.00">training.title.Title</text>
<polyline fill="none" stroke="black" points="436,-1327.5 585,-1327.5 "/>
<text text-anchor="start" x="444" y="-1312.3" font-family="Times,serif" font-size="14.00">strTitle : str</text>
<polyline fill="none" stroke="black" points="436,-1304.5 585,-1304.5 "/>
<text text-anchor="start" x="444" y="-1289.3" font-family="Times,serif" font-size="14.00">getTitleStr()</text>
<text text-anchor="start" x="444" y="-1274.3" font-family="Times,serif" font-size="14.00">getTitleXML()</text>
<text text-anchor="start" x="444" y="-1259.3" font-family="Times,serif" font-size="14.00">hasTitle()</text>
<text text-anchor="start" x="444" y="-1244.3" font-family="Times,serif" font-size="14.00">setTitleStr(strArg)</text>
</g>
<!-- training.combination.Combination&#45;&gt;training.title.Title -->
<g id="edge2" class="edge">
<title>training.combination.Combination&#45;&gt;training.title.Title</title>
<path fill="none" stroke="black" d="M775.98,-966.02C753.95,-1035.94 719.41,-1120.43 668.5,-1184 648.23,-1209.31 620.49,-1231.08 593.92,-1248.32"/>
<polygon fill="none" stroke="black" points="591.91,-1245.45 585.34,-1253.76 595.66,-1251.36 591.91,-1245.45"/>
</g>
<!-- training.cycle.Cycle -->
<g id="node4" class="node">
<title>training.cycle.Cycle</title>
<polygon fill="none" stroke="black" points="361,-522 361,-1146 660,-1146 660,-522 361,-522"/>
<text text-anchor="middle" x="510.5" y="-1130.8" font-family="Times,serif" font-size="14.00">training.cycle.Cycle</text>
<polyline fill="none" stroke="black" points="361,-1123 660,-1123 "/>
<text text-anchor="start" x="369" y="-1107.8" font-family="Times,serif" font-size="14.00">color : NoneType</text>
<text text-anchor="start" x="369" y="-1092.8" font-family="Times,serif" font-size="14.00">dateBegin : NoneType, date</text>
<text text-anchor="start" x="369" y="-1077.8" font-family="Times,serif" font-size="14.00">dateEnd : NoneType</text>
<text text-anchor="start" x="369" y="-1062.8" font-family="Times,serif" font-size="14.00">day : list</text>
<text text-anchor="start" x="369" y="-1047.8" font-family="Times,serif" font-size="14.00">fPlan : bool</text>
<polyline fill="none" stroke="black" points="361,-1040 660,-1040 "/>
<text text-anchor="start" x="369" y="-1024.8" font-family="Times,serif" font-size="14.00">appendDescription(objArg)</text>
<text text-anchor="start" x="369" y="-1009.8" font-family="Times,serif" font-size="14.00">copy(intIndexA, intIndexB, flagReplace)</text>
<text text-anchor="start" x="369" y="-994.8" font-family="Times,serif" font-size="14.00">dup()</text>
<text text-anchor="start" x="369" y="-979.8" font-family="Times,serif" font-size="14.00">getCycleByDate(objDate)</text>
<text text-anchor="start" x="369" y="-964.8" font-family="Times,serif" font-size="14.00">getDuration()</text>
<text text-anchor="start" x="369" y="-949.8" font-family="Times,serif" font-size="14.00">getNumberOfUnits()</text>
<text text-anchor="start" x="369" y="-934.8" font-family="Times,serif" font-size="14.00">getPeriodDone()</text>
<text text-anchor="start" x="369" y="-919.8" font-family="Times,serif" font-size="14.00">insert(objIndex, objArg, flagReplace)</text>
<text text-anchor="start" x="369" y="-904.8" font-family="Times,serif" font-size="14.00">insertByDate(objArg, flagReplace)</text>
<text text-anchor="start" x="369" y="-889.8" font-family="Times,serif" font-size="14.00">insertDescriptionStr(intIndex, strArg)</text>
<text text-anchor="start" x="369" y="-874.8" font-family="Times,serif" font-size="14.00">postpone(n)</text>
<text text-anchor="start" x="369" y="-859.8" font-family="Times,serif" font-size="14.00">remove(intIndexA, patternType)</text>
<text text-anchor="start" x="369" y="-844.8" font-family="Times,serif" font-size="14.00">report(dictArg)</text>
<text text-anchor="start" x="369" y="-829.8" font-family="Times,serif" font-size="14.00">resetDistances()</text>
<text text-anchor="start" x="369" y="-814.8" font-family="Times,serif" font-size="14.00">scale(floatScale, patternType)</text>
<text text-anchor="start" x="369" y="-799.8" font-family="Times,serif" font-size="14.00">schedule(intYear, intMonth, intDay)</text>
<text text-anchor="start" x="369" y="-784.8" font-family="Times,serif" font-size="14.00">setPlan(fPlan)</text>
<text text-anchor="start" x="369" y="-769.8" font-family="Times,serif" font-size="14.00">shift(intIndexA, intIndexB, flagReplace)</text>
<text text-anchor="start" x="369" y="-754.8" font-family="Times,serif" font-size="14.00">stat(dictArg)</text>
<text text-anchor="start" x="369" y="-739.8" font-family="Times,serif" font-size="14.00">stretch(n)</text>
<text text-anchor="start" x="369" y="-724.8" font-family="Times,serif" font-size="14.00">swap(intIndexA, intIndexB)</text>
<text text-anchor="start" x="369" y="-709.8" font-family="Times,serif" font-size="14.00">toCSV()</text>
<text text-anchor="start" x="369" y="-694.8" font-family="Times,serif" font-size="14.00">toFreeMind()</text>
<text text-anchor="start" x="369" y="-679.8" font-family="Times,serif" font-size="14.00">toFreemindNode()</text>
<text text-anchor="start" x="369" y="-664.8" font-family="Times,serif" font-size="14.00">toHtml()</text>
<text text-anchor="start" x="369" y="-649.8" font-family="Times,serif" font-size="14.00">toHtmlFile()</text>
<text text-anchor="start" x="369" y="-634.8" font-family="Times,serif" font-size="14.00">toSVG(x, y)</text>
<text text-anchor="start" x="369" y="-619.8" font-family="Times,serif" font-size="14.00">toSVGDiagram()</text>
<text text-anchor="start" x="369" y="-604.8" font-family="Times,serif" font-size="14.00">toSVGGantt(dateBase, y)</text>
<text text-anchor="start" x="369" y="-589.8" font-family="Times,serif" font-size="14.00">toSVGGanttChart()</text>
<text text-anchor="start" x="369" y="-574.8" font-family="Times,serif" font-size="14.00">toSqlite()</text>
<text text-anchor="start" x="369" y="-559.8" font-family="Times,serif" font-size="14.00">toString()</text>
<text text-anchor="start" x="369" y="-544.8" font-family="Times,serif" font-size="14.00">toVCalendar()</text>
<text text-anchor="start" x="369" y="-529.8" font-family="Times,serif" font-size="14.00">to_ical(cal)</text>
</g>
<!-- training.cycle.Cycle&#45;&gt;training.description.Description -->
<g id="edge3" class="edge">
<title>training.cycle.Cycle&#45;&gt;training.description.Description</title>
<path fill="none" stroke="black" d="M645.1,-1146.03C652.68,-1159.05 660.48,-1171.76 668.5,-1184 675.02,-1193.95 682.44,-1203.9 690.2,-1213.51"/>
<polygon fill="none" stroke="black" points="687.73,-1216.01 696.8,-1221.49 693.13,-1211.55 687.73,-1216.01"/>
</g>
<!-- training.cycle.Cycle&#45;&gt;training.title.Title -->
<g id="edge4" class="edge">
<title>training.cycle.Cycle&#45;&gt;training.title.Title</title>
<path fill="none" stroke="black" d="M510.5,-1146.17C510.5,-1175.72 510.5,-1203.16 510.5,-1226.1"/>
<polygon fill="none" stroke="black" points="507,-1226.31 510.5,-1236.31 514,-1226.31 507,-1226.31"/>
</g>
<!-- training.duration.Duration -->
<g id="node6" class="node">
<title>training.duration.Duration</title>
<polygon fill="none" stroke="black" points="781.5,-0.5 781.5,-70.5 987.5,-70.5 987.5,-0.5 781.5,-0.5"/>
<text text-anchor="middle" x="884.5" y="-55.3" font-family="Times,serif" font-size="14.00">training.duration.Duration</text>
<polyline fill="none" stroke="black" points="781.5,-47.5 987.5,-47.5 "/>
<polyline fill="none" stroke="black" points="781.5,-23.5 987.5,-23.5 "/>
<text text-anchor="start" x="789.5" y="-8.3" font-family="Times,serif" font-size="14.00">scale(floatScale)</text>
</g>
<!-- training.duration.Duration&#45;&gt;_datetime.datetime.timedelta -->
<g id="edge5" class="edge">
<title>training.duration.Duration&#45;&gt;_datetime.datetime.timedelta</title>
<path fill="none" stroke="black" d="M781.22,-57.56C734.01,-70.68 679.22,-91.12 636.5,-122 598.58,-149.41 566.92,-191.82 545.21,-226.3"/>
<polygon fill="none" stroke="black" points="542.19,-224.54 539.91,-234.89 548.14,-228.22 542.19,-224.54"/>
</g>
<!-- training.duration.Duration&#45;&gt;datetime.timedelta -->
<g id="edge6" class="edge">
<title>training.duration.Duration&#45;&gt;datetime.timedelta</title>
<path fill="none" stroke="black" d="M850.19,-70.62C836.05,-85.65 820.07,-103.97 807.5,-122 784.82,-154.53 764,-193.85 748.65,-225.55"/>
<polygon fill="none" stroke="black" points="745.43,-224.17 744.26,-234.7 751.74,-227.19 745.43,-224.17"/>
</g>
<!-- training.pause.Pause -->
<g id="node8" class="node">
<title>training.pause.Pause</title>
<polygon fill="none" stroke="black" points="817,-190 817,-379 1020,-379 1020,-190 817,-190"/>
<text text-anchor="middle" x="918.5" y="-363.8" font-family="Times,serif" font-size="14.00">training.pause.Pause</text>
<polyline fill="none" stroke="black" points="817,-356 1020,-356 "/>
<text text-anchor="start" x="825" y="-340.8" font-family="Times,serif" font-size="14.00">dt : NoneType</text>
<text text-anchor="start" x="825" y="-325.8" font-family="Times,serif" font-size="14.00">duration</text>
<polyline fill="none" stroke="black" points="817,-318 1020,-318 "/>
<text text-anchor="start" x="825" y="-302.8" font-family="Times,serif" font-size="14.00">getDuration()</text>
<text text-anchor="start" x="825" y="-287.8" font-family="Times,serif" font-size="14.00">setDate(dtArg, dt_0, dt_1)</text>
<text text-anchor="start" x="825" y="-272.8" font-family="Times,serif" font-size="14.00">setDuration(intArg)</text>
<text text-anchor="start" x="825" y="-257.8" font-family="Times,serif" font-size="14.00">toCSV()</text>
<text text-anchor="start" x="825" y="-242.8" font-family="Times,serif" font-size="14.00">toFreemindNode()</text>
<text text-anchor="start" x="825" y="-227.8" font-family="Times,serif" font-size="14.00">toHtml()</text>
<text text-anchor="start" x="825" y="-212.8" font-family="Times,serif" font-size="14.00">toSVG(x, y)</text>
<text text-anchor="start" x="825" y="-197.8" font-family="Times,serif" font-size="14.00">to_ical(cal)</text>
</g>
<!-- training.duration.Duration&#45;&gt;training.pause.Pause -->
<g id="edge12" class="edge">
<title>training.duration.Duration&#45;&gt;training.pause.Pause</title>
<path fill="none" stroke="black" d="M852.78,-70.75C848.98,-76.49 845.68,-82.66 843.5,-89 841.33,-95.3 842.19,-97.46 843.5,-104 848.49,-128.87 857,-154.6 866.55,-178.54"/>
<polygon fill="black" stroke="black" points="866.6,-178.67 872.58,-182.7 871.15,-189.77 865.17,-185.73 866.6,-178.67"/>
<text text-anchor="middle" x="874" y="-92.8" font-family="Times,serif" font-size="14.00" fill="green">duration</text>
</g>
<!-- training.duration.Duration&#45;&gt;training.pause.Pause -->
<g id="edge13" class="edge">
<title>training.duration.Duration&#45;&gt;training.pause.Pause</title>
<path fill="none" stroke="black" d="M899.1,-70.51C901.23,-76.58 903.15,-82.91 904.5,-89 910.78,-117.34 914.42,-148.52 916.49,-177.46"/>
<polygon fill="black" stroke="black" points="916.51,-177.73 920.88,-183.46 917.28,-189.7 912.9,-183.98 916.51,-177.73"/>
<text text-anchor="middle" x="938" y="-92.8" font-family="Times,serif" font-size="14.00" fill="green">duration</text>
</g>
<!-- training.unit.Unit -->
<g id="node11" class="node">
<title>training.unit.Unit</title>
<polygon fill="none" stroke="black" points="1037.5,-122.5 1037.5,-446.5 1267.5,-446.5 1267.5,-122.5 1037.5,-122.5"/>
<text text-anchor="middle" x="1152.5" y="-431.3" font-family="Times,serif" font-size="14.00">training.unit.Unit</text>
<polyline fill="none" stroke="black" points="1037.5,-423.5 1267.5,-423.5 "/>
<text text-anchor="start" x="1045.5" y="-408.3" font-family="Times,serif" font-size="14.00">dist : NoneType, float</text>
<text text-anchor="start" x="1045.5" y="-393.3" font-family="Times,serif" font-size="14.00">dt : datetime, NoneType</text>
<text text-anchor="start" x="1045.5" y="-378.3" font-family="Times,serif" font-size="14.00">duration</text>
<text text-anchor="start" x="1045.5" y="-363.3" font-family="Times,serif" font-size="14.00">type : NoneType</text>
<polyline fill="none" stroke="black" points="1037.5,-355.5 1267.5,-355.5 "/>
<text text-anchor="start" x="1045.5" y="-340.3" font-family="Times,serif" font-size="14.00">getDuration()</text>
<text text-anchor="start" x="1045.5" y="-325.3" font-family="Times,serif" font-size="14.00">getSpeedStr()</text>
<text text-anchor="start" x="1045.5" y="-310.3" font-family="Times,serif" font-size="14.00">parse(objArg)</text>
<text text-anchor="start" x="1045.5" y="-295.3" font-family="Times,serif" font-size="14.00">scale(floatScale, patternType)</text>
<text text-anchor="start" x="1045.5" y="-280.3" font-family="Times,serif" font-size="14.00">setDate(dtArg, dt_0, dt_1)</text>
<text text-anchor="start" x="1045.5" y="-265.3" font-family="Times,serif" font-size="14.00">setDistStr(strArg)</text>
<text text-anchor="start" x="1045.5" y="-250.3" font-family="Times,serif" font-size="14.00">setDuration(intArg)</text>
<text text-anchor="start" x="1045.5" y="-235.3" font-family="Times,serif" font-size="14.00">setTypeStr(strArg)</text>
<text text-anchor="start" x="1045.5" y="-220.3" font-family="Times,serif" font-size="14.00">stat(dictArg)</text>
<text text-anchor="start" x="1045.5" y="-205.3" font-family="Times,serif" font-size="14.00">toCSV()</text>
<text text-anchor="start" x="1045.5" y="-190.3" font-family="Times,serif" font-size="14.00">toFreemindNode()</text>
<text text-anchor="start" x="1045.5" y="-175.3" font-family="Times,serif" font-size="14.00">toHtml()</text>
<text text-anchor="start" x="1045.5" y="-160.3" font-family="Times,serif" font-size="14.00">toSVG(x, y)</text>
<text text-anchor="start" x="1045.5" y="-145.3" font-family="Times,serif" font-size="14.00">toSqlite()</text>
<text text-anchor="start" x="1045.5" y="-130.3" font-family="Times,serif" font-size="14.00">to_ical(cal)</text>
</g>
<!-- training.duration.Duration&#45;&gt;training.unit.Unit -->
<g id="edge14" class="edge">
<title>training.duration.Duration&#45;&gt;training.unit.Unit</title>
<path fill="none" stroke="black" d="M953.69,-70.52C976.15,-83.14 1000.65,-98.67 1027.83,-121.81"/>
<polygon fill="black" stroke="black" points="1028.12,-122.07 1035.27,-123 1037.16,-129.96 1030.01,-129.03 1028.12,-122.07"/>
<text text-anchor="middle" x="1035" y="-92.8" font-family="Times,serif" font-size="14.00" fill="green">duration</text>
</g>
<!-- training.duration.Duration&#45;&gt;training.unit.Unit -->
<g id="edge15" class="edge">
<title>training.duration.Duration&#45;&gt;training.unit.Unit</title>
<path fill="none" stroke="black" d="M987.57,-48.79C1016.73,-56.48 1046.7,-68.92 1069.5,-89 1077.51,-96.05 1084.77,-104.01 1091.34,-112.57"/>
<polygon fill="black" stroke="black" points="1091.47,-112.75 1098.22,-115.28 1098.48,-122.49 1091.73,-119.96 1091.47,-112.75"/>
<text text-anchor="middle" x="1113" y="-92.8" font-family="Times,serif" font-size="14.00" fill="green">duration</text>
</g>
<!-- training.note.Note -->
<g id="node7" class="node">
<title>training.note.Note</title>
<polygon fill="none" stroke="black" points="957,-709.5 957,-958.5 1166,-958.5 1166,-709.5 957,-709.5"/>
<text text-anchor="middle" x="1061.5" y="-943.3" font-family="Times,serif" font-size="14.00">training.note.Note</text>
<polyline fill="none" stroke="black" points="957,-935.5 1166,-935.5 "/>
<text text-anchor="start" x="965" y="-920.3" font-family="Times,serif" font-size="14.00">dt : NoneType, datetime</text>
<text text-anchor="start" x="965" y="-905.3" font-family="Times,serif" font-size="14.00">tPlan : str, time, NoneType</text>
<polyline fill="none" stroke="black" points="957,-897.5 1166,-897.5 "/>
<text text-anchor="start" x="965" y="-882.3" font-family="Times,serif" font-size="14.00">appendDescription(objArg)</text>
<text text-anchor="start" x="965" y="-867.3" font-family="Times,serif" font-size="14.00">dup()</text>
<text text-anchor="start" x="965" y="-852.3" font-family="Times,serif" font-size="14.00">parse(objArg)</text>
<text text-anchor="start" x="965" y="-837.3" font-family="Times,serif" font-size="14.00">setClock(timeArg)</text>
<text text-anchor="start" x="965" y="-822.3" font-family="Times,serif" font-size="14.00">setDate(dtArg, dt_0, dt_1)</text>
<text text-anchor="start" x="965" y="-807.3" font-family="Times,serif" font-size="14.00">setDateStr(strArg)</text>
<text text-anchor="start" x="965" y="-792.3" font-family="Times,serif" font-size="14.00">toCSV()</text>
<text text-anchor="start" x="965" y="-777.3" font-family="Times,serif" font-size="14.00">toFreemindNode()</text>
<text text-anchor="start" x="965" y="-762.3" font-family="Times,serif" font-size="14.00">toHtml()</text>
<text text-anchor="start" x="965" y="-747.3" font-family="Times,serif" font-size="14.00">toSVG(x, y)</text>
<text text-anchor="start" x="965" y="-732.3" font-family="Times,serif" font-size="14.00">toString()</text>
<text text-anchor="start" x="965" y="-717.3" font-family="Times,serif" font-size="14.00">to_ical(cal)</text>
</g>
<!-- training.note.Note&#45;&gt;training.description.Description -->
<g id="edge7" class="edge">
<title>training.note.Note&#45;&gt;training.description.Description</title>
<path fill="none" stroke="black" d="M1043.29,-958.75C1027.65,-1030.57 999.07,-1119.34 947.5,-1184 933.73,-1201.26 916.41,-1216.41 897.98,-1229.48"/>
<polygon fill="none" stroke="black" points="895.71,-1226.8 889.44,-1235.34 899.67,-1232.57 895.71,-1226.8"/>
</g>
<!-- training.pause.Pause&#45;&gt;training.note.Note -->
<g id="edge8" class="edge">
<title>training.pause.Pause&#45;&gt;training.note.Note</title>
<path fill="none" stroke="black" d="M943,-379.31C966.04,-467.51 1000.76,-600.45 1026.67,-699.66"/>
<polygon fill="none" stroke="black" points="1023.32,-700.66 1029.23,-709.46 1030.09,-698.9 1023.32,-700.66"/>
</g>
<!-- training.period.Period -->
<g id="node9" class="node">
<title>training.period.Period</title>
<polygon fill="none" stroke="black" points="0,-484.5 0,-1183.5 343,-1183.5 343,-484.5 0,-484.5"/>
<text text-anchor="middle" x="171.5" y="-1168.3" font-family="Times,serif" font-size="14.00">training.period.Period</text>
<polyline fill="none" stroke="black" points="0,-1160.5 343,-1160.5 "/>
<text text-anchor="start" x="8" y="-1145.3" font-family="Times,serif" font-size="14.00">child : list</text>
<text text-anchor="start" x="8" y="-1130.3" font-family="Times,serif" font-size="14.00">color : NoneType</text>
<text text-anchor="start" x="8" y="-1115.3" font-family="Times,serif" font-size="14.00">dateBegin : NoneType, date</text>
<text text-anchor="start" x="8" y="-1100.3" font-family="Times,serif" font-size="14.00">dateEnd : NoneType</text>
<text text-anchor="start" x="8" y="-1085.3" font-family="Times,serif" font-size="14.00">fPlan : bool</text>
<text text-anchor="start" x="8" y="-1070.3" font-family="Times,serif" font-size="14.00">periodInt</text>
<polyline fill="none" stroke="black" points="0,-1062.5 343,-1062.5 "/>
<text text-anchor="start" x="8" y="-1047.3" font-family="Times,serif" font-size="14.00">CalendarLastMonthsPeriod(intMonth, strArg)</text>
<text text-anchor="start" x="8" y="-1032.3" font-family="Times,serif" font-size="14.00">CalendarLastWeeksPeriod(intWeek, strArg)</text>
<text text-anchor="start" x="8" y="-1017.3" font-family="Times,serif" font-size="14.00">CalendarMonthPeriod(intYear, strArg)</text>
<text text-anchor="start" x="8" y="-1002.3" font-family="Times,serif" font-size="14.00">CalendarSeasonPeriod(intYear, strArg)</text>
<text text-anchor="start" x="8" y="-987.3" font-family="Times,serif" font-size="14.00">CalendarWeekPeriod(intYear, strArg)</text>
<text text-anchor="start" x="8" y="-972.3" font-family="Times,serif" font-size="14.00">CalendarYearPeriod(intYear, strArg)</text>
<text text-anchor="start" x="8" y="-957.3" font-family="Times,serif" font-size="14.00">append(objArg)</text>
<text text-anchor="start" x="8" y="-942.3" font-family="Times,serif" font-size="14.00">appendChildDescription(objArg)</text>
<text text-anchor="start" x="8" y="-927.3" font-family="Times,serif" font-size="14.00">appendDescription(objArg)</text>
<text text-anchor="start" x="8" y="-912.3" font-family="Times,serif" font-size="14.00">dup()</text>
<text text-anchor="start" x="8" y="-897.3" font-family="Times,serif" font-size="14.00">getCycleByDate(objDate)</text>
<text text-anchor="start" x="8" y="-882.3" font-family="Times,serif" font-size="14.00">getDuration()</text>
<text text-anchor="start" x="8" y="-867.3" font-family="Times,serif" font-size="14.00">getNumberOfUnits()</text>
<text text-anchor="start" x="8" y="-852.3" font-family="Times,serif" font-size="14.00">getPeriodByDate(objDate)</text>
<text text-anchor="start" x="8" y="-837.3" font-family="Times,serif" font-size="14.00">insertByDate(objUnit, flagReplace)</text>
<text text-anchor="start" x="8" y="-822.3" font-family="Times,serif" font-size="14.00">parseFile(listFilename, fUpdater)</text>
<text text-anchor="start" x="8" y="-807.3" font-family="Times,serif" font-size="14.00">remove(patternType)</text>
<text text-anchor="start" x="8" y="-792.3" font-family="Times,serif" font-size="14.00">report(dictArg)</text>
<text text-anchor="start" x="8" y="-777.3" font-family="Times,serif" font-size="14.00">resetDistances()</text>
<text text-anchor="start" x="8" y="-762.3" font-family="Times,serif" font-size="14.00">scale(floatScale, patternType)</text>
<text text-anchor="start" x="8" y="-747.3" font-family="Times,serif" font-size="14.00">schedule(intYear, intMonth, intDay)</text>
<text text-anchor="start" x="8" y="-732.3" font-family="Times,serif" font-size="14.00">setPeriod(intArg)</text>
<text text-anchor="start" x="8" y="-717.3" font-family="Times,serif" font-size="14.00">setPlan(fPlan)</text>
<text text-anchor="start" x="8" y="-702.3" font-family="Times,serif" font-size="14.00">stat(dictArg)</text>
<text text-anchor="start" x="8" y="-687.3" font-family="Times,serif" font-size="14.00">toCSV()</text>
<text text-anchor="start" x="8" y="-672.3" font-family="Times,serif" font-size="14.00">toFreeMind()</text>
<text text-anchor="start" x="8" y="-657.3" font-family="Times,serif" font-size="14.00">toFreemindNode()</text>
<text text-anchor="start" x="8" y="-642.3" font-family="Times,serif" font-size="14.00">toHtml()</text>
<text text-anchor="start" x="8" y="-627.3" font-family="Times,serif" font-size="14.00">toHtmlFile()</text>
<text text-anchor="start" x="8" y="-612.3" font-family="Times,serif" font-size="14.00">toSVG(x, y)</text>
<text text-anchor="start" x="8" y="-597.3" font-family="Times,serif" font-size="14.00">toSVGDiagram()</text>
<text text-anchor="start" x="8" y="-582.3" font-family="Times,serif" font-size="14.00">toSVGGantt(dateBase, y)</text>
<text text-anchor="start" x="8" y="-567.3" font-family="Times,serif" font-size="14.00">toSVGGanttChart()</text>
<text text-anchor="start" x="8" y="-552.3" font-family="Times,serif" font-size="14.00">toSqlite()</text>
<text text-anchor="start" x="8" y="-537.3" font-family="Times,serif" font-size="14.00">toSqliteDump()</text>
<text text-anchor="start" x="8" y="-522.3" font-family="Times,serif" font-size="14.00">toString()</text>
<text text-anchor="start" x="8" y="-507.3" font-family="Times,serif" font-size="14.00">toVCalendar()</text>
<text text-anchor="start" x="8" y="-492.3" font-family="Times,serif" font-size="14.00">to_ical(cal)</text>
</g>
<!-- training.period.Period&#45;&gt;training.description.Description -->
<g id="edge9" class="edge">
<title>training.period.Period&#45;&gt;training.description.Description</title>
<path fill="none" stroke="black" d="M343.31,-1177.87C346,-1179.97 348.73,-1182.01 351.5,-1184 395.68,-1215.75 541.09,-1206.39 593.5,-1221 606.98,-1224.76 620.82,-1229.27 634.52,-1234.19"/>
<polygon fill="none" stroke="black" points="633.38,-1237.5 643.97,-1237.65 635.79,-1230.92 633.38,-1237.5"/>
</g>
<!-- training.period.Period&#45;&gt;training.title.Title -->
<g id="edge10" class="edge">
<title>training.period.Period&#45;&gt;training.title.Title</title>
<path fill="none" stroke="black" d="M343.12,-1174.27C345.89,-1177.56 348.68,-1180.81 351.5,-1184 372.87,-1208.17 400.74,-1229.54 427.17,-1246.79"/>
<polygon fill="none" stroke="black" points="425.38,-1249.8 435.68,-1252.24 429.15,-1243.9 425.38,-1249.8"/>
</g>
<!-- training.unit.Unit&#45;&gt;training.note.Note -->
<g id="edge11" class="edge">
<title>training.unit.Unit&#45;&gt;training.note.Note</title>
<path fill="none" stroke="black" d="M1125.69,-446.81C1112.34,-527.11 1096.4,-623.03 1083.74,-699.18"/>
<polygon fill="none" stroke="black" points="1080.24,-698.88 1082.06,-709.32 1087.15,-700.03 1080.24,-698.88"/>
</g>
</g>
</svg>
