<?xml version="1.0" encoding="UTF-8" standalone="no"?>
<!DOCTYPE svg PUBLIC "-//W3C//DTD SVG 1.1//EN"
 "http://www.w3.org/Graphics/SVG/1.1/DTD/svg11.dtd">
<!-- Generated by graphviz version 2.43.0 (0)
 -->
<!-- Title: classes_training Pages: 1 -->
<svg width="1755pt" height="1465pt"
 viewBox="0.00 0.00 1754.50 1465.00" xmlns="http://www.w3.org/2000/svg" xmlns:xlink="http://www.w3.org/1999/xlink">
<g id="graph0" class="graph" transform="scale(1 1) rotate(0) translate(4 1461)">
<title>classes_training</title>
<polygon fill="white" stroke="transparent" points="-4,4 -4,-1461 1750.5,-1461 1750.5,4 -4,4"/>
<!-- _datetime.datetime.timedelta -->
<g id="node1" class="node">
<title>_datetime.datetime.timedelta</title>
<polygon fill="none" stroke="black" points="1032.5,-167.5 1032.5,-266.5 1260.5,-266.5 1260.5,-167.5 1032.5,-167.5"/>
<text text-anchor="middle" x="1146.5" y="-251.3" font-family="Times,serif" font-size="14.00">_datetime.datetime.timedelta</text>
<polyline fill="none" stroke="black" points="1032.5,-243.5 1260.5,-243.5 "/>
<text text-anchor="start" x="1040.5" y="-228.3" font-family="Times,serif" font-size="14.00">days</text>
<text text-anchor="start" x="1040.5" y="-213.3" font-family="Times,serif" font-size="14.00">microseconds</text>
<text text-anchor="start" x="1040.5" y="-198.3" font-family="Times,serif" font-size="14.00">seconds</text>
<polyline fill="none" stroke="black" points="1032.5,-190.5 1260.5,-190.5 "/>
<text text-anchor="start" x="1040.5" y="-175.3" font-family="Times,serif" font-size="14.00">total_seconds()</text>
</g>
<!-- training.unit.Unit -->
<g id="node11" class="node">
<title>training.unit.Unit</title>
<polygon fill="none" stroke="black" points="1166.5,-363.5 1166.5,-672.5 1396.5,-672.5 1396.5,-363.5 1166.5,-363.5"/>
<text text-anchor="middle" x="1281.5" y="-657.3" font-family="Times,serif" font-size="14.00">training.unit.Unit</text>
<polyline fill="none" stroke="black" points="1166.5,-649.5 1396.5,-649.5 "/>
<text text-anchor="start" x="1174.5" y="-634.3" font-family="Times,serif" font-size="14.00">dist : NoneType, float</text>
<text text-anchor="start" x="1174.5" y="-619.3" font-family="Times,serif" font-size="14.00">dt : NoneType, datetime</text>
<text text-anchor="start" x="1174.5" y="-604.3" font-family="Times,serif" font-size="14.00">duration : NoneType</text>
<text text-anchor="start" x="1174.5" y="-589.3" font-family="Times,serif" font-size="14.00">type : NoneType</text>
<polyline fill="none" stroke="black" points="1166.5,-581.5 1396.5,-581.5 "/>
<text text-anchor="start" x="1174.5" y="-566.3" font-family="Times,serif" font-size="14.00">getDuration()</text>
<text text-anchor="start" x="1174.5" y="-551.3" font-family="Times,serif" font-size="14.00">getSpeedStr()</text>
<text text-anchor="start" x="1174.5" y="-536.3" font-family="Times,serif" font-size="14.00">parse(objArg)</text>
<text text-anchor="start" x="1174.5" y="-521.3" font-family="Times,serif" font-size="14.00">scale(floatScale, patternType)</text>
<text text-anchor="start" x="1174.5" y="-506.3" font-family="Times,serif" font-size="14.00">setDate(dtArg, dt_0, dt_1)</text>
<text text-anchor="start" x="1174.5" y="-491.3" font-family="Times,serif" font-size="14.00">setDistStr(strArg)</text>
<text text-anchor="start" x="1174.5" y="-476.3" font-family="Times,serif" font-size="14.00">setDurationStr(strArg)</text>
<text text-anchor="start" x="1174.5" y="-461.3" font-family="Times,serif" font-size="14.00">setTypeStr(strArg)</text>
<text text-anchor="start" x="1174.5" y="-446.3" font-family="Times,serif" font-size="14.00">stat(dictArg)</text>
<text text-anchor="start" x="1174.5" y="-431.3" font-family="Times,serif" font-size="14.00">toCSV()</text>
<text text-anchor="start" x="1174.5" y="-416.3" font-family="Times,serif" font-size="14.00">toFreemind()</text>
<text text-anchor="start" x="1174.5" y="-401.3" font-family="Times,serif" font-size="14.00">toHtml()</text>
<text text-anchor="start" x="1174.5" y="-386.3" font-family="Times,serif" font-size="14.00">toSVG(x, y)</text>
<text text-anchor="start" x="1174.5" y="-371.3" font-family="Times,serif" font-size="14.00">to_ical(cal)</text>
</g>
<!-- _datetime.datetime.timedelta&#45;&gt;training.unit.Unit -->
<g id="edge12" class="edge">
<title>_datetime.datetime.timedelta&#45;&gt;training.unit.Unit</title>
<path fill="none" stroke="black" d="M1165.57,-266.54C1175.12,-290.33 1187.06,-319.32 1198.5,-345 1199.6,-347.46 1200.71,-349.94 1201.83,-352.43"/>
<polygon fill="black" stroke="black" points="1201.86,-352.5 1207.98,-356.31 1206.82,-363.43 1200.7,-359.62 1201.86,-352.5"/>
<text text-anchor="middle" x="1229" y="-333.8" font-family="Times,serif" font-size="14.00" fill="green">duration</text>
</g>
<!-- _datetime.datetime.timedelta&#45;&gt;training.unit.Unit -->
<g id="edge13" class="edge">
<title>_datetime.datetime.timedelta&#45;&gt;training.unit.Unit</title>
<path fill="none" stroke="black" d="M1210.13,-266.63C1229.09,-284.45 1247.88,-306.16 1259.5,-330 1262.92,-337.02 1265.9,-344.37 1268.48,-351.91"/>
<polygon fill="black" stroke="black" points="1268.52,-352.04 1274.13,-356.57 1272.11,-363.49 1266.5,-358.96 1268.52,-352.04"/>
<text text-anchor="middle" x="1296" y="-333.8" font-family="Times,serif" font-size="14.00" fill="green">duration</text>
</g>
<!-- _datetime.datetime.timedelta&#45;&gt;training.unit.Unit -->
<g id="edge14" class="edge">
<title>_datetime.datetime.timedelta&#45;&gt;training.unit.Unit</title>
<path fill="none" stroke="black" d="M1092.62,-266.61C1071.93,-283.11 1047.3,-300.31 1022.5,-312 989.19,-327.71 927.31,-313.57 946.5,-345 991.7,-419.02 1080.01,-462.51 1154.61,-487.24"/>
<polygon fill="black" stroke="black" points="1155.03,-487.37 1161.97,-485.4 1166.46,-491.05 1159.52,-493.02 1155.03,-487.37"/>
<text text-anchor="middle" x="977" y="-333.8" font-family="Times,serif" font-size="14.00" fill="green">duration</text>
</g>
<!-- _datetime.datetime.timedelta&#45;&gt;training.unit.Unit -->
<g id="edge15" class="edge">
<title>_datetime.datetime.timedelta&#45;&gt;training.unit.Unit</title>
<path fill="none" stroke="black" d="M1061.04,-266.75C1034.27,-288.66 1015.26,-316.07 1030.5,-345 1057.52,-396.27 1107.47,-435.18 1155.74,-462.91"/>
<polygon fill="black" stroke="black" points="1155.86,-462.98 1163.05,-462.42 1166.33,-468.84 1159.14,-469.4 1155.86,-462.98"/>
<text text-anchor="middle" x="1061" y="-333.8" font-family="Times,serif" font-size="14.00" fill="green">duration</text>
</g>
<!-- _datetime.datetime.timedelta&#45;&gt;training.unit.Unit -->
<g id="edge16" class="edge">
<title>_datetime.datetime.timedelta&#45;&gt;training.unit.Unit</title>
<path fill="none" stroke="black" d="M1127.94,-266.59C1121.5,-290.79 1117.99,-320.11 1127.5,-345 1135.11,-364.9 1146.2,-383.95 1158.99,-401.65"/>
<polygon fill="black" stroke="black" points="1159.06,-401.74 1165.86,-404.14 1166.26,-411.34 1159.46,-408.94 1159.06,-401.74"/>
<text text-anchor="middle" x="1158" y="-333.8" font-family="Times,serif" font-size="14.00" fill="green">duration</text>
</g>
<!-- datetime.timedelta -->
<g id="node2" class="node">
<title>datetime.timedelta</title>
<polygon fill="none" stroke="black" points="1415,-167.5 1415,-266.5 1568,-266.5 1568,-167.5 1415,-167.5"/>
<text text-anchor="middle" x="1491.5" y="-251.3" font-family="Times,serif" font-size="14.00">datetime.timedelta</text>
<polyline fill="none" stroke="black" points="1415,-243.5 1568,-243.5 "/>
<text text-anchor="start" x="1423" y="-228.3" font-family="Times,serif" font-size="14.00">days</text>
<text text-anchor="start" x="1423" y="-213.3" font-family="Times,serif" font-size="14.00">microseconds</text>
<text text-anchor="start" x="1423" y="-198.3" font-family="Times,serif" font-size="14.00">seconds</text>
<polyline fill="none" stroke="black" points="1415,-190.5 1568,-190.5 "/>
<text text-anchor="start" x="1423" y="-175.3" font-family="Times,serif" font-size="14.00">total_seconds()</text>
</g>
<!-- datetime.timedelta&#45;&gt;training.unit.Unit -->
<g id="edge17" class="edge">
<title>datetime.timedelta&#45;&gt;training.unit.Unit</title>
<path fill="none" stroke="black" d="M1568.09,-236.72C1634.06,-256.81 1713.68,-292.99 1679.5,-345 1619.89,-435.7 1501.18,-478.79 1408.85,-499.13"/>
<polygon fill="black" stroke="black" points="1408.61,-499.18 1403.57,-504.34 1396.87,-501.68 1401.91,-496.52 1408.61,-499.18"/>
<text text-anchor="middle" x="1716" y="-333.8" font-family="Times,serif" font-size="14.00" fill="green">duration</text>
</g>
<!-- datetime.timedelta&#45;&gt;training.unit.Unit -->
<g id="edge18" class="edge">
<title>datetime.timedelta&#45;&gt;training.unit.Unit</title>
<path fill="none" stroke="black" d="M1427.07,-266.75C1405.91,-284.95 1383.49,-306.87 1366.5,-330 1361.14,-337.29 1356.01,-344.98 1351.12,-352.91"/>
<polygon fill="black" stroke="black" points="1350.97,-353.16 1351.33,-360.36 1344.82,-363.46 1344.46,-356.26 1350.97,-353.16"/>
<text text-anchor="middle" x="1397" y="-333.8" font-family="Times,serif" font-size="14.00" fill="green">duration</text>
</g>
<!-- datetime.timedelta&#45;&gt;training.unit.Unit -->
<g id="edge19" class="edge">
<title>datetime.timedelta&#45;&gt;training.unit.Unit</title>
<path fill="none" stroke="black" d="M1470.36,-266.54C1458.95,-290.85 1443.87,-320.3 1427.5,-345 1420.22,-355.98 1412.33,-367.05 1404.12,-377.99"/>
<polygon fill="black" stroke="black" points="1404.1,-378.02 1403.65,-385.22 1396.83,-387.57 1397.28,-380.37 1404.1,-378.02"/>
<text text-anchor="middle" x="1466" y="-333.8" font-family="Times,serif" font-size="14.00" fill="green">duration</text>
</g>
<!-- datetime.timedelta&#45;&gt;training.unit.Unit -->
<g id="edge20" class="edge">
<title>datetime.timedelta&#45;&gt;training.unit.Unit</title>
<path fill="none" stroke="black" d="M1506.12,-266.64C1510.82,-291.26 1512.19,-320.95 1500.5,-345 1480.08,-387.01 1443.88,-421.81 1406.72,-448.85"/>
<polygon fill="black" stroke="black" points="1406.53,-448.98 1403.95,-455.72 1396.74,-455.92 1399.33,-449.19 1406.53,-448.98"/>
<text text-anchor="middle" x="1535" y="-333.8" font-family="Times,serif" font-size="14.00" fill="green">duration</text>
</g>
<!-- datetime.timedelta&#45;&gt;training.unit.Unit -->
<g id="edge21" class="edge">
<title>datetime.timedelta&#45;&gt;training.unit.Unit</title>
<path fill="none" stroke="black" d="M1549,-266.68C1569.56,-290.13 1584.38,-318.78 1569.5,-345 1534.66,-406.39 1468.25,-448.21 1407.98,-475.22"/>
<polygon fill="black" stroke="black" points="1407.8,-475.3 1403.9,-481.36 1396.8,-480.09 1400.7,-474.03 1407.8,-475.3"/>
<text text-anchor="middle" x="1605" y="-333.8" font-family="Times,serif" font-size="14.00" fill="green">duration</text>
</g>
<!-- training.combination.Combination -->
<g id="node3" class="node">
<title>training.combination.Combination</title>
<polygon fill="none" stroke="black" points="628,-875.5 628,-1124.5 889,-1124.5 889,-875.5 628,-875.5"/>
<text text-anchor="middle" x="758.5" y="-1109.3" font-family="Times,serif" font-size="14.00">training.combination.Combination</text>
<polyline fill="none" stroke="black" points="628,-1101.5 889,-1101.5 "/>
<text text-anchor="start" x="636" y="-1086.3" font-family="Times,serif" font-size="14.00">child : list</text>
<polyline fill="none" stroke="black" points="628,-1078.5 889,-1078.5 "/>
<text text-anchor="start" x="636" y="-1063.3" font-family="Times,serif" font-size="14.00">appendDescription(objArg)</text>
<text text-anchor="start" x="636" y="-1048.3" font-family="Times,serif" font-size="14.00">dup()</text>
<text text-anchor="start" x="636" y="-1033.3" font-family="Times,serif" font-size="14.00">getDuration()</text>
<text text-anchor="start" x="636" y="-1018.3" font-family="Times,serif" font-size="14.00">getNumberOfUnits()</text>
<text text-anchor="start" x="636" y="-1003.3" font-family="Times,serif" font-size="14.00">resetDistances()</text>
<text text-anchor="start" x="636" y="-988.3" font-family="Times,serif" font-size="14.00">scale(floatScale, patternType)</text>
<text text-anchor="start" x="636" y="-973.3" font-family="Times,serif" font-size="14.00">setDate(dtArg, dt_0, dt_1)</text>
<text text-anchor="start" x="636" y="-958.3" font-family="Times,serif" font-size="14.00">stat(dictArg)</text>
<text text-anchor="start" x="636" y="-943.3" font-family="Times,serif" font-size="14.00">toCSV()</text>
<text text-anchor="start" x="636" y="-928.3" font-family="Times,serif" font-size="14.00">toFreemind()</text>
<text text-anchor="start" x="636" y="-913.3" font-family="Times,serif" font-size="14.00">toHtml()</text>
<text text-anchor="start" x="636" y="-898.3" font-family="Times,serif" font-size="14.00">toSVG(x, y)</text>
<text text-anchor="start" x="636" y="-883.3" font-family="Times,serif" font-size="14.00">to_ical(cal)</text>
</g>
<!-- training.description.Description -->
<g id="node5" class="node">
<title>training.description.Description</title>
<polygon fill="none" stroke="black" points="594,-1327.5 594,-1456.5 839,-1456.5 839,-1327.5 594,-1327.5"/>
<text text-anchor="middle" x="716.5" y="-1441.3" font-family="Times,serif" font-size="14.00">training.description.Description</text>
<polyline fill="none" stroke="black" points="594,-1433.5 839,-1433.5 "/>
<text text-anchor="start" x="602" y="-1418.3" font-family="Times,serif" font-size="14.00">color : NoneType</text>
<text text-anchor="start" x="602" y="-1403.3" font-family="Times,serif" font-size="14.00">listDescription : list</text>
<polyline fill="none" stroke="black" points="594,-1395.5 839,-1395.5 "/>
<text text-anchor="start" x="602" y="-1380.3" font-family="Times,serif" font-size="14.00">appendDescription(objArg)</text>
<text text-anchor="start" x="602" y="-1365.3" font-family="Times,serif" font-size="14.00">hasDescription()</text>
<text text-anchor="start" x="602" y="-1350.3" font-family="Times,serif" font-size="14.00">setColor(strColor)</text>
<text text-anchor="start" x="602" y="-1335.3" font-family="Times,serif" font-size="14.00">setDescription(objArg)</text>
</g>
<!-- training.combination.Combination&#45;&gt;training.description.Description -->
<g id="edge1" class="edge">
<title>training.combination.Combination&#45;&gt;training.description.Description</title>
<path fill="none" stroke="black" d="M745.18,-1124.67C738.37,-1187.96 730.3,-1262.89 724.46,-1317.12"/>
<polygon fill="none" stroke="black" points="720.95,-1317.03 723.36,-1327.34 727.91,-1317.78 720.95,-1317.03"/>
</g>
<!-- training.title.Title -->
<g id="node10" class="node">
<title>training.title.Title</title>
<polygon fill="none" stroke="black" points="386,-1335 386,-1449 535,-1449 535,-1335 386,-1335"/>
<text text-anchor="middle" x="460.5" y="-1433.8" font-family="Times,serif" font-size="14.00">training.title.Title</text>
<polyline fill="none" stroke="black" points="386,-1426 535,-1426 "/>
<text text-anchor="start" x="394" y="-1410.8" font-family="Times,serif" font-size="14.00">strTitle : str</text>
<polyline fill="none" stroke="black" points="386,-1403 535,-1403 "/>
<text text-anchor="start" x="394" y="-1387.8" font-family="Times,serif" font-size="14.00">getTitleStr()</text>
<text text-anchor="start" x="394" y="-1372.8" font-family="Times,serif" font-size="14.00">getTitleXML()</text>
<text text-anchor="start" x="394" y="-1357.8" font-family="Times,serif" font-size="14.00">hasTitle()</text>
<text text-anchor="start" x="394" y="-1342.8" font-family="Times,serif" font-size="14.00">setTitleStr(strArg)</text>
</g>
<!-- training.combination.Combination&#45;&gt;training.title.Title -->
<g id="edge2" class="edge">
<title>training.combination.Combination&#45;&gt;training.title.Title</title>
<path fill="none" stroke="black" d="M716.33,-1124.54C693.38,-1179.44 660.91,-1242.29 618.5,-1290 597.71,-1313.39 570.25,-1333.46 544.07,-1349.4"/>
<polygon fill="none" stroke="black" points="542.05,-1346.53 535.25,-1354.65 545.63,-1352.54 542.05,-1346.53"/>
</g>
<!-- training.cycle.Cycle -->
<g id="node4" class="node">
<title>training.cycle.Cycle</title>
<polygon fill="none" stroke="black" points="311,-770.5 311,-1229.5 610,-1229.5 610,-770.5 311,-770.5"/>
<text text-anchor="middle" x="460.5" y="-1214.3" font-family="Times,serif" font-size="14.00">training.cycle.Cycle</text>
<polyline fill="none" stroke="black" points="311,-1206.5 610,-1206.5 "/>
<text text-anchor="start" x="319" y="-1191.3" font-family="Times,serif" font-size="14.00">color : NoneType</text>
<text text-anchor="start" x="319" y="-1176.3" font-family="Times,serif" font-size="14.00">dateBegin : date, NoneType</text>
<text text-anchor="start" x="319" y="-1161.3" font-family="Times,serif" font-size="14.00">dateEnd : NoneType</text>
<text text-anchor="start" x="319" y="-1146.3" font-family="Times,serif" font-size="14.00">day : list</text>
<polyline fill="none" stroke="black" points="311,-1138.5 610,-1138.5 "/>
<text text-anchor="start" x="319" y="-1123.3" font-family="Times,serif" font-size="14.00">appendDescription(objArg)</text>
<text text-anchor="start" x="319" y="-1108.3" font-family="Times,serif" font-size="14.00">copy(intIndexA, intIndexB, flagReplace)</text>
<text text-anchor="start" x="319" y="-1093.3" font-family="Times,serif" font-size="14.00">dup()</text>
<text text-anchor="start" x="319" y="-1078.3" font-family="Times,serif" font-size="14.00">getDuration()</text>
<text text-anchor="start" x="319" y="-1063.3" font-family="Times,serif" font-size="14.00">getNumberOfUnits()</text>
<text text-anchor="start" x="319" y="-1048.3" font-family="Times,serif" font-size="14.00">getPeriodDone()</text>
<text text-anchor="start" x="319" y="-1033.3" font-family="Times,serif" font-size="14.00">insert(intIndex, objArg, flagReplace)</text>
<text text-anchor="start" x="319" y="-1018.3" font-family="Times,serif" font-size="14.00">insertByDate(objArg, flagReplace)</text>
<text text-anchor="start" x="319" y="-1003.3" font-family="Times,serif" font-size="14.00">insertDescriptionStr(intIndex, strArg)</text>
<text text-anchor="start" x="319" y="-988.3" font-family="Times,serif" font-size="14.00">remove(intIndexA, patternType)</text>
<text text-anchor="start" x="319" y="-973.3" font-family="Times,serif" font-size="14.00">report(dictArg)</text>
<text text-anchor="start" x="319" y="-958.3" font-family="Times,serif" font-size="14.00">resetDistances()</text>
<text text-anchor="start" x="319" y="-943.3" font-family="Times,serif" font-size="14.00">scale(floatScale, patternType)</text>
<text text-anchor="start" x="319" y="-928.3" font-family="Times,serif" font-size="14.00">schedule(intYear, intMonth, intDay)</text>
<text text-anchor="start" x="319" y="-913.3" font-family="Times,serif" font-size="14.00">shift(intIndexA, intIndexB, flagReplace)</text>
<text text-anchor="start" x="319" y="-898.3" font-family="Times,serif" font-size="14.00">stat(dictArg)</text>
<text text-anchor="start" x="319" y="-883.3" font-family="Times,serif" font-size="14.00">swap(intIndexA, intIndexB)</text>
<text text-anchor="start" x="319" y="-868.3" font-family="Times,serif" font-size="14.00">toCSV()</text>
<text text-anchor="start" x="319" y="-853.3" font-family="Times,serif" font-size="14.00">toFreemind()</text>
<text text-anchor="start" x="319" y="-838.3" font-family="Times,serif" font-size="14.00">toHtml()</text>
<text text-anchor="start" x="319" y="-823.3" font-family="Times,serif" font-size="14.00">toSVG(x, y)</text>
<text text-anchor="start" x="319" y="-808.3" font-family="Times,serif" font-size="14.00">toSVGGantt(dateBase, y)</text>
<text text-anchor="start" x="319" y="-793.3" font-family="Times,serif" font-size="14.00">toString()</text>
<text text-anchor="start" x="319" y="-778.3" font-family="Times,serif" font-size="14.00">to_ical(cal)</text>
</g>
<!-- training.cycle.Cycle&#45;&gt;training.description.Description -->
<g id="edge3" class="edge">
<title>training.cycle.Cycle&#45;&gt;training.description.Description</title>
<path fill="none" stroke="black" d="M577.96,-1229.83C590.91,-1250.64 604.5,-1271.01 618.5,-1290 625.88,-1300.01 634.2,-1310.03 642.79,-1319.66"/>
<polygon fill="none" stroke="black" points="640.41,-1322.25 649.73,-1327.3 645.59,-1317.54 640.41,-1322.25"/>
</g>
<!-- training.cycle.Cycle&#45;&gt;training.title.Title -->
<g id="edge4" class="edge">
<title>training.cycle.Cycle&#45;&gt;training.title.Title</title>
<path fill="none" stroke="black" d="M460.5,-1229.56C460.5,-1264.2 460.5,-1297.39 460.5,-1324.56"/>
<polygon fill="none" stroke="black" points="457,-1324.67 460.5,-1334.67 464,-1324.67 457,-1324.67"/>
</g>
<!-- training.duration.Duration -->
<g id="node6" class="node">
<title>training.duration.Duration</title>
<polygon fill="none" stroke="black" points="986.5,-0.5 986.5,-70.5 1192.5,-70.5 1192.5,-0.5 986.5,-0.5"/>
<text text-anchor="middle" x="1089.5" y="-55.3" font-family="Times,serif" font-size="14.00">training.duration.Duration</text>
<polyline fill="none" stroke="black" points="986.5,-47.5 1192.5,-47.5 "/>
<polyline fill="none" stroke="black" points="986.5,-23.5 1192.5,-23.5 "/>
<text text-anchor="middle" x="1089.5" y="-8.3" font-family="Times,serif" font-size="14.00"> </text>
</g>
<!-- training.duration.Duration&#45;&gt;_datetime.datetime.timedelta -->
<g id="edge5" class="edge">
<title>training.duration.Duration&#45;&gt;_datetime.datetime.timedelta</title>
<path fill="none" stroke="black" d="M1108.59,-70.7C1111.49,-76.69 1114.26,-82.94 1116.5,-89 1124.56,-110.84 1130.98,-135.61 1135.78,-157.44"/>
<polygon fill="none" stroke="black" points="1132.37,-158.19 1137.88,-167.24 1139.21,-156.73 1132.37,-158.19"/>
</g>
<!-- training.duration.Duration&#45;&gt;datetime.timedelta -->
<g id="edge6" class="edge">
<title>training.duration.Duration&#45;&gt;datetime.timedelta</title>
<path fill="none" stroke="black" d="M1166.06,-70.69C1234.41,-101.2 1334.41,-145.85 1405.49,-177.59"/>
<polygon fill="none" stroke="black" points="1404.33,-180.91 1414.88,-181.79 1407.18,-174.52 1404.33,-180.91"/>
</g>
<!-- training.pause.Pause -->
<g id="node8" class="node">
<title>training.pause.Pause</title>
<polygon fill="none" stroke="black" points="811,-122.5 811,-311.5 1014,-311.5 1014,-122.5 811,-122.5"/>
<text text-anchor="middle" x="912.5" y="-296.3" font-family="Times,serif" font-size="14.00">training.pause.Pause</text>
<polyline fill="none" stroke="black" points="811,-288.5 1014,-288.5 "/>
<text text-anchor="start" x="819" y="-273.3" font-family="Times,serif" font-size="14.00">dt : NoneType</text>
<text text-anchor="start" x="819" y="-258.3" font-family="Times,serif" font-size="14.00">duration</text>
<polyline fill="none" stroke="black" points="811,-250.5 1014,-250.5 "/>
<text text-anchor="start" x="819" y="-235.3" font-family="Times,serif" font-size="14.00">getDuration()</text>
<text text-anchor="start" x="819" y="-220.3" font-family="Times,serif" font-size="14.00">setDate(dtArg, dt_0, dt_1)</text>
<text text-anchor="start" x="819" y="-205.3" font-family="Times,serif" font-size="14.00">setDuration(intArg)</text>
<text text-anchor="start" x="819" y="-190.3" font-family="Times,serif" font-size="14.00">toCSV()</text>
<text text-anchor="start" x="819" y="-175.3" font-family="Times,serif" font-size="14.00">toFreemind()</text>
<text text-anchor="start" x="819" y="-160.3" font-family="Times,serif" font-size="14.00">toHtml()</text>
<text text-anchor="start" x="819" y="-145.3" font-family="Times,serif" font-size="14.00">toSVG(x, y)</text>
<text text-anchor="start" x="819" y="-130.3" font-family="Times,serif" font-size="14.00">to_ical(cal)</text>
</g>
<!-- training.duration.Duration&#45;&gt;training.pause.Pause -->
<g id="edge22" class="edge">
<title>training.duration.Duration&#45;&gt;training.pause.Pause</title>
<path fill="none" stroke="black" d="M992.1,-70.64C983.53,-75.97 975.48,-82.06 968.5,-89 961.64,-95.82 955.55,-103.63 950.16,-111.95"/>
<polygon fill="black" stroke="black" points="950.11,-112.03 950.45,-119.23 943.93,-122.32 943.59,-115.11 950.11,-112.03"/>
<text text-anchor="middle" x="999" y="-92.8" font-family="Times,serif" font-size="14.00" fill="green">duration</text>
</g>
<!-- training.duration.Duration&#45;&gt;training.pause.Pause -->
<g id="edge23" class="edge">
<title>training.duration.Duration&#45;&gt;training.pause.Pause</title>
<path fill="none" stroke="black" d="M1060.11,-70.63C1050.53,-81.47 1039.73,-93.39 1029.5,-104 1026.39,-107.23 1023.21,-110.49 1019.99,-113.76"/>
<polygon fill="black" stroke="black" points="1019.82,-113.93 1018.43,-121.01 1011.37,-122.46 1012.75,-115.38 1019.82,-113.93"/>
<text text-anchor="middle" x="1074" y="-92.8" font-family="Times,serif" font-size="14.00" fill="green">duration</text>
</g>
<!-- training.note.Note -->
<g id="node7" class="node">
<title>training.note.Note</title>
<polygon fill="none" stroke="black" points="907,-875.5 907,-1124.5 1116,-1124.5 1116,-875.5 907,-875.5"/>
<text text-anchor="middle" x="1011.5" y="-1109.3" font-family="Times,serif" font-size="14.00">training.note.Note</text>
<polyline fill="none" stroke="black" points="907,-1101.5 1116,-1101.5 "/>
<text text-anchor="start" x="915" y="-1086.3" font-family="Times,serif" font-size="14.00">dt : datetime, NoneType</text>
<text text-anchor="start" x="915" y="-1071.3" font-family="Times,serif" font-size="14.00">tPlan : NoneType, time</text>
<polyline fill="none" stroke="black" points="907,-1063.5 1116,-1063.5 "/>
<text text-anchor="start" x="915" y="-1048.3" font-family="Times,serif" font-size="14.00">appendDescription(objArg)</text>
<text text-anchor="start" x="915" y="-1033.3" font-family="Times,serif" font-size="14.00">dup()</text>
<text text-anchor="start" x="915" y="-1018.3" font-family="Times,serif" font-size="14.00">parse(objArg)</text>
<text text-anchor="start" x="915" y="-1003.3" font-family="Times,serif" font-size="14.00">setClock(timeArg)</text>
<text text-anchor="start" x="915" y="-988.3" font-family="Times,serif" font-size="14.00">setDate(dtArg, dt_0, dt_1)</text>
<text text-anchor="start" x="915" y="-973.3" font-family="Times,serif" font-size="14.00">setDateStr(strArg)</text>
<text text-anchor="start" x="915" y="-958.3" font-family="Times,serif" font-size="14.00">toCSV()</text>
<text text-anchor="start" x="915" y="-943.3" font-family="Times,serif" font-size="14.00">toFreemind()</text>
<text text-anchor="start" x="915" y="-928.3" font-family="Times,serif" font-size="14.00">toHtml()</text>
<text text-anchor="start" x="915" y="-913.3" font-family="Times,serif" font-size="14.00">toSVG(x, y)</text>
<text text-anchor="start" x="915" y="-898.3" font-family="Times,serif" font-size="14.00">toString()</text>
<text text-anchor="start" x="915" y="-883.3" font-family="Times,serif" font-size="14.00">to_ical(cal)</text>
</g>
<!-- training.note.Note&#45;&gt;training.description.Description -->
<g id="edge7" class="edge">
<title>training.note.Note&#45;&gt;training.description.Description</title>
<path fill="none" stroke="black" d="M983.13,-1124.59C965.61,-1179.98 938.43,-1243.22 897.5,-1290 883.42,-1306.09 866.14,-1320.15 847.88,-1332.25"/>
<polygon fill="none" stroke="black" points="845.96,-1329.33 839.44,-1337.68 849.74,-1335.22 845.96,-1329.33"/>
</g>
<!-- training.pause.Pause&#45;&gt;training.note.Note -->
<g id="edge8" class="edge">
<title>training.pause.Pause&#45;&gt;training.note.Note</title>
<path fill="none" stroke="black" d="M924.39,-311.82C941.86,-449.63 974.55,-707.49 994.53,-865.15"/>
<polygon fill="none" stroke="black" points="991.1,-865.91 995.83,-875.39 998.05,-865.03 991.1,-865.91"/>
</g>
<!-- training.period.Period -->
<g id="node9" class="node">
<title>training.period.Period</title>
<polygon fill="none" stroke="black" points="0,-710.5 0,-1289.5 293,-1289.5 293,-710.5 0,-710.5"/>
<text text-anchor="middle" x="146.5" y="-1274.3" font-family="Times,serif" font-size="14.00">training.period.Period</text>
<polyline fill="none" stroke="black" points="0,-1266.5 293,-1266.5 "/>
<text text-anchor="start" x="8" y="-1251.3" font-family="Times,serif" font-size="14.00">child : list</text>
<text text-anchor="start" x="8" y="-1236.3" font-family="Times,serif" font-size="14.00">color : NoneType</text>
<text text-anchor="start" x="8" y="-1221.3" font-family="Times,serif" font-size="14.00">dateBegin : date, NoneType</text>
<text text-anchor="start" x="8" y="-1206.3" font-family="Times,serif" font-size="14.00">dateEnd : NoneType</text>
<text text-anchor="start" x="8" y="-1191.3" font-family="Times,serif" font-size="14.00">periodInt</text>
<polyline fill="none" stroke="black" points="0,-1183.5 293,-1183.5 "/>
<text text-anchor="start" x="8" y="-1168.3" font-family="Times,serif" font-size="14.00">CalendarMonthPeriod(intYear, strArg)</text>
<text text-anchor="start" x="8" y="-1153.3" font-family="Times,serif" font-size="14.00">CalendarSeasonPeriod(intYear, strArg)</text>
<text text-anchor="start" x="8" y="-1138.3" font-family="Times,serif" font-size="14.00">CalendarWeekPeriod(intYear, strArg)</text>
<text text-anchor="start" x="8" y="-1123.3" font-family="Times,serif" font-size="14.00">CalendarYearPeriod(intYear, strArg)</text>
<text text-anchor="start" x="8" y="-1108.3" font-family="Times,serif" font-size="14.00">append(objArg)</text>
<text text-anchor="start" x="8" y="-1093.3" font-family="Times,serif" font-size="14.00">appendChildDescription(objArg)</text>
<text text-anchor="start" x="8" y="-1078.3" font-family="Times,serif" font-size="14.00">appendDescription(objArg)</text>
<text text-anchor="start" x="8" y="-1063.3" font-family="Times,serif" font-size="14.00">dup()</text>
<text text-anchor="start" x="8" y="-1048.3" font-family="Times,serif" font-size="14.00">getDuration()</text>
<text text-anchor="start" x="8" y="-1033.3" font-family="Times,serif" font-size="14.00">getNumberOfUnits()</text>
<text text-anchor="start" x="8" y="-1018.3" font-family="Times,serif" font-size="14.00">insertByDate(objUnit, flagReplace)</text>
<text text-anchor="start" x="8" y="-1003.3" font-family="Times,serif" font-size="14.00">parseFile(listFilename, fUpdater)</text>
<text text-anchor="start" x="8" y="-988.3" font-family="Times,serif" font-size="14.00">remove(patternType)</text>
<text text-anchor="start" x="8" y="-973.3" font-family="Times,serif" font-size="14.00">report(dictArg)</text>
<text text-anchor="start" x="8" y="-958.3" font-family="Times,serif" font-size="14.00">resetDistances()</text>
<text text-anchor="start" x="8" y="-943.3" font-family="Times,serif" font-size="14.00">scale(floatScale, patternType)</text>
<text text-anchor="start" x="8" y="-928.3" font-family="Times,serif" font-size="14.00">schedule(intYear, intMonth, intDay)</text>
<text text-anchor="start" x="8" y="-913.3" font-family="Times,serif" font-size="14.00">setPeriod(intArg)</text>
<text text-anchor="start" x="8" y="-898.3" font-family="Times,serif" font-size="14.00">stat(dictArg)</text>
<text text-anchor="start" x="8" y="-883.3" font-family="Times,serif" font-size="14.00">toCSV()</text>
<text text-anchor="start" x="8" y="-868.3" font-family="Times,serif" font-size="14.00">toFreeMind()</text>
<text text-anchor="start" x="8" y="-853.3" font-family="Times,serif" font-size="14.00">toFreemind()</text>
<text text-anchor="start" x="8" y="-838.3" font-family="Times,serif" font-size="14.00">toHtml()</text>
<text text-anchor="start" x="8" y="-823.3" font-family="Times,serif" font-size="14.00">toHtmlFile()</text>
<text text-anchor="start" x="8" y="-808.3" font-family="Times,serif" font-size="14.00">toSVG(x, y)</text>
<text text-anchor="start" x="8" y="-793.3" font-family="Times,serif" font-size="14.00">toSVGDiagram()</text>
<text text-anchor="start" x="8" y="-778.3" font-family="Times,serif" font-size="14.00">toSVGGantt(dateBase, y)</text>
<text text-anchor="start" x="8" y="-763.3" font-family="Times,serif" font-size="14.00">toSVGGanttChart()</text>
<text text-anchor="start" x="8" y="-748.3" font-family="Times,serif" font-size="14.00">toString()</text>
<text text-anchor="start" x="8" y="-733.3" font-family="Times,serif" font-size="14.00">toVCalendar()</text>
<text text-anchor="start" x="8" y="-718.3" font-family="Times,serif" font-size="14.00">to_ical(cal)</text>
</g>
<!-- training.period.Period&#45;&gt;training.description.Description -->
<g id="edge9" class="edge">
<title>training.period.Period&#45;&gt;training.description.Description</title>
<path fill="none" stroke="black" d="M293.27,-1283.89C295.97,-1285.99 298.71,-1288.03 301.5,-1290 345.93,-1321.39 490.83,-1313.38 543.5,-1327 556.72,-1330.42 570.34,-1334.48 583.86,-1338.86"/>
<polygon fill="none" stroke="black" points="583.08,-1342.29 593.67,-1342.11 585.28,-1335.64 583.08,-1342.29"/>
</g>
<!-- training.period.Period&#45;&gt;training.title.Title -->
<g id="edge10" class="edge">
<title>training.period.Period&#45;&gt;training.title.Title</title>
<path fill="none" stroke="black" d="M293.18,-1280.75C295.92,-1283.89 298.69,-1286.98 301.5,-1290 322.9,-1313.03 350.64,-1333.01 376.96,-1348.98"/>
<polygon fill="none" stroke="black" points="375.43,-1352.14 385.81,-1354.24 379,-1346.12 375.43,-1352.14"/>
</g>
<!-- training.unit.Unit&#45;&gt;training.note.Note -->
<g id="edge11" class="edge">
<title>training.unit.Unit&#45;&gt;training.note.Note</title>
<path fill="none" stroke="black" d="M1195.14,-672.53C1160,-735.01 1119.77,-806.52 1085.95,-866.65"/>
<polygon fill="none" stroke="black" points="1082.85,-865.01 1081,-875.44 1088.96,-868.44 1082.85,-865.01"/>
</g>
</g>
</svg>
