<?xml version="1.0" encoding="UTF-8" standalone="no"?>
<!DOCTYPE svg PUBLIC "-//W3C//DTD SVG 1.1//EN"
 "http://www.w3.org/Graphics/SVG/1.1/DTD/svg11.dtd">
<!-- Generated by graphviz version 2.43.0 (0)
 -->
<!-- Title: classes_training Pages: 1 -->
<svg width="1755pt" height="1435pt"
 viewBox="0.00 0.00 1754.50 1435.00" xmlns="http://www.w3.org/2000/svg" xmlns:xlink="http://www.w3.org/1999/xlink">
<g id="graph0" class="graph" transform="scale(1 1) rotate(0) translate(4 1431)">
<title>classes_training</title>
<polygon fill="white" stroke="transparent" points="-4,4 -4,-1431 1750.5,-1431 1750.5,4 -4,4"/>
<!-- _datetime.datetime.timedelta -->
<g id="node1" class="node">
<title>_datetime.datetime.timedelta</title>
<polygon fill="none" stroke="black" points="1014.5,-152.5 1014.5,-251.5 1242.5,-251.5 1242.5,-152.5 1014.5,-152.5"/>
<text text-anchor="middle" x="1128.5" y="-236.3" font-family="Times,serif" font-size="14.00">_datetime.datetime.timedelta</text>
<polyline fill="none" stroke="black" points="1014.5,-228.5 1242.5,-228.5 "/>
<text text-anchor="start" x="1022.5" y="-213.3" font-family="Times,serif" font-size="14.00">days</text>
<text text-anchor="start" x="1022.5" y="-198.3" font-family="Times,serif" font-size="14.00">microseconds</text>
<text text-anchor="start" x="1022.5" y="-183.3" font-family="Times,serif" font-size="14.00">seconds</text>
<polyline fill="none" stroke="black" points="1014.5,-175.5 1242.5,-175.5 "/>
<text text-anchor="start" x="1022.5" y="-160.3" font-family="Times,serif" font-size="14.00">total_seconds()</text>
</g>
<!-- training.unit.Unit -->
<g id="node11" class="node">
<title>training.unit.Unit</title>
<polygon fill="none" stroke="black" points="1166.5,-333.5 1166.5,-612.5 1396.5,-612.5 1396.5,-333.5 1166.5,-333.5"/>
<text text-anchor="middle" x="1281.5" y="-597.3" font-family="Times,serif" font-size="14.00">training.unit.Unit</text>
<polyline fill="none" stroke="black" points="1166.5,-589.5 1396.5,-589.5 "/>
<text text-anchor="start" x="1174.5" y="-574.3" font-family="Times,serif" font-size="14.00">dist : NoneType, float</text>
<text text-anchor="start" x="1174.5" y="-559.3" font-family="Times,serif" font-size="14.00">dt : NoneType</text>
<text text-anchor="start" x="1174.5" y="-544.3" font-family="Times,serif" font-size="14.00">duration : NoneType</text>
<text text-anchor="start" x="1174.5" y="-529.3" font-family="Times,serif" font-size="14.00">type : NoneType</text>
<polyline fill="none" stroke="black" points="1166.5,-521.5 1396.5,-521.5 "/>
<text text-anchor="start" x="1174.5" y="-506.3" font-family="Times,serif" font-size="14.00">getDuration()</text>
<text text-anchor="start" x="1174.5" y="-491.3" font-family="Times,serif" font-size="14.00">getSpeedStr()</text>
<text text-anchor="start" x="1174.5" y="-476.3" font-family="Times,serif" font-size="14.00">parse(objArg)</text>
<text text-anchor="start" x="1174.5" y="-461.3" font-family="Times,serif" font-size="14.00">scale(floatScale, patternType)</text>
<text text-anchor="start" x="1174.5" y="-446.3" font-family="Times,serif" font-size="14.00">setDistStr(strArg)</text>
<text text-anchor="start" x="1174.5" y="-431.3" font-family="Times,serif" font-size="14.00">setDurationStr(strArg)</text>
<text text-anchor="start" x="1174.5" y="-416.3" font-family="Times,serif" font-size="14.00">setTypeStr(strArg)</text>
<text text-anchor="start" x="1174.5" y="-401.3" font-family="Times,serif" font-size="14.00">toCSV()</text>
<text text-anchor="start" x="1174.5" y="-386.3" font-family="Times,serif" font-size="14.00">toHtml()</text>
<text text-anchor="start" x="1174.5" y="-371.3" font-family="Times,serif" font-size="14.00">toSVG(x, y)</text>
<text text-anchor="start" x="1174.5" y="-356.3" font-family="Times,serif" font-size="14.00">toXML()</text>
<text text-anchor="start" x="1174.5" y="-341.3" font-family="Times,serif" font-size="14.00">to_ical(cal)</text>
</g>
<!-- _datetime.datetime.timedelta&#45;&gt;training.unit.Unit -->
<g id="edge12" class="edge">
<title>_datetime.datetime.timedelta&#45;&gt;training.unit.Unit</title>
<path fill="none" stroke="black" d="M1156.21,-251.71C1167.82,-272.14 1182.02,-297.1 1196.63,-322.78"/>
<polygon fill="black" stroke="black" points="1196.75,-322.99 1203.19,-326.23 1202.68,-333.42 1196.24,-330.19 1196.75,-322.99"/>
<text text-anchor="middle" x="1221" y="-303.8" font-family="Times,serif" font-size="14.00" fill="green">duration</text>
</g>
<!-- _datetime.datetime.timedelta&#45;&gt;training.unit.Unit -->
<g id="edge13" class="edge">
<title>_datetime.datetime.timedelta&#45;&gt;training.unit.Unit</title>
<path fill="none" stroke="black" d="M1211.66,-251.72C1228.59,-265.3 1244.55,-281.49 1255.5,-300 1259.63,-306.99 1263.18,-314.4 1266.23,-322.08"/>
<polygon fill="black" stroke="black" points="1266.28,-322.2 1272.07,-326.49 1270.34,-333.49 1264.55,-329.2 1266.28,-322.2"/>
<text text-anchor="middle" x="1292" y="-303.8" font-family="Times,serif" font-size="14.00" fill="green">duration</text>
</g>
<!-- _datetime.datetime.timedelta&#45;&gt;training.unit.Unit -->
<g id="edge14" class="edge">
<title>_datetime.datetime.timedelta&#45;&gt;training.unit.Unit</title>
<path fill="none" stroke="black" d="M1059.2,-251.7C1041.85,-262.61 1022.91,-273.47 1004.5,-282 977.59,-294.47 930.59,-289.97 946.5,-315 992.13,-386.78 1080.18,-426.3 1154.57,-447.74"/>
<polygon fill="black" stroke="black" points="1154.82,-447.81 1161.67,-445.57 1166.38,-451.03 1159.52,-453.27 1154.82,-447.81"/>
<text text-anchor="middle" x="977" y="-303.8" font-family="Times,serif" font-size="14.00" fill="green">duration</text>
</g>
<!-- _datetime.datetime.timedelta&#45;&gt;training.unit.Unit -->
<g id="edge15" class="edge">
<title>_datetime.datetime.timedelta&#45;&gt;training.unit.Unit</title>
<path fill="none" stroke="black" d="M1050.02,-251.63C1030.32,-270.15 1017.92,-292.29 1030.5,-315 1057.71,-364.11 1107.4,-399.9 1155.43,-424.79"/>
<polygon fill="black" stroke="black" points="1155.57,-424.86 1162.73,-423.98 1166.29,-430.25 1159.13,-431.13 1155.57,-424.86"/>
<text text-anchor="middle" x="1061" y="-303.8" font-family="Times,serif" font-size="14.00" fill="green">duration</text>
</g>
<!-- _datetime.datetime.timedelta&#45;&gt;training.unit.Unit -->
<g id="edge16" class="edge">
<title>_datetime.datetime.timedelta&#45;&gt;training.unit.Unit</title>
<path fill="none" stroke="black" d="M1116.13,-251.73C1113.33,-272 1113.24,-295.33 1121.5,-315 1130.29,-335.93 1143.38,-355.48 1158.35,-373.18"/>
<polygon fill="black" stroke="black" points="1158.42,-373.25 1165.38,-375.12 1166.34,-382.27 1159.38,-380.4 1158.42,-373.25"/>
<text text-anchor="middle" x="1152" y="-303.8" font-family="Times,serif" font-size="14.00" fill="green">duration</text>
</g>
<!-- datetime.timedelta -->
<g id="node2" class="node">
<title>datetime.timedelta</title>
<polygon fill="none" stroke="black" points="1415,-152.5 1415,-251.5 1568,-251.5 1568,-152.5 1415,-152.5"/>
<text text-anchor="middle" x="1491.5" y="-236.3" font-family="Times,serif" font-size="14.00">datetime.timedelta</text>
<polyline fill="none" stroke="black" points="1415,-228.5 1568,-228.5 "/>
<text text-anchor="start" x="1423" y="-213.3" font-family="Times,serif" font-size="14.00">days</text>
<text text-anchor="start" x="1423" y="-198.3" font-family="Times,serif" font-size="14.00">microseconds</text>
<text text-anchor="start" x="1423" y="-183.3" font-family="Times,serif" font-size="14.00">seconds</text>
<polyline fill="none" stroke="black" points="1415,-175.5 1568,-175.5 "/>
<text text-anchor="start" x="1423" y="-160.3" font-family="Times,serif" font-size="14.00">total_seconds()</text>
</g>
<!-- datetime.timedelta&#45;&gt;training.unit.Unit -->
<g id="edge17" class="edge">
<title>datetime.timedelta&#45;&gt;training.unit.Unit</title>
<path fill="none" stroke="black" d="M1568.22,-217.93C1633.99,-234.44 1713.22,-265.45 1679.5,-315 1619.25,-403.54 1500.62,-442.15 1408.48,-458.98"/>
<polygon fill="black" stroke="black" points="1408.35,-459.01 1403.12,-463.98 1396.53,-461.07 1401.75,-456.1 1408.35,-459.01"/>
<text text-anchor="middle" x="1716" y="-303.8" font-family="Times,serif" font-size="14.00" fill="green">duration</text>
</g>
<!-- datetime.timedelta&#45;&gt;training.unit.Unit -->
<g id="edge18" class="edge">
<title>datetime.timedelta&#45;&gt;training.unit.Unit</title>
<path fill="none" stroke="black" d="M1417.48,-251.58C1399.35,-265.74 1381.01,-282.24 1366.5,-300 1360.57,-307.26 1354.92,-314.99 1349.56,-323.02"/>
<polygon fill="black" stroke="black" points="1349.42,-323.24 1349.53,-330.45 1342.92,-333.32 1342.81,-326.11 1349.42,-323.24"/>
<text text-anchor="middle" x="1397" y="-303.8" font-family="Times,serif" font-size="14.00" fill="green">duration</text>
</g>
<!-- datetime.timedelta&#45;&gt;training.unit.Unit -->
<g id="edge19" class="edge">
<title>datetime.timedelta&#45;&gt;training.unit.Unit</title>
<path fill="none" stroke="black" d="M1466.89,-251.65C1455.84,-271.9 1442.03,-295.24 1427.5,-315 1420.31,-324.77 1412.59,-334.6 1404.59,-344.31"/>
<polygon fill="black" stroke="black" points="1404.53,-344.37 1403.75,-351.54 1396.83,-353.58 1397.61,-346.41 1404.53,-344.37"/>
<text text-anchor="middle" x="1468" y="-303.8" font-family="Times,serif" font-size="14.00" fill="green">duration</text>
</g>
<!-- datetime.timedelta&#45;&gt;training.unit.Unit -->
<g id="edge20" class="edge">
<title>datetime.timedelta&#45;&gt;training.unit.Unit</title>
<path fill="none" stroke="black" d="M1507.66,-251.54C1511.7,-272.11 1512.45,-295.73 1502.5,-315 1481.58,-355.52 1444.84,-387.86 1407.25,-412.4"/>
<polygon fill="black" stroke="black" points="1406.78,-412.7 1403.85,-419.29 1396.64,-419.12 1399.57,-412.53 1406.78,-412.7"/>
<text text-anchor="middle" x="1538" y="-303.8" font-family="Times,serif" font-size="14.00" fill="green">duration</text>
</g>
<!-- datetime.timedelta&#45;&gt;training.unit.Unit -->
<g id="edge21" class="edge">
<title>datetime.timedelta&#45;&gt;training.unit.Unit</title>
<path fill="none" stroke="black" d="M1556.53,-251.62C1574.21,-270.85 1585.35,-293.47 1572.5,-315 1536.64,-375.1 1468.94,-413.56 1407.86,-437.37"/>
<polygon fill="black" stroke="black" points="1407.76,-437.4 1403.56,-443.26 1396.54,-441.64 1400.74,-435.78 1407.76,-437.4"/>
<text text-anchor="middle" x="1607" y="-303.8" font-family="Times,serif" font-size="14.00" fill="green">duration</text>
</g>
<!-- training.combination.Combination -->
<g id="node3" class="node">
<title>training.combination.Combination</title>
<polygon fill="none" stroke="black" points="628,-815.5 628,-1094.5 889,-1094.5 889,-815.5 628,-815.5"/>
<text text-anchor="middle" x="758.5" y="-1079.3" font-family="Times,serif" font-size="14.00">training.combination.Combination</text>
<polyline fill="none" stroke="black" points="628,-1071.5 889,-1071.5 "/>
<text text-anchor="start" x="636" y="-1056.3" font-family="Times,serif" font-size="14.00">child : list</text>
<polyline fill="none" stroke="black" points="628,-1048.5 889,-1048.5 "/>
<text text-anchor="start" x="636" y="-1033.3" font-family="Times,serif" font-size="14.00">appendDescription(objArg)</text>
<text text-anchor="start" x="636" y="-1018.3" font-family="Times,serif" font-size="14.00">dup()</text>
<text text-anchor="start" x="636" y="-1003.3" font-family="Times,serif" font-size="14.00">getDuration()</text>
<text text-anchor="start" x="636" y="-988.3" font-family="Times,serif" font-size="14.00">getNumberOfUnits()</text>
<text text-anchor="start" x="636" y="-973.3" font-family="Times,serif" font-size="14.00">getTypeOfUnits(arrArg)</text>
<text text-anchor="start" x="636" y="-958.3" font-family="Times,serif" font-size="14.00">resetDistances()</text>
<text text-anchor="start" x="636" y="-943.3" font-family="Times,serif" font-size="14.00">scale(floatScale, patternType)</text>
<text text-anchor="start" x="636" y="-928.3" font-family="Times,serif" font-size="14.00">setDate(dateArg)</text>
<text text-anchor="start" x="636" y="-913.3" font-family="Times,serif" font-size="14.00">setDistStr(strArg)</text>
<text text-anchor="start" x="636" y="-898.3" font-family="Times,serif" font-size="14.00">stat(arrArg)</text>
<text text-anchor="start" x="636" y="-883.3" font-family="Times,serif" font-size="14.00">toCSV()</text>
<text text-anchor="start" x="636" y="-868.3" font-family="Times,serif" font-size="14.00">toHtml()</text>
<text text-anchor="start" x="636" y="-853.3" font-family="Times,serif" font-size="14.00">toSVG(x, y)</text>
<text text-anchor="start" x="636" y="-838.3" font-family="Times,serif" font-size="14.00">toXML()</text>
<text text-anchor="start" x="636" y="-823.3" font-family="Times,serif" font-size="14.00">to_ical(cal)</text>
</g>
<!-- training.description.Description -->
<g id="node5" class="node">
<title>training.description.Description</title>
<polygon fill="none" stroke="black" points="594,-1297.5 594,-1426.5 839,-1426.5 839,-1297.5 594,-1297.5"/>
<text text-anchor="middle" x="716.5" y="-1411.3" font-family="Times,serif" font-size="14.00">training.description.Description</text>
<polyline fill="none" stroke="black" points="594,-1403.5 839,-1403.5 "/>
<text text-anchor="start" x="602" y="-1388.3" font-family="Times,serif" font-size="14.00">color : NoneType</text>
<text text-anchor="start" x="602" y="-1373.3" font-family="Times,serif" font-size="14.00">listDescription : list</text>
<polyline fill="none" stroke="black" points="594,-1365.5 839,-1365.5 "/>
<text text-anchor="start" x="602" y="-1350.3" font-family="Times,serif" font-size="14.00">appendDescription(objArg)</text>
<text text-anchor="start" x="602" y="-1335.3" font-family="Times,serif" font-size="14.00">hasDescription()</text>
<text text-anchor="start" x="602" y="-1320.3" font-family="Times,serif" font-size="14.00">setColor(strColor)</text>
<text text-anchor="start" x="602" y="-1305.3" font-family="Times,serif" font-size="14.00">setDescription(objArg)</text>
</g>
<!-- training.combination.Combination&#45;&gt;training.description.Description -->
<g id="edge1" class="edge">
<title>training.combination.Combination&#45;&gt;training.description.Description</title>
<path fill="none" stroke="black" d="M744.13,-1094.53C737.43,-1159.2 729.72,-1233.56 724.15,-1287.27"/>
<polygon fill="none" stroke="black" points="720.65,-1287.08 723.1,-1297.39 727.61,-1287.81 720.65,-1287.08"/>
</g>
<!-- training.title.Title -->
<g id="node10" class="node">
<title>training.title.Title</title>
<polygon fill="none" stroke="black" points="386,-1312.5 386,-1411.5 535,-1411.5 535,-1312.5 386,-1312.5"/>
<text text-anchor="middle" x="460.5" y="-1396.3" font-family="Times,serif" font-size="14.00">training.title.Title</text>
<polyline fill="none" stroke="black" points="386,-1388.5 535,-1388.5 "/>
<text text-anchor="start" x="394" y="-1373.3" font-family="Times,serif" font-size="14.00">strTitle : str</text>
<polyline fill="none" stroke="black" points="386,-1365.5 535,-1365.5 "/>
<text text-anchor="start" x="394" y="-1350.3" font-family="Times,serif" font-size="14.00">getTitleStr()</text>
<text text-anchor="start" x="394" y="-1335.3" font-family="Times,serif" font-size="14.00">hasTitle()</text>
<text text-anchor="start" x="394" y="-1320.3" font-family="Times,serif" font-size="14.00">setTitleStr(strArg)</text>
</g>
<!-- training.combination.Combination&#45;&gt;training.title.Title -->
<g id="edge2" class="edge">
<title>training.combination.Combination&#45;&gt;training.title.Title</title>
<path fill="none" stroke="black" d="M714.03,-1094.75C691.52,-1150.34 660.01,-1212.36 618.5,-1260 597.84,-1283.71 570.28,-1303.9 543.97,-1319.86"/>
<polygon fill="none" stroke="black" points="541.93,-1317 535.11,-1325.11 545.49,-1323.02 541.93,-1317"/>
</g>
<!-- training.cycle.Cycle -->
<g id="node4" class="node">
<title>training.cycle.Cycle</title>
<polygon fill="none" stroke="black" points="311,-710.5 311,-1199.5 610,-1199.5 610,-710.5 311,-710.5"/>
<text text-anchor="middle" x="460.5" y="-1184.3" font-family="Times,serif" font-size="14.00">training.cycle.Cycle</text>
<polyline fill="none" stroke="black" points="311,-1176.5 610,-1176.5 "/>
<text text-anchor="start" x="319" y="-1161.3" font-family="Times,serif" font-size="14.00">color : NoneType</text>
<text text-anchor="start" x="319" y="-1146.3" font-family="Times,serif" font-size="14.00">dateBegin : date, NoneType</text>
<text text-anchor="start" x="319" y="-1131.3" font-family="Times,serif" font-size="14.00">dateEnd : NoneType</text>
<text text-anchor="start" x="319" y="-1116.3" font-family="Times,serif" font-size="14.00">day : list</text>
<polyline fill="none" stroke="black" points="311,-1108.5 610,-1108.5 "/>
<text text-anchor="start" x="319" y="-1093.3" font-family="Times,serif" font-size="14.00">appendDescription(objArg)</text>
<text text-anchor="start" x="319" y="-1078.3" font-family="Times,serif" font-size="14.00">copy(intIndexA, intIndexB, flagReplace)</text>
<text text-anchor="start" x="319" y="-1063.3" font-family="Times,serif" font-size="14.00">dup()</text>
<text text-anchor="start" x="319" y="-1048.3" font-family="Times,serif" font-size="14.00">getDuration()</text>
<text text-anchor="start" x="319" y="-1033.3" font-family="Times,serif" font-size="14.00">getDurationOfUnits()</text>
<text text-anchor="start" x="319" y="-1018.3" font-family="Times,serif" font-size="14.00">getNumberOfUnits()</text>
<text text-anchor="start" x="319" y="-1003.3" font-family="Times,serif" font-size="14.00">getPeriodDone()</text>
<text text-anchor="start" x="319" y="-988.3" font-family="Times,serif" font-size="14.00">getTypeOfUnits(arrArg)</text>
<text text-anchor="start" x="319" y="-973.3" font-family="Times,serif" font-size="14.00">insert(intIndex, objArg, flagReplace)</text>
<text text-anchor="start" x="319" y="-958.3" font-family="Times,serif" font-size="14.00">insertByDate(objArg, flagReplace)</text>
<text text-anchor="start" x="319" y="-943.3" font-family="Times,serif" font-size="14.00">insertDescriptionStr(intIndex, strArg)</text>
<text text-anchor="start" x="319" y="-928.3" font-family="Times,serif" font-size="14.00">remove(intIndexA, patternType)</text>
<text text-anchor="start" x="319" y="-913.3" font-family="Times,serif" font-size="14.00">report(arrArg)</text>
<text text-anchor="start" x="319" y="-898.3" font-family="Times,serif" font-size="14.00">resetDistances()</text>
<text text-anchor="start" x="319" y="-883.3" font-family="Times,serif" font-size="14.00">scale(floatScale, patternType)</text>
<text text-anchor="start" x="319" y="-868.3" font-family="Times,serif" font-size="14.00">schedule(intYear, intMonth, intDay)</text>
<text text-anchor="start" x="319" y="-853.3" font-family="Times,serif" font-size="14.00">shift(intIndexA, intIndexB, flagReplace)</text>
<text text-anchor="start" x="319" y="-838.3" font-family="Times,serif" font-size="14.00">stat(arrArg)</text>
<text text-anchor="start" x="319" y="-823.3" font-family="Times,serif" font-size="14.00">swap(intIndexA, intIndexB)</text>
<text text-anchor="start" x="319" y="-808.3" font-family="Times,serif" font-size="14.00">toCSV()</text>
<text text-anchor="start" x="319" y="-793.3" font-family="Times,serif" font-size="14.00">toHtml()</text>
<text text-anchor="start" x="319" y="-778.3" font-family="Times,serif" font-size="14.00">toSVG(x, y)</text>
<text text-anchor="start" x="319" y="-763.3" font-family="Times,serif" font-size="14.00">toSVGGantt(dateBase, y)</text>
<text text-anchor="start" x="319" y="-748.3" font-family="Times,serif" font-size="14.00">toString()</text>
<text text-anchor="start" x="319" y="-733.3" font-family="Times,serif" font-size="14.00">toXML()</text>
<text text-anchor="start" x="319" y="-718.3" font-family="Times,serif" font-size="14.00">to_ical(cal)</text>
</g>
<!-- training.cycle.Cycle&#45;&gt;training.description.Description -->
<g id="edge3" class="edge">
<title>training.cycle.Cycle&#45;&gt;training.description.Description</title>
<path fill="none" stroke="black" d="M578.89,-1199.63C591.49,-1220.53 604.76,-1240.94 618.5,-1260 625.77,-1270.09 634.03,-1280.15 642.59,-1289.81"/>
<polygon fill="none" stroke="black" points="640.2,-1292.39 649.5,-1297.46 645.39,-1287.7 640.2,-1292.39"/>
</g>
<!-- training.cycle.Cycle&#45;&gt;training.title.Title -->
<g id="edge4" class="edge">
<title>training.cycle.Cycle&#45;&gt;training.title.Title</title>
<path fill="none" stroke="black" d="M460.5,-1199.77C460.5,-1237.82 460.5,-1273.83 460.5,-1302.14"/>
<polygon fill="none" stroke="black" points="457,-1302.2 460.5,-1312.2 464,-1302.2 457,-1302.2"/>
</g>
<!-- training.duration.Duration -->
<g id="node6" class="node">
<title>training.duration.Duration</title>
<polygon fill="none" stroke="black" points="973.5,-0.5 973.5,-70.5 1179.5,-70.5 1179.5,-0.5 973.5,-0.5"/>
<text text-anchor="middle" x="1076.5" y="-55.3" font-family="Times,serif" font-size="14.00">training.duration.Duration</text>
<polyline fill="none" stroke="black" points="973.5,-47.5 1179.5,-47.5 "/>
<polyline fill="none" stroke="black" points="973.5,-23.5 1179.5,-23.5 "/>
<text text-anchor="middle" x="1076.5" y="-8.3" font-family="Times,serif" font-size="14.00"> </text>
</g>
<!-- training.duration.Duration&#45;&gt;_datetime.datetime.timedelta -->
<g id="edge5" class="edge">
<title>training.duration.Duration&#45;&gt;_datetime.datetime.timedelta</title>
<path fill="none" stroke="black" d="M1095.65,-70.67C1098.55,-76.67 1101.3,-82.93 1103.5,-89 1109.62,-105.91 1114.54,-124.83 1118.33,-142.23"/>
<polygon fill="none" stroke="black" points="1114.96,-143.2 1120.44,-152.27 1121.81,-141.76 1114.96,-143.2"/>
</g>
<!-- training.duration.Duration&#45;&gt;datetime.timedelta -->
<g id="edge6" class="edge">
<title>training.duration.Duration&#45;&gt;datetime.timedelta</title>
<path fill="none" stroke="black" d="M1162.49,-70.58C1233.61,-98.77 1334.13,-138.62 1405.3,-166.83"/>
<polygon fill="none" stroke="black" points="1404.12,-170.13 1414.71,-170.56 1406.7,-163.62 1404.12,-170.13"/>
</g>
<!-- training.pause.Pause -->
<g id="node8" class="node">
<title>training.pause.Pause</title>
<polygon fill="none" stroke="black" points="829,-122.5 829,-281.5 996,-281.5 996,-122.5 829,-122.5"/>
<text text-anchor="middle" x="912.5" y="-266.3" font-family="Times,serif" font-size="14.00">training.pause.Pause</text>
<polyline fill="none" stroke="black" points="829,-258.5 996,-258.5 "/>
<text text-anchor="start" x="837" y="-243.3" font-family="Times,serif" font-size="14.00">duration</text>
<polyline fill="none" stroke="black" points="829,-235.5 996,-235.5 "/>
<text text-anchor="start" x="837" y="-220.3" font-family="Times,serif" font-size="14.00">getDuration()</text>
<text text-anchor="start" x="837" y="-205.3" font-family="Times,serif" font-size="14.00">setDuration(intArg)</text>
<text text-anchor="start" x="837" y="-190.3" font-family="Times,serif" font-size="14.00">toCSV()</text>
<text text-anchor="start" x="837" y="-175.3" font-family="Times,serif" font-size="14.00">toHtml()</text>
<text text-anchor="start" x="837" y="-160.3" font-family="Times,serif" font-size="14.00">toSVG(x, y)</text>
<text text-anchor="start" x="837" y="-145.3" font-family="Times,serif" font-size="14.00">toXML()</text>
<text text-anchor="start" x="837" y="-130.3" font-family="Times,serif" font-size="14.00">to_ical(cal)</text>
</g>
<!-- training.duration.Duration&#45;&gt;training.pause.Pause -->
<g id="edge22" class="edge">
<title>training.duration.Duration&#45;&gt;training.pause.Pause</title>
<path fill="none" stroke="black" d="M978.15,-70.67C969.88,-75.98 962.15,-82.06 955.5,-89 949.07,-95.71 943.57,-103.49 938.88,-111.76"/>
<polygon fill="black" stroke="black" points="938.86,-111.79 939.66,-118.96 933.35,-122.45 932.55,-115.29 938.86,-111.79"/>
<text text-anchor="middle" x="986" y="-92.8" font-family="Times,serif" font-size="14.00" fill="green">duration</text>
</g>
<!-- training.duration.Duration&#45;&gt;training.pause.Pause -->
<g id="edge23" class="edge">
<title>training.duration.Duration&#45;&gt;training.pause.Pause</title>
<path fill="none" stroke="black" d="M1047.2,-70.71C1037.62,-81.55 1026.8,-93.45 1016.5,-104 1012.71,-107.88 1008.81,-111.81 1004.83,-115.75"/>
<polygon fill="black" stroke="black" points="1004.61,-115.97 1003.13,-123.03 996.05,-124.38 997.52,-117.32 1004.61,-115.97"/>
<text text-anchor="middle" x="1061" y="-92.8" font-family="Times,serif" font-size="14.00" fill="green">duration</text>
</g>
<!-- training.note.Note -->
<g id="node7" class="node">
<title>training.note.Note</title>
<polygon fill="none" stroke="black" points="907,-830.5 907,-1079.5 1116,-1079.5 1116,-830.5 907,-830.5"/>
<text text-anchor="middle" x="1011.5" y="-1064.3" font-family="Times,serif" font-size="14.00">training.note.Note</text>
<polyline fill="none" stroke="black" points="907,-1056.5 1116,-1056.5 "/>
<text text-anchor="start" x="915" y="-1041.3" font-family="Times,serif" font-size="14.00">clock : time, NoneType</text>
<text text-anchor="start" x="915" y="-1026.3" font-family="Times,serif" font-size="14.00">dt : datetime, NoneType</text>
<polyline fill="none" stroke="black" points="907,-1018.5 1116,-1018.5 "/>
<text text-anchor="start" x="915" y="-1003.3" font-family="Times,serif" font-size="14.00">appendDescription(objArg)</text>
<text text-anchor="start" x="915" y="-988.3" font-family="Times,serif" font-size="14.00">dup()</text>
<text text-anchor="start" x="915" y="-973.3" font-family="Times,serif" font-size="14.00">parse(objArg)</text>
<text text-anchor="start" x="915" y="-958.3" font-family="Times,serif" font-size="14.00">setClock(timeArg)</text>
<text text-anchor="start" x="915" y="-943.3" font-family="Times,serif" font-size="14.00">setDate(dateArg)</text>
<text text-anchor="start" x="915" y="-928.3" font-family="Times,serif" font-size="14.00">setDateStr(strArg)</text>
<text text-anchor="start" x="915" y="-913.3" font-family="Times,serif" font-size="14.00">toCSV()</text>
<text text-anchor="start" x="915" y="-898.3" font-family="Times,serif" font-size="14.00">toHtml()</text>
<text text-anchor="start" x="915" y="-883.3" font-family="Times,serif" font-size="14.00">toSVG(x, y)</text>
<text text-anchor="start" x="915" y="-868.3" font-family="Times,serif" font-size="14.00">toString()</text>
<text text-anchor="start" x="915" y="-853.3" font-family="Times,serif" font-size="14.00">toXML()</text>
<text text-anchor="start" x="915" y="-838.3" font-family="Times,serif" font-size="14.00">to_ical(cal)</text>
</g>
<!-- training.note.Note&#45;&gt;training.description.Description -->
<g id="edge7" class="edge">
<title>training.note.Note&#45;&gt;training.description.Description</title>
<path fill="none" stroke="black" d="M986.29,-1079.56C969.18,-1139.3 941.42,-1208.93 897.5,-1260 883.46,-1276.32 866.09,-1290.54 847.73,-1302.73"/>
<polygon fill="none" stroke="black" points="845.75,-1299.84 839.22,-1308.19 849.53,-1305.73 845.75,-1299.84"/>
</g>
<!-- training.pause.Pause&#45;&gt;training.note.Note -->
<g id="edge8" class="edge">
<title>training.pause.Pause&#45;&gt;training.note.Note</title>
<path fill="none" stroke="black" d="M922.86,-281.6C939.7,-409.31 973.19,-663.36 993.84,-820"/>
<polygon fill="none" stroke="black" points="990.4,-820.72 995.18,-830.18 997.34,-819.81 990.4,-820.72"/>
</g>
<!-- training.period.Period -->
<g id="node9" class="node">
<title>training.period.Period</title>
<polygon fill="none" stroke="black" points="0,-650.5 0,-1259.5 293,-1259.5 293,-650.5 0,-650.5"/>
<text text-anchor="middle" x="146.5" y="-1244.3" font-family="Times,serif" font-size="14.00">training.period.Period</text>
<polyline fill="none" stroke="black" points="0,-1236.5 293,-1236.5 "/>
<text text-anchor="start" x="8" y="-1221.3" font-family="Times,serif" font-size="14.00">child : list</text>
<text text-anchor="start" x="8" y="-1206.3" font-family="Times,serif" font-size="14.00">color : NoneType</text>
<text text-anchor="start" x="8" y="-1191.3" font-family="Times,serif" font-size="14.00">dateBegin : NoneType, date</text>
<text text-anchor="start" x="8" y="-1176.3" font-family="Times,serif" font-size="14.00">dateEnd : NoneType</text>
<text text-anchor="start" x="8" y="-1161.3" font-family="Times,serif" font-size="14.00">periodInt</text>
<polyline fill="none" stroke="black" points="0,-1153.5 293,-1153.5 "/>
<text text-anchor="start" x="8" y="-1138.3" font-family="Times,serif" font-size="14.00">CalendarMonthPeriod(intYear, strArg)</text>
<text text-anchor="start" x="8" y="-1123.3" font-family="Times,serif" font-size="14.00">CalendarSeasonPeriod(intYear, strArg)</text>
<text text-anchor="start" x="8" y="-1108.3" font-family="Times,serif" font-size="14.00">CalendarWeekPeriod(intYear, strArg)</text>
<text text-anchor="start" x="8" y="-1093.3" font-family="Times,serif" font-size="14.00">CalendarYearPeriod(intYear, strArg)</text>
<text text-anchor="start" x="8" y="-1078.3" font-family="Times,serif" font-size="14.00">append(objChild)</text>
<text text-anchor="start" x="8" y="-1063.3" font-family="Times,serif" font-size="14.00">appendChildDescription(objArg)</text>
<text text-anchor="start" x="8" y="-1048.3" font-family="Times,serif" font-size="14.00">appendDescription(objArg)</text>
<text text-anchor="start" x="8" y="-1033.3" font-family="Times,serif" font-size="14.00">dup()</text>
<text text-anchor="start" x="8" y="-1018.3" font-family="Times,serif" font-size="14.00">getDuration()</text>
<text text-anchor="start" x="8" y="-1003.3" font-family="Times,serif" font-size="14.00">getNumberOfUnits()</text>
<text text-anchor="start" x="8" y="-988.3" font-family="Times,serif" font-size="14.00">getTypeOfUnits(arrArg)</text>
<text text-anchor="start" x="8" y="-973.3" font-family="Times,serif" font-size="14.00">insertByDate(objUnit, flagReplace)</text>
<text text-anchor="start" x="8" y="-958.3" font-family="Times,serif" font-size="14.00">parseFile(listFilename, fUpdater)</text>
<text text-anchor="start" x="8" y="-943.3" font-family="Times,serif" font-size="14.00">remove(patternType)</text>
<text text-anchor="start" x="8" y="-928.3" font-family="Times,serif" font-size="14.00">report(arrArg)</text>
<text text-anchor="start" x="8" y="-913.3" font-family="Times,serif" font-size="14.00">resetDistances()</text>
<text text-anchor="start" x="8" y="-898.3" font-family="Times,serif" font-size="14.00">scale(floatScale, patternType)</text>
<text text-anchor="start" x="8" y="-883.3" font-family="Times,serif" font-size="14.00">schedule(intYear, intMonth, intDay)</text>
<text text-anchor="start" x="8" y="-868.3" font-family="Times,serif" font-size="14.00">setPeriod(intArg)</text>
<text text-anchor="start" x="8" y="-853.3" font-family="Times,serif" font-size="14.00">stat(arrArg)</text>
<text text-anchor="start" x="8" y="-838.3" font-family="Times,serif" font-size="14.00">toCSV()</text>
<text text-anchor="start" x="8" y="-823.3" font-family="Times,serif" font-size="14.00">toFreeMind()</text>
<text text-anchor="start" x="8" y="-808.3" font-family="Times,serif" font-size="14.00">toHtml()</text>
<text text-anchor="start" x="8" y="-793.3" font-family="Times,serif" font-size="14.00">toHtmlFile()</text>
<text text-anchor="start" x="8" y="-778.3" font-family="Times,serif" font-size="14.00">toPlain()</text>
<text text-anchor="start" x="8" y="-763.3" font-family="Times,serif" font-size="14.00">toSVG(x, y)</text>
<text text-anchor="start" x="8" y="-748.3" font-family="Times,serif" font-size="14.00">toSVGDiagram()</text>
<text text-anchor="start" x="8" y="-733.3" font-family="Times,serif" font-size="14.00">toSVGGantt(dateBase, y)</text>
<text text-anchor="start" x="8" y="-718.3" font-family="Times,serif" font-size="14.00">toSVGGanttChart()</text>
<text text-anchor="start" x="8" y="-703.3" font-family="Times,serif" font-size="14.00">toString()</text>
<text text-anchor="start" x="8" y="-688.3" font-family="Times,serif" font-size="14.00">toVCalendar()</text>
<text text-anchor="start" x="8" y="-673.3" font-family="Times,serif" font-size="14.00">toXML()</text>
<text text-anchor="start" x="8" y="-658.3" font-family="Times,serif" font-size="14.00">to_ical(cal)</text>
</g>
<!-- training.period.Period&#45;&gt;training.description.Description -->
<g id="edge9" class="edge">
<title>training.period.Period&#45;&gt;training.description.Description</title>
<path fill="none" stroke="black" d="M293,-1253.55C295.79,-1255.77 298.62,-1257.92 301.5,-1260 345.6,-1291.85 490.83,-1283.38 543.5,-1297 556.72,-1300.42 570.34,-1304.48 583.86,-1308.86"/>
<polygon fill="none" stroke="black" points="583.08,-1312.29 593.67,-1312.11 585.28,-1305.64 583.08,-1312.29"/>
</g>
<!-- training.period.Period&#45;&gt;training.title.Title -->
<g id="edge10" class="edge">
<title>training.period.Period&#45;&gt;training.title.Title</title>
<path fill="none" stroke="black" d="M293.24,-1250.62C295.96,-1253.81 298.71,-1256.93 301.5,-1260 322.76,-1283.36 350.6,-1303.47 377.05,-1319.46"/>
<polygon fill="none" stroke="black" points="375.56,-1322.65 385.95,-1324.72 379.12,-1316.62 375.56,-1322.65"/>
</g>
<!-- training.unit.Unit&#45;&gt;training.note.Note -->
<g id="edge11" class="edge">
<title>training.unit.Unit&#45;&gt;training.note.Note</title>
<path fill="none" stroke="black" d="M1203.59,-612.51C1166.62,-678.24 1122.65,-756.41 1086.11,-821.36"/>
<polygon fill="none" stroke="black" points="1082.86,-820 1081.01,-830.43 1088.96,-823.43 1082.86,-820"/>
</g>
</g>
</svg>
