<?xml version="1.0" encoding="UTF-8" standalone="no"?>
<!DOCTYPE svg PUBLIC "-//W3C//DTD SVG 1.1//EN"
 "http://www.w3.org/Graphics/SVG/1.1/DTD/svg11.dtd">
<!-- Generated by graphviz version 2.43.0 (0)
 -->
<!-- Title: classes_training Pages: 1 -->
<svg width="1789pt" height="1510pt"
 viewBox="0.00 0.00 1789.00 1510.00" xmlns="http://www.w3.org/2000/svg" xmlns:xlink="http://www.w3.org/1999/xlink">
<g id="graph0" class="graph" transform="scale(1 1) rotate(0) translate(4 1506)">
<title>classes_training</title>
<polygon fill="white" stroke="transparent" points="-4,4 -4,-1506 1785,-1506 1785,4 -4,4"/>
<!-- _datetime.datetime.timedelta -->
<g id="node1" class="node">
<title>_datetime.datetime.timedelta</title>
<polygon fill="none" stroke="black" points="1067,-167.5 1067,-266.5 1295,-266.5 1295,-167.5 1067,-167.5"/>
<text text-anchor="middle" x="1181" y="-251.3" font-family="Times,serif" font-size="14.00">_datetime.datetime.timedelta</text>
<polyline fill="none" stroke="black" points="1067,-243.5 1295,-243.5 "/>
<text text-anchor="start" x="1075" y="-228.3" font-family="Times,serif" font-size="14.00">days</text>
<text text-anchor="start" x="1075" y="-213.3" font-family="Times,serif" font-size="14.00">microseconds</text>
<text text-anchor="start" x="1075" y="-198.3" font-family="Times,serif" font-size="14.00">seconds</text>
<polyline fill="none" stroke="black" points="1067,-190.5 1295,-190.5 "/>
<text text-anchor="start" x="1075" y="-175.3" font-family="Times,serif" font-size="14.00">total_seconds()</text>
</g>
<!-- training.unit.Unit -->
<g id="node11" class="node">
<title>training.unit.Unit</title>
<polygon fill="none" stroke="black" points="1201,-363.5 1201,-672.5 1431,-672.5 1431,-363.5 1201,-363.5"/>
<text text-anchor="middle" x="1316" y="-657.3" font-family="Times,serif" font-size="14.00">training.unit.Unit</text>
<polyline fill="none" stroke="black" points="1201,-649.5 1431,-649.5 "/>
<text text-anchor="start" x="1209" y="-634.3" font-family="Times,serif" font-size="14.00">dist : NoneType, float</text>
<text text-anchor="start" x="1209" y="-619.3" font-family="Times,serif" font-size="14.00">dt : NoneType, datetime</text>
<text text-anchor="start" x="1209" y="-604.3" font-family="Times,serif" font-size="14.00">duration : NoneType</text>
<text text-anchor="start" x="1209" y="-589.3" font-family="Times,serif" font-size="14.00">type : NoneType</text>
<polyline fill="none" stroke="black" points="1201,-581.5 1431,-581.5 "/>
<text text-anchor="start" x="1209" y="-566.3" font-family="Times,serif" font-size="14.00">getDuration()</text>
<text text-anchor="start" x="1209" y="-551.3" font-family="Times,serif" font-size="14.00">getSpeedStr()</text>
<text text-anchor="start" x="1209" y="-536.3" font-family="Times,serif" font-size="14.00">parse(objArg)</text>
<text text-anchor="start" x="1209" y="-521.3" font-family="Times,serif" font-size="14.00">scale(floatScale, patternType)</text>
<text text-anchor="start" x="1209" y="-506.3" font-family="Times,serif" font-size="14.00">setDate(dtArg, dt_0, dt_1)</text>
<text text-anchor="start" x="1209" y="-491.3" font-family="Times,serif" font-size="14.00">setDistStr(strArg)</text>
<text text-anchor="start" x="1209" y="-476.3" font-family="Times,serif" font-size="14.00">setDurationStr(strArg)</text>
<text text-anchor="start" x="1209" y="-461.3" font-family="Times,serif" font-size="14.00">setTypeStr(strArg)</text>
<text text-anchor="start" x="1209" y="-446.3" font-family="Times,serif" font-size="14.00">stat(dictArg)</text>
<text text-anchor="start" x="1209" y="-431.3" font-family="Times,serif" font-size="14.00">toCSV()</text>
<text text-anchor="start" x="1209" y="-416.3" font-family="Times,serif" font-size="14.00">toFreemindNode()</text>
<text text-anchor="start" x="1209" y="-401.3" font-family="Times,serif" font-size="14.00">toHtml()</text>
<text text-anchor="start" x="1209" y="-386.3" font-family="Times,serif" font-size="14.00">toSVG(x, y)</text>
<text text-anchor="start" x="1209" y="-371.3" font-family="Times,serif" font-size="14.00">to_ical(cal)</text>
</g>
<!-- _datetime.datetime.timedelta&#45;&gt;training.unit.Unit -->
<g id="edge12" class="edge">
<title>_datetime.datetime.timedelta&#45;&gt;training.unit.Unit</title>
<path fill="none" stroke="black" d="M1200.07,-266.54C1209.62,-290.33 1221.56,-319.32 1233,-345 1234.1,-347.46 1235.21,-349.94 1236.33,-352.43"/>
<polygon fill="black" stroke="black" points="1236.36,-352.5 1242.48,-356.31 1241.32,-363.43 1235.2,-359.62 1236.36,-352.5"/>
<text text-anchor="middle" x="1263.5" y="-333.8" font-family="Times,serif" font-size="14.00" fill="green">duration</text>
</g>
<!-- _datetime.datetime.timedelta&#45;&gt;training.unit.Unit -->
<g id="edge13" class="edge">
<title>_datetime.datetime.timedelta&#45;&gt;training.unit.Unit</title>
<path fill="none" stroke="black" d="M1244.63,-266.63C1263.59,-284.45 1282.38,-306.16 1294,-330 1297.42,-337.02 1300.4,-344.37 1302.98,-351.91"/>
<polygon fill="black" stroke="black" points="1303.02,-352.04 1308.63,-356.57 1306.61,-363.49 1301,-358.96 1303.02,-352.04"/>
<text text-anchor="middle" x="1330.5" y="-333.8" font-family="Times,serif" font-size="14.00" fill="green">duration</text>
</g>
<!-- _datetime.datetime.timedelta&#45;&gt;training.unit.Unit -->
<g id="edge14" class="edge">
<title>_datetime.datetime.timedelta&#45;&gt;training.unit.Unit</title>
<path fill="none" stroke="black" d="M1127.12,-266.61C1106.43,-283.11 1081.8,-300.31 1057,-312 1023.69,-327.71 961.81,-313.57 981,-345 1026.2,-419.02 1114.51,-462.51 1189.11,-487.24"/>
<polygon fill="black" stroke="black" points="1189.53,-487.37 1196.47,-485.4 1200.96,-491.05 1194.02,-493.02 1189.53,-487.37"/>
<text text-anchor="middle" x="1011.5" y="-333.8" font-family="Times,serif" font-size="14.00" fill="green">duration</text>
</g>
<!-- _datetime.datetime.timedelta&#45;&gt;training.unit.Unit -->
<g id="edge15" class="edge">
<title>_datetime.datetime.timedelta&#45;&gt;training.unit.Unit</title>
<path fill="none" stroke="black" d="M1095.54,-266.75C1068.77,-288.66 1049.76,-316.07 1065,-345 1092.02,-396.27 1141.97,-435.18 1190.24,-462.91"/>
<polygon fill="black" stroke="black" points="1190.36,-462.98 1197.55,-462.42 1200.83,-468.84 1193.64,-469.4 1190.36,-462.98"/>
<text text-anchor="middle" x="1095.5" y="-333.8" font-family="Times,serif" font-size="14.00" fill="green">duration</text>
</g>
<!-- _datetime.datetime.timedelta&#45;&gt;training.unit.Unit -->
<g id="edge16" class="edge">
<title>_datetime.datetime.timedelta&#45;&gt;training.unit.Unit</title>
<path fill="none" stroke="black" d="M1162.44,-266.59C1156,-290.79 1152.49,-320.11 1162,-345 1169.61,-364.9 1180.7,-383.95 1193.49,-401.65"/>
<polygon fill="black" stroke="black" points="1193.56,-401.74 1200.36,-404.14 1200.76,-411.34 1193.96,-408.94 1193.56,-401.74"/>
<text text-anchor="middle" x="1192.5" y="-333.8" font-family="Times,serif" font-size="14.00" fill="green">duration</text>
</g>
<!-- datetime.timedelta -->
<g id="node2" class="node">
<title>datetime.timedelta</title>
<polygon fill="none" stroke="black" points="1449.5,-167.5 1449.5,-266.5 1602.5,-266.5 1602.5,-167.5 1449.5,-167.5"/>
<text text-anchor="middle" x="1526" y="-251.3" font-family="Times,serif" font-size="14.00">datetime.timedelta</text>
<polyline fill="none" stroke="black" points="1449.5,-243.5 1602.5,-243.5 "/>
<text text-anchor="start" x="1457.5" y="-228.3" font-family="Times,serif" font-size="14.00">days</text>
<text text-anchor="start" x="1457.5" y="-213.3" font-family="Times,serif" font-size="14.00">microseconds</text>
<text text-anchor="start" x="1457.5" y="-198.3" font-family="Times,serif" font-size="14.00">seconds</text>
<polyline fill="none" stroke="black" points="1449.5,-190.5 1602.5,-190.5 "/>
<text text-anchor="start" x="1457.5" y="-175.3" font-family="Times,serif" font-size="14.00">total_seconds()</text>
</g>
<!-- datetime.timedelta&#45;&gt;training.unit.Unit -->
<g id="edge17" class="edge">
<title>datetime.timedelta&#45;&gt;training.unit.Unit</title>
<path fill="none" stroke="black" d="M1602.59,-236.72C1668.56,-256.81 1748.18,-292.99 1714,-345 1654.39,-435.7 1535.68,-478.79 1443.35,-499.13"/>
<polygon fill="black" stroke="black" points="1443.11,-499.18 1438.07,-504.34 1431.37,-501.68 1436.41,-496.52 1443.11,-499.18"/>
<text text-anchor="middle" x="1750.5" y="-333.8" font-family="Times,serif" font-size="14.00" fill="green">duration</text>
</g>
<!-- datetime.timedelta&#45;&gt;training.unit.Unit -->
<g id="edge18" class="edge">
<title>datetime.timedelta&#45;&gt;training.unit.Unit</title>
<path fill="none" stroke="black" d="M1461.57,-266.75C1440.41,-284.95 1417.99,-306.87 1401,-330 1395.64,-337.29 1390.51,-344.98 1385.62,-352.91"/>
<polygon fill="black" stroke="black" points="1385.47,-353.16 1385.83,-360.36 1379.32,-363.46 1378.96,-356.26 1385.47,-353.16"/>
<text text-anchor="middle" x="1431.5" y="-333.8" font-family="Times,serif" font-size="14.00" fill="green">duration</text>
</g>
<!-- datetime.timedelta&#45;&gt;training.unit.Unit -->
<g id="edge19" class="edge">
<title>datetime.timedelta&#45;&gt;training.unit.Unit</title>
<path fill="none" stroke="black" d="M1504.86,-266.54C1493.45,-290.85 1478.37,-320.3 1462,-345 1454.72,-355.98 1446.83,-367.05 1438.62,-377.99"/>
<polygon fill="black" stroke="black" points="1438.6,-378.02 1438.15,-385.22 1431.33,-387.57 1431.78,-380.37 1438.6,-378.02"/>
<text text-anchor="middle" x="1500.5" y="-333.8" font-family="Times,serif" font-size="14.00" fill="green">duration</text>
</g>
<!-- datetime.timedelta&#45;&gt;training.unit.Unit -->
<g id="edge20" class="edge">
<title>datetime.timedelta&#45;&gt;training.unit.Unit</title>
<path fill="none" stroke="black" d="M1540.62,-266.64C1545.32,-291.26 1546.69,-320.95 1535,-345 1514.58,-387.01 1478.38,-421.81 1441.22,-448.85"/>
<polygon fill="black" stroke="black" points="1441.03,-448.98 1438.45,-455.72 1431.24,-455.92 1433.83,-449.19 1441.03,-448.98"/>
<text text-anchor="middle" x="1569.5" y="-333.8" font-family="Times,serif" font-size="14.00" fill="green">duration</text>
</g>
<!-- datetime.timedelta&#45;&gt;training.unit.Unit -->
<g id="edge21" class="edge">
<title>datetime.timedelta&#45;&gt;training.unit.Unit</title>
<path fill="none" stroke="black" d="M1583.5,-266.68C1604.06,-290.13 1618.88,-318.78 1604,-345 1569.16,-406.39 1502.75,-448.21 1442.48,-475.22"/>
<polygon fill="black" stroke="black" points="1442.3,-475.3 1438.4,-481.36 1431.3,-480.09 1435.2,-474.03 1442.3,-475.3"/>
<text text-anchor="middle" x="1639.5" y="-333.8" font-family="Times,serif" font-size="14.00" fill="green">duration</text>
</g>
<!-- training.combination.Combination -->
<g id="node3" class="node">
<title>training.combination.Combination</title>
<polygon fill="none" stroke="black" points="661.5,-898 661.5,-1147 922.5,-1147 922.5,-898 661.5,-898"/>
<text text-anchor="middle" x="792" y="-1131.8" font-family="Times,serif" font-size="14.00">training.combination.Combination</text>
<polyline fill="none" stroke="black" points="661.5,-1124 922.5,-1124 "/>
<text text-anchor="start" x="669.5" y="-1108.8" font-family="Times,serif" font-size="14.00">child : list</text>
<polyline fill="none" stroke="black" points="661.5,-1101 922.5,-1101 "/>
<text text-anchor="start" x="669.5" y="-1085.8" font-family="Times,serif" font-size="14.00">appendDescription(objArg)</text>
<text text-anchor="start" x="669.5" y="-1070.8" font-family="Times,serif" font-size="14.00">dup()</text>
<text text-anchor="start" x="669.5" y="-1055.8" font-family="Times,serif" font-size="14.00">getDuration()</text>
<text text-anchor="start" x="669.5" y="-1040.8" font-family="Times,serif" font-size="14.00">getNumberOfUnits()</text>
<text text-anchor="start" x="669.5" y="-1025.8" font-family="Times,serif" font-size="14.00">resetDistances()</text>
<text text-anchor="start" x="669.5" y="-1010.8" font-family="Times,serif" font-size="14.00">scale(floatScale, patternType)</text>
<text text-anchor="start" x="669.5" y="-995.8" font-family="Times,serif" font-size="14.00">setDate(dtArg, dt_0, dt_1)</text>
<text text-anchor="start" x="669.5" y="-980.8" font-family="Times,serif" font-size="14.00">stat(dictArg)</text>
<text text-anchor="start" x="669.5" y="-965.8" font-family="Times,serif" font-size="14.00">toCSV()</text>
<text text-anchor="start" x="669.5" y="-950.8" font-family="Times,serif" font-size="14.00">toFreemindNode()</text>
<text text-anchor="start" x="669.5" y="-935.8" font-family="Times,serif" font-size="14.00">toHtml()</text>
<text text-anchor="start" x="669.5" y="-920.8" font-family="Times,serif" font-size="14.00">toSVG(x, y)</text>
<text text-anchor="start" x="669.5" y="-905.8" font-family="Times,serif" font-size="14.00">to_ical(cal)</text>
</g>
<!-- training.description.Description -->
<g id="node5" class="node">
<title>training.description.Description</title>
<polygon fill="none" stroke="black" points="627.5,-1372.5 627.5,-1501.5 872.5,-1501.5 872.5,-1372.5 627.5,-1372.5"/>
<text text-anchor="middle" x="750" y="-1486.3" font-family="Times,serif" font-size="14.00">training.description.Description</text>
<polyline fill="none" stroke="black" points="627.5,-1478.5 872.5,-1478.5 "/>
<text text-anchor="start" x="635.5" y="-1463.3" font-family="Times,serif" font-size="14.00">color : NoneType</text>
<text text-anchor="start" x="635.5" y="-1448.3" font-family="Times,serif" font-size="14.00">listDescription : list</text>
<polyline fill="none" stroke="black" points="627.5,-1440.5 872.5,-1440.5 "/>
<text text-anchor="start" x="635.5" y="-1425.3" font-family="Times,serif" font-size="14.00">appendDescription(objArg)</text>
<text text-anchor="start" x="635.5" y="-1410.3" font-family="Times,serif" font-size="14.00">hasDescription()</text>
<text text-anchor="start" x="635.5" y="-1395.3" font-family="Times,serif" font-size="14.00">setColor(strColor)</text>
<text text-anchor="start" x="635.5" y="-1380.3" font-family="Times,serif" font-size="14.00">setDescription(objArg)</text>
</g>
<!-- training.combination.Combination&#45;&gt;training.description.Description -->
<g id="edge1" class="edge">
<title>training.combination.Combination&#45;&gt;training.description.Description</title>
<path fill="none" stroke="black" d="M779.4,-1147.26C772.26,-1217.37 763.57,-1302.7 757.5,-1362.34"/>
<polygon fill="none" stroke="black" points="754,-1362.12 756.47,-1372.43 760.97,-1362.83 754,-1362.12"/>
</g>
<!-- training.title.Title -->
<g id="node10" class="node">
<title>training.title.Title</title>
<polygon fill="none" stroke="black" points="419.5,-1380 419.5,-1494 568.5,-1494 568.5,-1380 419.5,-1380"/>
<text text-anchor="middle" x="494" y="-1478.8" font-family="Times,serif" font-size="14.00">training.title.Title</text>
<polyline fill="none" stroke="black" points="419.5,-1471 568.5,-1471 "/>
<text text-anchor="start" x="427.5" y="-1455.8" font-family="Times,serif" font-size="14.00">strTitle : str</text>
<polyline fill="none" stroke="black" points="419.5,-1448 568.5,-1448 "/>
<text text-anchor="start" x="427.5" y="-1432.8" font-family="Times,serif" font-size="14.00">getTitleStr()</text>
<text text-anchor="start" x="427.5" y="-1417.8" font-family="Times,serif" font-size="14.00">getTitleXML()</text>
<text text-anchor="start" x="427.5" y="-1402.8" font-family="Times,serif" font-size="14.00">hasTitle()</text>
<text text-anchor="start" x="427.5" y="-1387.8" font-family="Times,serif" font-size="14.00">setTitleStr(strArg)</text>
</g>
<!-- training.combination.Combination&#45;&gt;training.title.Title -->
<g id="edge2" class="edge">
<title>training.combination.Combination&#45;&gt;training.title.Title</title>
<path fill="none" stroke="black" d="M755.24,-1147.09C732.58,-1208.44 698.79,-1280.81 652,-1335 631.45,-1358.8 603.92,-1379.02 577.6,-1394.97"/>
<polygon fill="none" stroke="black" points="575.55,-1392.11 568.73,-1400.21 579.12,-1398.14 575.55,-1392.11"/>
</g>
<!-- training.cycle.Cycle -->
<g id="node4" class="node">
<title>training.cycle.Cycle</title>
<polygon fill="none" stroke="black" points="344.5,-748 344.5,-1297 643.5,-1297 643.5,-748 344.5,-748"/>
<text text-anchor="middle" x="494" y="-1281.8" font-family="Times,serif" font-size="14.00">training.cycle.Cycle</text>
<polyline fill="none" stroke="black" points="344.5,-1274 643.5,-1274 "/>
<text text-anchor="start" x="352.5" y="-1258.8" font-family="Times,serif" font-size="14.00">color : NoneType</text>
<text text-anchor="start" x="352.5" y="-1243.8" font-family="Times,serif" font-size="14.00">dateBegin : date, NoneType</text>
<text text-anchor="start" x="352.5" y="-1228.8" font-family="Times,serif" font-size="14.00">dateEnd : NoneType</text>
<text text-anchor="start" x="352.5" y="-1213.8" font-family="Times,serif" font-size="14.00">day : list</text>
<polyline fill="none" stroke="black" points="344.5,-1206 643.5,-1206 "/>
<text text-anchor="start" x="352.5" y="-1190.8" font-family="Times,serif" font-size="14.00">appendDescription(objArg)</text>
<text text-anchor="start" x="352.5" y="-1175.8" font-family="Times,serif" font-size="14.00">copy(intIndexA, intIndexB, flagReplace)</text>
<text text-anchor="start" x="352.5" y="-1160.8" font-family="Times,serif" font-size="14.00">dup()</text>
<text text-anchor="start" x="352.5" y="-1145.8" font-family="Times,serif" font-size="14.00">getCycleByDate(objDate)</text>
<text text-anchor="start" x="352.5" y="-1130.8" font-family="Times,serif" font-size="14.00">getDuration()</text>
<text text-anchor="start" x="352.5" y="-1115.8" font-family="Times,serif" font-size="14.00">getNumberOfUnits()</text>
<text text-anchor="start" x="352.5" y="-1100.8" font-family="Times,serif" font-size="14.00">getPeriodDone()</text>
<text text-anchor="start" x="352.5" y="-1085.8" font-family="Times,serif" font-size="14.00">insert(objIndex, objArg, flagReplace)</text>
<text text-anchor="start" x="352.5" y="-1070.8" font-family="Times,serif" font-size="14.00">insertByDate(objArg, flagReplace)</text>
<text text-anchor="start" x="352.5" y="-1055.8" font-family="Times,serif" font-size="14.00">insertDescriptionStr(intIndex, strArg)</text>
<text text-anchor="start" x="352.5" y="-1040.8" font-family="Times,serif" font-size="14.00">remove(intIndexA, patternType)</text>
<text text-anchor="start" x="352.5" y="-1025.8" font-family="Times,serif" font-size="14.00">report(dictArg)</text>
<text text-anchor="start" x="352.5" y="-1010.8" font-family="Times,serif" font-size="14.00">resetDistances()</text>
<text text-anchor="start" x="352.5" y="-995.8" font-family="Times,serif" font-size="14.00">scale(floatScale, patternType)</text>
<text text-anchor="start" x="352.5" y="-980.8" font-family="Times,serif" font-size="14.00">schedule(intYear, intMonth, intDay)</text>
<text text-anchor="start" x="352.5" y="-965.8" font-family="Times,serif" font-size="14.00">shift(intIndexA, intIndexB, flagReplace)</text>
<text text-anchor="start" x="352.5" y="-950.8" font-family="Times,serif" font-size="14.00">stat(dictArg)</text>
<text text-anchor="start" x="352.5" y="-935.8" font-family="Times,serif" font-size="14.00">swap(intIndexA, intIndexB)</text>
<text text-anchor="start" x="352.5" y="-920.8" font-family="Times,serif" font-size="14.00">toCSV()</text>
<text text-anchor="start" x="352.5" y="-905.8" font-family="Times,serif" font-size="14.00">toFreeMind()</text>
<text text-anchor="start" x="352.5" y="-890.8" font-family="Times,serif" font-size="14.00">toFreemindNode()</text>
<text text-anchor="start" x="352.5" y="-875.8" font-family="Times,serif" font-size="14.00">toHtml()</text>
<text text-anchor="start" x="352.5" y="-860.8" font-family="Times,serif" font-size="14.00">toHtmlFile()</text>
<text text-anchor="start" x="352.5" y="-845.8" font-family="Times,serif" font-size="14.00">toSVG(x, y)</text>
<text text-anchor="start" x="352.5" y="-830.8" font-family="Times,serif" font-size="14.00">toSVGDiagram()</text>
<text text-anchor="start" x="352.5" y="-815.8" font-family="Times,serif" font-size="14.00">toSVGGantt(dateBase, y)</text>
<text text-anchor="start" x="352.5" y="-800.8" font-family="Times,serif" font-size="14.00">toSVGGanttChart()</text>
<text text-anchor="start" x="352.5" y="-785.8" font-family="Times,serif" font-size="14.00">toString()</text>
<text text-anchor="start" x="352.5" y="-770.8" font-family="Times,serif" font-size="14.00">toVCalendar()</text>
<text text-anchor="start" x="352.5" y="-755.8" font-family="Times,serif" font-size="14.00">to_ical(cal)</text>
</g>
<!-- training.cycle.Cycle&#45;&gt;training.description.Description -->
<g id="edge3" class="edge">
<title>training.cycle.Cycle&#45;&gt;training.description.Description</title>
<path fill="none" stroke="black" d="M626.76,-1297.32C634.94,-1310.28 643.37,-1322.91 652,-1335 659.17,-1345.04 667.32,-1355.05 675.79,-1364.65"/>
<polygon fill="none" stroke="black" points="673.35,-1367.17 682.64,-1372.26 678.55,-1362.49 673.35,-1367.17"/>
</g>
<!-- training.cycle.Cycle&#45;&gt;training.title.Title -->
<g id="edge4" class="edge">
<title>training.cycle.Cycle&#45;&gt;training.title.Title</title>
<path fill="none" stroke="black" d="M494,-1297.21C494,-1323.73 494,-1348.57 494,-1369.7"/>
<polygon fill="none" stroke="black" points="490.5,-1369.77 494,-1379.77 497.5,-1369.77 490.5,-1369.77"/>
</g>
<!-- training.duration.Duration -->
<g id="node6" class="node">
<title>training.duration.Duration</title>
<polygon fill="none" stroke="black" points="1021,-0.5 1021,-70.5 1227,-70.5 1227,-0.5 1021,-0.5"/>
<text text-anchor="middle" x="1124" y="-55.3" font-family="Times,serif" font-size="14.00">training.duration.Duration</text>
<polyline fill="none" stroke="black" points="1021,-47.5 1227,-47.5 "/>
<polyline fill="none" stroke="black" points="1021,-23.5 1227,-23.5 "/>
<text text-anchor="middle" x="1124" y="-8.3" font-family="Times,serif" font-size="14.00"> </text>
</g>
<!-- training.duration.Duration&#45;&gt;_datetime.datetime.timedelta -->
<g id="edge5" class="edge">
<title>training.duration.Duration&#45;&gt;_datetime.datetime.timedelta</title>
<path fill="none" stroke="black" d="M1143.09,-70.7C1145.99,-76.69 1148.76,-82.94 1151,-89 1159.06,-110.84 1165.48,-135.61 1170.28,-157.44"/>
<polygon fill="none" stroke="black" points="1166.87,-158.19 1172.38,-167.24 1173.71,-156.73 1166.87,-158.19"/>
</g>
<!-- training.duration.Duration&#45;&gt;datetime.timedelta -->
<g id="edge6" class="edge">
<title>training.duration.Duration&#45;&gt;datetime.timedelta</title>
<path fill="none" stroke="black" d="M1200.56,-70.69C1268.91,-101.2 1368.91,-145.85 1439.99,-177.59"/>
<polygon fill="none" stroke="black" points="1438.83,-180.91 1449.38,-181.79 1441.68,-174.52 1438.83,-180.91"/>
</g>
<!-- training.pause.Pause -->
<g id="node8" class="node">
<title>training.pause.Pause</title>
<polygon fill="none" stroke="black" points="845.5,-122.5 845.5,-311.5 1048.5,-311.5 1048.5,-122.5 845.5,-122.5"/>
<text text-anchor="middle" x="947" y="-296.3" font-family="Times,serif" font-size="14.00">training.pause.Pause</text>
<polyline fill="none" stroke="black" points="845.5,-288.5 1048.5,-288.5 "/>
<text text-anchor="start" x="853.5" y="-273.3" font-family="Times,serif" font-size="14.00">dt : NoneType</text>
<text text-anchor="start" x="853.5" y="-258.3" font-family="Times,serif" font-size="14.00">duration</text>
<polyline fill="none" stroke="black" points="845.5,-250.5 1048.5,-250.5 "/>
<text text-anchor="start" x="853.5" y="-235.3" font-family="Times,serif" font-size="14.00">getDuration()</text>
<text text-anchor="start" x="853.5" y="-220.3" font-family="Times,serif" font-size="14.00">setDate(dtArg, dt_0, dt_1)</text>
<text text-anchor="start" x="853.5" y="-205.3" font-family="Times,serif" font-size="14.00">setDuration(intArg)</text>
<text text-anchor="start" x="853.5" y="-190.3" font-family="Times,serif" font-size="14.00">toCSV()</text>
<text text-anchor="start" x="853.5" y="-175.3" font-family="Times,serif" font-size="14.00">toFreemindNode()</text>
<text text-anchor="start" x="853.5" y="-160.3" font-family="Times,serif" font-size="14.00">toHtml()</text>
<text text-anchor="start" x="853.5" y="-145.3" font-family="Times,serif" font-size="14.00">toSVG(x, y)</text>
<text text-anchor="start" x="853.5" y="-130.3" font-family="Times,serif" font-size="14.00">to_ical(cal)</text>
</g>
<!-- training.duration.Duration&#45;&gt;training.pause.Pause -->
<g id="edge22" class="edge">
<title>training.duration.Duration&#45;&gt;training.pause.Pause</title>
<path fill="none" stroke="black" d="M1026.6,-70.64C1018.03,-75.97 1009.98,-82.06 1003,-89 996.14,-95.82 990.05,-103.63 984.66,-111.95"/>
<polygon fill="black" stroke="black" points="984.61,-112.03 984.95,-119.23 978.43,-122.32 978.09,-115.11 984.61,-112.03"/>
<text text-anchor="middle" x="1033.5" y="-92.8" font-family="Times,serif" font-size="14.00" fill="green">duration</text>
</g>
<!-- training.duration.Duration&#45;&gt;training.pause.Pause -->
<g id="edge23" class="edge">
<title>training.duration.Duration&#45;&gt;training.pause.Pause</title>
<path fill="none" stroke="black" d="M1094.61,-70.63C1085.03,-81.47 1074.23,-93.39 1064,-104 1060.89,-107.23 1057.71,-110.49 1054.49,-113.76"/>
<polygon fill="black" stroke="black" points="1054.32,-113.93 1052.93,-121.01 1045.87,-122.46 1047.25,-115.38 1054.32,-113.93"/>
<text text-anchor="middle" x="1108.5" y="-92.8" font-family="Times,serif" font-size="14.00" fill="green">duration</text>
</g>
<!-- training.note.Note -->
<g id="node7" class="node">
<title>training.note.Note</title>
<polygon fill="none" stroke="black" points="941,-898 941,-1147 1151,-1147 1151,-898 941,-898"/>
<text text-anchor="middle" x="1046" y="-1131.8" font-family="Times,serif" font-size="14.00">training.note.Note</text>
<polyline fill="none" stroke="black" points="941,-1124 1151,-1124 "/>
<text text-anchor="start" x="949" y="-1108.8" font-family="Times,serif" font-size="14.00">dt : NoneType, datetime</text>
<text text-anchor="start" x="949" y="-1093.8" font-family="Times,serif" font-size="14.00">tPlan : NoneType, time, str</text>
<polyline fill="none" stroke="black" points="941,-1086 1151,-1086 "/>
<text text-anchor="start" x="949" y="-1070.8" font-family="Times,serif" font-size="14.00">appendDescription(objArg)</text>
<text text-anchor="start" x="949" y="-1055.8" font-family="Times,serif" font-size="14.00">dup()</text>
<text text-anchor="start" x="949" y="-1040.8" font-family="Times,serif" font-size="14.00">parse(objArg)</text>
<text text-anchor="start" x="949" y="-1025.8" font-family="Times,serif" font-size="14.00">setClock(timeArg)</text>
<text text-anchor="start" x="949" y="-1010.8" font-family="Times,serif" font-size="14.00">setDate(dtArg, dt_0, dt_1)</text>
<text text-anchor="start" x="949" y="-995.8" font-family="Times,serif" font-size="14.00">setDateStr(strArg)</text>
<text text-anchor="start" x="949" y="-980.8" font-family="Times,serif" font-size="14.00">toCSV()</text>
<text text-anchor="start" x="949" y="-965.8" font-family="Times,serif" font-size="14.00">toFreemindNode()</text>
<text text-anchor="start" x="949" y="-950.8" font-family="Times,serif" font-size="14.00">toHtml()</text>
<text text-anchor="start" x="949" y="-935.8" font-family="Times,serif" font-size="14.00">toSVG(x, y)</text>
<text text-anchor="start" x="949" y="-920.8" font-family="Times,serif" font-size="14.00">toString()</text>
<text text-anchor="start" x="949" y="-905.8" font-family="Times,serif" font-size="14.00">to_ical(cal)</text>
</g>
<!-- training.note.Note&#45;&gt;training.description.Description -->
<g id="edge7" class="edge">
<title>training.note.Note&#45;&gt;training.description.Description</title>
<path fill="none" stroke="black" d="M1021.83,-1147.03C1004.75,-1208.91 976.54,-1281.78 931,-1335 917,-1351.36 899.66,-1365.59 881.3,-1377.79"/>
<polygon fill="none" stroke="black" points="879.32,-1374.9 872.8,-1383.26 883.11,-1380.79 879.32,-1374.9"/>
</g>
<!-- training.pause.Pause&#45;&gt;training.note.Note -->
<g id="edge8" class="edge">
<title>training.pause.Pause&#45;&gt;training.note.Note</title>
<path fill="none" stroke="black" d="M958.55,-311.74C976.07,-453.97 1009.45,-724.89 1029.52,-887.77"/>
<polygon fill="none" stroke="black" points="1026.07,-888.36 1030.77,-897.85 1033.02,-887.5 1026.07,-888.36"/>
</g>
<!-- training.period.Period -->
<g id="node9" class="node">
<title>training.period.Period</title>
<polygon fill="none" stroke="black" points="0,-710.5 0,-1334.5 326,-1334.5 326,-710.5 0,-710.5"/>
<text text-anchor="middle" x="163" y="-1319.3" font-family="Times,serif" font-size="14.00">training.period.Period</text>
<polyline fill="none" stroke="black" points="0,-1311.5 326,-1311.5 "/>
<text text-anchor="start" x="8" y="-1296.3" font-family="Times,serif" font-size="14.00">child : list</text>
<text text-anchor="start" x="8" y="-1281.3" font-family="Times,serif" font-size="14.00">color : NoneType</text>
<text text-anchor="start" x="8" y="-1266.3" font-family="Times,serif" font-size="14.00">dateBegin : date, NoneType</text>
<text text-anchor="start" x="8" y="-1251.3" font-family="Times,serif" font-size="14.00">dateEnd : NoneType</text>
<text text-anchor="start" x="8" y="-1236.3" font-family="Times,serif" font-size="14.00">periodInt</text>
<polyline fill="none" stroke="black" points="0,-1228.5 326,-1228.5 "/>
<text text-anchor="start" x="8" y="-1213.3" font-family="Times,serif" font-size="14.00">CalendarLastWeeksPeriod(intWeek, strArg)</text>
<text text-anchor="start" x="8" y="-1198.3" font-family="Times,serif" font-size="14.00">CalendarMonthPeriod(intYear, strArg)</text>
<text text-anchor="start" x="8" y="-1183.3" font-family="Times,serif" font-size="14.00">CalendarSeasonPeriod(intYear, strArg)</text>
<text text-anchor="start" x="8" y="-1168.3" font-family="Times,serif" font-size="14.00">CalendarWeekPeriod(intYear, strArg)</text>
<text text-anchor="start" x="8" y="-1153.3" font-family="Times,serif" font-size="14.00">CalendarYearPeriod(intYear, strArg)</text>
<text text-anchor="start" x="8" y="-1138.3" font-family="Times,serif" font-size="14.00">append(objArg)</text>
<text text-anchor="start" x="8" y="-1123.3" font-family="Times,serif" font-size="14.00">appendChildDescription(objArg)</text>
<text text-anchor="start" x="8" y="-1108.3" font-family="Times,serif" font-size="14.00">appendDescription(objArg)</text>
<text text-anchor="start" x="8" y="-1093.3" font-family="Times,serif" font-size="14.00">dup()</text>
<text text-anchor="start" x="8" y="-1078.3" font-family="Times,serif" font-size="14.00">getCycleByDate(objDate)</text>
<text text-anchor="start" x="8" y="-1063.3" font-family="Times,serif" font-size="14.00">getDuration()</text>
<text text-anchor="start" x="8" y="-1048.3" font-family="Times,serif" font-size="14.00">getNumberOfUnits()</text>
<text text-anchor="start" x="8" y="-1033.3" font-family="Times,serif" font-size="14.00">getPeriodByDate(objDate)</text>
<text text-anchor="start" x="8" y="-1018.3" font-family="Times,serif" font-size="14.00">insertByDate(objUnit, flagReplace)</text>
<text text-anchor="start" x="8" y="-1003.3" font-family="Times,serif" font-size="14.00">parseFile(listFilename, fUpdater)</text>
<text text-anchor="start" x="8" y="-988.3" font-family="Times,serif" font-size="14.00">remove(patternType)</text>
<text text-anchor="start" x="8" y="-973.3" font-family="Times,serif" font-size="14.00">report(dictArg)</text>
<text text-anchor="start" x="8" y="-958.3" font-family="Times,serif" font-size="14.00">resetDistances()</text>
<text text-anchor="start" x="8" y="-943.3" font-family="Times,serif" font-size="14.00">scale(floatScale, patternType)</text>
<text text-anchor="start" x="8" y="-928.3" font-family="Times,serif" font-size="14.00">schedule(intYear, intMonth, intDay)</text>
<text text-anchor="start" x="8" y="-913.3" font-family="Times,serif" font-size="14.00">setPeriod(intArg)</text>
<text text-anchor="start" x="8" y="-898.3" font-family="Times,serif" font-size="14.00">stat(dictArg)</text>
<text text-anchor="start" x="8" y="-883.3" font-family="Times,serif" font-size="14.00">toCSV()</text>
<text text-anchor="start" x="8" y="-868.3" font-family="Times,serif" font-size="14.00">toFreeMind()</text>
<text text-anchor="start" x="8" y="-853.3" font-family="Times,serif" font-size="14.00">toFreemindNode()</text>
<text text-anchor="start" x="8" y="-838.3" font-family="Times,serif" font-size="14.00">toHtml()</text>
<text text-anchor="start" x="8" y="-823.3" font-family="Times,serif" font-size="14.00">toHtmlFile()</text>
<text text-anchor="start" x="8" y="-808.3" font-family="Times,serif" font-size="14.00">toSVG(x, y)</text>
<text text-anchor="start" x="8" y="-793.3" font-family="Times,serif" font-size="14.00">toSVGDiagram()</text>
<text text-anchor="start" x="8" y="-778.3" font-family="Times,serif" font-size="14.00">toSVGGantt(dateBase, y)</text>
<text text-anchor="start" x="8" y="-763.3" font-family="Times,serif" font-size="14.00">toSVGGanttChart()</text>
<text text-anchor="start" x="8" y="-748.3" font-family="Times,serif" font-size="14.00">toString()</text>
<text text-anchor="start" x="8" y="-733.3" font-family="Times,serif" font-size="14.00">toVCalendar()</text>
<text text-anchor="start" x="8" y="-718.3" font-family="Times,serif" font-size="14.00">to_ical(cal)</text>
</g>
<!-- training.period.Period&#45;&gt;training.description.Description -->
<g id="edge9" class="edge">
<title>training.period.Period&#45;&gt;training.description.Description</title>
<path fill="none" stroke="black" d="M326.02,-1328.43C328.97,-1330.69 331.96,-1332.88 335,-1335 379.62,-1366.12 524.33,-1358.38 577,-1372 590.22,-1375.42 603.84,-1379.48 617.36,-1383.86"/>
<polygon fill="none" stroke="black" points="616.58,-1387.29 627.17,-1387.11 618.78,-1380.64 616.58,-1387.29"/>
</g>
<!-- training.period.Period&#45;&gt;training.title.Title -->
<g id="edge10" class="edge">
<title>training.period.Period&#45;&gt;training.title.Title</title>
<path fill="none" stroke="black" d="M326.21,-1325.37C329.11,-1328.64 332.04,-1331.85 335,-1335 356.54,-1357.9 384.32,-1377.85 410.62,-1393.82"/>
<polygon fill="none" stroke="black" points="409.09,-1396.99 419.47,-1399.09 412.67,-1390.97 409.09,-1396.99"/>
</g>
<!-- training.unit.Unit&#45;&gt;training.note.Note -->
<g id="edge11" class="edge">
<title>training.unit.Unit&#45;&gt;training.note.Note</title>
<path fill="none" stroke="black" d="M1233.34,-672.84C1196.24,-741.88 1152.91,-822.53 1117.27,-888.87"/>
<polygon fill="none" stroke="black" points="1114.16,-887.25 1112.51,-897.71 1120.33,-890.56 1114.16,-887.25"/>
</g>
</g>
</svg>
