<?xml version="1.0" encoding="UTF-8" standalone="no"?>
<!DOCTYPE svg PUBLIC "-//W3C//DTD SVG 1.1//EN"
 "http://www.w3.org/Graphics/SVG/1.1/DTD/svg11.dtd">
<!-- Generated by graphviz version 2.43.0 (0)
 -->
<!-- Title: packages_training Pages: 1 -->
<svg width="909pt" height="404pt"
 viewBox="0.00 0.00 908.50 404.00" xmlns="http://www.w3.org/2000/svg" xmlns:xlink="http://www.w3.org/1999/xlink">
<g id="graph0" class="graph" transform="scale(1 1) rotate(0) translate(4 400)">
<title>packages_training</title>
<polygon fill="white" stroke="transparent" points="-4,4 -4,-400 904.5,-400 904.5,4 -4,4"/>
<!-- training -->
<g id="node1" class="node">
<title>training</title>
<polygon fill="none" stroke="black" points="132,-396 58,-396 58,-360 132,-360 132,-396"/>
<text text-anchor="middle" x="95" y="-374.3" font-family="Times,serif" font-size="14.00">training</text>
</g>
<!-- training.combination -->
<g id="node2" class="node">
<title>training.combination</title>
<polygon fill="none" stroke="black" points="533,-180 367,-180 367,-144 533,-144 533,-180"/>
<text text-anchor="middle" x="450" y="-158.3" font-family="Times,serif" font-size="14.00">training.combination</text>
</g>
<!-- training.combination&#45;&gt;training -->
<g id="edge1" class="edge">
<title>training.combination&#45;&gt;training</title>
<path fill="none" stroke="black" d="M452.42,-180.24C455.99,-213.27 458.49,-285.6 419,-324 380.48,-361.46 222.96,-372.49 142.62,-375.7"/>
<polygon fill="black" stroke="black" points="132.28,-376.09 142.11,-371.22 137.28,-375.9 142.27,-375.71 142.27,-375.71 142.27,-375.71 137.28,-375.9 142.44,-380.21 132.28,-376.09 132.28,-376.09"/>
</g>
<!-- training.description -->
<g id="node5" class="node">
<title>training.description</title>
<polygon fill="none" stroke="black" points="637,-396 479,-396 479,-360 637,-360 637,-396"/>
<text text-anchor="middle" x="558" y="-374.3" font-family="Times,serif" font-size="14.00">training.description</text>
</g>
<!-- training.combination&#45;&gt;training.description -->
<g id="edge2" class="edge">
<title>training.combination&#45;&gt;training.description</title>
<path fill="none" stroke="black" d="M458.66,-180.15C477.5,-217.48 522.32,-306.31 544.75,-350.74"/>
<polygon fill="black" stroke="black" points="549.3,-359.77 540.78,-352.87 547.05,-355.3 544.8,-350.84 544.8,-350.84 544.8,-350.84 547.05,-355.3 548.82,-348.81 549.3,-359.77 549.3,-359.77"/>
</g>
<!-- training.note -->
<g id="node7" class="node">
<title>training.note</title>
<polygon fill="none" stroke="black" points="410,-324 300,-324 300,-288 410,-288 410,-324"/>
<text text-anchor="middle" x="355" y="-302.3" font-family="Times,serif" font-size="14.00">training.note</text>
</g>
<!-- training.combination&#45;&gt;training.note -->
<g id="edge3" class="edge">
<title>training.combination&#45;&gt;training.note</title>
<path fill="none" stroke="black" d="M438.54,-180.13C421.99,-204.86 391.29,-250.76 372.07,-279.49"/>
<polygon fill="black" stroke="black" points="366.5,-287.81 368.32,-277 369.28,-283.65 372.06,-279.5 372.06,-279.5 372.06,-279.5 369.28,-283.65 375.8,-282 366.5,-287.81 366.5,-287.81"/>
</g>
<!-- training.pause -->
<g id="node8" class="node">
<title>training.pause</title>
<polygon fill="none" stroke="black" points="327,-252 207,-252 207,-216 327,-216 327,-252"/>
<text text-anchor="middle" x="267" y="-230.3" font-family="Times,serif" font-size="14.00">training.pause</text>
</g>
<!-- training.combination&#45;&gt;training.pause -->
<g id="edge4" class="edge">
<title>training.combination&#45;&gt;training.pause</title>
<path fill="none" stroke="black" d="M405.23,-180.12C379.88,-189.82 347.99,-202.02 321.23,-212.26"/>
<polygon fill="black" stroke="black" points="311.62,-215.93 319.35,-208.16 316.29,-214.15 320.96,-212.36 320.96,-212.36 320.96,-212.36 316.29,-214.15 322.57,-216.56 311.62,-215.93 311.62,-215.93"/>
</g>
<!-- training.title -->
<g id="node10" class="node">
<title>training.title</title>
<polygon fill="none" stroke="black" points="611.5,-252 504.5,-252 504.5,-216 611.5,-216 611.5,-252"/>
<text text-anchor="middle" x="558" y="-230.3" font-family="Times,serif" font-size="14.00">training.title</text>
</g>
<!-- training.combination&#45;&gt;training.title -->
<g id="edge5" class="edge">
<title>training.combination&#45;&gt;training.title</title>
<path fill="none" stroke="black" d="M476.42,-180.12C490.41,-189.19 507.78,-200.45 522.89,-210.24"/>
<polygon fill="black" stroke="black" points="531.48,-215.81 520.64,-214.15 527.28,-213.09 523.09,-210.37 523.09,-210.37 523.09,-210.37 527.28,-213.09 525.53,-206.6 531.48,-215.81 531.48,-215.81"/>
</g>
<!-- training.unit -->
<g id="node12" class="node">
<title>training.unit</title>
<polygon fill="none" stroke="black" points="188.5,-252 81.5,-252 81.5,-216 188.5,-216 188.5,-252"/>
<text text-anchor="middle" x="135" y="-230.3" font-family="Times,serif" font-size="14.00">training.unit</text>
</g>
<!-- training.combination&#45;&gt;training.unit -->
<g id="edge6" class="edge">
<title>training.combination&#45;&gt;training.unit</title>
<path fill="none" stroke="black" d="M366.88,-179.26C320.13,-188.69 260.5,-201.2 198.53,-215.94"/>
<polygon fill="black" stroke="black" points="188.56,-218.33 197.24,-211.62 193.43,-217.16 198.29,-216 198.29,-216 198.29,-216 193.43,-217.16 199.34,-220.37 188.56,-218.33 188.56,-218.33"/>
</g>
<!-- training.config -->
<g id="node3" class="node">
<title>training.config</title>
<polygon fill="none" stroke="black" points="747.5,-36 626.5,-36 626.5,0 747.5,0 747.5,-36"/>
<text text-anchor="middle" x="687" y="-14.3" font-family="Times,serif" font-size="14.00">training.config</text>
</g>
<!-- training.cycle -->
<g id="node4" class="node">
<title>training.cycle</title>
<polygon fill="none" stroke="black" points="451,-108 337,-108 337,-72 451,-72 451,-108"/>
<text text-anchor="middle" x="394" y="-86.3" font-family="Times,serif" font-size="14.00">training.cycle</text>
</g>
<!-- training.cycle&#45;&gt;training -->
<g id="edge7" class="edge">
<title>training.cycle&#45;&gt;training</title>
<path fill="none" stroke="black" d="M336.78,-93.93C260.85,-101.31 129.78,-127.02 73,-216 46.62,-257.34 66.21,-316.78 81.5,-350.67"/>
<polygon fill="black" stroke="black" points="85.86,-359.92 77.53,-352.79 83.73,-355.39 81.6,-350.87 81.6,-350.87 81.6,-350.87 83.73,-355.39 85.67,-348.95 85.86,-359.92 85.86,-359.92"/>
</g>
<!-- training.cycle&#45;&gt;training.combination -->
<g id="edge8" class="edge">
<title>training.cycle&#45;&gt;training.combination</title>
<path fill="none" stroke="black" d="M407.84,-108.3C414.49,-116.61 422.58,-126.72 429.89,-135.86"/>
<polygon fill="black" stroke="black" points="436.32,-143.9 426.56,-138.9 433.19,-139.99 430.07,-136.09 430.07,-136.09 430.07,-136.09 433.19,-139.99 433.58,-133.28 436.32,-143.9 436.32,-143.9"/>
</g>
<!-- training.cycle&#45;&gt;training.description -->
<g id="edge9" class="edge">
<title>training.cycle&#45;&gt;training.description</title>
<path fill="none" stroke="black" d="M451.33,-100.25C485.91,-107.86 529.59,-121.23 563,-144 596.95,-167.14 607.33,-177.25 621,-216 638.14,-264.59 603.96,-320.41 579.59,-351.91"/>
<polygon fill="black" stroke="black" points="573.33,-359.75 576.05,-349.13 576.45,-355.84 579.57,-351.94 579.57,-351.94 579.57,-351.94 576.45,-355.84 583.09,-354.74 573.33,-359.75 573.33,-359.75"/>
</g>
<!-- training.cycle&#45;&gt;training.note -->
<g id="edge10" class="edge">
<title>training.cycle&#45;&gt;training.note</title>
<path fill="none" stroke="black" d="M378.49,-108.26C370.75,-118.01 362.18,-130.85 358,-144 343.7,-189 346.96,-244.71 350.84,-277.4"/>
<polygon fill="black" stroke="black" points="352.15,-287.56 346.41,-278.22 351.51,-282.6 350.87,-277.64 350.87,-277.64 350.87,-277.64 351.51,-282.6 355.33,-277.06 352.15,-287.56 352.15,-287.56"/>
</g>
<!-- training.cycle&#45;&gt;training.pause -->
<g id="edge11" class="edge">
<title>training.cycle&#45;&gt;training.pause</title>
<path fill="none" stroke="black" d="M367.7,-108.01C354.04,-117.6 337.62,-130.36 325,-144 307.32,-163.11 291.5,-188.2 280.87,-206.87"/>
<polygon fill="black" stroke="black" points="275.94,-215.72 276.87,-204.8 278.37,-211.36 280.81,-206.99 280.81,-206.99 280.81,-206.99 278.37,-211.36 284.74,-209.18 275.94,-215.72 275.94,-215.72"/>
</g>
<!-- training.cycle&#45;&gt;training.title -->
<g id="edge12" class="edge">
<title>training.cycle&#45;&gt;training.title</title>
<path fill="none" stroke="black" d="M451.07,-97.5C482.43,-104.08 519.43,-117.33 542,-144 556.38,-160.99 559.74,-186.45 559.87,-205.79"/>
<polygon fill="black" stroke="black" points="559.67,-215.82 555.38,-205.73 559.77,-210.82 559.87,-205.82 559.87,-205.82 559.87,-205.82 559.77,-210.82 564.37,-205.91 559.67,-215.82 559.67,-215.82"/>
</g>
<!-- training.cycle&#45;&gt;training.unit -->
<g id="edge13" class="edge">
<title>training.cycle&#45;&gt;training.unit</title>
<path fill="none" stroke="black" d="M361.02,-108.24C341.48,-118.51 316.26,-131.87 294,-144 252.91,-166.38 206.23,-192.61 174.13,-210.77"/>
<polygon fill="black" stroke="black" points="165.07,-215.9 171.56,-207.05 169.42,-213.43 173.77,-210.97 173.77,-210.97 173.77,-210.97 169.42,-213.43 175.99,-214.89 165.07,-215.9 165.07,-215.9"/>
</g>
<!-- training.duration -->
<g id="node6" class="node">
<title>training.duration</title>
<polygon fill="none" stroke="black" points="281.5,-324 142.5,-324 142.5,-288 281.5,-288 281.5,-324"/>
<text text-anchor="middle" x="212" y="-302.3" font-family="Times,serif" font-size="14.00">training.duration</text>
</g>
<!-- training.note&#45;&gt;training -->
<g id="edge14" class="edge">
<title>training.note&#45;&gt;training</title>
<path fill="none" stroke="black" d="M299.86,-321.85C252.88,-334.49 186.12,-352.47 141.72,-364.42"/>
<polygon fill="black" stroke="black" points="132.05,-367.02 140.54,-360.08 136.88,-365.72 141.71,-364.42 141.71,-364.42 141.71,-364.42 136.88,-365.72 142.88,-368.77 132.05,-367.02 132.05,-367.02"/>
</g>
<!-- training.note&#45;&gt;training.description -->
<g id="edge15" class="edge">
<title>training.note&#45;&gt;training.description</title>
<path fill="none" stroke="black" d="M404.4,-324.03C432.89,-333.86 468.89,-346.27 498.87,-356.61"/>
<polygon fill="black" stroke="black" points="508.38,-359.89 497.46,-360.88 503.65,-358.26 498.92,-356.63 498.92,-356.63 498.92,-356.63 503.65,-358.26 500.39,-352.38 508.38,-359.89 508.38,-359.89"/>
</g>
<!-- training.pause&#45;&gt;training -->
<g id="edge16" class="edge">
<title>training.pause&#45;&gt;training</title>
<path fill="none" stroke="black" d="M212.27,-252.11C181.05,-262.76 145.84,-276.55 134,-288 116.73,-304.7 106.6,-330.36 101.02,-349.84"/>
<polygon fill="black" stroke="black" points="98.43,-359.66 96.63,-348.85 99.71,-354.83 100.98,-349.99 100.98,-349.99 100.98,-349.99 99.71,-354.83 105.33,-351.14 98.43,-359.66 98.43,-359.66"/>
</g>
<!-- training.pause&#45;&gt;training.duration -->
<g id="edge17" class="edge">
<title>training.pause&#45;&gt;training.duration</title>
<path fill="none" stroke="black" d="M253.4,-252.3C246.88,-260.61 238.93,-270.72 231.75,-279.86"/>
<polygon fill="black" stroke="black" points="225.44,-287.9 228.08,-277.25 228.53,-283.96 231.62,-280.03 231.62,-280.03 231.62,-280.03 228.53,-283.96 235.16,-282.81 225.44,-287.9 225.44,-287.9"/>
</g>
<!-- training.pause&#45;&gt;training.note -->
<g id="edge18" class="edge">
<title>training.pause&#45;&gt;training.note</title>
<path fill="none" stroke="black" d="M288.75,-252.3C299.84,-261.12 313.47,-271.97 325.49,-281.53"/>
<polygon fill="black" stroke="black" points="333.5,-287.9 322.87,-285.19 329.58,-284.78 325.67,-281.67 325.67,-281.67 325.67,-281.67 329.58,-284.78 328.47,-278.15 333.5,-287.9 333.5,-287.9"/>
</g>
<!-- training.period -->
<g id="node9" class="node">
<title>training.period</title>
<polygon fill="none" stroke="black" points="608,-36 484,-36 484,0 608,0 608,-36"/>
<text text-anchor="middle" x="546" y="-14.3" font-family="Times,serif" font-size="14.00">training.period</text>
</g>
<!-- training.period&#45;&gt;training -->
<g id="edge19" class="edge">
<title>training.period&#45;&gt;training</title>
<path fill="none" stroke="black" d="M483.9,-22.05C340.79,-30.78 0,-61.95 0,-161 0,-161 0,-161 0,-235 0,-282.99 37.94,-327.04 65.87,-352.96"/>
<polygon fill="black" stroke="black" points="73.44,-359.78 63,-356.43 69.73,-356.43 66.01,-353.08 66.01,-353.08 66.01,-353.08 69.73,-356.43 69.02,-349.74 73.44,-359.78 73.44,-359.78"/>
</g>
<!-- training.period&#45;&gt;training.cycle -->
<g id="edge20" class="edge">
<title>training.period&#45;&gt;training.cycle</title>
<path fill="none" stroke="black" d="M508.82,-36.12C488.13,-45.65 462.2,-57.59 440.22,-67.72"/>
<polygon fill="black" stroke="black" points="431.06,-71.93 438.26,-63.66 435.6,-69.84 440.15,-67.75 440.15,-67.75 440.15,-67.75 435.6,-69.84 442.03,-71.84 431.06,-71.93 431.06,-71.93"/>
</g>
<!-- training.period&#45;&gt;training.description -->
<g id="edge21" class="edge">
<title>training.period&#45;&gt;training.description</title>
<path fill="none" stroke="black" d="M595.17,-36.02C645.38,-56.9 716,-97.55 716,-161 716,-161 716,-161 716,-235 716,-292.79 656.8,-333.04 610.87,-355.57"/>
<polygon fill="black" stroke="black" points="601.59,-359.97 608.7,-351.62 606.11,-357.83 610.63,-355.68 610.63,-355.68 610.63,-355.68 606.11,-357.83 612.56,-359.75 601.59,-359.97 601.59,-359.97"/>
</g>
<!-- training.period&#45;&gt;training.note -->
<g id="edge22" class="edge">
<title>training.period&#45;&gt;training.note</title>
<path fill="none" stroke="black" d="M561.35,-36.25C596.5,-77.87 675.72,-185.31 621,-252 596.09,-282.36 490.72,-295.66 420.31,-301.24"/>
<polygon fill="black" stroke="black" points="410.19,-302.01 419.82,-296.76 415.18,-301.63 420.16,-301.25 420.16,-301.25 420.16,-301.25 415.18,-301.63 420.5,-305.74 410.19,-302.01 410.19,-302.01"/>
</g>
<!-- training.period&#45;&gt;training.title -->
<g id="edge23" class="edge">
<title>training.period&#45;&gt;training.title</title>
<path fill="none" stroke="black" d="M549.11,-36.31C553.26,-60.37 560.38,-105.32 563,-144 564.08,-159.96 563.75,-164.02 563,-180 562.61,-188.34 561.87,-197.4 561.08,-205.63"/>
<polygon fill="black" stroke="black" points="560.03,-215.84 556.57,-205.44 560.54,-210.87 561.05,-205.9 561.05,-205.9 561.05,-205.9 560.54,-210.87 565.53,-206.35 560.03,-215.84 560.03,-215.84"/>
</g>
<!-- training.period&#45;&gt;training.unit -->
<g id="edge24" class="edge">
<title>training.period&#45;&gt;training.unit</title>
<path fill="none" stroke="black" d="M483.75,-27.58C438.96,-35.3 377.89,-49.04 328,-72 278.25,-94.89 270.11,-108.98 228,-144 203.34,-164.51 177.11,-189.99 158.81,-208.42"/>
<polygon fill="black" stroke="black" points="151.48,-215.86 155.3,-205.58 154.99,-212.3 158.5,-208.74 158.5,-208.74 158.5,-208.74 154.99,-212.3 161.71,-211.89 151.48,-215.86 151.48,-215.86"/>
</g>
<!-- training.training -->
<g id="node11" class="node">
<title>training.training</title>
<polygon fill="none" stroke="black" points="900.5,-36 765.5,-36 765.5,0 900.5,0 900.5,-36"/>
<text text-anchor="middle" x="833" y="-14.3" font-family="Times,serif" font-size="14.00">training.training</text>
</g>
<!-- training.unit&#45;&gt;training -->
<g id="edge25" class="edge">
<title>training.unit&#45;&gt;training</title>
<path fill="none" stroke="black" d="M120.11,-252.39C112.65,-262.18 104.3,-275.02 100,-288 93.4,-307.92 92.39,-331.72 92.9,-349.69"/>
<polygon fill="black" stroke="black" points="93.36,-359.78 88.41,-349.99 93.13,-354.78 92.9,-349.79 92.9,-349.79 92.9,-349.79 93.13,-354.78 97.4,-349.58 93.36,-359.78 93.36,-359.78"/>
</g>
<!-- training.unit&#45;&gt;training.note -->
<g id="edge26" class="edge">
<title>training.unit&#45;&gt;training.note</title>
<path fill="none" stroke="black" d="M188.54,-252.03C219.54,-261.9 258.76,-274.38 291.34,-284.75"/>
<polygon fill="black" stroke="black" points="301.22,-287.89 290.33,-289.15 296.46,-286.37 291.69,-284.86 291.69,-284.86 291.69,-284.86 296.46,-286.37 293.06,-280.57 301.22,-287.89 301.22,-287.89"/>
</g>
</g>
</svg>
