<?xml version="1.0" encoding="UTF-8" standalone="no"?>
<!DOCTYPE svg PUBLIC "-//W3C//DTD SVG 1.1//EN"
 "http://www.w3.org/Graphics/SVG/1.1/DTD/svg11.dtd">
<!-- Generated by graphviz version 2.43.0 (0)
 -->
<!-- Title: packages_training Pages: 1 -->
<svg width="909pt" height="404pt"
 viewBox="0.00 0.00 908.50 404.00" xmlns="http://www.w3.org/2000/svg" xmlns:xlink="http://www.w3.org/1999/xlink">
<g id="graph0" class="graph" transform="scale(1 1) rotate(0) translate(4 400)">
<title>packages_training</title>
<polygon fill="white" stroke="transparent" points="-4,4 -4,-400 904.5,-400 904.5,4 -4,4"/>
<!-- training -->
<g id="node1" class="node">
<title>training</title>
<polygon fill="none" stroke="black" points="211,-396 137,-396 137,-360 211,-360 211,-396"/>
<text text-anchor="middle" x="174" y="-374.3" font-family="Times,serif" font-size="14.00">training</text>
</g>
<!-- training.combination -->
<g id="node2" class="node">
<title>training.combination</title>
<polygon fill="none" stroke="black" points="533,-180 367,-180 367,-144 533,-144 533,-180"/>
<text text-anchor="middle" x="450" y="-158.3" font-family="Times,serif" font-size="14.00">training.combination</text>
</g>
<!-- training.combination&#45;&gt;training -->
<g id="edge1" class="edge">
<title>training.combination&#45;&gt;training</title>
<path fill="none" stroke="black" d="M452.24,-180.06C455.51,-212.78 457.5,-284.61 419,-324 391.99,-351.64 284.52,-366.44 221.25,-372.91"/>
<polygon fill="black" stroke="black" points="211.11,-373.91 220.62,-368.45 216.09,-373.42 221.06,-372.93 221.06,-372.93 221.06,-372.93 216.09,-373.42 221.51,-377.41 211.11,-373.91 211.11,-373.91"/>
</g>
<!-- training.description -->
<g id="node5" class="node">
<title>training.description</title>
<polygon fill="none" stroke="black" points="637,-396 479,-396 479,-360 637,-360 637,-396"/>
<text text-anchor="middle" x="558" y="-374.3" font-family="Times,serif" font-size="14.00">training.description</text>
</g>
<!-- training.combination&#45;&gt;training.description -->
<g id="edge2" class="edge">
<title>training.combination&#45;&gt;training.description</title>
<path fill="none" stroke="black" d="M458.66,-180.15C477.5,-217.48 522.32,-306.31 544.75,-350.74"/>
<polygon fill="black" stroke="black" points="549.3,-359.77 540.78,-352.87 547.05,-355.3 544.8,-350.84 544.8,-350.84 544.8,-350.84 547.05,-355.3 548.82,-348.81 549.3,-359.77 549.3,-359.77"/>
</g>
<!-- training.note -->
<g id="node7" class="node">
<title>training.note</title>
<polygon fill="none" stroke="black" points="410,-324 300,-324 300,-288 410,-288 410,-324"/>
<text text-anchor="middle" x="355" y="-302.3" font-family="Times,serif" font-size="14.00">training.note</text>
</g>
<!-- training.combination&#45;&gt;training.note -->
<g id="edge3" class="edge">
<title>training.combination&#45;&gt;training.note</title>
<path fill="none" stroke="black" d="M438.54,-180.13C421.99,-204.86 391.29,-250.76 372.07,-279.49"/>
<polygon fill="black" stroke="black" points="366.5,-287.81 368.32,-277 369.28,-283.65 372.06,-279.5 372.06,-279.5 372.06,-279.5 369.28,-283.65 375.8,-282 366.5,-287.81 366.5,-287.81"/>
</g>
<!-- training.pause -->
<g id="node8" class="node">
<title>training.pause</title>
<polygon fill="none" stroke="black" points="332,-252 212,-252 212,-216 332,-216 332,-252"/>
<text text-anchor="middle" x="272" y="-230.3" font-family="Times,serif" font-size="14.00">training.pause</text>
</g>
<!-- training.combination&#45;&gt;training.pause -->
<g id="edge4" class="edge">
<title>training.combination&#45;&gt;training.pause</title>
<path fill="none" stroke="black" d="M406.46,-180.12C381.8,-189.82 350.78,-202.02 324.75,-212.26"/>
<polygon fill="black" stroke="black" points="315.4,-215.93 323.06,-208.08 320.06,-214.1 324.71,-212.27 324.71,-212.27 324.71,-212.27 320.06,-214.1 326.36,-216.46 315.4,-215.93 315.4,-215.93"/>
</g>
<!-- training.title -->
<g id="node10" class="node">
<title>training.title</title>
<polygon fill="none" stroke="black" points="611.5,-252 504.5,-252 504.5,-216 611.5,-216 611.5,-252"/>
<text text-anchor="middle" x="558" y="-230.3" font-family="Times,serif" font-size="14.00">training.title</text>
</g>
<!-- training.combination&#45;&gt;training.title -->
<g id="edge5" class="edge">
<title>training.combination&#45;&gt;training.title</title>
<path fill="none" stroke="black" d="M476.42,-180.12C490.41,-189.19 507.78,-200.45 522.89,-210.24"/>
<polygon fill="black" stroke="black" points="531.48,-215.81 520.64,-214.15 527.28,-213.09 523.09,-210.37 523.09,-210.37 523.09,-210.37 527.28,-213.09 525.53,-206.6 531.48,-215.81 531.48,-215.81"/>
</g>
<!-- training.unit -->
<g id="node12" class="node">
<title>training.unit</title>
<polygon fill="none" stroke="black" points="193.5,-252 86.5,-252 86.5,-216 193.5,-216 193.5,-252"/>
<text text-anchor="middle" x="140" y="-230.3" font-family="Times,serif" font-size="14.00">training.unit</text>
</g>
<!-- training.combination&#45;&gt;training.unit -->
<g id="edge6" class="edge">
<title>training.combination&#45;&gt;training.unit</title>
<path fill="none" stroke="black" d="M366.86,-179.71C321.36,-189.12 263.8,-201.46 203.64,-215.91"/>
<polygon fill="black" stroke="black" points="193.57,-218.34 202.23,-211.62 198.43,-217.17 203.29,-215.99 203.29,-215.99 203.29,-215.99 198.43,-217.17 204.34,-220.37 193.57,-218.34 193.57,-218.34"/>
</g>
<!-- training.config -->
<g id="node3" class="node">
<title>training.config</title>
<polygon fill="none" stroke="black" points="747.5,-36 626.5,-36 626.5,0 747.5,0 747.5,-36"/>
<text text-anchor="middle" x="687" y="-14.3" font-family="Times,serif" font-size="14.00">training.config</text>
</g>
<!-- training.cycle -->
<g id="node4" class="node">
<title>training.cycle</title>
<polygon fill="none" stroke="black" points="451,-108 337,-108 337,-72 451,-72 451,-108"/>
<text text-anchor="middle" x="394" y="-86.3" font-family="Times,serif" font-size="14.00">training.cycle</text>
</g>
<!-- training.cycle&#45;&gt;training -->
<g id="edge7" class="edge">
<title>training.cycle&#45;&gt;training</title>
<path fill="none" stroke="black" d="M336.92,-94.3C261.9,-102.1 133.12,-128.3 77,-216 65.13,-234.55 78.57,-311.15 87,-324 96.82,-338.96 112.46,-350.37 127.79,-358.7"/>
<polygon fill="black" stroke="black" points="136.73,-363.25 125.78,-362.73 132.28,-360.99 127.82,-358.72 127.82,-358.72 127.82,-358.72 132.28,-360.99 129.86,-354.71 136.73,-363.25 136.73,-363.25"/>
</g>
<!-- training.cycle&#45;&gt;training.combination -->
<g id="edge8" class="edge">
<title>training.cycle&#45;&gt;training.combination</title>
<path fill="none" stroke="black" d="M407.84,-108.3C414.49,-116.61 422.58,-126.72 429.89,-135.86"/>
<polygon fill="black" stroke="black" points="436.32,-143.9 426.56,-138.9 433.19,-139.99 430.07,-136.09 430.07,-136.09 430.07,-136.09 433.19,-139.99 433.58,-133.28 436.32,-143.9 436.32,-143.9"/>
</g>
<!-- training.cycle&#45;&gt;training.description -->
<g id="edge9" class="edge">
<title>training.cycle&#45;&gt;training.description</title>
<path fill="none" stroke="black" d="M451.33,-100.25C485.91,-107.86 529.59,-121.23 563,-144 596.95,-167.14 607.33,-177.25 621,-216 638.14,-264.59 603.96,-320.41 579.59,-351.91"/>
<polygon fill="black" stroke="black" points="573.33,-359.75 576.05,-349.13 576.45,-355.84 579.57,-351.94 579.57,-351.94 579.57,-351.94 576.45,-355.84 583.09,-354.74 573.33,-359.75 573.33,-359.75"/>
</g>
<!-- training.cycle&#45;&gt;training.note -->
<g id="edge10" class="edge">
<title>training.cycle&#45;&gt;training.note</title>
<path fill="none" stroke="black" d="M378.49,-108.26C370.75,-118.01 362.18,-130.85 358,-144 343.7,-189 346.96,-244.71 350.84,-277.4"/>
<polygon fill="black" stroke="black" points="352.15,-287.56 346.41,-278.22 351.51,-282.6 350.87,-277.64 350.87,-277.64 350.87,-277.64 351.51,-282.6 355.33,-277.06 352.15,-287.56 352.15,-287.56"/>
</g>
<!-- training.cycle&#45;&gt;training.pause -->
<g id="edge11" class="edge">
<title>training.cycle&#45;&gt;training.pause</title>
<path fill="none" stroke="black" d="M367.14,-108.04C353.49,-117.54 337.24,-130.22 325,-144 308.22,-162.89 293.89,-187.85 284.38,-206.54"/>
<polygon fill="black" stroke="black" points="279.86,-215.67 280.26,-204.71 282.08,-211.19 284.3,-206.7 284.3,-206.7 284.3,-206.7 282.08,-211.19 288.33,-208.7 279.86,-215.67 279.86,-215.67"/>
</g>
<!-- training.cycle&#45;&gt;training.title -->
<g id="edge12" class="edge">
<title>training.cycle&#45;&gt;training.title</title>
<path fill="none" stroke="black" d="M451.07,-97.5C482.43,-104.08 519.43,-117.33 542,-144 556.38,-160.99 559.74,-186.45 559.87,-205.79"/>
<polygon fill="black" stroke="black" points="559.67,-215.82 555.38,-205.73 559.77,-210.82 559.87,-205.82 559.87,-205.82 559.87,-205.82 559.77,-210.82 564.37,-205.91 559.67,-215.82 559.67,-215.82"/>
</g>
<!-- training.cycle&#45;&gt;training.unit -->
<g id="edge13" class="edge">
<title>training.cycle&#45;&gt;training.unit</title>
<path fill="none" stroke="black" d="M362.48,-108.06C343.47,-118.39 318.8,-131.87 297,-144 256.51,-166.54 210.4,-192.74 178.68,-210.85"/>
<polygon fill="black" stroke="black" points="169.73,-215.96 176.18,-207.1 174.07,-213.48 178.41,-211 178.41,-211 178.41,-211 174.07,-213.48 180.64,-214.91 169.73,-215.96 169.73,-215.96"/>
</g>
<!-- training.duration -->
<g id="node6" class="node">
<title>training.duration</title>
<polygon fill="none" stroke="black" points="243.5,-324 104.5,-324 104.5,-288 243.5,-288 243.5,-324"/>
<text text-anchor="middle" x="174" y="-302.3" font-family="Times,serif" font-size="14.00">training.duration</text>
</g>
<!-- training.note&#45;&gt;training -->
<g id="edge14" class="edge">
<title>training.note&#45;&gt;training</title>
<path fill="none" stroke="black" d="M310.72,-324.12C283.39,-334.7 248.36,-348.24 220.6,-358.98"/>
<polygon fill="black" stroke="black" points="211.11,-362.65 218.81,-354.84 215.77,-360.84 220.44,-359.04 220.44,-359.04 220.44,-359.04 215.77,-360.84 222.06,-363.24 211.11,-362.65 211.11,-362.65"/>
</g>
<!-- training.note&#45;&gt;training.description -->
<g id="edge15" class="edge">
<title>training.note&#45;&gt;training.description</title>
<path fill="none" stroke="black" d="M404.4,-324.03C432.89,-333.86 468.89,-346.27 498.87,-356.61"/>
<polygon fill="black" stroke="black" points="508.38,-359.89 497.46,-360.88 503.65,-358.26 498.92,-356.63 498.92,-356.63 498.92,-356.63 503.65,-358.26 500.39,-352.38 508.38,-359.89 508.38,-359.89"/>
</g>
<!-- training.pause&#45;&gt;training -->
<g id="edge16" class="edge">
<title>training.pause&#45;&gt;training</title>
<path fill="none" stroke="black" d="M271.81,-252.21C270.81,-271.3 266.79,-302.27 252,-324 243.62,-336.32 231.34,-346.57 218.99,-354.68"/>
<polygon fill="black" stroke="black" points="210.48,-359.95 216.62,-350.86 214.73,-357.32 218.99,-354.68 218.99,-354.68 218.99,-354.68 214.73,-357.32 221.35,-358.51 210.48,-359.95 210.48,-359.95"/>
</g>
<!-- training.pause&#45;&gt;training.duration -->
<g id="edge17" class="edge">
<title>training.pause&#45;&gt;training.duration</title>
<path fill="none" stroke="black" d="M248.03,-252.12C235.45,-261.11 219.87,-272.24 206.25,-281.97"/>
<polygon fill="black" stroke="black" points="198.07,-287.81 203.59,-278.34 202.13,-284.9 206.2,-282 206.2,-282 206.2,-282 202.13,-284.9 208.82,-285.66 198.07,-287.81 198.07,-287.81"/>
</g>
<!-- training.pause&#45;&gt;training.note -->
<g id="edge18" class="edge">
<title>training.pause&#45;&gt;training.note</title>
<path fill="none" stroke="black" d="M292.52,-252.3C302.87,-261.03 315.59,-271.76 326.84,-281.25"/>
<polygon fill="black" stroke="black" points="334.72,-287.9 324.17,-284.89 330.9,-284.67 327.07,-281.45 327.07,-281.45 327.07,-281.45 330.9,-284.67 329.98,-278.01 334.72,-287.9 334.72,-287.9"/>
</g>
<!-- training.period -->
<g id="node9" class="node">
<title>training.period</title>
<polygon fill="none" stroke="black" points="608,-36 484,-36 484,0 608,0 608,-36"/>
<text text-anchor="middle" x="546" y="-14.3" font-family="Times,serif" font-size="14.00">training.period</text>
</g>
<!-- training.period&#45;&gt;training -->
<g id="edge19" class="edge">
<title>training.period&#45;&gt;training</title>
<path fill="none" stroke="black" d="M483.9,-22.05C340.79,-30.78 0,-61.95 0,-161 0,-161 0,-161 0,-235 0,-300.75 75.5,-341.49 127.03,-361.65"/>
<polygon fill="black" stroke="black" points="136.67,-365.29 125.73,-365.96 132,-363.52 127.32,-361.75 127.32,-361.75 127.32,-361.75 132,-363.52 128.91,-357.54 136.67,-365.29 136.67,-365.29"/>
</g>
<!-- training.period&#45;&gt;training.cycle -->
<g id="edge20" class="edge">
<title>training.period&#45;&gt;training.cycle</title>
<path fill="none" stroke="black" d="M508.82,-36.12C488.13,-45.65 462.2,-57.59 440.22,-67.72"/>
<polygon fill="black" stroke="black" points="431.06,-71.93 438.26,-63.66 435.6,-69.84 440.15,-67.75 440.15,-67.75 440.15,-67.75 435.6,-69.84 442.03,-71.84 431.06,-71.93 431.06,-71.93"/>
</g>
<!-- training.period&#45;&gt;training.description -->
<g id="edge21" class="edge">
<title>training.period&#45;&gt;training.description</title>
<path fill="none" stroke="black" d="M595.17,-36.02C645.38,-56.9 716,-97.55 716,-161 716,-161 716,-161 716,-235 716,-292.79 656.8,-333.04 610.87,-355.57"/>
<polygon fill="black" stroke="black" points="601.59,-359.97 608.7,-351.62 606.11,-357.83 610.63,-355.68 610.63,-355.68 610.63,-355.68 606.11,-357.83 612.56,-359.75 601.59,-359.97 601.59,-359.97"/>
</g>
<!-- training.period&#45;&gt;training.note -->
<g id="edge22" class="edge">
<title>training.period&#45;&gt;training.note</title>
<path fill="none" stroke="black" d="M561.35,-36.25C596.5,-77.87 675.72,-185.31 621,-252 596.09,-282.36 490.72,-295.66 420.31,-301.24"/>
<polygon fill="black" stroke="black" points="410.19,-302.01 419.82,-296.76 415.18,-301.63 420.16,-301.25 420.16,-301.25 420.16,-301.25 415.18,-301.63 420.5,-305.74 410.19,-302.01 410.19,-302.01"/>
</g>
<!-- training.period&#45;&gt;training.title -->
<g id="edge23" class="edge">
<title>training.period&#45;&gt;training.title</title>
<path fill="none" stroke="black" d="M549.11,-36.31C553.26,-60.37 560.38,-105.32 563,-144 564.08,-159.96 563.75,-164.02 563,-180 562.61,-188.34 561.87,-197.4 561.08,-205.63"/>
<polygon fill="black" stroke="black" points="560.03,-215.84 556.57,-205.44 560.54,-210.87 561.05,-205.9 561.05,-205.9 561.05,-205.9 560.54,-210.87 565.53,-206.35 560.03,-215.84 560.03,-215.84"/>
</g>
<!-- training.period&#45;&gt;training.unit -->
<g id="edge24" class="edge">
<title>training.period&#45;&gt;training.unit</title>
<path fill="none" stroke="black" d="M483.58,-27.21C438.7,-34.75 377.61,-48.43 328,-72 257.81,-105.34 192.98,-171.91 160.96,-208.13"/>
<polygon fill="black" stroke="black" points="154.27,-215.8 157.45,-205.31 157.55,-212.03 160.84,-208.26 160.84,-208.26 160.84,-208.26 157.55,-212.03 164.23,-211.22 154.27,-215.8 154.27,-215.8"/>
</g>
<!-- training.training -->
<g id="node11" class="node">
<title>training.training</title>
<polygon fill="none" stroke="black" points="900.5,-36 765.5,-36 765.5,0 900.5,0 900.5,-36"/>
<text text-anchor="middle" x="833" y="-14.3" font-family="Times,serif" font-size="14.00">training.training</text>
</g>
<!-- training.unit&#45;&gt;training -->
<g id="edge25" class="edge">
<title>training.unit&#45;&gt;training</title>
<path fill="none" stroke="black" d="M119.62,-252.47C110.19,-261.91 99.99,-274.4 95,-288 89.48,-303.02 87.47,-309.88 95,-324 102.26,-337.62 114.75,-348.35 127.67,-356.5"/>
<polygon fill="black" stroke="black" points="136.64,-361.73 125.73,-360.58 132.32,-359.21 128,-356.69 128,-356.69 128,-356.69 132.32,-359.21 130.27,-352.8 136.64,-361.73 136.64,-361.73"/>
</g>
<!-- training.unit&#45;&gt;training.duration -->
<g id="edge26" class="edge">
<title>training.unit&#45;&gt;training.duration</title>
<path fill="none" stroke="black" d="M148.4,-252.3C152.27,-260.27 156.95,-269.9 161.24,-278.74"/>
<polygon fill="black" stroke="black" points="165.69,-287.9 157.28,-280.87 163.51,-283.4 161.32,-278.9 161.32,-278.9 161.32,-278.9 163.51,-283.4 165.37,-276.93 165.69,-287.9 165.69,-287.9"/>
</g>
<!-- training.unit&#45;&gt;training.note -->
<g id="edge27" class="edge">
<title>training.unit&#45;&gt;training.note</title>
<path fill="none" stroke="black" d="M192.32,-252.03C222.62,-261.9 260.95,-274.38 292.79,-284.75"/>
<polygon fill="black" stroke="black" points="302.45,-287.89 291.54,-289.07 297.69,-286.34 292.94,-284.79 292.94,-284.79 292.94,-284.79 297.69,-286.34 294.33,-280.51 302.45,-287.89 302.45,-287.89"/>
</g>
</g>
</svg>
