<?xml version="1.0" encoding="UTF-8" standalone="no"?>
<!DOCTYPE svg PUBLIC "-//W3C//DTD SVG 1.1//EN"
 "http://www.w3.org/Graphics/SVG/1.1/DTD/svg11.dtd">
<!-- Generated by graphviz version 2.43.0 (0)
 -->
<!-- Title: packages_training Pages: 1 -->
<svg width="864pt" height="404pt"
 viewBox="0.00 0.00 863.50 404.00" xmlns="http://www.w3.org/2000/svg" xmlns:xlink="http://www.w3.org/1999/xlink">
<g id="graph0" class="graph" transform="scale(1 1) rotate(0) translate(4 400)">
<title>packages_training</title>
<polygon fill="white" stroke="transparent" points="-4,4 -4,-400 859.5,-400 859.5,4 -4,4"/>
<!-- training -->
<g id="node1" class="node">
<title>training</title>
<polygon fill="none" stroke="black" points="654,-396 580,-396 580,-360 654,-360 654,-396"/>
<text text-anchor="middle" x="617" y="-374.3" font-family="Times,serif" font-size="14.00">training</text>
</g>
<!-- training.combination -->
<g id="node2" class="node">
<title>training.combination</title>
<polygon fill="none" stroke="black" points="402,-180 236,-180 236,-144 402,-144 402,-180"/>
<text text-anchor="middle" x="319" y="-158.3" font-family="Times,serif" font-size="14.00">training.combination</text>
</g>
<!-- training.combination&#45;&gt;training -->
<g id="edge1" class="edge">
<title>training.combination&#45;&gt;training</title>
<path fill="none" stroke="black" d="M286.95,-180.12C273.88,-188.95 260.18,-201.03 253,-216 228.58,-266.93 270.4,-296.97 320,-324 400,-367.6 508.39,-376.42 569.67,-377.59"/>
<polygon fill="black" stroke="black" points="579.82,-377.72 569.76,-382.09 574.82,-377.66 569.82,-377.59 569.82,-377.59 569.82,-377.59 574.82,-377.66 569.88,-373.09 579.82,-377.72 579.82,-377.72"/>
</g>
<!-- training.description -->
<g id="node5" class="node">
<title>training.description</title>
<polygon fill="none" stroke="black" points="158,-396 0,-396 0,-360 158,-360 158,-396"/>
<text text-anchor="middle" x="79" y="-374.3" font-family="Times,serif" font-size="14.00">training.description</text>
</g>
<!-- training.combination&#45;&gt;training.description -->
<g id="edge2" class="edge">
<title>training.combination&#45;&gt;training.description</title>
<path fill="none" stroke="black" d="M268.42,-180.05C246.03,-188.89 220.06,-201.01 199,-216 148.77,-251.76 110.66,-314.96 91.91,-350.61"/>
<polygon fill="black" stroke="black" points="87.14,-359.89 87.71,-348.94 89.42,-355.44 91.71,-351 91.71,-351 91.71,-351 89.42,-355.44 95.71,-353.06 87.14,-359.89 87.14,-359.89"/>
</g>
<!-- training.duration -->
<g id="node6" class="node">
<title>training.duration</title>
<polygon fill="none" stroke="black" points="489.5,-324 350.5,-324 350.5,-288 489.5,-288 489.5,-324"/>
<text text-anchor="middle" x="420" y="-302.3" font-family="Times,serif" font-size="14.00">training.duration</text>
</g>
<!-- training.combination&#45;&gt;training.duration -->
<g id="edge3" class="edge">
<title>training.combination&#45;&gt;training.duration</title>
<path fill="none" stroke="black" d="M350.59,-180.12C364.68,-189.15 380.46,-201.41 391,-216 404.27,-234.37 411.68,-259.12 415.69,-277.86"/>
<polygon fill="black" stroke="black" points="417.62,-287.84 411.3,-278.88 416.67,-282.93 415.72,-278.03 415.72,-278.03 415.72,-278.03 416.67,-282.93 420.14,-277.17 417.62,-287.84 417.62,-287.84"/>
</g>
<!-- training.note -->
<g id="node7" class="node">
<title>training.note</title>
<polygon fill="none" stroke="black" points="251,-324 141,-324 141,-288 251,-288 251,-324"/>
<text text-anchor="middle" x="196" y="-302.3" font-family="Times,serif" font-size="14.00">training.note</text>
</g>
<!-- training.combination&#45;&gt;training.note -->
<g id="edge4" class="edge">
<title>training.combination&#45;&gt;training.note</title>
<path fill="none" stroke="black" d="M269.08,-180.08C251.32,-188.4 232.61,-200.12 220,-216 206.04,-233.57 200.17,-258.61 197.72,-277.65"/>
<polygon fill="black" stroke="black" points="196.66,-287.8 193.22,-277.38 197.18,-282.82 197.7,-277.85 197.7,-277.85 197.7,-277.85 197.18,-282.82 202.17,-278.32 196.66,-287.8 196.66,-287.8"/>
</g>
<!-- training.pause -->
<g id="node8" class="node">
<title>training.pause</title>
<polygon fill="none" stroke="black" points="382,-252 262,-252 262,-216 382,-216 382,-252"/>
<text text-anchor="middle" x="322" y="-230.3" font-family="Times,serif" font-size="14.00">training.pause</text>
</g>
<!-- training.combination&#45;&gt;training.pause -->
<g id="edge5" class="edge">
<title>training.combination&#45;&gt;training.pause</title>
<path fill="none" stroke="black" d="M319.74,-180.3C320.07,-188.02 320.47,-197.29 320.84,-205.89"/>
<polygon fill="black" stroke="black" points="321.27,-215.9 316.34,-206.1 321.05,-210.9 320.84,-205.9 320.84,-205.9 320.84,-205.9 321.05,-210.9 325.33,-205.71 321.27,-215.9 321.27,-215.9"/>
</g>
<!-- training.title -->
<g id="node11" class="node">
<title>training.title</title>
<polygon fill="none" stroke="black" points="545.5,-252 438.5,-252 438.5,-216 545.5,-216 545.5,-252"/>
<text text-anchor="middle" x="492" y="-230.3" font-family="Times,serif" font-size="14.00">training.title</text>
</g>
<!-- training.combination&#45;&gt;training.title -->
<g id="edge6" class="edge">
<title>training.combination&#45;&gt;training.title</title>
<path fill="none" stroke="black" d="M361.32,-180.12C385.18,-189.78 415.17,-201.91 440.4,-212.12"/>
<polygon fill="black" stroke="black" points="449.82,-215.93 438.86,-216.35 445.18,-214.06 440.55,-212.18 440.55,-212.18 440.55,-212.18 445.18,-214.06 442.23,-208.01 449.82,-215.93 449.82,-215.93"/>
</g>
<!-- training.unit -->
<g id="node13" class="node">
<title>training.unit</title>
<polygon fill="none" stroke="black" points="670.5,-252 563.5,-252 563.5,-216 670.5,-216 670.5,-252"/>
<text text-anchor="middle" x="617" y="-230.3" font-family="Times,serif" font-size="14.00">training.unit</text>
</g>
<!-- training.combination&#45;&gt;training.unit -->
<g id="edge7" class="edge">
<title>training.combination&#45;&gt;training.unit</title>
<path fill="none" stroke="black" d="M399.23,-180.04C442.49,-189.46 497.01,-201.7 553.46,-215.66"/>
<polygon fill="black" stroke="black" points="563.27,-218.1 552.48,-220.06 558.42,-216.9 553.57,-215.69 553.57,-215.69 553.57,-215.69 558.42,-216.9 554.65,-211.32 563.27,-218.1 563.27,-218.1"/>
</g>
<!-- training.config -->
<g id="node3" class="node">
<title>training.config</title>
<polygon fill="none" stroke="black" points="702.5,-36 581.5,-36 581.5,0 702.5,0 702.5,-36"/>
<text text-anchor="middle" x="642" y="-14.3" font-family="Times,serif" font-size="14.00">training.config</text>
</g>
<!-- training.cycle -->
<g id="node4" class="node">
<title>training.cycle</title>
<polygon fill="none" stroke="black" points="516,-108 402,-108 402,-72 516,-72 516,-108"/>
<text text-anchor="middle" x="459" y="-86.3" font-family="Times,serif" font-size="14.00">training.cycle</text>
</g>
<!-- training.cycle&#45;&gt;training -->
<g id="edge8" class="edge">
<title>training.cycle&#45;&gt;training</title>
<path fill="none" stroke="black" d="M493.39,-108.03C552.82,-137.82 669.45,-197.91 680,-216 706.35,-261.17 667.65,-319.44 640.24,-352.04"/>
<polygon fill="black" stroke="black" points="633.56,-359.76 636.7,-349.25 636.83,-355.98 640.11,-352.2 640.11,-352.2 640.11,-352.2 636.83,-355.98 643.51,-355.14 633.56,-359.76 633.56,-359.76"/>
</g>
<!-- training.cycle&#45;&gt;training.combination -->
<g id="edge9" class="edge">
<title>training.cycle&#45;&gt;training.combination</title>
<path fill="none" stroke="black" d="M424.75,-108.12C405.94,-117.53 382.42,-129.29 362.33,-139.33"/>
<polygon fill="black" stroke="black" points="353.38,-143.81 360.31,-135.31 357.85,-141.57 362.32,-139.34 362.32,-139.34 362.32,-139.34 357.85,-141.57 364.34,-143.36 353.38,-143.81 353.38,-143.81"/>
</g>
<!-- training.cycle&#45;&gt;training.description -->
<g id="edge10" class="edge">
<title>training.cycle&#45;&gt;training.description</title>
<path fill="none" stroke="black" d="M401.95,-97.44C335.72,-105.8 231.44,-121.96 199,-144 126.62,-193.18 95.26,-299.97 84.15,-350.05"/>
<polygon fill="black" stroke="black" points="82.07,-359.84 79.74,-349.12 83.11,-354.94 84.14,-350.05 84.14,-350.05 84.14,-350.05 83.11,-354.94 88.55,-350.99 82.07,-359.84 82.07,-359.84"/>
</g>
<!-- training.cycle&#45;&gt;training.note -->
<g id="edge11" class="edge">
<title>training.cycle&#45;&gt;training.note</title>
<path fill="none" stroke="black" d="M401.95,-97.85C341.99,-106.1 252.84,-121.69 227,-144 188.86,-176.93 188.64,-241.31 192.14,-277.89"/>
<polygon fill="black" stroke="black" points="193.25,-287.85 187.67,-278.41 192.7,-282.88 192.14,-277.92 192.14,-277.92 192.14,-277.92 192.7,-282.88 196.62,-277.42 193.25,-287.85 193.25,-287.85"/>
</g>
<!-- training.cycle&#45;&gt;training.pause -->
<g id="edge12" class="edge">
<title>training.cycle&#45;&gt;training.pause</title>
<path fill="none" stroke="black" d="M452.98,-108.12C445.53,-127.41 431.29,-158.83 411,-180 399.25,-192.26 384.07,-202.68 369.57,-210.96"/>
<polygon fill="black" stroke="black" points="360.68,-215.83 367.29,-207.08 365.06,-213.43 369.45,-211.03 369.45,-211.03 369.45,-211.03 365.06,-213.43 371.61,-214.97 360.68,-215.83 360.68,-215.83"/>
</g>
<!-- training.plot -->
<g id="node10" class="node">
<title>training.plot</title>
<polygon fill="none" stroke="black" points="754,-180 648,-180 648,-144 754,-144 754,-180"/>
<text text-anchor="middle" x="701" y="-158.3" font-family="Times,serif" font-size="14.00">training.plot</text>
</g>
<!-- training.cycle&#45;&gt;training.plot -->
<g id="edge13" class="edge">
<title>training.cycle&#45;&gt;training.plot</title>
<path fill="none" stroke="black" d="M516.04,-107.5C552.6,-118.08 600.09,-131.81 637.8,-142.72"/>
<polygon fill="black" stroke="black" points="647.65,-145.57 636.8,-147.11 642.85,-144.18 638.05,-142.79 638.05,-142.79 638.05,-142.79 642.85,-144.18 639.3,-138.47 647.65,-145.57 647.65,-145.57"/>
</g>
<!-- training.cycle&#45;&gt;training.title -->
<g id="edge14" class="edge">
<title>training.cycle&#45;&gt;training.title</title>
<path fill="none" stroke="black" d="M462.98,-108.13C468.63,-132.44 479.03,-177.18 485.72,-205.99"/>
<polygon fill="black" stroke="black" points="488.01,-215.81 481.36,-207.09 486.87,-210.94 485.74,-206.07 485.74,-206.07 485.74,-206.07 486.87,-210.94 490.12,-205.05 488.01,-215.81 488.01,-215.81"/>
</g>
<!-- training.cycle&#45;&gt;training.unit -->
<g id="edge15" class="edge">
<title>training.cycle&#45;&gt;training.unit</title>
<path fill="none" stroke="black" d="M478.06,-108.13C506.05,-133.29 558.41,-180.35 590.25,-208.96"/>
<polygon fill="black" stroke="black" points="597.87,-215.81 587.43,-212.47 594.16,-212.47 590.44,-209.13 590.44,-209.13 590.44,-209.13 594.16,-212.47 593.44,-205.78 597.87,-215.81 597.87,-215.81"/>
</g>
<!-- training.note&#45;&gt;training -->
<g id="edge16" class="edge">
<title>training.note&#45;&gt;training</title>
<path fill="none" stroke="black" d="M251.26,-321.09C255.9,-322.13 260.52,-323.11 265,-324 373.41,-345.47 502.11,-362.8 569.87,-371.31"/>
<polygon fill="black" stroke="black" points="579.81,-372.55 569.33,-375.77 574.85,-371.93 569.89,-371.31 569.89,-371.31 569.89,-371.31 574.85,-371.93 570.44,-366.84 579.81,-372.55 579.81,-372.55"/>
</g>
<!-- training.note&#45;&gt;training.description -->
<g id="edge17" class="edge">
<title>training.note&#45;&gt;training.description</title>
<path fill="none" stroke="black" d="M167.38,-324.12C152.08,-333.28 133.06,-344.66 116.58,-354.52"/>
<polygon fill="black" stroke="black" points="107.73,-359.81 114,-350.81 112.02,-357.24 116.31,-354.68 116.31,-354.68 116.31,-354.68 112.02,-357.24 118.62,-358.54 107.73,-359.81 107.73,-359.81"/>
</g>
<!-- training.pause&#45;&gt;training -->
<g id="edge18" class="edge">
<title>training.pause&#45;&gt;training</title>
<path fill="none" stroke="black" d="M320.5,-252.02C319.73,-272.12 321.81,-305.2 341,-324 372.79,-355.14 499.37,-368.81 569.55,-374.1"/>
<polygon fill="black" stroke="black" points="579.89,-374.85 569.59,-378.61 574.9,-374.48 569.91,-374.12 569.91,-374.12 569.91,-374.12 574.9,-374.48 570.24,-369.64 579.89,-374.85 579.89,-374.85"/>
</g>
<!-- training.pause&#45;&gt;training.duration -->
<g id="edge19" class="edge">
<title>training.pause&#45;&gt;training.duration</title>
<path fill="none" stroke="black" d="M345.97,-252.12C358.55,-261.11 374.13,-272.24 387.75,-281.97"/>
<polygon fill="black" stroke="black" points="395.93,-287.81 385.18,-285.66 391.87,-284.9 387.8,-282 387.8,-282 387.8,-282 391.87,-284.9 390.41,-278.34 395.93,-287.81 395.93,-287.81"/>
</g>
<!-- training.pause&#45;&gt;training.note -->
<g id="edge20" class="edge">
<title>training.pause&#45;&gt;training.note</title>
<path fill="none" stroke="black" d="M291.18,-252.12C274.55,-261.36 253.84,-272.87 235.98,-282.79"/>
<polygon fill="black" stroke="black" points="226.94,-287.81 233.5,-279.02 231.31,-285.38 235.68,-282.95 235.68,-282.95 235.68,-282.95 231.31,-285.38 237.87,-286.89 226.94,-287.81 226.94,-287.81"/>
</g>
<!-- training.period -->
<g id="node9" class="node">
<title>training.period</title>
<polygon fill="none" stroke="black" points="563,-36 439,-36 439,0 563,0 563,-36"/>
<text text-anchor="middle" x="501" y="-14.3" font-family="Times,serif" font-size="14.00">training.period</text>
</g>
<!-- training.period&#45;&gt;training -->
<g id="edge21" class="edge">
<title>training.period&#45;&gt;training</title>
<path fill="none" stroke="black" d="M563.2,-34.25C594.39,-43.12 632.19,-55.78 664,-72 712.47,-96.72 720.67,-109.82 763,-144 771.82,-151.12 782,-149.67 782,-161 782,-161 782,-161 782,-235 782,-280.37 765.34,-293.23 732,-324 712.64,-341.87 686.19,-354.63 663.54,-363.14"/>
<polygon fill="black" stroke="black" points="654.1,-366.53 661.99,-358.92 658.81,-364.84 663.51,-363.15 663.51,-363.15 663.51,-363.15 658.81,-364.84 665.03,-367.39 654.1,-366.53 654.1,-366.53"/>
</g>
<!-- training.period&#45;&gt;training.combination -->
<g id="edge22" class="edge">
<title>training.period&#45;&gt;training.combination</title>
<path fill="none" stroke="black" d="M455.98,-36.01C435.59,-44.94 411.88,-57.15 393,-72 370.13,-90 349.45,-116.11 335.81,-135.4"/>
<polygon fill="black" stroke="black" points="330.05,-143.73 332.04,-132.95 332.89,-139.62 335.74,-135.51 335.74,-135.51 335.74,-135.51 332.89,-139.62 339.44,-138.07 330.05,-143.73 330.05,-143.73"/>
</g>
<!-- training.period&#45;&gt;training.cycle -->
<g id="edge23" class="edge">
<title>training.period&#45;&gt;training.cycle</title>
<path fill="none" stroke="black" d="M490.62,-36.3C485.74,-44.44 479.81,-54.31 474.42,-63.3"/>
<polygon fill="black" stroke="black" points="469.26,-71.9 470.55,-61.01 471.84,-67.61 474.41,-63.32 474.41,-63.32 474.41,-63.32 471.84,-67.61 478.27,-65.64 469.26,-71.9 469.26,-71.9"/>
</g>
<!-- training.period&#45;&gt;training.description -->
<g id="edge24" class="edge">
<title>training.period&#45;&gt;training.description</title>
<path fill="none" stroke="black" d="M438.81,-23.71C305.86,-35.49 6,-71.93 6,-161 6,-161 6,-161 6,-235 6,-279.97 35.31,-324.96 56.79,-351.9"/>
<polygon fill="black" stroke="black" points="63.16,-359.65 53.34,-354.78 59.99,-355.79 56.81,-351.93 56.81,-351.93 56.81,-351.93 59.99,-355.79 60.29,-349.07 63.16,-359.65 63.16,-359.65"/>
</g>
<!-- training.period&#45;&gt;training.note -->
<g id="edge25" class="edge">
<title>training.period&#45;&gt;training.note</title>
<path fill="none" stroke="black" d="M438.94,-26.27C368.75,-38.01 256.73,-68.14 199,-144 169.54,-182.71 178.74,-243.18 187.66,-277.94"/>
<polygon fill="black" stroke="black" points="190.37,-287.85 183.39,-279.4 189.05,-283.03 187.73,-278.21 187.73,-278.21 187.73,-278.21 189.05,-283.03 192.07,-277.02 190.37,-287.85 190.37,-287.85"/>
</g>
<!-- training.period&#45;&gt;training.plot -->
<g id="edge26" class="edge">
<title>training.period&#45;&gt;training.plot</title>
<path fill="none" stroke="black" d="M563.25,-35.91C586.91,-44.28 613.16,-56.08 634,-72 656.29,-89.03 674.83,-115.33 686.71,-134.93"/>
<polygon fill="black" stroke="black" points="691.84,-143.67 682.9,-137.33 689.31,-139.36 686.78,-135.05 686.78,-135.05 686.78,-135.05 689.31,-139.36 690.66,-132.77 691.84,-143.67 691.84,-143.67"/>
</g>
<!-- training.period&#45;&gt;training.title -->
<g id="edge27" class="edge">
<title>training.period&#45;&gt;training.title</title>
<path fill="none" stroke="black" d="M510.95,-36.02C516.27,-46.11 522.27,-59.36 525,-72 535.16,-119.06 517.59,-174.03 504.43,-206.04"/>
<polygon fill="black" stroke="black" points="500.35,-215.58 500.14,-204.62 502.32,-210.98 504.28,-206.39 504.28,-206.39 504.28,-206.39 502.32,-210.98 508.42,-208.15 500.35,-215.58 500.35,-215.58"/>
</g>
<!-- training.period&#45;&gt;training.unit -->
<g id="edge28" class="edge">
<title>training.period&#45;&gt;training.unit</title>
<path fill="none" stroke="black" d="M514.86,-36.09C522.73,-46.21 532.48,-59.46 540,-72 567.15,-117.27 592.27,-173.59 606.03,-206.21"/>
<polygon fill="black" stroke="black" points="609.93,-215.53 601.92,-208.04 608,-210.92 606.07,-206.3 606.07,-206.3 606.07,-206.3 608,-210.92 610.22,-204.57 609.93,-215.53 609.93,-215.53"/>
</g>
<!-- training.plot&#45;&gt;training -->
<g id="edge29" class="edge">
<title>training.plot&#45;&gt;training</title>
<path fill="none" stroke="black" d="M708.38,-180.44C720.35,-211.67 740.07,-278.14 713,-324 702.16,-342.37 682.41,-354.82 663.63,-363"/>
<polygon fill="black" stroke="black" points="654.25,-366.79 661.83,-358.88 658.88,-364.92 663.52,-363.05 663.52,-363.05 663.52,-363.05 658.88,-364.92 665.2,-367.22 654.25,-366.79 654.25,-366.79"/>
</g>
<!-- training.training -->
<g id="node12" class="node">
<title>training.training</title>
<polygon fill="none" stroke="black" points="855.5,-36 720.5,-36 720.5,0 855.5,0 855.5,-36"/>
<text text-anchor="middle" x="788" y="-14.3" font-family="Times,serif" font-size="14.00">training.training</text>
</g>
<!-- training.unit&#45;&gt;training -->
<g id="edge30" class="edge">
<title>training.unit&#45;&gt;training</title>
<path fill="none" stroke="black" d="M617,-252.13C617,-276.33 617,-320.79 617,-349.61"/>
<polygon fill="black" stroke="black" points="617,-359.81 612.5,-349.81 617,-354.81 617,-349.81 617,-349.81 617,-349.81 617,-354.81 621.5,-349.81 617,-359.81 617,-359.81"/>
</g>
<!-- training.unit&#45;&gt;training.duration -->
<g id="edge31" class="edge">
<title>training.unit&#45;&gt;training.duration</title>
<path fill="none" stroke="black" d="M569.06,-252.03C541.53,-261.81 506.78,-274.16 477.76,-284.48"/>
<polygon fill="black" stroke="black" points="468.15,-287.89 476.07,-280.3 472.87,-286.22 477.58,-284.54 477.58,-284.54 477.58,-284.54 472.87,-286.22 479.08,-288.78 468.15,-287.89 468.15,-287.89"/>
</g>
<!-- training.unit&#45;&gt;training.note -->
<g id="edge32" class="edge">
<title>training.unit&#45;&gt;training.note</title>
<path fill="none" stroke="black" d="M563.33,-250.14C560.52,-250.8 557.73,-251.43 555,-252 453.34,-273.36 333.7,-289.19 261.42,-297.76"/>
<polygon fill="black" stroke="black" points="251.1,-298.97 260.51,-293.33 256.07,-298.38 261.04,-297.8 261.04,-297.8 261.04,-297.8 256.07,-298.38 261.56,-302.27 251.1,-298.97 251.1,-298.97"/>
</g>
</g>
</svg>
